%TF.GenerationSoftware,KiCad,Pcbnew,(6.0.1)*%
%TF.CreationDate,2022-02-16T12:20:19+01:00*%
%TF.ProjectId,KiCad_PCB,4b694361-645f-4504-9342-2e6b69636164,rev?*%
%TF.SameCoordinates,Original*%
%TF.FileFunction,Soldermask,Top*%
%TF.FilePolarity,Negative*%
%FSLAX46Y46*%
G04 Gerber Fmt 4.6, Leading zero omitted, Abs format (unit mm)*
G04 Created by KiCad (PCBNEW (6.0.1)) date 2022-02-16 12:20:19*
%MOMM*%
%LPD*%
G01*
G04 APERTURE LIST*
G04 Aperture macros list*
%AMRoundRect*
0 Rectangle with rounded corners*
0 $1 Rounding radius*
0 $2 $3 $4 $5 $6 $7 $8 $9 X,Y pos of 4 corners*
0 Add a 4 corners polygon primitive as box body*
4,1,4,$2,$3,$4,$5,$6,$7,$8,$9,$2,$3,0*
0 Add four circle primitives for the rounded corners*
1,1,$1+$1,$2,$3*
1,1,$1+$1,$4,$5*
1,1,$1+$1,$6,$7*
1,1,$1+$1,$8,$9*
0 Add four rect primitives between the rounded corners*
20,1,$1+$1,$2,$3,$4,$5,0*
20,1,$1+$1,$4,$5,$6,$7,0*
20,1,$1+$1,$6,$7,$8,$9,0*
20,1,$1+$1,$8,$9,$2,$3,0*%
G04 Aperture macros list end*
%ADD10C,0.010000*%
%ADD11C,0.700000*%
%ADD12R,0.250000X0.900000*%
%ADD13O,1.400000X0.700000*%
%ADD14O,0.750000X1.500000*%
%ADD15RoundRect,0.250000X-0.250000X-0.475000X0.250000X-0.475000X0.250000X0.475000X-0.250000X0.475000X0*%
%ADD16RoundRect,0.250000X0.512652X0.159099X0.159099X0.512652X-0.512652X-0.159099X-0.159099X-0.512652X0*%
%ADD17RoundRect,0.250000X0.250000X0.475000X-0.250000X0.475000X-0.250000X-0.475000X0.250000X-0.475000X0*%
%ADD18RoundRect,0.218750X0.381250X-0.218750X0.381250X0.218750X-0.381250X0.218750X-0.381250X-0.218750X0*%
%ADD19R,1.700000X1.700000*%
%ADD20O,1.700000X1.700000*%
%ADD21R,1.981200X0.533400*%
%ADD22R,0.600000X1.100000*%
%ADD23C,2.000000*%
%ADD24R,1.500000X1.590000*%
%ADD25RoundRect,0.250000X0.262500X0.450000X-0.262500X0.450000X-0.262500X-0.450000X0.262500X-0.450000X0*%
%ADD26RoundRect,0.250000X-0.475000X0.250000X-0.475000X-0.250000X0.475000X-0.250000X0.475000X0.250000X0*%
%ADD27RoundRect,0.218750X-0.218750X-0.381250X0.218750X-0.381250X0.218750X0.381250X-0.218750X0.381250X0*%
%ADD28RoundRect,0.250000X0.475000X-0.250000X0.475000X0.250000X-0.475000X0.250000X-0.475000X-0.250000X0*%
%ADD29R,1.700000X1.000000*%
%ADD30R,0.800000X1.600000*%
%ADD31R,0.800000X1.700000*%
%ADD32R,1.300000X1.100000*%
%ADD33RoundRect,1.058000X-1.242000X-1.242000X1.242000X-1.242000X1.242000X1.242000X-1.242000X1.242000X0*%
%ADD34RoundRect,0.250000X-0.262500X-0.450000X0.262500X-0.450000X0.262500X0.450000X-0.262500X0.450000X0*%
%ADD35RoundRect,0.218750X-0.424264X-0.114905X-0.114905X-0.424264X0.424264X0.114905X0.114905X0.424264X0*%
G04 APERTURE END LIST*
%TO.C,J2*%
G36*
X128621000Y-100177000D02*
G01*
X128646000Y-100179000D01*
X128671000Y-100182000D01*
X128695000Y-100186000D01*
X128719000Y-100192000D01*
X128743000Y-100199000D01*
X128767000Y-100208000D01*
X128789000Y-100217000D01*
X128812000Y-100228000D01*
X128834000Y-100240000D01*
X128855000Y-100253000D01*
X128875000Y-100267000D01*
X128895000Y-100282000D01*
X128914000Y-100298000D01*
X128932000Y-100315000D01*
X128949000Y-100333000D01*
X128965000Y-100352000D01*
X128980000Y-100372000D01*
X128994000Y-100392000D01*
X129007000Y-100413000D01*
X129019000Y-100435000D01*
X129030000Y-100458000D01*
X129039000Y-100480000D01*
X129048000Y-100504000D01*
X129055000Y-100528000D01*
X129061000Y-100552000D01*
X129065000Y-100576000D01*
X129068000Y-100601000D01*
X129070000Y-100626000D01*
X129071000Y-100651000D01*
X129071000Y-102318000D01*
X129070000Y-102343000D01*
X129068000Y-102368000D01*
X129065000Y-102393000D01*
X129061000Y-102417000D01*
X129055000Y-102442000D01*
X129048000Y-102465000D01*
X129039000Y-102489000D01*
X129030000Y-102512000D01*
X129019000Y-102534000D01*
X129007000Y-102556000D01*
X128994000Y-102577000D01*
X128980000Y-102598000D01*
X128965000Y-102618000D01*
X128949000Y-102637000D01*
X128932000Y-102655000D01*
X128914000Y-102672000D01*
X128895000Y-102688000D01*
X128875000Y-102703000D01*
X128854000Y-102717000D01*
X128833000Y-102730000D01*
X128811000Y-102742000D01*
X128789000Y-102753000D01*
X128766000Y-102762000D01*
X128742000Y-102771000D01*
X128719000Y-102778000D01*
X128694000Y-102784000D01*
X128670000Y-102788000D01*
X128645000Y-102791000D01*
X128620000Y-102793000D01*
X128596000Y-102794000D01*
X128571000Y-102793000D01*
X128546000Y-102791000D01*
X128522000Y-102788000D01*
X128497000Y-102784000D01*
X128473000Y-102778000D01*
X128449000Y-102771000D01*
X128403000Y-102753000D01*
X128380000Y-102742000D01*
X128359000Y-102730000D01*
X128337000Y-102717000D01*
X128317000Y-102703000D01*
X128297000Y-102688000D01*
X128278000Y-102672000D01*
X128260000Y-102655000D01*
X128243000Y-102637000D01*
X128227000Y-102618000D01*
X128212000Y-102598000D01*
X128198000Y-102578000D01*
X128185000Y-102557000D01*
X128173000Y-102535000D01*
X128162000Y-102512000D01*
X128144000Y-102466000D01*
X128137000Y-102442000D01*
X128131000Y-102418000D01*
X128127000Y-102393000D01*
X128124000Y-102369000D01*
X128122000Y-102344000D01*
X128121000Y-102319000D01*
X128121000Y-100652000D01*
X128122000Y-100627000D01*
X128124000Y-100602000D01*
X128127000Y-100578000D01*
X128131000Y-100553000D01*
X128137000Y-100529000D01*
X128144000Y-100505000D01*
X128153000Y-100481000D01*
X128162000Y-100458000D01*
X128173000Y-100436000D01*
X128185000Y-100414000D01*
X128198000Y-100393000D01*
X128212000Y-100372000D01*
X128227000Y-100352000D01*
X128243000Y-100333000D01*
X128260000Y-100315000D01*
X128278000Y-100298000D01*
X128297000Y-100282000D01*
X128317000Y-100267000D01*
X128338000Y-100253000D01*
X128359000Y-100240000D01*
X128381000Y-100228000D01*
X128403000Y-100217000D01*
X128426000Y-100208000D01*
X128450000Y-100199000D01*
X128474000Y-100192000D01*
X128498000Y-100186000D01*
X128523000Y-100182000D01*
X128547000Y-100179000D01*
X128572000Y-100177000D01*
X128597000Y-100176000D01*
X128621000Y-100177000D01*
G37*
G36*
X137622000Y-100177000D02*
G01*
X137647000Y-100179000D01*
X137671000Y-100182000D01*
X137696000Y-100186000D01*
X137720000Y-100192000D01*
X137744000Y-100199000D01*
X137790000Y-100217000D01*
X137813000Y-100228000D01*
X137835000Y-100240000D01*
X137856000Y-100253000D01*
X137876000Y-100267000D01*
X137896000Y-100282000D01*
X137915000Y-100298000D01*
X137933000Y-100315000D01*
X137950000Y-100333000D01*
X137966000Y-100352000D01*
X137981000Y-100372000D01*
X137995000Y-100392000D01*
X138008000Y-100414000D01*
X138020000Y-100435000D01*
X138031000Y-100458000D01*
X138049000Y-100504000D01*
X138056000Y-100528000D01*
X138062000Y-100552000D01*
X138066000Y-100577000D01*
X138069000Y-100601000D01*
X138071000Y-100626000D01*
X138072000Y-100651000D01*
X138072000Y-102318000D01*
X138071000Y-102343000D01*
X138069000Y-102368000D01*
X138066000Y-102392000D01*
X138062000Y-102417000D01*
X138056000Y-102441000D01*
X138049000Y-102465000D01*
X138040000Y-102489000D01*
X138031000Y-102512000D01*
X138020000Y-102534000D01*
X138008000Y-102556000D01*
X137995000Y-102577000D01*
X137981000Y-102598000D01*
X137966000Y-102618000D01*
X137950000Y-102637000D01*
X137933000Y-102655000D01*
X137915000Y-102672000D01*
X137896000Y-102688000D01*
X137876000Y-102703000D01*
X137855000Y-102717000D01*
X137834000Y-102730000D01*
X137812000Y-102742000D01*
X137790000Y-102753000D01*
X137767000Y-102762000D01*
X137743000Y-102771000D01*
X137719000Y-102778000D01*
X137695000Y-102784000D01*
X137670000Y-102788000D01*
X137646000Y-102791000D01*
X137621000Y-102793000D01*
X137596000Y-102794000D01*
X137571000Y-102793000D01*
X137546000Y-102791000D01*
X137522000Y-102788000D01*
X137497000Y-102784000D01*
X137473000Y-102778000D01*
X137449000Y-102771000D01*
X137403000Y-102753000D01*
X137380000Y-102742000D01*
X137359000Y-102730000D01*
X137337000Y-102717000D01*
X137317000Y-102703000D01*
X137297000Y-102688000D01*
X137278000Y-102672000D01*
X137260000Y-102655000D01*
X137243000Y-102637000D01*
X137227000Y-102618000D01*
X137212000Y-102598000D01*
X137198000Y-102578000D01*
X137185000Y-102557000D01*
X137173000Y-102535000D01*
X137162000Y-102512000D01*
X137144000Y-102466000D01*
X137137000Y-102442000D01*
X137131000Y-102418000D01*
X137127000Y-102393000D01*
X137124000Y-102369000D01*
X137122000Y-102344000D01*
X137121000Y-102319000D01*
X137121000Y-100652000D01*
X137122000Y-100627000D01*
X137124000Y-100602000D01*
X137127000Y-100578000D01*
X137131000Y-100553000D01*
X137137000Y-100529000D01*
X137144000Y-100505000D01*
X137153000Y-100481000D01*
X137162000Y-100458000D01*
X137173000Y-100436000D01*
X137185000Y-100414000D01*
X137198000Y-100393000D01*
X137212000Y-100372000D01*
X137227000Y-100352000D01*
X137243000Y-100333000D01*
X137260000Y-100315000D01*
X137278000Y-100298000D01*
X137297000Y-100282000D01*
X137317000Y-100267000D01*
X137338000Y-100253000D01*
X137359000Y-100240000D01*
X137381000Y-100228000D01*
X137403000Y-100217000D01*
X137426000Y-100208000D01*
X137450000Y-100199000D01*
X137474000Y-100192000D01*
X137498000Y-100186000D01*
X137523000Y-100182000D01*
X137547000Y-100179000D01*
X137572000Y-100177000D01*
X137597000Y-100176000D01*
X137622000Y-100177000D01*
G37*
G36*
X136961000Y-97395000D02*
G01*
X136995000Y-97398000D01*
X137029000Y-97402000D01*
X137062000Y-97408000D01*
X137095000Y-97416000D01*
X137128000Y-97426000D01*
X137160000Y-97437000D01*
X137191000Y-97450000D01*
X137222000Y-97465000D01*
X137252000Y-97481000D01*
X137280000Y-97499000D01*
X137308000Y-97518000D01*
X137335000Y-97539000D01*
X137361000Y-97561000D01*
X137386000Y-97584000D01*
X137409000Y-97609000D01*
X137431000Y-97635000D01*
X137452000Y-97662000D01*
X137471000Y-97690000D01*
X137489000Y-97718000D01*
X137505000Y-97748000D01*
X137520000Y-97779000D01*
X137533000Y-97810000D01*
X137544000Y-97842000D01*
X137554000Y-97875000D01*
X137562000Y-97908000D01*
X137568000Y-97941000D01*
X137572000Y-97975000D01*
X137575000Y-98009000D01*
X137576000Y-98047000D01*
X137575000Y-98081000D01*
X137572000Y-98115000D01*
X137568000Y-98149000D01*
X137562000Y-98182000D01*
X137554000Y-98215000D01*
X137544000Y-98247000D01*
X137533000Y-98279000D01*
X137520000Y-98310000D01*
X137506000Y-98341000D01*
X137489000Y-98371000D01*
X137472000Y-98400000D01*
X137453000Y-98428000D01*
X137432000Y-98454000D01*
X137410000Y-98480000D01*
X137387000Y-98505000D01*
X137362000Y-98528000D01*
X137336000Y-98550000D01*
X137310000Y-98571000D01*
X137282000Y-98590000D01*
X137253000Y-98607000D01*
X137223000Y-98624000D01*
X137192000Y-98638000D01*
X137161000Y-98651000D01*
X137129000Y-98662000D01*
X137097000Y-98672000D01*
X137064000Y-98680000D01*
X137031000Y-98686000D01*
X136997000Y-98690000D01*
X136963000Y-98693000D01*
X136930000Y-98694000D01*
X136820000Y-98694000D01*
X136782000Y-98693000D01*
X136748000Y-98690000D01*
X136714000Y-98686000D01*
X136681000Y-98680000D01*
X136648000Y-98672000D01*
X136615000Y-98662000D01*
X136583000Y-98651000D01*
X136552000Y-98638000D01*
X136521000Y-98623000D01*
X136491000Y-98607000D01*
X136462000Y-98589000D01*
X136434000Y-98570000D01*
X136407000Y-98549000D01*
X136381000Y-98527000D01*
X136356000Y-98504000D01*
X136333000Y-98479000D01*
X136311000Y-98453000D01*
X136290000Y-98426000D01*
X136271000Y-98398000D01*
X136253000Y-98369000D01*
X136237000Y-98339000D01*
X136222000Y-98308000D01*
X136209000Y-98277000D01*
X136198000Y-98245000D01*
X136188000Y-98212000D01*
X136180000Y-98179000D01*
X136174000Y-98146000D01*
X136170000Y-98112000D01*
X136167000Y-98078000D01*
X136166000Y-98048000D01*
X136166000Y-98047000D01*
X136167000Y-98013000D01*
X136170000Y-97979000D01*
X136174000Y-97945000D01*
X136180000Y-97912000D01*
X136188000Y-97878000D01*
X136198000Y-97846000D01*
X136209000Y-97813000D01*
X136222000Y-97782000D01*
X136237000Y-97751000D01*
X136254000Y-97721000D01*
X136271000Y-97692000D01*
X136291000Y-97663000D01*
X136312000Y-97636000D01*
X136334000Y-97610000D01*
X136357000Y-97585000D01*
X136382000Y-97562000D01*
X136408000Y-97540000D01*
X136435000Y-97519000D01*
X136464000Y-97499000D01*
X136493000Y-97482000D01*
X136523000Y-97465000D01*
X136554000Y-97450000D01*
X136585000Y-97437000D01*
X136618000Y-97426000D01*
X136650000Y-97416000D01*
X136684000Y-97408000D01*
X136717000Y-97402000D01*
X136751000Y-97398000D01*
X136785000Y-97395000D01*
X136820000Y-97394000D01*
X136931000Y-97394000D01*
X136961000Y-97395000D01*
G37*
G36*
X129411000Y-97395000D02*
G01*
X129445000Y-97398000D01*
X129479000Y-97402000D01*
X129512000Y-97408000D01*
X129545000Y-97416000D01*
X129578000Y-97426000D01*
X129610000Y-97437000D01*
X129641000Y-97450000D01*
X129672000Y-97465000D01*
X129702000Y-97481000D01*
X129730000Y-97499000D01*
X129758000Y-97518000D01*
X129785000Y-97539000D01*
X129811000Y-97561000D01*
X129836000Y-97584000D01*
X129859000Y-97609000D01*
X129881000Y-97635000D01*
X129902000Y-97662000D01*
X129921000Y-97690000D01*
X129939000Y-97718000D01*
X129955000Y-97748000D01*
X129970000Y-97779000D01*
X129983000Y-97810000D01*
X129994000Y-97842000D01*
X130004000Y-97875000D01*
X130012000Y-97908000D01*
X130018000Y-97941000D01*
X130022000Y-97975000D01*
X130025000Y-98009000D01*
X130026000Y-98047000D01*
X130025000Y-98081000D01*
X130022000Y-98115000D01*
X130018000Y-98149000D01*
X130012000Y-98182000D01*
X130004000Y-98215000D01*
X129994000Y-98247000D01*
X129983000Y-98279000D01*
X129970000Y-98310000D01*
X129956000Y-98341000D01*
X129939000Y-98371000D01*
X129922000Y-98400000D01*
X129903000Y-98428000D01*
X129882000Y-98454000D01*
X129860000Y-98480000D01*
X129837000Y-98505000D01*
X129812000Y-98528000D01*
X129786000Y-98550000D01*
X129760000Y-98571000D01*
X129732000Y-98590000D01*
X129703000Y-98607000D01*
X129673000Y-98624000D01*
X129642000Y-98638000D01*
X129611000Y-98651000D01*
X129579000Y-98662000D01*
X129547000Y-98672000D01*
X129514000Y-98680000D01*
X129481000Y-98686000D01*
X129447000Y-98690000D01*
X129413000Y-98693000D01*
X129380000Y-98694000D01*
X129270000Y-98694000D01*
X129232000Y-98693000D01*
X129198000Y-98690000D01*
X129164000Y-98686000D01*
X129131000Y-98680000D01*
X129098000Y-98672000D01*
X129065000Y-98662000D01*
X129033000Y-98651000D01*
X129002000Y-98638000D01*
X128971000Y-98623000D01*
X128941000Y-98607000D01*
X128912000Y-98589000D01*
X128884000Y-98570000D01*
X128857000Y-98549000D01*
X128831000Y-98527000D01*
X128806000Y-98504000D01*
X128783000Y-98479000D01*
X128761000Y-98453000D01*
X128740000Y-98426000D01*
X128721000Y-98398000D01*
X128703000Y-98369000D01*
X128687000Y-98339000D01*
X128672000Y-98308000D01*
X128659000Y-98277000D01*
X128648000Y-98245000D01*
X128638000Y-98212000D01*
X128630000Y-98179000D01*
X128624000Y-98146000D01*
X128620000Y-98112000D01*
X128617000Y-98078000D01*
X128616000Y-98048000D01*
X128616000Y-98047000D01*
X128617000Y-98013000D01*
X128620000Y-97979000D01*
X128624000Y-97945000D01*
X128630000Y-97912000D01*
X128638000Y-97878000D01*
X128648000Y-97846000D01*
X128659000Y-97813000D01*
X128672000Y-97782000D01*
X128687000Y-97751000D01*
X128704000Y-97721000D01*
X128721000Y-97692000D01*
X128741000Y-97663000D01*
X128762000Y-97636000D01*
X128784000Y-97610000D01*
X128807000Y-97585000D01*
X128832000Y-97562000D01*
X128858000Y-97540000D01*
X128885000Y-97519000D01*
X128914000Y-97499000D01*
X128943000Y-97482000D01*
X128973000Y-97465000D01*
X129004000Y-97450000D01*
X129035000Y-97437000D01*
X129068000Y-97426000D01*
X129100000Y-97416000D01*
X129134000Y-97408000D01*
X129167000Y-97402000D01*
X129201000Y-97398000D01*
X129235000Y-97395000D01*
X129270000Y-97394000D01*
X129381000Y-97394000D01*
X129411000Y-97395000D01*
G37*
D10*
%TO.C,U2*%
X126323034Y-85284751D02*
X127172751Y-85284751D01*
X127172751Y-85284751D02*
X127172751Y-85639891D01*
X127172751Y-85639891D02*
X126323034Y-85639891D01*
X126323034Y-85639891D02*
X126323034Y-85284751D01*
G36*
X127172751Y-85639891D02*
G01*
X126323034Y-85639891D01*
X126323034Y-85284751D01*
X127172751Y-85284751D01*
X127172751Y-85639891D01*
G37*
X127172751Y-85639891D02*
X126323034Y-85639891D01*
X126323034Y-85284751D01*
X127172751Y-85284751D01*
X127172751Y-85639891D01*
X122717521Y-82084751D02*
X123572751Y-82084751D01*
X123572751Y-82084751D02*
X123572751Y-82434713D01*
X123572751Y-82434713D02*
X122717521Y-82434713D01*
X122717521Y-82434713D02*
X122717521Y-82084751D01*
G36*
X123572751Y-82434713D02*
G01*
X122717521Y-82434713D01*
X122717521Y-82084751D01*
X123572751Y-82084751D01*
X123572751Y-82434713D01*
G37*
X123572751Y-82434713D02*
X122717521Y-82434713D01*
X122717521Y-82084751D01*
X123572751Y-82084751D01*
X123572751Y-82434713D01*
X127926201Y-85284751D02*
X128772751Y-85284751D01*
X128772751Y-85284751D02*
X128772751Y-85640921D01*
X128772751Y-85640921D02*
X127926201Y-85640921D01*
X127926201Y-85640921D02*
X127926201Y-85284751D01*
G36*
X128772751Y-85640921D02*
G01*
X127926201Y-85640921D01*
X127926201Y-85284751D01*
X128772751Y-85284751D01*
X128772751Y-85640921D01*
G37*
X128772751Y-85640921D02*
X127926201Y-85640921D01*
X127926201Y-85284751D01*
X128772751Y-85284751D01*
X128772751Y-85640921D01*
X124321751Y-79284751D02*
X125172751Y-79284751D01*
X125172751Y-79284751D02*
X125172751Y-79633201D01*
X125172751Y-79633201D02*
X124321751Y-79633201D01*
X124321751Y-79633201D02*
X124321751Y-79284751D01*
G36*
X125172751Y-79633201D02*
G01*
X124321751Y-79633201D01*
X124321751Y-79284751D01*
X125172751Y-79284751D01*
X125172751Y-79633201D01*
G37*
X125172751Y-79633201D02*
X124321751Y-79633201D01*
X124321751Y-79284751D01*
X125172751Y-79284751D01*
X125172751Y-79633201D01*
X122720161Y-82884751D02*
X123572751Y-82884751D01*
X123572751Y-82884751D02*
X123572751Y-83235337D01*
X123572751Y-83235337D02*
X122720161Y-83235337D01*
X122720161Y-83235337D02*
X122720161Y-82884751D01*
G36*
X123572751Y-83235337D02*
G01*
X122720161Y-83235337D01*
X122720161Y-82884751D01*
X123572751Y-82884751D01*
X123572751Y-83235337D01*
G37*
X123572751Y-83235337D02*
X122720161Y-83235337D01*
X122720161Y-82884751D01*
X123572751Y-82884751D01*
X123572751Y-83235337D01*
X124722311Y-85284751D02*
X125572751Y-85284751D01*
X125572751Y-85284751D02*
X125572751Y-85635731D01*
X125572751Y-85635731D02*
X124722311Y-85635731D01*
X124722311Y-85635731D02*
X124722311Y-85284751D01*
G36*
X125572751Y-85635731D02*
G01*
X124722311Y-85635731D01*
X124722311Y-85284751D01*
X125572751Y-85284751D01*
X125572751Y-85635731D01*
G37*
X125572751Y-85635731D02*
X124722311Y-85635731D01*
X124722311Y-85284751D01*
X125572751Y-85284751D01*
X125572751Y-85635731D01*
X127123397Y-79284751D02*
X127972751Y-79284751D01*
X127972751Y-79284751D02*
X127972751Y-79632881D01*
X127972751Y-79632881D02*
X127123397Y-79632881D01*
X127123397Y-79632881D02*
X127123397Y-79284751D01*
G36*
X127972751Y-79632881D02*
G01*
X127123397Y-79632881D01*
X127123397Y-79284751D01*
X127972751Y-79284751D01*
X127972751Y-79632881D01*
G37*
X127972751Y-79632881D02*
X127123397Y-79632881D01*
X127123397Y-79284751D01*
X127972751Y-79284751D01*
X127972751Y-79632881D01*
X125122401Y-85284751D02*
X125972751Y-85284751D01*
X125972751Y-85284751D02*
X125972751Y-85635831D01*
X125972751Y-85635831D02*
X125122401Y-85635831D01*
X125122401Y-85635831D02*
X125122401Y-85284751D01*
G36*
X125972751Y-85635831D02*
G01*
X125122401Y-85635831D01*
X125122401Y-85284751D01*
X125972751Y-85284751D01*
X125972751Y-85635831D01*
G37*
X125972751Y-85635831D02*
X125122401Y-85635831D01*
X125122401Y-85284751D01*
X125972751Y-85284751D01*
X125972751Y-85635831D01*
X122719481Y-83684751D02*
X123572751Y-83684751D01*
X123572751Y-83684751D02*
X123572751Y-84036261D01*
X123572751Y-84036261D02*
X122719481Y-84036261D01*
X122719481Y-84036261D02*
X122719481Y-83684751D01*
G36*
X123572751Y-84036261D02*
G01*
X122719481Y-84036261D01*
X122719481Y-83684751D01*
X123572751Y-83684751D01*
X123572751Y-84036261D01*
G37*
X123572751Y-84036261D02*
X122719481Y-84036261D01*
X122719481Y-83684751D01*
X123572751Y-83684751D01*
X123572751Y-84036261D01*
X126722835Y-79284751D02*
X127572751Y-79284751D01*
X127572751Y-79284751D02*
X127572751Y-79634341D01*
X127572751Y-79634341D02*
X126722835Y-79634341D01*
X126722835Y-79634341D02*
X126722835Y-79284751D01*
G36*
X127572751Y-79634341D02*
G01*
X126722835Y-79634341D01*
X126722835Y-79284751D01*
X127572751Y-79284751D01*
X127572751Y-79634341D01*
G37*
X127572751Y-79634341D02*
X126722835Y-79634341D01*
X126722835Y-79284751D01*
X127572751Y-79284751D01*
X127572751Y-79634341D01*
X128725951Y-84484751D02*
X129572751Y-84484751D01*
X129572751Y-84484751D02*
X129572751Y-84837701D01*
X129572751Y-84837701D02*
X128725951Y-84837701D01*
X128725951Y-84837701D02*
X128725951Y-84484751D01*
G36*
X129572751Y-84837701D02*
G01*
X128725951Y-84837701D01*
X128725951Y-84484751D01*
X129572751Y-84484751D01*
X129572751Y-84837701D01*
G37*
X129572751Y-84837701D02*
X128725951Y-84837701D01*
X128725951Y-84484751D01*
X129572751Y-84484751D01*
X129572751Y-84837701D01*
X123521351Y-79284751D02*
X124372751Y-79284751D01*
X124372751Y-79284751D02*
X124372751Y-79633241D01*
X124372751Y-79633241D02*
X123521351Y-79633241D01*
X123521351Y-79633241D02*
X123521351Y-79284751D01*
G36*
X124372751Y-79633241D02*
G01*
X123521351Y-79633241D01*
X123521351Y-79284751D01*
X124372751Y-79284751D01*
X124372751Y-79633241D01*
G37*
X124372751Y-79633241D02*
X123521351Y-79633241D01*
X123521351Y-79284751D01*
X124372751Y-79284751D01*
X124372751Y-79633241D01*
X122717861Y-80084751D02*
X123572751Y-80084751D01*
X123572751Y-80084751D02*
X123572751Y-80431861D01*
X123572751Y-80431861D02*
X122717861Y-80431861D01*
X122717861Y-80431861D02*
X122717861Y-80084751D01*
G36*
X123572751Y-80431861D02*
G01*
X122717861Y-80431861D01*
X122717861Y-80084751D01*
X123572751Y-80084751D01*
X123572751Y-80431861D01*
G37*
X123572751Y-80431861D02*
X122717861Y-80431861D01*
X122717861Y-80084751D01*
X123572751Y-80084751D01*
X123572751Y-80431861D01*
X122716851Y-81684751D02*
X123572751Y-81684751D01*
X123572751Y-81684751D02*
X123572751Y-82034019D01*
X123572751Y-82034019D02*
X122716851Y-82034019D01*
X122716851Y-82034019D02*
X122716851Y-81684751D01*
G36*
X123572751Y-82034019D02*
G01*
X122716851Y-82034019D01*
X122716851Y-81684751D01*
X123572751Y-81684751D01*
X123572751Y-82034019D01*
G37*
X123572751Y-82034019D02*
X122716851Y-82034019D01*
X122716851Y-81684751D01*
X123572751Y-81684751D01*
X123572751Y-82034019D01*
X124722661Y-79284751D02*
X125572751Y-79284751D01*
X125572751Y-79284751D02*
X125572751Y-79634581D01*
X125572751Y-79634581D02*
X124722661Y-79634581D01*
X124722661Y-79634581D02*
X124722661Y-79284751D01*
G36*
X125572751Y-79634581D02*
G01*
X124722661Y-79634581D01*
X124722661Y-79284751D01*
X125572751Y-79284751D01*
X125572751Y-79634581D01*
G37*
X125572751Y-79634581D02*
X124722661Y-79634581D01*
X124722661Y-79284751D01*
X125572751Y-79284751D01*
X125572751Y-79634581D01*
X127924661Y-79284751D02*
X128772751Y-79284751D01*
X128772751Y-79284751D02*
X128772751Y-79631711D01*
X128772751Y-79631711D02*
X127924661Y-79631711D01*
X127924661Y-79631711D02*
X127924661Y-79284751D01*
G36*
X128772751Y-79631711D02*
G01*
X127924661Y-79631711D01*
X127924661Y-79284751D01*
X128772751Y-79284751D01*
X128772751Y-79631711D01*
G37*
X128772751Y-79631711D02*
X127924661Y-79631711D01*
X127924661Y-79284751D01*
X128772751Y-79284751D01*
X128772751Y-79631711D01*
X123921811Y-79284751D02*
X124772751Y-79284751D01*
X124772751Y-79284751D02*
X124772751Y-79633561D01*
X124772751Y-79633561D02*
X123921811Y-79633561D01*
X123921811Y-79633561D02*
X123921811Y-79284751D01*
G36*
X124772751Y-79633561D02*
G01*
X123921811Y-79633561D01*
X123921811Y-79284751D01*
X124772751Y-79284751D01*
X124772751Y-79633561D01*
G37*
X124772751Y-79633561D02*
X123921811Y-79633561D01*
X123921811Y-79284751D01*
X124772751Y-79284751D01*
X124772751Y-79633561D01*
X125922745Y-85284751D02*
X126772751Y-85284751D01*
X126772751Y-85284751D02*
X126772751Y-85634841D01*
X126772751Y-85634841D02*
X125922745Y-85634841D01*
X125922745Y-85634841D02*
X125922745Y-85284751D01*
G36*
X126772751Y-85634841D02*
G01*
X125922745Y-85634841D01*
X125922745Y-85284751D01*
X126772751Y-85284751D01*
X126772751Y-85634841D01*
G37*
X126772751Y-85634841D02*
X125922745Y-85634841D01*
X125922745Y-85284751D01*
X126772751Y-85284751D01*
X126772751Y-85634841D01*
X126723880Y-85284751D02*
X127572751Y-85284751D01*
X127572751Y-85284751D02*
X127572751Y-85640981D01*
X127572751Y-85640981D02*
X126723880Y-85640981D01*
X126723880Y-85640981D02*
X126723880Y-85284751D01*
G36*
X127572751Y-85640981D02*
G01*
X126723880Y-85640981D01*
X126723880Y-85284751D01*
X127572751Y-85284751D01*
X127572751Y-85640981D01*
G37*
X127572751Y-85640981D02*
X126723880Y-85640981D01*
X126723880Y-85284751D01*
X127572751Y-85284751D01*
X127572751Y-85640981D01*
X122716611Y-80884751D02*
X123572751Y-80884751D01*
X123572751Y-80884751D02*
X123572751Y-81232551D01*
X123572751Y-81232551D02*
X122716611Y-81232551D01*
X122716611Y-81232551D02*
X122716611Y-80884751D01*
G36*
X123572751Y-81232551D02*
G01*
X122716611Y-81232551D01*
X122716611Y-80884751D01*
X123572751Y-80884751D01*
X123572751Y-81232551D01*
G37*
X123572751Y-81232551D02*
X122716611Y-81232551D01*
X122716611Y-80884751D01*
X123572751Y-80884751D01*
X123572751Y-81232551D01*
X128725021Y-81684751D02*
X129572751Y-81684751D01*
X129572751Y-81684751D02*
X129572751Y-82034376D01*
X129572751Y-82034376D02*
X128725021Y-82034376D01*
X128725021Y-82034376D02*
X128725021Y-81684751D01*
G36*
X129572751Y-82034376D02*
G01*
X128725021Y-82034376D01*
X128725021Y-81684751D01*
X129572751Y-81684751D01*
X129572751Y-82034376D01*
G37*
X129572751Y-82034376D02*
X128725021Y-82034376D01*
X128725021Y-81684751D01*
X129572751Y-81684751D01*
X129572751Y-82034376D01*
X125522093Y-79284751D02*
X126372751Y-79284751D01*
X126372751Y-79284751D02*
X126372751Y-79631771D01*
X126372751Y-79631771D02*
X125522093Y-79631771D01*
X125522093Y-79631771D02*
X125522093Y-79284751D01*
G36*
X126372751Y-79631771D02*
G01*
X125522093Y-79631771D01*
X125522093Y-79284751D01*
X126372751Y-79284751D01*
X126372751Y-79631771D01*
G37*
X126372751Y-79631771D02*
X125522093Y-79631771D01*
X125522093Y-79284751D01*
X126372751Y-79284751D01*
X126372751Y-79631771D01*
X122720131Y-83284751D02*
X123572751Y-83284751D01*
X123572751Y-83284751D02*
X123572751Y-83635651D01*
X123572751Y-83635651D02*
X122720131Y-83635651D01*
X122720131Y-83635651D02*
X122720131Y-83284751D01*
G36*
X123572751Y-83635651D02*
G01*
X122720131Y-83635651D01*
X122720131Y-83284751D01*
X123572751Y-83284751D01*
X123572751Y-83635651D01*
G37*
X123572751Y-83635651D02*
X122720131Y-83635651D01*
X122720131Y-83284751D01*
X123572751Y-83284751D01*
X123572751Y-83635651D01*
X123921841Y-85284751D02*
X124772751Y-85284751D01*
X124772751Y-85284751D02*
X124772751Y-85636051D01*
X124772751Y-85636051D02*
X123921841Y-85636051D01*
X123921841Y-85636051D02*
X123921841Y-85284751D01*
G36*
X124772751Y-85636051D02*
G01*
X123921841Y-85636051D01*
X123921841Y-85284751D01*
X124772751Y-85284751D01*
X124772751Y-85636051D01*
G37*
X124772751Y-85636051D02*
X123921841Y-85636051D01*
X123921841Y-85284751D01*
X124772751Y-85284751D01*
X124772751Y-85636051D01*
X127524151Y-85284751D02*
X128372751Y-85284751D01*
X128372751Y-85284751D02*
X128372751Y-85637991D01*
X128372751Y-85637991D02*
X127524151Y-85637991D01*
X127524151Y-85637991D02*
X127524151Y-85284751D01*
G36*
X128372751Y-85637991D02*
G01*
X127524151Y-85637991D01*
X127524151Y-85284751D01*
X128372751Y-85284751D01*
X128372751Y-85637991D01*
G37*
X128372751Y-85637991D02*
X127524151Y-85637991D01*
X127524151Y-85284751D01*
X128372751Y-85284751D01*
X128372751Y-85637991D01*
X125922513Y-79284751D02*
X126772751Y-79284751D01*
X126772751Y-79284751D02*
X126772751Y-79631761D01*
X126772751Y-79631761D02*
X125922513Y-79631761D01*
X125922513Y-79631761D02*
X125922513Y-79284751D01*
G36*
X126772751Y-79631761D02*
G01*
X125922513Y-79631761D01*
X125922513Y-79284751D01*
X126772751Y-79284751D01*
X126772751Y-79631761D01*
G37*
X126772751Y-79631761D02*
X125922513Y-79631761D01*
X125922513Y-79284751D01*
X126772751Y-79284751D01*
X126772751Y-79631761D01*
X125121711Y-79284751D02*
X125972751Y-79284751D01*
X125972751Y-79284751D02*
X125972751Y-79631881D01*
X125972751Y-79631881D02*
X125121711Y-79631881D01*
X125121711Y-79631881D02*
X125121711Y-79284751D01*
G36*
X125972751Y-79631881D02*
G01*
X125121711Y-79631881D01*
X125121711Y-79284751D01*
X125972751Y-79284751D01*
X125972751Y-79631881D01*
G37*
X125972751Y-79631881D02*
X125121711Y-79631881D01*
X125121711Y-79284751D01*
X125972751Y-79284751D01*
X125972751Y-79631881D01*
X128723771Y-80084751D02*
X129572751Y-80084751D01*
X129572751Y-80084751D02*
X129572751Y-80433951D01*
X129572751Y-80433951D02*
X128723771Y-80433951D01*
X128723771Y-80433951D02*
X128723771Y-80084751D01*
G36*
X129572751Y-80433951D02*
G01*
X128723771Y-80433951D01*
X128723771Y-80084751D01*
X129572751Y-80084751D01*
X129572751Y-80433951D01*
G37*
X129572751Y-80433951D02*
X128723771Y-80433951D01*
X128723771Y-80084751D01*
X129572751Y-80084751D01*
X129572751Y-80433951D01*
X122722461Y-82484751D02*
X123572751Y-82484751D01*
X123572751Y-82484751D02*
X123572751Y-82834782D01*
X123572751Y-82834782D02*
X122722461Y-82834782D01*
X122722461Y-82834782D02*
X122722461Y-82484751D01*
G36*
X123572751Y-82834782D02*
G01*
X122722461Y-82834782D01*
X122722461Y-82484751D01*
X123572751Y-82484751D01*
X123572751Y-82834782D01*
G37*
X123572751Y-82834782D02*
X122722461Y-82834782D01*
X122722461Y-82484751D01*
X123572751Y-82484751D01*
X123572751Y-82834782D01*
X128723871Y-83684751D02*
X129572751Y-83684751D01*
X129572751Y-83684751D02*
X129572751Y-84035431D01*
X129572751Y-84035431D02*
X128723871Y-84035431D01*
X128723871Y-84035431D02*
X128723871Y-83684751D01*
G36*
X129572751Y-84035431D02*
G01*
X128723871Y-84035431D01*
X128723871Y-83684751D01*
X129572751Y-83684751D01*
X129572751Y-84035431D01*
G37*
X129572751Y-84035431D02*
X128723871Y-84035431D01*
X128723871Y-83684751D01*
X129572751Y-83684751D01*
X129572751Y-84035431D01*
X127123584Y-85284751D02*
X127972751Y-85284751D01*
X127972751Y-85284751D02*
X127972751Y-85637461D01*
X127972751Y-85637461D02*
X127123584Y-85637461D01*
X127123584Y-85637461D02*
X127123584Y-85284751D01*
G36*
X127972751Y-85637461D02*
G01*
X127123584Y-85637461D01*
X127123584Y-85284751D01*
X127972751Y-85284751D01*
X127972751Y-85637461D01*
G37*
X127972751Y-85637461D02*
X127123584Y-85637461D01*
X127123584Y-85284751D01*
X127972751Y-85284751D01*
X127972751Y-85637461D01*
X122717641Y-81284751D02*
X123572751Y-81284751D01*
X123572751Y-81284751D02*
X123572751Y-81633520D01*
X123572751Y-81633520D02*
X122717641Y-81633520D01*
X122717641Y-81633520D02*
X122717641Y-81284751D01*
G36*
X123572751Y-81633520D02*
G01*
X122717641Y-81633520D01*
X122717641Y-81284751D01*
X123572751Y-81284751D01*
X123572751Y-81633520D01*
G37*
X123572751Y-81633520D02*
X122717641Y-81633520D01*
X122717641Y-81284751D01*
X123572751Y-81284751D01*
X123572751Y-81633520D01*
X127524651Y-79284751D02*
X128372751Y-79284751D01*
X128372751Y-79284751D02*
X128372751Y-79630841D01*
X128372751Y-79630841D02*
X127524651Y-79630841D01*
X127524651Y-79630841D02*
X127524651Y-79284751D01*
G36*
X128372751Y-79630841D02*
G01*
X127524651Y-79630841D01*
X127524651Y-79284751D01*
X128372751Y-79284751D01*
X128372751Y-79630841D01*
G37*
X128372751Y-79630841D02*
X127524651Y-79630841D01*
X127524651Y-79284751D01*
X128372751Y-79284751D01*
X128372751Y-79630841D01*
X122720871Y-84084751D02*
X123572751Y-84084751D01*
X123572751Y-84084751D02*
X123572751Y-84435831D01*
X123572751Y-84435831D02*
X122720871Y-84435831D01*
X122720871Y-84435831D02*
X122720871Y-84084751D01*
G36*
X123572751Y-84435831D02*
G01*
X122720871Y-84435831D01*
X122720871Y-84084751D01*
X123572751Y-84084751D01*
X123572751Y-84435831D01*
G37*
X123572751Y-84435831D02*
X122720871Y-84435831D01*
X122720871Y-84084751D01*
X123572751Y-84084751D01*
X123572751Y-84435831D01*
X128724151Y-84084751D02*
X129572751Y-84084751D01*
X129572751Y-84084751D02*
X129572751Y-84435831D01*
X129572751Y-84435831D02*
X128724151Y-84435831D01*
X128724151Y-84435831D02*
X128724151Y-84084751D01*
G36*
X129572751Y-84435831D02*
G01*
X128724151Y-84435831D01*
X128724151Y-84084751D01*
X129572751Y-84084751D01*
X129572751Y-84435831D01*
G37*
X129572751Y-84435831D02*
X128724151Y-84435831D01*
X128724151Y-84084751D01*
X129572751Y-84084751D01*
X129572751Y-84435831D01*
X128725661Y-80484751D02*
X129572751Y-80484751D01*
X129572751Y-80484751D02*
X129572751Y-80832921D01*
X129572751Y-80832921D02*
X128725661Y-80832921D01*
X128725661Y-80832921D02*
X128725661Y-80484751D01*
G36*
X129572751Y-80832921D02*
G01*
X128725661Y-80832921D01*
X128725661Y-80484751D01*
X129572751Y-80484751D01*
X129572751Y-80832921D01*
G37*
X129572751Y-80832921D02*
X128725661Y-80832921D01*
X128725661Y-80484751D01*
X129572751Y-80484751D01*
X129572751Y-80832921D01*
X128723251Y-81284751D02*
X129572751Y-81284751D01*
X129572751Y-81284751D02*
X129572751Y-81634590D01*
X129572751Y-81634590D02*
X128723251Y-81634590D01*
X128723251Y-81634590D02*
X128723251Y-81284751D01*
G36*
X129572751Y-81634590D02*
G01*
X128723251Y-81634590D01*
X128723251Y-81284751D01*
X129572751Y-81284751D01*
X129572751Y-81634590D01*
G37*
X129572751Y-81634590D02*
X128723251Y-81634590D01*
X128723251Y-81284751D01*
X129572751Y-81284751D01*
X129572751Y-81634590D01*
X128725371Y-82084751D02*
X129572751Y-82084751D01*
X129572751Y-82084751D02*
X129572751Y-82434726D01*
X129572751Y-82434726D02*
X128725371Y-82434726D01*
X128725371Y-82434726D02*
X128725371Y-82084751D01*
G36*
X129572751Y-82434726D02*
G01*
X128725371Y-82434726D01*
X128725371Y-82084751D01*
X129572751Y-82084751D01*
X129572751Y-82434726D01*
G37*
X129572751Y-82434726D02*
X128725371Y-82434726D01*
X128725371Y-82084751D01*
X129572751Y-82084751D01*
X129572751Y-82434726D01*
X124320411Y-85284751D02*
X125172751Y-85284751D01*
X125172751Y-85284751D02*
X125172751Y-85638821D01*
X125172751Y-85638821D02*
X124320411Y-85638821D01*
X124320411Y-85638821D02*
X124320411Y-85284751D01*
G36*
X125172751Y-85638821D02*
G01*
X124320411Y-85638821D01*
X124320411Y-85284751D01*
X125172751Y-85284751D01*
X125172751Y-85638821D01*
G37*
X125172751Y-85638821D02*
X124320411Y-85638821D01*
X124320411Y-85284751D01*
X125172751Y-85284751D01*
X125172751Y-85638821D01*
X122719301Y-80484751D02*
X123572751Y-80484751D01*
X123572751Y-80484751D02*
X123572751Y-80833111D01*
X123572751Y-80833111D02*
X122719301Y-80833111D01*
X122719301Y-80833111D02*
X122719301Y-80484751D01*
G36*
X123572751Y-80833111D02*
G01*
X122719301Y-80833111D01*
X122719301Y-80484751D01*
X123572751Y-80484751D01*
X123572751Y-80833111D01*
G37*
X123572751Y-80833111D02*
X122719301Y-80833111D01*
X122719301Y-80484751D01*
X123572751Y-80484751D01*
X123572751Y-80833111D01*
X126323067Y-79284751D02*
X127172751Y-79284751D01*
X127172751Y-79284751D02*
X127172751Y-79629641D01*
X127172751Y-79629641D02*
X126323067Y-79629641D01*
X126323067Y-79629641D02*
X126323067Y-79284751D01*
G36*
X127172751Y-79629641D02*
G01*
X126323067Y-79629641D01*
X126323067Y-79284751D01*
X127172751Y-79284751D01*
X127172751Y-79629641D01*
G37*
X127172751Y-79629641D02*
X126323067Y-79629641D01*
X126323067Y-79284751D01*
X127172751Y-79284751D01*
X127172751Y-79629641D01*
X128727581Y-83284751D02*
X129572751Y-83284751D01*
X129572751Y-83284751D02*
X129572751Y-83636961D01*
X129572751Y-83636961D02*
X128727581Y-83636961D01*
X128727581Y-83636961D02*
X128727581Y-83284751D01*
G36*
X129572751Y-83636961D02*
G01*
X128727581Y-83636961D01*
X128727581Y-83284751D01*
X129572751Y-83284751D01*
X129572751Y-83636961D01*
G37*
X129572751Y-83636961D02*
X128727581Y-83636961D01*
X128727581Y-83284751D01*
X129572751Y-83284751D01*
X129572751Y-83636961D01*
X128726771Y-80884751D02*
X129572751Y-80884751D01*
X129572751Y-80884751D02*
X129572751Y-81232841D01*
X129572751Y-81232841D02*
X128726771Y-81232841D01*
X128726771Y-81232841D02*
X128726771Y-80884751D01*
G36*
X129572751Y-81232841D02*
G01*
X128726771Y-81232841D01*
X128726771Y-80884751D01*
X129572751Y-80884751D01*
X129572751Y-81232841D01*
G37*
X129572751Y-81232841D02*
X128726771Y-81232841D01*
X128726771Y-80884751D01*
X129572751Y-80884751D01*
X129572751Y-81232841D01*
X122717581Y-84484751D02*
X123572751Y-84484751D01*
X123572751Y-84484751D02*
X123572751Y-84838331D01*
X123572751Y-84838331D02*
X122717581Y-84838331D01*
X122717581Y-84838331D02*
X122717581Y-84484751D01*
G36*
X123572751Y-84838331D02*
G01*
X122717581Y-84838331D01*
X122717581Y-84484751D01*
X123572751Y-84484751D01*
X123572751Y-84838331D01*
G37*
X123572751Y-84838331D02*
X122717581Y-84838331D01*
X122717581Y-84484751D01*
X123572751Y-84484751D01*
X123572751Y-84838331D01*
X128724091Y-82884751D02*
X129572751Y-82884751D01*
X129572751Y-82884751D02*
X129572751Y-83235153D01*
X129572751Y-83235153D02*
X128724091Y-83235153D01*
X128724091Y-83235153D02*
X128724091Y-82884751D01*
G36*
X129572751Y-83235153D02*
G01*
X128724091Y-83235153D01*
X128724091Y-82884751D01*
X129572751Y-82884751D01*
X129572751Y-83235153D01*
G37*
X129572751Y-83235153D02*
X128724091Y-83235153D01*
X128724091Y-82884751D01*
X129572751Y-82884751D01*
X129572751Y-83235153D01*
X128723781Y-82484751D02*
X129572751Y-82484751D01*
X129572751Y-82484751D02*
X129572751Y-82834902D01*
X129572751Y-82834902D02*
X128723781Y-82834902D01*
X128723781Y-82834902D02*
X128723781Y-82484751D01*
G36*
X129572751Y-82834902D02*
G01*
X128723781Y-82834902D01*
X128723781Y-82484751D01*
X129572751Y-82484751D01*
X129572751Y-82834902D01*
G37*
X129572751Y-82834902D02*
X128723781Y-82834902D01*
X128723781Y-82484751D01*
X129572751Y-82484751D01*
X129572751Y-82834902D01*
X123517861Y-85284751D02*
X124372751Y-85284751D01*
X124372751Y-85284751D02*
X124372751Y-85640671D01*
X124372751Y-85640671D02*
X123517861Y-85640671D01*
X123517861Y-85640671D02*
X123517861Y-85284751D01*
G36*
X124372751Y-85640671D02*
G01*
X123517861Y-85640671D01*
X123517861Y-85284751D01*
X124372751Y-85284751D01*
X124372751Y-85640671D01*
G37*
X124372751Y-85640671D02*
X123517861Y-85640671D01*
X123517861Y-85284751D01*
X124372751Y-85284751D01*
X124372751Y-85640671D01*
X125521970Y-85284751D02*
X126372751Y-85284751D01*
X126372751Y-85284751D02*
X126372751Y-85638721D01*
X126372751Y-85638721D02*
X125521970Y-85638721D01*
X125521970Y-85638721D02*
X125521970Y-85284751D01*
G36*
X126372751Y-85638721D02*
G01*
X125521970Y-85638721D01*
X125521970Y-85284751D01*
X126372751Y-85284751D01*
X126372751Y-85638721D01*
G37*
X126372751Y-85638721D02*
X125521970Y-85638721D01*
X125521970Y-85284751D01*
X126372751Y-85284751D01*
X126372751Y-85638721D01*
%TD*%
D11*
%TO.C,J2*%
X129321000Y-98044000D03*
X136871000Y-98044000D03*
D12*
X130346000Y-97814000D03*
X130846000Y-97814000D03*
X131346000Y-97814000D03*
X131846000Y-97814000D03*
X132346000Y-97814000D03*
X132846000Y-97814000D03*
X133346000Y-97814000D03*
X133846000Y-97814000D03*
X134346000Y-97814000D03*
X134846000Y-97814000D03*
X135346000Y-97814000D03*
X135846000Y-97814000D03*
X135596000Y-99304000D03*
X135096000Y-99304000D03*
X134596000Y-99304000D03*
X134096000Y-99304000D03*
X133596000Y-99304000D03*
X133096000Y-99304000D03*
X132596000Y-99304000D03*
X132096000Y-99304000D03*
X131596000Y-99304000D03*
X131096000Y-99304000D03*
X130596000Y-99304000D03*
X130096000Y-99304000D03*
D13*
X129251000Y-96814000D03*
X136941000Y-96814000D03*
D14*
X137221000Y-99474000D03*
X128971000Y-99474000D03*
%TD*%
D15*
%TO.C,C7*%
X121895751Y-88301751D03*
X123795751Y-88301751D03*
%TD*%
D16*
%TO.C,C12*%
X121993502Y-71193502D03*
X120650000Y-69850000D03*
%TD*%
D17*
%TO.C,C9*%
X133924000Y-80935751D03*
X135824000Y-80935751D03*
%TD*%
D18*
%TO.C,L1*%
X122083751Y-76410251D03*
X122083751Y-74285251D03*
%TD*%
D19*
%TO.C,J1*%
X114046000Y-94244000D03*
D20*
X114046000Y-96784000D03*
X114046000Y-99324000D03*
X114046000Y-101864000D03*
%TD*%
D15*
%TO.C,C8*%
X118085751Y-80173751D03*
X119985751Y-80173751D03*
%TD*%
D21*
%TO.C,U1*%
X129108200Y-63815000D03*
X129108200Y-65085000D03*
X129108200Y-66355000D03*
X129108200Y-67625000D03*
X134035800Y-67625000D03*
X134035800Y-66355000D03*
X134035800Y-65085000D03*
X134035800Y-63815000D03*
%TD*%
D15*
%TO.C,C13*%
X118085751Y-78141751D03*
X119985751Y-78141751D03*
%TD*%
D22*
%TO.C,Y2*%
X116245751Y-85507751D03*
X114845751Y-85507751D03*
%TD*%
D23*
%TO.C,D1*%
X149098000Y-70358000D03*
D24*
X147303000Y-70358000D03*
X150893000Y-70358000D03*
%TD*%
D25*
%TO.C,R3*%
X128584251Y-88301751D03*
X126759251Y-88301751D03*
%TD*%
D26*
%TO.C,C10*%
X134366000Y-85786000D03*
X134366000Y-83886000D03*
%TD*%
D27*
%TO.C,L2*%
X139238500Y-85598000D03*
X137113500Y-85598000D03*
%TD*%
D28*
%TO.C,C3*%
X118339751Y-83917751D03*
X118339751Y-82017751D03*
%TD*%
D29*
%TO.C,S1*%
X111658000Y-59060000D03*
X117958000Y-59060000D03*
X111658000Y-62860000D03*
X117958000Y-62860000D03*
%TD*%
D30*
%TO.C,E1*%
X150446000Y-99314000D03*
X153846000Y-99314000D03*
%TD*%
D26*
%TO.C,C2*%
X131227751Y-73889751D03*
X131227751Y-75789751D03*
%TD*%
D23*
%TO.C,D3*%
X148844000Y-62484000D03*
D24*
X147049000Y-62484000D03*
X150639000Y-62484000D03*
%TD*%
D31*
%TO.C,S2*%
X121236000Y-103124000D03*
X124636000Y-103124000D03*
%TD*%
D32*
%TO.C,Y1*%
X134903751Y-75789751D03*
X137203751Y-75789751D03*
X137203751Y-73889751D03*
X134903751Y-73889751D03*
%TD*%
D33*
%TO.C,U2*%
X126147751Y-82459751D03*
%TD*%
D34*
%TO.C,R2*%
X113895500Y-66802000D03*
X115720500Y-66802000D03*
%TD*%
%TO.C,R4*%
X154027500Y-66040000D03*
X155852500Y-66040000D03*
%TD*%
D23*
%TO.C,D2*%
X148844000Y-66040000D03*
D24*
X147049000Y-66040000D03*
X150639000Y-66040000D03*
%TD*%
D28*
%TO.C,C5*%
X140879751Y-75789751D03*
X140879751Y-73889751D03*
%TD*%
%TO.C,C6*%
X137922000Y-64384000D03*
X137922000Y-62484000D03*
%TD*%
D34*
%TO.C,R5*%
X154027500Y-62484000D03*
X155852500Y-62484000D03*
%TD*%
D15*
%TO.C,C4*%
X114849751Y-87793751D03*
X116749751Y-87793751D03*
%TD*%
D35*
%TO.C,L3*%
X119046450Y-71294450D03*
X120549052Y-72797052D03*
%TD*%
D28*
%TO.C,C1*%
X137922000Y-68194000D03*
X137922000Y-66294000D03*
%TD*%
D26*
%TO.C,C11*%
X128687751Y-73823751D03*
X128687751Y-75723751D03*
%TD*%
D25*
%TO.C,R1*%
X155852500Y-70358000D03*
X154027500Y-70358000D03*
%TD*%
M02*
