%TF.GenerationSoftware,KiCad,Pcbnew,(6.0.1)*%
%TF.CreationDate,2022-03-21T18:15:36+01:00*%
%TF.ProjectId,KiCad_PCB,4b694361-645f-4504-9342-2e6b69636164,rev?*%
%TF.SameCoordinates,Original*%
%TF.FileFunction,Copper,L4,Bot*%
%TF.FilePolarity,Positive*%
%FSLAX46Y46*%
G04 Gerber Fmt 4.6, Leading zero omitted, Abs format (unit mm)*
G04 Created by KiCad (PCBNEW (6.0.1)) date 2022-03-21 18:15:36*
%MOMM*%
%LPD*%
G01*
G04 APERTURE LIST*
G04 Aperture macros list*
%AMRoundRect*
0 Rectangle with rounded corners*
0 $1 Rounding radius*
0 $2 $3 $4 $5 $6 $7 $8 $9 X,Y pos of 4 corners*
0 Add a 4 corners polygon primitive as box body*
4,1,4,$2,$3,$4,$5,$6,$7,$8,$9,$2,$3,0*
0 Add four circle primitives for the rounded corners*
1,1,$1+$1,$2,$3*
1,1,$1+$1,$4,$5*
1,1,$1+$1,$6,$7*
1,1,$1+$1,$8,$9*
0 Add four rect primitives between the rounded corners*
20,1,$1+$1,$2,$3,$4,$5,0*
20,1,$1+$1,$4,$5,$6,$7,0*
20,1,$1+$1,$6,$7,$8,$9,0*
20,1,$1+$1,$8,$9,$2,$3,0*%
G04 Aperture macros list end*
%TA.AperFunction,ComponentPad*%
%ADD10R,0.850000X0.850000*%
%TD*%
%TA.AperFunction,ComponentPad*%
%ADD11C,0.850000*%
%TD*%
%TA.AperFunction,SMDPad,CuDef*%
%ADD12RoundRect,0.225000X-0.250000X0.225000X-0.250000X-0.225000X0.250000X-0.225000X0.250000X0.225000X0*%
%TD*%
%TA.AperFunction,SMDPad,CuDef*%
%ADD13C,17.800000*%
%TD*%
%TA.AperFunction,ComponentPad*%
%ADD14C,2.300000*%
%TD*%
%TA.AperFunction,ViaPad*%
%ADD15C,0.800000*%
%TD*%
%TA.AperFunction,Conductor*%
%ADD16C,0.250000*%
%TD*%
G04 APERTURE END LIST*
D10*
%TO.P,J1,1,1*%
%TO.N,GND*%
X137600000Y-95700000D03*
D11*
%TO.P,J1,2,2*%
%TO.N,PROG_SWCLK*%
X137600000Y-96950000D03*
%TO.P,J1,3,3*%
%TO.N,PROG_SWDIO*%
X137600000Y-98200000D03*
%TO.P,J1,4,4*%
%TO.N,+1V8*%
X137600000Y-99450000D03*
%TD*%
D12*
%TO.P,C9,1*%
%TO.N,GND*%
X159400000Y-99400000D03*
%TO.P,C9,2*%
%TO.N,Net-(C9-Pad2)*%
X159400000Y-100950000D03*
%TD*%
%TO.P,C13,1*%
%TO.N,GND*%
X158200000Y-99450000D03*
%TO.P,C13,2*%
%TO.N,+1V8*%
X158200000Y-101000000D03*
%TD*%
D13*
%TO.P,BT1,N*%
%TO.N,GND*%
X147800000Y-99400000D03*
D14*
%TO.P,BT1,P1*%
%TO.N,+1V8*%
X149300000Y-109800000D03*
%TO.P,BT1,P2*%
X146200000Y-109800000D03*
%TO.P,BT1,P3*%
X146200000Y-89000000D03*
%TO.P,BT1,P4*%
X149300000Y-89000000D03*
%TD*%
D15*
%TO.N,GND*%
X158014538Y-97653997D03*
X155556520Y-109818983D03*
X134620000Y-96520000D03*
X135890000Y-101600000D03*
X151130000Y-85090000D03*
X149860000Y-85090000D03*
X148590000Y-85090000D03*
X147320000Y-85090000D03*
X146050000Y-85090000D03*
X144780000Y-85090000D03*
X143510000Y-85090000D03*
X151130000Y-83820000D03*
X149860000Y-83820000D03*
X148590000Y-83820000D03*
X146050000Y-83820000D03*
X147320000Y-83820000D03*
X144780000Y-83820000D03*
X143510000Y-83820000D03*
X142240000Y-93980000D03*
X140970000Y-100330000D03*
X139700000Y-105410000D03*
X140970000Y-109220000D03*
X143510000Y-110490000D03*
X161736869Y-101866793D03*
X148197627Y-100248255D03*
%TO.N,+1V8*%
X158000000Y-102400000D03*
X143600000Y-108300000D03*
X151200000Y-111200000D03*
%TO.N,GND*%
X153550000Y-105700000D03*
X152600000Y-107600000D03*
X152600000Y-104750000D03*
X152600000Y-103800000D03*
X155450000Y-107600000D03*
X153550000Y-107600000D03*
X154500000Y-107600000D03*
X156400000Y-106650000D03*
X153550000Y-103800000D03*
X156400000Y-103800000D03*
X154500000Y-104750000D03*
X152600000Y-106650000D03*
X155450000Y-105700000D03*
X152600000Y-105700000D03*
X154500000Y-106650000D03*
X153550000Y-106650000D03*
X155450000Y-103800000D03*
X153550000Y-104750000D03*
X154500000Y-103800000D03*
X154500000Y-105700000D03*
X155450000Y-106650000D03*
X156400000Y-105700000D03*
X156400000Y-107600000D03*
X155450000Y-104750000D03*
X156400000Y-104750000D03*
%TO.N,Net-(C9-Pad2)*%
X159900000Y-102200000D03*
%TO.N,PROG_SWCLK*%
X159700000Y-105600000D03*
%TO.N,PROG_SWDIO*%
X158700000Y-105800000D03*
%TD*%
D16*
%TO.N,+1V8*%
X158200000Y-101000000D02*
X158200000Y-102200000D01*
X158200000Y-102200000D02*
X158000000Y-102400000D01*
%TO.N,Net-(C9-Pad2)*%
X159900000Y-101450000D02*
X159400000Y-100950000D01*
X159900000Y-102200000D02*
X159900000Y-101450000D01*
%TD*%
%TA.AperFunction,Conductor*%
%TO.N,GND*%
G36*
X147959033Y-82391026D02*
G01*
X148693712Y-82392308D01*
X148696900Y-82392354D01*
X148711832Y-82392758D01*
X148718198Y-82393092D01*
X148724519Y-82393584D01*
X148733070Y-82394249D01*
X148736212Y-82394533D01*
X150203578Y-82546170D01*
X150206740Y-82546538D01*
X150221551Y-82548449D01*
X150227840Y-82549422D01*
X150230624Y-82549925D01*
X150242632Y-82552097D01*
X150245653Y-82552683D01*
X151690169Y-82851828D01*
X151693195Y-82852494D01*
X151707808Y-82855908D01*
X151713961Y-82857511D01*
X151728367Y-82861655D01*
X151731420Y-82862576D01*
X153138217Y-83306137D01*
X153141165Y-83307107D01*
X153155402Y-83311996D01*
X153161359Y-83314212D01*
X153175283Y-83319796D01*
X153178223Y-83321018D01*
X153593839Y-83500010D01*
X153648492Y-83545325D01*
X153670000Y-83615734D01*
X153670000Y-91440000D01*
X153680827Y-91447218D01*
X153680828Y-91447219D01*
X157464477Y-93969652D01*
X157464479Y-93969653D01*
X157480000Y-93980000D01*
X162428927Y-93980000D01*
X162497048Y-94000002D01*
X162543541Y-94053658D01*
X162550914Y-94074452D01*
X162618289Y-94334971D01*
X162619043Y-94338050D01*
X162622421Y-94352622D01*
X162623699Y-94358847D01*
X162626342Y-94373610D01*
X162626856Y-94376711D01*
X162796206Y-95483415D01*
X162849981Y-95834835D01*
X162850424Y-95837998D01*
X162852310Y-95852828D01*
X162852954Y-95859170D01*
X162854088Y-95874082D01*
X162854290Y-95877261D01*
X162928920Y-97350470D01*
X162929041Y-97353646D01*
X162929455Y-97370028D01*
X162929494Y-97373592D01*
X162929370Y-97409024D01*
X162929140Y-97474694D01*
X162929075Y-97478316D01*
X162928549Y-97494619D01*
X162928407Y-97497788D01*
X162843490Y-98970512D01*
X162843273Y-98973605D01*
X162842092Y-98987816D01*
X162842031Y-98988551D01*
X162841345Y-98994868D01*
X162840145Y-99003802D01*
X162839353Y-99009696D01*
X162838889Y-99012845D01*
X162605593Y-100469366D01*
X162605049Y-100472508D01*
X162602308Y-100487225D01*
X162600982Y-100493463D01*
X162597501Y-100508018D01*
X162596720Y-100511109D01*
X162320768Y-101548214D01*
X162246919Y-101825763D01*
X162217429Y-101936593D01*
X162216582Y-101939624D01*
X162212358Y-101954021D01*
X162210415Y-101960071D01*
X162205482Y-101974195D01*
X162204395Y-101977187D01*
X161682984Y-103357061D01*
X161681820Y-103360028D01*
X161676185Y-103373871D01*
X161673629Y-103379719D01*
X161667311Y-103393236D01*
X161665927Y-103396104D01*
X161007712Y-104716279D01*
X161006254Y-104719112D01*
X160999266Y-104732283D01*
X160996138Y-104737834D01*
X160990795Y-104746781D01*
X160988486Y-104750646D01*
X160986821Y-104753355D01*
X160433819Y-105628118D01*
X160380513Y-105675009D01*
X160310316Y-105685637D01*
X160245517Y-105656626D01*
X160206689Y-105597188D01*
X160202590Y-105578652D01*
X160194532Y-105522388D01*
X160185323Y-105458082D01*
X160179236Y-105444693D01*
X160132082Y-105340985D01*
X160125984Y-105327572D01*
X160064951Y-105256740D01*
X160038260Y-105225763D01*
X160038257Y-105225760D01*
X160032400Y-105218963D01*
X159912095Y-105140985D01*
X159774739Y-105099907D01*
X159765763Y-105099852D01*
X159765762Y-105099852D01*
X159705555Y-105099484D01*
X159631376Y-105099031D01*
X159493529Y-105138428D01*
X159372280Y-105214930D01*
X159277377Y-105322388D01*
X159245633Y-105389999D01*
X159244239Y-105392969D01*
X159197182Y-105446131D01*
X159128854Y-105465413D01*
X159060948Y-105444693D01*
X159045497Y-105431124D01*
X159045025Y-105431665D01*
X159038260Y-105425764D01*
X159032400Y-105418963D01*
X158912095Y-105340985D01*
X158774739Y-105299907D01*
X158765763Y-105299852D01*
X158765762Y-105299852D01*
X158705555Y-105299484D01*
X158631376Y-105299031D01*
X158493529Y-105338428D01*
X158372280Y-105414930D01*
X158277377Y-105522388D01*
X158216447Y-105652163D01*
X158194391Y-105793823D01*
X158195555Y-105802725D01*
X158195555Y-105802728D01*
X158202751Y-105857752D01*
X158212980Y-105935979D01*
X158270720Y-106067203D01*
X158276497Y-106074076D01*
X158276498Y-106074077D01*
X158313584Y-106118196D01*
X158362970Y-106176948D01*
X158381143Y-106189045D01*
X158440546Y-106228587D01*
X158482313Y-106256390D01*
X158619157Y-106299142D01*
X158628129Y-106299306D01*
X158628132Y-106299307D01*
X158693463Y-106300504D01*
X158762499Y-106301770D01*
X158771533Y-106299307D01*
X158892158Y-106266421D01*
X158892160Y-106266420D01*
X158900817Y-106264060D01*
X159022991Y-106189045D01*
X159119200Y-106082754D01*
X159156387Y-106006000D01*
X159204089Y-105953417D01*
X159272648Y-105934971D01*
X159340295Y-105956518D01*
X159353762Y-105967008D01*
X159357194Y-105970076D01*
X159362970Y-105976948D01*
X159482313Y-106056390D01*
X159619157Y-106099142D01*
X159628129Y-106099306D01*
X159628132Y-106099307D01*
X159693463Y-106100504D01*
X159762499Y-106101770D01*
X159771533Y-106099307D01*
X159852332Y-106077279D01*
X159923316Y-106078659D01*
X159982284Y-106118196D01*
X160010516Y-106183338D01*
X159999049Y-106253402D01*
X159984630Y-106276586D01*
X159506993Y-106885739D01*
X159263826Y-107195861D01*
X159261830Y-107198341D01*
X159252291Y-107209893D01*
X159248127Y-107214684D01*
X159237982Y-107225775D01*
X159235839Y-107228058D01*
X159188200Y-107277562D01*
X158213002Y-108290942D01*
X158210779Y-108293195D01*
X158200121Y-108303724D01*
X158195505Y-108308059D01*
X158184261Y-108318094D01*
X158181949Y-108320105D01*
X157596403Y-108816684D01*
X157056924Y-109274195D01*
X157054476Y-109276219D01*
X157042814Y-109285613D01*
X157037759Y-109289477D01*
X157025638Y-109298267D01*
X157023035Y-109300105D01*
X156639885Y-109563437D01*
X155807379Y-110135603D01*
X155804753Y-110137359D01*
X155792187Y-110145535D01*
X155786768Y-110148869D01*
X155780766Y-110152355D01*
X155773827Y-110156385D01*
X155771055Y-110157948D01*
X154477231Y-110866296D01*
X154474421Y-110867789D01*
X154461078Y-110874662D01*
X154455346Y-110877433D01*
X154441708Y-110883605D01*
X154438791Y-110884881D01*
X153079990Y-111458860D01*
X153077036Y-111460064D01*
X153063083Y-111465546D01*
X153057103Y-111467723D01*
X153042902Y-111472488D01*
X153039908Y-111473451D01*
X151630005Y-111907194D01*
X151626944Y-111908093D01*
X151612558Y-111912123D01*
X151606383Y-111913686D01*
X151591793Y-111916988D01*
X151588698Y-111917647D01*
X150142203Y-112206685D01*
X150139084Y-112207268D01*
X150124310Y-112209833D01*
X150118009Y-112210764D01*
X150103122Y-112212578D01*
X150100012Y-112212918D01*
X149006945Y-112318168D01*
X148631692Y-112354301D01*
X148628546Y-112354564D01*
X148613590Y-112355623D01*
X148607263Y-112355910D01*
X148592237Y-112356212D01*
X148589056Y-112356235D01*
X148565821Y-112356113D01*
X147114013Y-112348510D01*
X147110827Y-112348453D01*
X147095893Y-112347997D01*
X147089533Y-112347642D01*
X147089507Y-112347640D01*
X147074591Y-112346427D01*
X147071537Y-112346140D01*
X145604633Y-112189373D01*
X145601575Y-112189007D01*
X145586712Y-112187037D01*
X145580448Y-112186045D01*
X145565697Y-112183324D01*
X145562589Y-112182710D01*
X144119201Y-111878540D01*
X144116097Y-111877845D01*
X144101532Y-111874388D01*
X144095389Y-111872765D01*
X144080991Y-111868568D01*
X144077944Y-111867638D01*
X142672735Y-111419178D01*
X142669716Y-111418173D01*
X142658486Y-111414274D01*
X142655548Y-111413254D01*
X142649610Y-111411022D01*
X142635718Y-111405395D01*
X142632824Y-111404180D01*
X142152166Y-111195184D01*
X142149036Y-111193823D01*
X150694391Y-111193823D01*
X150695555Y-111202725D01*
X150695555Y-111202728D01*
X150696814Y-111212354D01*
X150712980Y-111335979D01*
X150770720Y-111467203D01*
X150776497Y-111474076D01*
X150776498Y-111474077D01*
X150783792Y-111482754D01*
X150862970Y-111576948D01*
X150982313Y-111656390D01*
X151119157Y-111699142D01*
X151128129Y-111699306D01*
X151128132Y-111699307D01*
X151193463Y-111700504D01*
X151262499Y-111701770D01*
X151271533Y-111699307D01*
X151392158Y-111666421D01*
X151392160Y-111666420D01*
X151400817Y-111664060D01*
X151522991Y-111589045D01*
X151619200Y-111482754D01*
X151681710Y-111353733D01*
X151705496Y-111212354D01*
X151705647Y-111200000D01*
X151685323Y-111058082D01*
X151625984Y-110927572D01*
X151589199Y-110884881D01*
X151538260Y-110825763D01*
X151538257Y-110825760D01*
X151532400Y-110818963D01*
X151412095Y-110740985D01*
X151274739Y-110699907D01*
X151265763Y-110699852D01*
X151265762Y-110699852D01*
X151205555Y-110699484D01*
X151131376Y-110699031D01*
X150993529Y-110738428D01*
X150872280Y-110814930D01*
X150777377Y-110922388D01*
X150716447Y-111052163D01*
X150694391Y-111193823D01*
X142149036Y-111193823D01*
X141279975Y-110815944D01*
X141277174Y-110814684D01*
X141267300Y-110810090D01*
X141263576Y-110808357D01*
X141257883Y-110805531D01*
X141255348Y-110804192D01*
X141244613Y-110798520D01*
X141241923Y-110797055D01*
X139955396Y-110075089D01*
X139952782Y-110073579D01*
X139939835Y-110065876D01*
X139934457Y-110062488D01*
X139922065Y-110054239D01*
X139919434Y-110052440D01*
X138712535Y-109204218D01*
X138709990Y-109202381D01*
X138697927Y-109193439D01*
X138692920Y-109189526D01*
X138681373Y-109180023D01*
X138678944Y-109177972D01*
X137563959Y-108212143D01*
X137561575Y-108210024D01*
X137550565Y-108199988D01*
X137545960Y-108195572D01*
X137535418Y-108184937D01*
X137533205Y-108182647D01*
X136663293Y-107259521D01*
X136521571Y-107109129D01*
X136519469Y-107106842D01*
X136509412Y-107095614D01*
X136505326Y-107090813D01*
X136495885Y-107079133D01*
X136493927Y-107076647D01*
X135845720Y-106231887D01*
X141333653Y-106231887D01*
X141333677Y-106232226D01*
X141339500Y-106240858D01*
X141672715Y-106545660D01*
X141675846Y-106548344D01*
X142146614Y-106926175D01*
X142149897Y-106928640D01*
X142644088Y-107275319D01*
X142647515Y-107277562D01*
X143163060Y-107591635D01*
X143166595Y-107593635D01*
X143308843Y-107668159D01*
X143359902Y-107717490D01*
X143376185Y-107786594D01*
X143352523Y-107853532D01*
X143317607Y-107886331D01*
X143272280Y-107914930D01*
X143177377Y-108022388D01*
X143116447Y-108152163D01*
X143094391Y-108293823D01*
X143095555Y-108302725D01*
X143095555Y-108302728D01*
X143097902Y-108320674D01*
X143112980Y-108435979D01*
X143116597Y-108444199D01*
X143160829Y-108544723D01*
X143170720Y-108567203D01*
X143176497Y-108574076D01*
X143176498Y-108574077D01*
X143229712Y-108637383D01*
X143262970Y-108676948D01*
X143382313Y-108756390D01*
X143519157Y-108799142D01*
X143528129Y-108799306D01*
X143528132Y-108799307D01*
X143593463Y-108800504D01*
X143662499Y-108801770D01*
X143671533Y-108799307D01*
X143792158Y-108766421D01*
X143792160Y-108766420D01*
X143800817Y-108764060D01*
X143922991Y-108689045D01*
X144019200Y-108582754D01*
X144081710Y-108453733D01*
X144105496Y-108312354D01*
X144105647Y-108300000D01*
X144100083Y-108261151D01*
X144110227Y-108190886D01*
X144156750Y-108137256D01*
X144224882Y-108117292D01*
X144268422Y-108125080D01*
X144826872Y-108331103D01*
X144830737Y-108332389D01*
X145409415Y-108504350D01*
X145413349Y-108505382D01*
X145479941Y-108520573D01*
X145541907Y-108555224D01*
X145575302Y-108617876D01*
X145569524Y-108688637D01*
X145524189Y-108746629D01*
X145393123Y-108838402D01*
X145238402Y-108993123D01*
X145112898Y-109172362D01*
X145110577Y-109177340D01*
X145110575Y-109177343D01*
X145058286Y-109289477D01*
X145020425Y-109370670D01*
X144963793Y-109582023D01*
X144944723Y-109800000D01*
X144963793Y-110017977D01*
X145020425Y-110229330D01*
X145112898Y-110427638D01*
X145238402Y-110606877D01*
X145393123Y-110761598D01*
X145397631Y-110764755D01*
X145397634Y-110764757D01*
X145567852Y-110883945D01*
X145572361Y-110887102D01*
X145577343Y-110889425D01*
X145577348Y-110889428D01*
X145665458Y-110930514D01*
X145770670Y-110979575D01*
X145775978Y-110980997D01*
X145775980Y-110980998D01*
X145841745Y-110998620D01*
X145982023Y-111036207D01*
X146200000Y-111055277D01*
X146417977Y-111036207D01*
X146558255Y-110998620D01*
X146624020Y-110980998D01*
X146624022Y-110980997D01*
X146629330Y-110979575D01*
X146734542Y-110930514D01*
X146822652Y-110889428D01*
X146822657Y-110889425D01*
X146827639Y-110887102D01*
X146832148Y-110883945D01*
X147002366Y-110764757D01*
X147002369Y-110764755D01*
X147006877Y-110761598D01*
X147161598Y-110606877D01*
X147287102Y-110427638D01*
X147379575Y-110229330D01*
X147436207Y-110017977D01*
X147455277Y-109800000D01*
X147436207Y-109582023D01*
X147379575Y-109370670D01*
X147341714Y-109289477D01*
X147289425Y-109177343D01*
X147289423Y-109177340D01*
X147287102Y-109172362D01*
X147162584Y-108994531D01*
X147139896Y-108927257D01*
X147157181Y-108858397D01*
X147208951Y-108809813D01*
X147269645Y-108796320D01*
X147814384Y-108812964D01*
X147818472Y-108812956D01*
X148228041Y-108799012D01*
X148296803Y-108816684D01*
X148345094Y-108868727D01*
X148357583Y-108938617D01*
X148335541Y-108997209D01*
X148212898Y-109172362D01*
X148210577Y-109177340D01*
X148210575Y-109177343D01*
X148158286Y-109289477D01*
X148120425Y-109370670D01*
X148063793Y-109582023D01*
X148044723Y-109800000D01*
X148063793Y-110017977D01*
X148120425Y-110229330D01*
X148212898Y-110427638D01*
X148338402Y-110606877D01*
X148493123Y-110761598D01*
X148497631Y-110764755D01*
X148497634Y-110764757D01*
X148667852Y-110883945D01*
X148672361Y-110887102D01*
X148677343Y-110889425D01*
X148677348Y-110889428D01*
X148765458Y-110930514D01*
X148870670Y-110979575D01*
X148875978Y-110980997D01*
X148875980Y-110980998D01*
X148941745Y-110998620D01*
X149082023Y-111036207D01*
X149300000Y-111055277D01*
X149517977Y-111036207D01*
X149658255Y-110998620D01*
X149724020Y-110980998D01*
X149724022Y-110980997D01*
X149729330Y-110979575D01*
X149834542Y-110930514D01*
X149922652Y-110889428D01*
X149922657Y-110889425D01*
X149927639Y-110887102D01*
X149932148Y-110883945D01*
X150102366Y-110764757D01*
X150102369Y-110764755D01*
X150106877Y-110761598D01*
X150261598Y-110606877D01*
X150387102Y-110427638D01*
X150479575Y-110229330D01*
X150536207Y-110017977D01*
X150555277Y-109800000D01*
X150536207Y-109582023D01*
X150479575Y-109370670D01*
X150441714Y-109289477D01*
X150389425Y-109177343D01*
X150389423Y-109177340D01*
X150387102Y-109172362D01*
X150261598Y-108993123D01*
X150106877Y-108838402D01*
X150102369Y-108835245D01*
X150102366Y-108835243D01*
X149999849Y-108763460D01*
X149955521Y-108708003D01*
X149948212Y-108637383D01*
X149980243Y-108574023D01*
X150043669Y-108537501D01*
X150218425Y-108496995D01*
X150222345Y-108495952D01*
X150800442Y-108321964D01*
X150804275Y-108320674D01*
X151369914Y-108109753D01*
X151373707Y-108108197D01*
X151924544Y-107861219D01*
X151928205Y-107859433D01*
X152461987Y-107577406D01*
X152465493Y-107575406D01*
X152979963Y-107259521D01*
X152983360Y-107257280D01*
X153476367Y-106908858D01*
X153479591Y-106906420D01*
X153949100Y-106526897D01*
X153952167Y-106524250D01*
X154257854Y-106242663D01*
X154266032Y-106229046D01*
X154266018Y-106228587D01*
X154260673Y-106219883D01*
X147812812Y-99772022D01*
X147798868Y-99764408D01*
X147797035Y-99764539D01*
X147790420Y-99768790D01*
X141341267Y-106217943D01*
X141333653Y-106231887D01*
X135845720Y-106231887D01*
X135595956Y-105906388D01*
X135594050Y-105903837D01*
X135585240Y-105891734D01*
X135581627Y-105886498D01*
X135573403Y-105873906D01*
X135571721Y-105871257D01*
X135568173Y-105865511D01*
X134796622Y-104616262D01*
X134794982Y-104613532D01*
X134787440Y-104600599D01*
X134784376Y-104595025D01*
X134777492Y-104581715D01*
X134776065Y-104578868D01*
X134351471Y-103704453D01*
X134131738Y-103251930D01*
X134130388Y-103249058D01*
X134124213Y-103235477D01*
X134121718Y-103229600D01*
X134116224Y-103215686D01*
X134115093Y-103212712D01*
X133790995Y-102327074D01*
X133608146Y-101827415D01*
X133607097Y-101824432D01*
X133605252Y-101818963D01*
X133602321Y-101810280D01*
X133600438Y-101804195D01*
X133596382Y-101789815D01*
X133595554Y-101786732D01*
X133231200Y-100357316D01*
X133230463Y-100354260D01*
X133227133Y-100339657D01*
X133225875Y-100333418D01*
X133223281Y-100318633D01*
X133222769Y-100315483D01*
X133045532Y-99129562D01*
X133004747Y-98856662D01*
X133004317Y-98853513D01*
X133002479Y-98838654D01*
X133001856Y-98832301D01*
X133000772Y-98817356D01*
X133000582Y-98814177D01*
X132993028Y-98653998D01*
X132931094Y-97340690D01*
X132930988Y-97337607D01*
X132930708Y-97324791D01*
X132930661Y-97322615D01*
X132930683Y-97316252D01*
X132931113Y-97301308D01*
X132931245Y-97298118D01*
X132942256Y-97094814D01*
X132992360Y-96169669D01*
X136667001Y-96169669D01*
X136667371Y-96176490D01*
X136672895Y-96227352D01*
X136676521Y-96242604D01*
X136721676Y-96363054D01*
X136730214Y-96378649D01*
X136806715Y-96480724D01*
X136819276Y-96493285D01*
X136921351Y-96569786D01*
X136936948Y-96578325D01*
X137029726Y-96613106D01*
X137086491Y-96655747D01*
X137111191Y-96722309D01*
X137101907Y-96779304D01*
X137088026Y-96812817D01*
X137069965Y-96950000D01*
X137088026Y-97087183D01*
X137140976Y-97215017D01*
X137183092Y-97269904D01*
X137220180Y-97318238D01*
X137220183Y-97318241D01*
X137225209Y-97324791D01*
X137231759Y-97329817D01*
X137231760Y-97329818D01*
X137258674Y-97350470D01*
X137334982Y-97409024D01*
X137342609Y-97412183D01*
X137454650Y-97458591D01*
X137509931Y-97503139D01*
X137532352Y-97570502D01*
X137514794Y-97639293D01*
X137462832Y-97687672D01*
X137454654Y-97691407D01*
X137334983Y-97740976D01*
X137225209Y-97825209D01*
X137140976Y-97934983D01*
X137088026Y-98062817D01*
X137069965Y-98200000D01*
X137088026Y-98337183D01*
X137140976Y-98465017D01*
X137169080Y-98501642D01*
X137220180Y-98568238D01*
X137220183Y-98568241D01*
X137225209Y-98574791D01*
X137334982Y-98659024D01*
X137351542Y-98665883D01*
X137454650Y-98708591D01*
X137509931Y-98753139D01*
X137532352Y-98820502D01*
X137514794Y-98889293D01*
X137462832Y-98937672D01*
X137454654Y-98941407D01*
X137334983Y-98990976D01*
X137225209Y-99075209D01*
X137140976Y-99184983D01*
X137088026Y-99312817D01*
X137069965Y-99450000D01*
X137088026Y-99587183D01*
X137140976Y-99715017D01*
X137163277Y-99744080D01*
X137220180Y-99818238D01*
X137220183Y-99818241D01*
X137225209Y-99824791D01*
X137334982Y-99909024D01*
X137342611Y-99912184D01*
X137455189Y-99958815D01*
X137455193Y-99958816D01*
X137462817Y-99961974D01*
X137470997Y-99963051D01*
X137471001Y-99963052D01*
X137591812Y-99978957D01*
X137600000Y-99980035D01*
X137608188Y-99978957D01*
X137728999Y-99963052D01*
X137729003Y-99963051D01*
X137737183Y-99961974D01*
X137744807Y-99958816D01*
X137744811Y-99958815D01*
X137857389Y-99912184D01*
X137865018Y-99909024D01*
X137974791Y-99824791D01*
X137979817Y-99818241D01*
X137979820Y-99818238D01*
X138036723Y-99744080D01*
X138059024Y-99715017D01*
X138101896Y-99611514D01*
X138389403Y-99611514D01*
X138389495Y-99615588D01*
X138422667Y-100218368D01*
X138423022Y-100222420D01*
X138495028Y-100821822D01*
X138495638Y-100825812D01*
X138606173Y-101419317D01*
X138607045Y-101423282D01*
X138755647Y-102008405D01*
X138756772Y-102012303D01*
X138942827Y-102586624D01*
X138944203Y-102590445D01*
X139166923Y-103151541D01*
X139168554Y-103155292D01*
X139427015Y-103700839D01*
X139428873Y-103704453D01*
X139722019Y-104232217D01*
X139724094Y-104235684D01*
X140050683Y-104743424D01*
X140052999Y-104746781D01*
X140411653Y-105232359D01*
X140414184Y-105235564D01*
X140803434Y-105696995D01*
X140806161Y-105700024D01*
X140957555Y-105857621D01*
X140971340Y-105865511D01*
X140972504Y-105865451D01*
X140980137Y-105860653D01*
X147427978Y-99412812D01*
X147434356Y-99401132D01*
X148164408Y-99401132D01*
X148164539Y-99402965D01*
X148168790Y-99409580D01*
X154616962Y-105857752D01*
X154630906Y-105865366D01*
X154631950Y-105865292D01*
X154639643Y-105860218D01*
X154815787Y-105675573D01*
X154818510Y-105672527D01*
X155206152Y-105209734D01*
X155208646Y-105206554D01*
X155565621Y-104719701D01*
X155567921Y-104716341D01*
X155892732Y-104207472D01*
X155894803Y-104203984D01*
X156186104Y-103675202D01*
X156187940Y-103671600D01*
X156444512Y-103125120D01*
X156446114Y-103121401D01*
X156666884Y-102559502D01*
X156668241Y-102555692D01*
X156852293Y-101980714D01*
X156853399Y-101976832D01*
X156999966Y-101391165D01*
X157000818Y-101387221D01*
X157109281Y-100793335D01*
X157109882Y-100789310D01*
X157175554Y-100226033D01*
X157203310Y-100160687D01*
X157261989Y-100120720D01*
X157332960Y-100118822D01*
X157389724Y-100151451D01*
X157487429Y-100248986D01*
X157498840Y-100257998D01*
X157631880Y-100340004D01*
X157645061Y-100346151D01*
X157656582Y-100349972D01*
X157714943Y-100390401D01*
X157742182Y-100455964D01*
X157729650Y-100525846D01*
X157706013Y-100558661D01*
X157679253Y-100585421D01*
X157630741Y-100689455D01*
X157624500Y-100736861D01*
X157624501Y-101263138D01*
X157630741Y-101310545D01*
X157634814Y-101319279D01*
X157634814Y-101319280D01*
X157658086Y-101369187D01*
X157679253Y-101414579D01*
X157760421Y-101495747D01*
X157770413Y-101500406D01*
X157770414Y-101500407D01*
X157813506Y-101520501D01*
X157864455Y-101544259D01*
X157874014Y-101545517D01*
X157883266Y-101548214D01*
X157882181Y-101551935D01*
X157929943Y-101573105D01*
X157968992Y-101632398D01*
X157974500Y-101669246D01*
X157974500Y-101791672D01*
X157954498Y-101859793D01*
X157900842Y-101906286D01*
X157883125Y-101912821D01*
X157836952Y-101926018D01*
X157793529Y-101938428D01*
X157672280Y-102014930D01*
X157577377Y-102122388D01*
X157516447Y-102252163D01*
X157515066Y-102261035D01*
X157499375Y-102361814D01*
X157494391Y-102393823D01*
X157495555Y-102402725D01*
X157495555Y-102402728D01*
X157496814Y-102412354D01*
X157512980Y-102535979D01*
X157570720Y-102667203D01*
X157576497Y-102674076D01*
X157576498Y-102674077D01*
X157657190Y-102770072D01*
X157662970Y-102776948D01*
X157782313Y-102856390D01*
X157919157Y-102899142D01*
X157928129Y-102899306D01*
X157928132Y-102899307D01*
X157993463Y-102900504D01*
X158062499Y-102901770D01*
X158071533Y-102899307D01*
X158192158Y-102866421D01*
X158192160Y-102866420D01*
X158200817Y-102864060D01*
X158322991Y-102789045D01*
X158419200Y-102682754D01*
X158464602Y-102589045D01*
X158477795Y-102561814D01*
X158477795Y-102561813D01*
X158481710Y-102553733D01*
X158505496Y-102412354D01*
X158505647Y-102400000D01*
X158485323Y-102258082D01*
X158456725Y-102195184D01*
X158436799Y-102151358D01*
X158425500Y-102099207D01*
X158425500Y-101669245D01*
X158445502Y-101601124D01*
X158499158Y-101554631D01*
X158517103Y-101549483D01*
X158516733Y-101548214D01*
X158525987Y-101545517D01*
X158535545Y-101544259D01*
X158629387Y-101500500D01*
X158629586Y-101500407D01*
X158629587Y-101500406D01*
X158639579Y-101495747D01*
X158720747Y-101414579D01*
X158722466Y-101410892D01*
X158774578Y-101369242D01*
X158845197Y-101361937D01*
X158911423Y-101396749D01*
X158960421Y-101445747D01*
X159064455Y-101494259D01*
X159111861Y-101500500D01*
X159136425Y-101500500D01*
X159548501Y-101500499D01*
X159616621Y-101520501D01*
X159663114Y-101574156D01*
X159674500Y-101626499D01*
X159674500Y-101680950D01*
X159654498Y-101749071D01*
X159615735Y-101787512D01*
X159572280Y-101814930D01*
X159477377Y-101922388D01*
X159416447Y-102052163D01*
X159415066Y-102061035D01*
X159401003Y-102151358D01*
X159394391Y-102193823D01*
X159395555Y-102202725D01*
X159395555Y-102202728D01*
X159402020Y-102252163D01*
X159412980Y-102335979D01*
X159470720Y-102467203D01*
X159476497Y-102474076D01*
X159476498Y-102474077D01*
X159557190Y-102570072D01*
X159562970Y-102576948D01*
X159682313Y-102656390D01*
X159819157Y-102699142D01*
X159828129Y-102699306D01*
X159828132Y-102699307D01*
X159893463Y-102700504D01*
X159962499Y-102701770D01*
X159971533Y-102699307D01*
X160092158Y-102666421D01*
X160092160Y-102666420D01*
X160100817Y-102664060D01*
X160222991Y-102589045D01*
X160319200Y-102482754D01*
X160381710Y-102353733D01*
X160405496Y-102212354D01*
X160405647Y-102200000D01*
X160393569Y-102115659D01*
X160386596Y-102066968D01*
X160386595Y-102066965D01*
X160385323Y-102058082D01*
X160325984Y-101927572D01*
X160239683Y-101827415D01*
X160238260Y-101825763D01*
X160238257Y-101825760D01*
X160232400Y-101818963D01*
X160182966Y-101786921D01*
X160136684Y-101733088D01*
X160125500Y-101681191D01*
X160125500Y-101459208D01*
X160125673Y-101452614D01*
X160127007Y-101427163D01*
X160127007Y-101427162D01*
X160127700Y-101413936D01*
X160122954Y-101401574D01*
X160122954Y-101401571D01*
X160120436Y-101395012D01*
X160114820Y-101376053D01*
X160113361Y-101369187D01*
X160113360Y-101369185D01*
X160110607Y-101356232D01*
X160102822Y-101345517D01*
X160100797Y-101340969D01*
X160098091Y-101336802D01*
X160093346Y-101324441D01*
X160079017Y-101310112D01*
X160066176Y-101295078D01*
X160062043Y-101289389D01*
X160062042Y-101289388D01*
X160054260Y-101278677D01*
X160042794Y-101272057D01*
X160032949Y-101263193D01*
X160033267Y-101262840D01*
X160026728Y-101257823D01*
X160012405Y-101243500D01*
X159978379Y-101181188D01*
X159975500Y-101154405D01*
X159975499Y-100690987D01*
X159975499Y-100686862D01*
X159969259Y-100639455D01*
X159944063Y-100585421D01*
X159925407Y-100545414D01*
X159925406Y-100545413D01*
X159920747Y-100535421D01*
X159893898Y-100508572D01*
X159859872Y-100446260D01*
X159864937Y-100375445D01*
X159907484Y-100318609D01*
X159943116Y-100299954D01*
X159956102Y-100295622D01*
X159969286Y-100289445D01*
X160102173Y-100207212D01*
X160113574Y-100198176D01*
X160223986Y-100087571D01*
X160232998Y-100076160D01*
X160315004Y-99943120D01*
X160321151Y-99929939D01*
X160370491Y-99781186D01*
X160373358Y-99767810D01*
X160382672Y-99676903D01*
X160382929Y-99671874D01*
X160378525Y-99656876D01*
X160377135Y-99655671D01*
X160369452Y-99654000D01*
X159241115Y-99654000D01*
X159225876Y-99658474D01*
X159224111Y-99660512D01*
X159164385Y-99698896D01*
X159128886Y-99704000D01*
X158072000Y-99704000D01*
X158003879Y-99683998D01*
X157957386Y-99630342D01*
X157946000Y-99578000D01*
X157946000Y-99127885D01*
X158454000Y-99127885D01*
X158458475Y-99143124D01*
X158459865Y-99144329D01*
X158467548Y-99146000D01*
X159127885Y-99146000D01*
X159143124Y-99141525D01*
X159144329Y-99140135D01*
X159146000Y-99132452D01*
X159146000Y-99127885D01*
X159654000Y-99127885D01*
X159658475Y-99143124D01*
X159659865Y-99144329D01*
X159667548Y-99146000D01*
X160364885Y-99146000D01*
X160380124Y-99141525D01*
X160381329Y-99140135D01*
X160383000Y-99132452D01*
X160383000Y-99129562D01*
X160382663Y-99123047D01*
X160373106Y-99030943D01*
X160370212Y-99017544D01*
X160320619Y-98868893D01*
X160314445Y-98855714D01*
X160232212Y-98722827D01*
X160223176Y-98711426D01*
X160112571Y-98601014D01*
X160101160Y-98592002D01*
X159968120Y-98509996D01*
X159954939Y-98503849D01*
X159806186Y-98454509D01*
X159792810Y-98451642D01*
X159701903Y-98442328D01*
X159695486Y-98442000D01*
X159672115Y-98442000D01*
X159656876Y-98446475D01*
X159655671Y-98447865D01*
X159654000Y-98455548D01*
X159654000Y-99127885D01*
X159146000Y-99127885D01*
X159146000Y-98460115D01*
X159141525Y-98444876D01*
X159140135Y-98443671D01*
X159132452Y-98442000D01*
X159104562Y-98442000D01*
X159098047Y-98442337D01*
X159005943Y-98451894D01*
X158992544Y-98454788D01*
X158843884Y-98504384D01*
X158830721Y-98510550D01*
X158808798Y-98524116D01*
X158740346Y-98542953D01*
X158702829Y-98536564D01*
X158606189Y-98504510D01*
X158592810Y-98501642D01*
X158501903Y-98492328D01*
X158495486Y-98492000D01*
X158472115Y-98492000D01*
X158456876Y-98496475D01*
X158455671Y-98497865D01*
X158454000Y-98505548D01*
X158454000Y-99127885D01*
X157946000Y-99127885D01*
X157946000Y-98510115D01*
X157941525Y-98494876D01*
X157940135Y-98493671D01*
X157932452Y-98492000D01*
X157904562Y-98492000D01*
X157898047Y-98492337D01*
X157805943Y-98501894D01*
X157792544Y-98504788D01*
X157643893Y-98554381D01*
X157630714Y-98560555D01*
X157497827Y-98642788D01*
X157486426Y-98651824D01*
X157395693Y-98742715D01*
X157333410Y-98776794D01*
X157262590Y-98771791D01*
X157205718Y-98729294D01*
X157181111Y-98665883D01*
X157134836Y-98189662D01*
X157134316Y-98185652D01*
X157037275Y-97589796D01*
X157036487Y-97585783D01*
X156901206Y-96997474D01*
X156900160Y-96993518D01*
X156727195Y-96415163D01*
X156725897Y-96411282D01*
X156515959Y-95845262D01*
X156514433Y-95841524D01*
X156268405Y-95290231D01*
X156266625Y-95286566D01*
X155985537Y-94752303D01*
X155983528Y-94748768D01*
X155668550Y-94233762D01*
X155666322Y-94230371D01*
X155318748Y-93736739D01*
X155316322Y-93733520D01*
X154937619Y-93263349D01*
X154934975Y-93260276D01*
X154642813Y-92941994D01*
X154629209Y-92933792D01*
X154628810Y-92933804D01*
X154620017Y-92939193D01*
X148172022Y-99387188D01*
X148164408Y-99401132D01*
X147434356Y-99401132D01*
X147435592Y-99398868D01*
X147435461Y-99397035D01*
X147431210Y-99390420D01*
X140980806Y-92940016D01*
X140966862Y-92932402D01*
X140965057Y-92932531D01*
X140958404Y-92936810D01*
X140928383Y-92966885D01*
X140925621Y-92969835D01*
X140527560Y-93423737D01*
X140524995Y-93426860D01*
X140157060Y-93905497D01*
X140154697Y-93908785D01*
X139818413Y-94410172D01*
X139816271Y-94413601D01*
X139513052Y-94935630D01*
X139511126Y-94939208D01*
X139242232Y-95479706D01*
X139240535Y-95483415D01*
X139007078Y-96040146D01*
X139005638Y-96043916D01*
X138808586Y-96614579D01*
X138807390Y-96618443D01*
X138647586Y-97200591D01*
X138646629Y-97204578D01*
X138524729Y-97795806D01*
X138524033Y-97799835D01*
X138440539Y-98397713D01*
X138440107Y-98401757D01*
X138395367Y-99003802D01*
X138395197Y-99007860D01*
X138389403Y-99611514D01*
X138101896Y-99611514D01*
X138111974Y-99587183D01*
X138130035Y-99450000D01*
X138111974Y-99312817D01*
X138059024Y-99184983D01*
X138011499Y-99123047D01*
X137979820Y-99081762D01*
X137979817Y-99081759D01*
X137974791Y-99075209D01*
X137865018Y-98990976D01*
X137745350Y-98941409D01*
X137690069Y-98896861D01*
X137667647Y-98829498D01*
X137685205Y-98760707D01*
X137737166Y-98712328D01*
X137745350Y-98708591D01*
X137857389Y-98662184D01*
X137857391Y-98662183D01*
X137865018Y-98659024D01*
X137974791Y-98574791D01*
X137979817Y-98568241D01*
X137979820Y-98568238D01*
X138030920Y-98501642D01*
X138059024Y-98465017D01*
X138111974Y-98337183D01*
X138130035Y-98200000D01*
X138111974Y-98062817D01*
X138059024Y-97934983D01*
X138016908Y-97880096D01*
X137979820Y-97831762D01*
X137979817Y-97831759D01*
X137974791Y-97825209D01*
X137941724Y-97799835D01*
X137871568Y-97746002D01*
X137865018Y-97740976D01*
X137745350Y-97691409D01*
X137690069Y-97646861D01*
X137667647Y-97579498D01*
X137685205Y-97510707D01*
X137737166Y-97462328D01*
X137745350Y-97458591D01*
X137857389Y-97412184D01*
X137857391Y-97412183D01*
X137865018Y-97409024D01*
X137941326Y-97350470D01*
X137968240Y-97329818D01*
X137968241Y-97329817D01*
X137974791Y-97324791D01*
X137979817Y-97318241D01*
X137979820Y-97318238D01*
X138016907Y-97269904D01*
X138059024Y-97215017D01*
X138111974Y-97087183D01*
X138130035Y-96950000D01*
X138111974Y-96812817D01*
X138098093Y-96779304D01*
X138090505Y-96708714D01*
X138122286Y-96645228D01*
X138170274Y-96613106D01*
X138263052Y-96578325D01*
X138278649Y-96569786D01*
X138380724Y-96493285D01*
X138393285Y-96480724D01*
X138469786Y-96378649D01*
X138478324Y-96363054D01*
X138523478Y-96242606D01*
X138527105Y-96227351D01*
X138532631Y-96176486D01*
X138533000Y-96169672D01*
X138533000Y-95972115D01*
X138528525Y-95956876D01*
X138527135Y-95955671D01*
X138519452Y-95954000D01*
X136685116Y-95954000D01*
X136669877Y-95958475D01*
X136668672Y-95959865D01*
X136667001Y-95967548D01*
X136667001Y-96169669D01*
X132992360Y-96169669D01*
X133011019Y-95825144D01*
X133011231Y-95821979D01*
X133012416Y-95807093D01*
X133013082Y-95800756D01*
X133015022Y-95785919D01*
X133015476Y-95782762D01*
X133071048Y-95427885D01*
X136667000Y-95427885D01*
X136671475Y-95443124D01*
X136672865Y-95444329D01*
X136680548Y-95446000D01*
X137327885Y-95446000D01*
X137343124Y-95441525D01*
X137344329Y-95440135D01*
X137346000Y-95432452D01*
X137346000Y-95427885D01*
X137854000Y-95427885D01*
X137858475Y-95443124D01*
X137859865Y-95444329D01*
X137867548Y-95446000D01*
X138514884Y-95446000D01*
X138530123Y-95441525D01*
X138531328Y-95440135D01*
X138532999Y-95432452D01*
X138532999Y-95230331D01*
X138532629Y-95223510D01*
X138527105Y-95172648D01*
X138523479Y-95157396D01*
X138478324Y-95036946D01*
X138469786Y-95021351D01*
X138393285Y-94919276D01*
X138380724Y-94906715D01*
X138278649Y-94830214D01*
X138263054Y-94821676D01*
X138142606Y-94776522D01*
X138127351Y-94772895D01*
X138076486Y-94767369D01*
X138069672Y-94767000D01*
X137872115Y-94767000D01*
X137856876Y-94771475D01*
X137855671Y-94772865D01*
X137854000Y-94780548D01*
X137854000Y-95427885D01*
X137346000Y-95427885D01*
X137346000Y-94785116D01*
X137341525Y-94769877D01*
X137340135Y-94768672D01*
X137332452Y-94767001D01*
X137130331Y-94767001D01*
X137123510Y-94767371D01*
X137072648Y-94772895D01*
X137057396Y-94776521D01*
X136936946Y-94821676D01*
X136921351Y-94830214D01*
X136819276Y-94906715D01*
X136806715Y-94919276D01*
X136730214Y-95021351D01*
X136721676Y-95036946D01*
X136676522Y-95157394D01*
X136672895Y-95172649D01*
X136667369Y-95223514D01*
X136667000Y-95230328D01*
X136667000Y-95427885D01*
X133071048Y-95427885D01*
X133172418Y-94780548D01*
X133243684Y-94325451D01*
X133244216Y-94322316D01*
X133246909Y-94307573D01*
X133248211Y-94301339D01*
X133251649Y-94286742D01*
X133252404Y-94283705D01*
X133626737Y-92856834D01*
X133627574Y-92853805D01*
X133631730Y-92839455D01*
X133633658Y-92833377D01*
X133638540Y-92819240D01*
X133639617Y-92816243D01*
X134004829Y-91839438D01*
X137150066Y-91839438D01*
X137176883Y-92061044D01*
X137242519Y-92274400D01*
X137344901Y-92472759D01*
X137348310Y-92477201D01*
X137348312Y-92477205D01*
X137434975Y-92590146D01*
X137480790Y-92649854D01*
X137645893Y-92800086D01*
X137834990Y-92918707D01*
X138042105Y-93001966D01*
X138047593Y-93003103D01*
X138047598Y-93003104D01*
X138197896Y-93034229D01*
X138260690Y-93047233D01*
X138265303Y-93047499D01*
X138315526Y-93050395D01*
X138315530Y-93050395D01*
X138317349Y-93050500D01*
X138461630Y-93050500D01*
X138464417Y-93050251D01*
X138464423Y-93050251D01*
X138533997Y-93044041D01*
X138627339Y-93035711D01*
X138632753Y-93034230D01*
X138632758Y-93034229D01*
X138760104Y-92999390D01*
X138842651Y-92976808D01*
X138847709Y-92974396D01*
X138847713Y-92974394D01*
X138964462Y-92918707D01*
X139044129Y-92880708D01*
X139225405Y-92750448D01*
X139380749Y-92590146D01*
X139395087Y-92568808D01*
X141332090Y-92568808D01*
X141332225Y-92570670D01*
X141336453Y-92577243D01*
X147787188Y-99027978D01*
X147801132Y-99035592D01*
X147802965Y-99035461D01*
X147809580Y-99031210D01*
X154257803Y-92582987D01*
X154265417Y-92569043D01*
X154265339Y-92567941D01*
X154260326Y-92560325D01*
X154087807Y-92395175D01*
X154084777Y-92392456D01*
X153622650Y-92003998D01*
X153619478Y-92001502D01*
X153133249Y-91643677D01*
X153129891Y-91641369D01*
X152621601Y-91315679D01*
X152618083Y-91313582D01*
X152089845Y-91021377D01*
X152086220Y-91019522D01*
X151540225Y-90762014D01*
X151536457Y-90760384D01*
X150974988Y-90538649D01*
X150971159Y-90537278D01*
X150396502Y-90352222D01*
X150392627Y-90351111D01*
X150040675Y-90262380D01*
X149979511Y-90226332D01*
X149947545Y-90162938D01*
X149954927Y-90092327D01*
X149999206Y-90036990D01*
X150102366Y-89964757D01*
X150102369Y-89964755D01*
X150106877Y-89961598D01*
X150261598Y-89806877D01*
X150387102Y-89627638D01*
X150479575Y-89429330D01*
X150536207Y-89217977D01*
X150555277Y-89000000D01*
X150536207Y-88782023D01*
X150479575Y-88570670D01*
X150387102Y-88372362D01*
X150261598Y-88193123D01*
X150106877Y-88038402D01*
X150102369Y-88035245D01*
X150102366Y-88035243D01*
X149932148Y-87916055D01*
X149932145Y-87916053D01*
X149927639Y-87912898D01*
X149922657Y-87910575D01*
X149922652Y-87910572D01*
X149734312Y-87822748D01*
X149734311Y-87822747D01*
X149729330Y-87820425D01*
X149724022Y-87819003D01*
X149724020Y-87819002D01*
X149658255Y-87801380D01*
X149517977Y-87763793D01*
X149300000Y-87744723D01*
X149082023Y-87763793D01*
X148941745Y-87801380D01*
X148875980Y-87819002D01*
X148875978Y-87819003D01*
X148870670Y-87820425D01*
X148865690Y-87822747D01*
X148865688Y-87822748D01*
X148677343Y-87910575D01*
X148677340Y-87910577D01*
X148672362Y-87912898D01*
X148493123Y-88038402D01*
X148338402Y-88193123D01*
X148212898Y-88372362D01*
X148120425Y-88570670D01*
X148063793Y-88782023D01*
X148044723Y-89000000D01*
X148063793Y-89217977D01*
X148120425Y-89429330D01*
X148212898Y-89627638D01*
X148335772Y-89803121D01*
X148358459Y-89870392D01*
X148341174Y-89939253D01*
X148289404Y-89987837D01*
X148225854Y-90001211D01*
X147999136Y-89989131D01*
X147995119Y-89989047D01*
X147391442Y-89995896D01*
X147387380Y-89996073D01*
X147274452Y-90004664D01*
X147205011Y-89989887D01*
X147154582Y-89939912D01*
X147139177Y-89870607D01*
X147161682Y-89806757D01*
X147164757Y-89802365D01*
X147287102Y-89627638D01*
X147379575Y-89429330D01*
X147436207Y-89217977D01*
X147455277Y-89000000D01*
X147436207Y-88782023D01*
X147379575Y-88570670D01*
X147287102Y-88372362D01*
X147161598Y-88193123D01*
X147006877Y-88038402D01*
X147002369Y-88035245D01*
X147002366Y-88035243D01*
X146832148Y-87916055D01*
X146832145Y-87916053D01*
X146827639Y-87912898D01*
X146822657Y-87910575D01*
X146822652Y-87910572D01*
X146634312Y-87822748D01*
X146634311Y-87822747D01*
X146629330Y-87820425D01*
X146624022Y-87819003D01*
X146624020Y-87819002D01*
X146558255Y-87801380D01*
X146417977Y-87763793D01*
X146200000Y-87744723D01*
X145982023Y-87763793D01*
X145841745Y-87801380D01*
X145775980Y-87819002D01*
X145775978Y-87819003D01*
X145770670Y-87820425D01*
X145765690Y-87822747D01*
X145765688Y-87822748D01*
X145577343Y-87910575D01*
X145577340Y-87910577D01*
X145572362Y-87912898D01*
X145393123Y-88038402D01*
X145238402Y-88193123D01*
X145112898Y-88372362D01*
X145020425Y-88570670D01*
X144963793Y-88782023D01*
X144944723Y-89000000D01*
X144963793Y-89217977D01*
X145020425Y-89429330D01*
X145112898Y-89627638D01*
X145238402Y-89806877D01*
X145393123Y-89961598D01*
X145397631Y-89964755D01*
X145397634Y-89964757D01*
X145525015Y-90053950D01*
X145569343Y-90109407D01*
X145576652Y-90180027D01*
X145544621Y-90243387D01*
X145486310Y-90278610D01*
X145002765Y-90412254D01*
X144998873Y-90413467D01*
X144428579Y-90611506D01*
X144424796Y-90612959D01*
X143868481Y-90847384D01*
X143864782Y-90849085D01*
X143324758Y-91118920D01*
X143321156Y-91120868D01*
X142799693Y-91424975D01*
X142796229Y-91427148D01*
X142295452Y-91764292D01*
X142292161Y-91766665D01*
X141814195Y-92135414D01*
X141811040Y-92138013D01*
X141357848Y-92536854D01*
X141354900Y-92539622D01*
X141339690Y-92554859D01*
X141332090Y-92568808D01*
X139395087Y-92568808D01*
X139505250Y-92404868D01*
X139510699Y-92392456D01*
X139543150Y-92318530D01*
X139594974Y-92200471D01*
X139596282Y-92195023D01*
X139596284Y-92195017D01*
X139645775Y-91988872D01*
X139645775Y-91988871D01*
X139647085Y-91983415D01*
X139659934Y-91760562D01*
X139633117Y-91538956D01*
X139567481Y-91325600D01*
X139465099Y-91127241D01*
X139461690Y-91122799D01*
X139461688Y-91122795D01*
X139332620Y-90954590D01*
X139329210Y-90950146D01*
X139164107Y-90799914D01*
X138975010Y-90681293D01*
X138818009Y-90618179D01*
X138773097Y-90600125D01*
X138773095Y-90600124D01*
X138767895Y-90598034D01*
X138762407Y-90596897D01*
X138762402Y-90596896D01*
X138597845Y-90562818D01*
X138549310Y-90552767D01*
X138544697Y-90552501D01*
X138494474Y-90549605D01*
X138494470Y-90549605D01*
X138492651Y-90549500D01*
X138348370Y-90549500D01*
X138345583Y-90549749D01*
X138345577Y-90549749D01*
X138276003Y-90555959D01*
X138182661Y-90564289D01*
X138177247Y-90565770D01*
X138177242Y-90565771D01*
X138063470Y-90596896D01*
X137967349Y-90623192D01*
X137962291Y-90625604D01*
X137962287Y-90625606D01*
X137866610Y-90671242D01*
X137765871Y-90719292D01*
X137584595Y-90849552D01*
X137429251Y-91009854D01*
X137304750Y-91195132D01*
X137215026Y-91399529D01*
X137213718Y-91404977D01*
X137213716Y-91404983D01*
X137164225Y-91611128D01*
X137162915Y-91616585D01*
X137150066Y-91839438D01*
X134004829Y-91839438D01*
X134156227Y-91434507D01*
X134157381Y-91431536D01*
X134162949Y-91417722D01*
X134165475Y-91411884D01*
X134171754Y-91398326D01*
X134173131Y-91395449D01*
X134826725Y-90073001D01*
X134828164Y-90070180D01*
X134835119Y-90056962D01*
X134838225Y-90051404D01*
X134845855Y-90038527D01*
X134847518Y-90035801D01*
X135631356Y-88786255D01*
X135633083Y-88783577D01*
X135641368Y-88771084D01*
X135645020Y-88765869D01*
X135653919Y-88753821D01*
X135655844Y-88751281D01*
X136561958Y-87587328D01*
X136563944Y-87584842D01*
X136573449Y-87573250D01*
X136577577Y-87568468D01*
X136587671Y-87557355D01*
X136589840Y-87555028D01*
X137061818Y-87061131D01*
X137608973Y-86488566D01*
X137611145Y-86486350D01*
X137616851Y-86480673D01*
X137621780Y-86475771D01*
X137626402Y-86471400D01*
X137628861Y-86469190D01*
X137637553Y-86461377D01*
X137639923Y-86459301D01*
X138761582Y-85501314D01*
X138763996Y-85499303D01*
X138775671Y-85489833D01*
X138780700Y-85485960D01*
X138792790Y-85477128D01*
X138795387Y-85475281D01*
X140008095Y-84635563D01*
X140010734Y-84633784D01*
X140011549Y-84633249D01*
X140023278Y-84625559D01*
X140028670Y-84622217D01*
X140035139Y-84618429D01*
X140041572Y-84614663D01*
X140044337Y-84613091D01*
X141335749Y-83900192D01*
X141338558Y-83898687D01*
X141351842Y-83891787D01*
X141357537Y-83889009D01*
X141371187Y-83882774D01*
X141374041Y-83881514D01*
X142730929Y-83302752D01*
X142733866Y-83301544D01*
X142747733Y-83296040D01*
X142753717Y-83293838D01*
X142767870Y-83289034D01*
X142770900Y-83288048D01*
X144179276Y-82849388D01*
X144182330Y-82848479D01*
X144196703Y-82844398D01*
X144202883Y-82842811D01*
X144217483Y-82839454D01*
X144220598Y-82838780D01*
X145665997Y-82544709D01*
X145669133Y-82544112D01*
X145683919Y-82541492D01*
X145690213Y-82540540D01*
X145705089Y-82538673D01*
X145708221Y-82538321D01*
X145885540Y-82520622D01*
X147176086Y-82391809D01*
X147179159Y-82391541D01*
X147186715Y-82390980D01*
X147194109Y-82390431D01*
X147200467Y-82390120D01*
X147207296Y-82389959D01*
X147215404Y-82389768D01*
X147218563Y-82389733D01*
X147959033Y-82391026D01*
G37*
%TD.AperFunction*%
%TD*%
M02*
