%TF.GenerationSoftware,KiCad,Pcbnew,(6.0.1)*%
%TF.CreationDate,2022-03-21T18:15:36+01:00*%
%TF.ProjectId,KiCad_PCB,4b694361-645f-4504-9342-2e6b69636164,rev?*%
%TF.SameCoordinates,Original*%
%TF.FileFunction,Legend,Bot*%
%TF.FilePolarity,Positive*%
%FSLAX46Y46*%
G04 Gerber Fmt 4.6, Leading zero omitted, Abs format (unit mm)*
G04 Created by KiCad (PCBNEW (6.0.1)) date 2022-03-21 18:15:36*
%MOMM*%
%LPD*%
G01*
G04 APERTURE LIST*
%ADD10C,0.150000*%
%ADD11C,0.120000*%
%ADD12C,0.127000*%
G04 APERTURE END LIST*
D10*
%TO.C,C9*%
X158327142Y-100008333D02*
X158374761Y-99960714D01*
X158422380Y-99817857D01*
X158422380Y-99722619D01*
X158374761Y-99579761D01*
X158279523Y-99484523D01*
X158184285Y-99436904D01*
X157993809Y-99389285D01*
X157850952Y-99389285D01*
X157660476Y-99436904D01*
X157565238Y-99484523D01*
X157470000Y-99579761D01*
X157422380Y-99722619D01*
X157422380Y-99817857D01*
X157470000Y-99960714D01*
X157517619Y-100008333D01*
X158422380Y-100484523D02*
X158422380Y-100675000D01*
X158374761Y-100770238D01*
X158327142Y-100817857D01*
X158184285Y-100913095D01*
X157993809Y-100960714D01*
X157612857Y-100960714D01*
X157517619Y-100913095D01*
X157470000Y-100865476D01*
X157422380Y-100770238D01*
X157422380Y-100579761D01*
X157470000Y-100484523D01*
X157517619Y-100436904D01*
X157612857Y-100389285D01*
X157850952Y-100389285D01*
X157946190Y-100436904D01*
X157993809Y-100484523D01*
X158041428Y-100579761D01*
X158041428Y-100770238D01*
X157993809Y-100865476D01*
X157946190Y-100913095D01*
X157850952Y-100960714D01*
%TO.C,C13*%
X157127142Y-99582142D02*
X157174761Y-99534523D01*
X157222380Y-99391666D01*
X157222380Y-99296428D01*
X157174761Y-99153571D01*
X157079523Y-99058333D01*
X156984285Y-99010714D01*
X156793809Y-98963095D01*
X156650952Y-98963095D01*
X156460476Y-99010714D01*
X156365238Y-99058333D01*
X156270000Y-99153571D01*
X156222380Y-99296428D01*
X156222380Y-99391666D01*
X156270000Y-99534523D01*
X156317619Y-99582142D01*
X157222380Y-100534523D02*
X157222380Y-99963095D01*
X157222380Y-100248809D02*
X156222380Y-100248809D01*
X156365238Y-100153571D01*
X156460476Y-100058333D01*
X156508095Y-99963095D01*
X156222380Y-100867857D02*
X156222380Y-101486904D01*
X156603333Y-101153571D01*
X156603333Y-101296428D01*
X156650952Y-101391666D01*
X156698571Y-101439285D01*
X156793809Y-101486904D01*
X157031904Y-101486904D01*
X157127142Y-101439285D01*
X157174761Y-101391666D01*
X157222380Y-101296428D01*
X157222380Y-101010714D01*
X157174761Y-100915476D01*
X157127142Y-100867857D01*
%TO.C,BT1*%
X158089000Y-104355000D02*
X158155666Y-104555000D01*
X158222333Y-104621666D01*
X158355666Y-104688333D01*
X158555666Y-104688333D01*
X158689000Y-104621666D01*
X158755666Y-104555000D01*
X158822333Y-104421666D01*
X158822333Y-103888333D01*
X157422333Y-103888333D01*
X157422333Y-104355000D01*
X157489000Y-104488333D01*
X157555666Y-104555000D01*
X157689000Y-104621666D01*
X157822333Y-104621666D01*
X157955666Y-104555000D01*
X158022333Y-104488333D01*
X158089000Y-104355000D01*
X158089000Y-103888333D01*
X157422333Y-105088333D02*
X157422333Y-105888333D01*
X158822333Y-105488333D02*
X157422333Y-105488333D01*
X158822333Y-107088333D02*
X158822333Y-106288333D01*
X158822333Y-106688333D02*
X157422333Y-106688333D01*
X157622333Y-106555000D01*
X157755666Y-106421666D01*
X157822333Y-106288333D01*
D11*
%TO.C,C9*%
X159910000Y-100034420D02*
X159910000Y-100315580D01*
X158890000Y-100034420D02*
X158890000Y-100315580D01*
%TO.C,C13*%
X157690000Y-100084420D02*
X157690000Y-100365580D01*
X158710000Y-100084420D02*
X158710000Y-100365580D01*
D12*
%TO.C,BT1*%
X155300000Y-109950000D02*
X155300000Y-105400000D01*
X155300000Y-93400000D02*
X155300000Y-88850000D01*
X139800000Y-109950000D02*
X139800000Y-104900000D01*
X150770000Y-109950000D02*
X155300000Y-109950000D01*
X139800000Y-88850000D02*
X144730000Y-88850000D01*
X144730000Y-109950000D02*
X139800000Y-109950000D01*
X139800000Y-93900000D02*
X139800000Y-88850000D01*
X155300000Y-88850000D02*
X150770000Y-88850000D01*
%TD*%
M02*
