%TF.GenerationSoftware,KiCad,Pcbnew,(6.0.1)*%
%TF.CreationDate,2022-03-21T18:15:36+01:00*%
%TF.ProjectId,KiCad_PCB,4b694361-645f-4504-9342-2e6b69636164,rev?*%
%TF.SameCoordinates,Original*%
%TF.FileFunction,Soldermask,Top*%
%TF.FilePolarity,Negative*%
%FSLAX46Y46*%
G04 Gerber Fmt 4.6, Leading zero omitted, Abs format (unit mm)*
G04 Created by KiCad (PCBNEW (6.0.1)) date 2022-03-21 18:15:36*
%MOMM*%
%LPD*%
G01*
G04 APERTURE LIST*
G04 Aperture macros list*
%AMRoundRect*
0 Rectangle with rounded corners*
0 $1 Rounding radius*
0 $2 $3 $4 $5 $6 $7 $8 $9 X,Y pos of 4 corners*
0 Add a 4 corners polygon primitive as box body*
4,1,4,$2,$3,$4,$5,$6,$7,$8,$9,$2,$3,0*
0 Add four circle primitives for the rounded corners*
1,1,$1+$1,$2,$3*
1,1,$1+$1,$4,$5*
1,1,$1+$1,$6,$7*
1,1,$1+$1,$8,$9*
0 Add four rect primitives between the rounded corners*
20,1,$1+$1,$2,$3,$4,$5,0*
20,1,$1+$1,$4,$5,$6,$7,0*
20,1,$1+$1,$6,$7,$8,$9,0*
20,1,$1+$1,$8,$9,$2,$3,0*%
G04 Aperture macros list end*
%ADD10C,0.010000*%
%ADD11C,0.501200*%
%ADD12RoundRect,0.225000X0.225000X0.250000X-0.225000X0.250000X-0.225000X-0.250000X0.225000X-0.250000X0*%
%ADD13RoundRect,0.225000X0.104006X-0.319856X0.329006X0.069856X-0.104006X0.319856X-0.329006X-0.069856X0*%
%ADD14RoundRect,0.225000X0.250000X-0.225000X0.250000X0.225000X-0.250000X0.225000X-0.250000X-0.225000X0*%
%ADD15RoundRect,0.218750X-0.218750X-0.381250X0.218750X-0.381250X0.218750X0.381250X-0.218750X0.381250X0*%
%ADD16R,1.100000X0.600000*%
%ADD17C,2.000000*%
%ADD18R,1.500000X1.590000*%
%ADD19RoundRect,0.218750X0.381250X-0.218750X0.381250X0.218750X-0.381250X0.218750X-0.381250X-0.218750X0*%
%ADD20RoundRect,0.225000X-0.250000X0.225000X-0.250000X-0.225000X0.250000X-0.225000X0.250000X0.225000X0*%
%ADD21R,1.700000X1.000000*%
%ADD22R,1.600000X0.800000*%
%ADD23R,1.300000X1.100000*%
%ADD24RoundRect,1.058000X-1.242000X-1.242000X1.242000X-1.242000X1.242000X1.242000X-1.242000X1.242000X0*%
%ADD25RoundRect,0.200000X-0.200000X-0.275000X0.200000X-0.275000X0.200000X0.275000X-0.200000X0.275000X0*%
%ADD26RoundRect,0.225000X-0.225000X-0.250000X0.225000X-0.250000X0.225000X0.250000X-0.225000X0.250000X0*%
%ADD27RoundRect,0.200000X0.200000X0.275000X-0.200000X0.275000X-0.200000X-0.275000X0.200000X-0.275000X0*%
%ADD28C,2.300000*%
G04 APERTURE END LIST*
D10*
%TO.C,U2*%
X154553283Y-108403000D02*
X155403000Y-108403000D01*
X155403000Y-108403000D02*
X155403000Y-108758140D01*
X155403000Y-108758140D02*
X154553283Y-108758140D01*
X154553283Y-108758140D02*
X154553283Y-108403000D01*
G36*
X155403000Y-108758140D02*
G01*
X154553283Y-108758140D01*
X154553283Y-108403000D01*
X155403000Y-108403000D01*
X155403000Y-108758140D01*
G37*
X155403000Y-108758140D02*
X154553283Y-108758140D01*
X154553283Y-108403000D01*
X155403000Y-108403000D01*
X155403000Y-108758140D01*
X150947770Y-105203000D02*
X151803000Y-105203000D01*
X151803000Y-105203000D02*
X151803000Y-105552962D01*
X151803000Y-105552962D02*
X150947770Y-105552962D01*
X150947770Y-105552962D02*
X150947770Y-105203000D01*
G36*
X151803000Y-105552962D02*
G01*
X150947770Y-105552962D01*
X150947770Y-105203000D01*
X151803000Y-105203000D01*
X151803000Y-105552962D01*
G37*
X151803000Y-105552962D02*
X150947770Y-105552962D01*
X150947770Y-105203000D01*
X151803000Y-105203000D01*
X151803000Y-105552962D01*
X156156450Y-108403000D02*
X157003000Y-108403000D01*
X157003000Y-108403000D02*
X157003000Y-108759170D01*
X157003000Y-108759170D02*
X156156450Y-108759170D01*
X156156450Y-108759170D02*
X156156450Y-108403000D01*
G36*
X157003000Y-108759170D02*
G01*
X156156450Y-108759170D01*
X156156450Y-108403000D01*
X157003000Y-108403000D01*
X157003000Y-108759170D01*
G37*
X157003000Y-108759170D02*
X156156450Y-108759170D01*
X156156450Y-108403000D01*
X157003000Y-108403000D01*
X157003000Y-108759170D01*
X152552000Y-102403000D02*
X153403000Y-102403000D01*
X153403000Y-102403000D02*
X153403000Y-102751450D01*
X153403000Y-102751450D02*
X152552000Y-102751450D01*
X152552000Y-102751450D02*
X152552000Y-102403000D01*
G36*
X153403000Y-102751450D02*
G01*
X152552000Y-102751450D01*
X152552000Y-102403000D01*
X153403000Y-102403000D01*
X153403000Y-102751450D01*
G37*
X153403000Y-102751450D02*
X152552000Y-102751450D01*
X152552000Y-102403000D01*
X153403000Y-102403000D01*
X153403000Y-102751450D01*
X150950410Y-106003000D02*
X151803000Y-106003000D01*
X151803000Y-106003000D02*
X151803000Y-106353586D01*
X151803000Y-106353586D02*
X150950410Y-106353586D01*
X150950410Y-106353586D02*
X150950410Y-106003000D01*
G36*
X151803000Y-106353586D02*
G01*
X150950410Y-106353586D01*
X150950410Y-106003000D01*
X151803000Y-106003000D01*
X151803000Y-106353586D01*
G37*
X151803000Y-106353586D02*
X150950410Y-106353586D01*
X150950410Y-106003000D01*
X151803000Y-106003000D01*
X151803000Y-106353586D01*
X152952560Y-108403000D02*
X153803000Y-108403000D01*
X153803000Y-108403000D02*
X153803000Y-108753980D01*
X153803000Y-108753980D02*
X152952560Y-108753980D01*
X152952560Y-108753980D02*
X152952560Y-108403000D01*
G36*
X153803000Y-108753980D02*
G01*
X152952560Y-108753980D01*
X152952560Y-108403000D01*
X153803000Y-108403000D01*
X153803000Y-108753980D01*
G37*
X153803000Y-108753980D02*
X152952560Y-108753980D01*
X152952560Y-108403000D01*
X153803000Y-108403000D01*
X153803000Y-108753980D01*
X155353646Y-102403000D02*
X156203000Y-102403000D01*
X156203000Y-102403000D02*
X156203000Y-102751130D01*
X156203000Y-102751130D02*
X155353646Y-102751130D01*
X155353646Y-102751130D02*
X155353646Y-102403000D01*
G36*
X156203000Y-102751130D02*
G01*
X155353646Y-102751130D01*
X155353646Y-102403000D01*
X156203000Y-102403000D01*
X156203000Y-102751130D01*
G37*
X156203000Y-102751130D02*
X155353646Y-102751130D01*
X155353646Y-102403000D01*
X156203000Y-102403000D01*
X156203000Y-102751130D01*
X153352650Y-108403000D02*
X154203000Y-108403000D01*
X154203000Y-108403000D02*
X154203000Y-108754080D01*
X154203000Y-108754080D02*
X153352650Y-108754080D01*
X153352650Y-108754080D02*
X153352650Y-108403000D01*
G36*
X154203000Y-108754080D02*
G01*
X153352650Y-108754080D01*
X153352650Y-108403000D01*
X154203000Y-108403000D01*
X154203000Y-108754080D01*
G37*
X154203000Y-108754080D02*
X153352650Y-108754080D01*
X153352650Y-108403000D01*
X154203000Y-108403000D01*
X154203000Y-108754080D01*
X150949730Y-106803000D02*
X151803000Y-106803000D01*
X151803000Y-106803000D02*
X151803000Y-107154510D01*
X151803000Y-107154510D02*
X150949730Y-107154510D01*
X150949730Y-107154510D02*
X150949730Y-106803000D01*
G36*
X151803000Y-107154510D02*
G01*
X150949730Y-107154510D01*
X150949730Y-106803000D01*
X151803000Y-106803000D01*
X151803000Y-107154510D01*
G37*
X151803000Y-107154510D02*
X150949730Y-107154510D01*
X150949730Y-106803000D01*
X151803000Y-106803000D01*
X151803000Y-107154510D01*
X154953084Y-102403000D02*
X155803000Y-102403000D01*
X155803000Y-102403000D02*
X155803000Y-102752590D01*
X155803000Y-102752590D02*
X154953084Y-102752590D01*
X154953084Y-102752590D02*
X154953084Y-102403000D01*
G36*
X155803000Y-102752590D02*
G01*
X154953084Y-102752590D01*
X154953084Y-102403000D01*
X155803000Y-102403000D01*
X155803000Y-102752590D01*
G37*
X155803000Y-102752590D02*
X154953084Y-102752590D01*
X154953084Y-102403000D01*
X155803000Y-102403000D01*
X155803000Y-102752590D01*
X156956200Y-107603000D02*
X157803000Y-107603000D01*
X157803000Y-107603000D02*
X157803000Y-107955950D01*
X157803000Y-107955950D02*
X156956200Y-107955950D01*
X156956200Y-107955950D02*
X156956200Y-107603000D01*
G36*
X157803000Y-107955950D02*
G01*
X156956200Y-107955950D01*
X156956200Y-107603000D01*
X157803000Y-107603000D01*
X157803000Y-107955950D01*
G37*
X157803000Y-107955950D02*
X156956200Y-107955950D01*
X156956200Y-107603000D01*
X157803000Y-107603000D01*
X157803000Y-107955950D01*
X151751600Y-102403000D02*
X152603000Y-102403000D01*
X152603000Y-102403000D02*
X152603000Y-102751490D01*
X152603000Y-102751490D02*
X151751600Y-102751490D01*
X151751600Y-102751490D02*
X151751600Y-102403000D01*
G36*
X152603000Y-102751490D02*
G01*
X151751600Y-102751490D01*
X151751600Y-102403000D01*
X152603000Y-102403000D01*
X152603000Y-102751490D01*
G37*
X152603000Y-102751490D02*
X151751600Y-102751490D01*
X151751600Y-102403000D01*
X152603000Y-102403000D01*
X152603000Y-102751490D01*
X150948110Y-103203000D02*
X151803000Y-103203000D01*
X151803000Y-103203000D02*
X151803000Y-103550110D01*
X151803000Y-103550110D02*
X150948110Y-103550110D01*
X150948110Y-103550110D02*
X150948110Y-103203000D01*
G36*
X151803000Y-103550110D02*
G01*
X150948110Y-103550110D01*
X150948110Y-103203000D01*
X151803000Y-103203000D01*
X151803000Y-103550110D01*
G37*
X151803000Y-103550110D02*
X150948110Y-103550110D01*
X150948110Y-103203000D01*
X151803000Y-103203000D01*
X151803000Y-103550110D01*
X150947100Y-104803000D02*
X151803000Y-104803000D01*
X151803000Y-104803000D02*
X151803000Y-105152268D01*
X151803000Y-105152268D02*
X150947100Y-105152268D01*
X150947100Y-105152268D02*
X150947100Y-104803000D01*
G36*
X151803000Y-105152268D02*
G01*
X150947100Y-105152268D01*
X150947100Y-104803000D01*
X151803000Y-104803000D01*
X151803000Y-105152268D01*
G37*
X151803000Y-105152268D02*
X150947100Y-105152268D01*
X150947100Y-104803000D01*
X151803000Y-104803000D01*
X151803000Y-105152268D01*
X152952910Y-102403000D02*
X153803000Y-102403000D01*
X153803000Y-102403000D02*
X153803000Y-102752830D01*
X153803000Y-102752830D02*
X152952910Y-102752830D01*
X152952910Y-102752830D02*
X152952910Y-102403000D01*
G36*
X153803000Y-102752830D02*
G01*
X152952910Y-102752830D01*
X152952910Y-102403000D01*
X153803000Y-102403000D01*
X153803000Y-102752830D01*
G37*
X153803000Y-102752830D02*
X152952910Y-102752830D01*
X152952910Y-102403000D01*
X153803000Y-102403000D01*
X153803000Y-102752830D01*
X156154910Y-102403000D02*
X157003000Y-102403000D01*
X157003000Y-102403000D02*
X157003000Y-102749960D01*
X157003000Y-102749960D02*
X156154910Y-102749960D01*
X156154910Y-102749960D02*
X156154910Y-102403000D01*
G36*
X157003000Y-102749960D02*
G01*
X156154910Y-102749960D01*
X156154910Y-102403000D01*
X157003000Y-102403000D01*
X157003000Y-102749960D01*
G37*
X157003000Y-102749960D02*
X156154910Y-102749960D01*
X156154910Y-102403000D01*
X157003000Y-102403000D01*
X157003000Y-102749960D01*
X152152060Y-102403000D02*
X153003000Y-102403000D01*
X153003000Y-102403000D02*
X153003000Y-102751810D01*
X153003000Y-102751810D02*
X152152060Y-102751810D01*
X152152060Y-102751810D02*
X152152060Y-102403000D01*
G36*
X153003000Y-102751810D02*
G01*
X152152060Y-102751810D01*
X152152060Y-102403000D01*
X153003000Y-102403000D01*
X153003000Y-102751810D01*
G37*
X153003000Y-102751810D02*
X152152060Y-102751810D01*
X152152060Y-102403000D01*
X153003000Y-102403000D01*
X153003000Y-102751810D01*
X154152994Y-108403000D02*
X155003000Y-108403000D01*
X155003000Y-108403000D02*
X155003000Y-108753090D01*
X155003000Y-108753090D02*
X154152994Y-108753090D01*
X154152994Y-108753090D02*
X154152994Y-108403000D01*
G36*
X155003000Y-108753090D02*
G01*
X154152994Y-108753090D01*
X154152994Y-108403000D01*
X155003000Y-108403000D01*
X155003000Y-108753090D01*
G37*
X155003000Y-108753090D02*
X154152994Y-108753090D01*
X154152994Y-108403000D01*
X155003000Y-108403000D01*
X155003000Y-108753090D01*
X154954129Y-108403000D02*
X155803000Y-108403000D01*
X155803000Y-108403000D02*
X155803000Y-108759230D01*
X155803000Y-108759230D02*
X154954129Y-108759230D01*
X154954129Y-108759230D02*
X154954129Y-108403000D01*
G36*
X155803000Y-108759230D02*
G01*
X154954129Y-108759230D01*
X154954129Y-108403000D01*
X155803000Y-108403000D01*
X155803000Y-108759230D01*
G37*
X155803000Y-108759230D02*
X154954129Y-108759230D01*
X154954129Y-108403000D01*
X155803000Y-108403000D01*
X155803000Y-108759230D01*
X150946860Y-104003000D02*
X151803000Y-104003000D01*
X151803000Y-104003000D02*
X151803000Y-104350800D01*
X151803000Y-104350800D02*
X150946860Y-104350800D01*
X150946860Y-104350800D02*
X150946860Y-104003000D01*
G36*
X151803000Y-104350800D02*
G01*
X150946860Y-104350800D01*
X150946860Y-104003000D01*
X151803000Y-104003000D01*
X151803000Y-104350800D01*
G37*
X151803000Y-104350800D02*
X150946860Y-104350800D01*
X150946860Y-104003000D01*
X151803000Y-104003000D01*
X151803000Y-104350800D01*
X156955270Y-104803000D02*
X157803000Y-104803000D01*
X157803000Y-104803000D02*
X157803000Y-105152625D01*
X157803000Y-105152625D02*
X156955270Y-105152625D01*
X156955270Y-105152625D02*
X156955270Y-104803000D01*
G36*
X157803000Y-105152625D02*
G01*
X156955270Y-105152625D01*
X156955270Y-104803000D01*
X157803000Y-104803000D01*
X157803000Y-105152625D01*
G37*
X157803000Y-105152625D02*
X156955270Y-105152625D01*
X156955270Y-104803000D01*
X157803000Y-104803000D01*
X157803000Y-105152625D01*
X153752342Y-102403000D02*
X154603000Y-102403000D01*
X154603000Y-102403000D02*
X154603000Y-102750020D01*
X154603000Y-102750020D02*
X153752342Y-102750020D01*
X153752342Y-102750020D02*
X153752342Y-102403000D01*
G36*
X154603000Y-102750020D02*
G01*
X153752342Y-102750020D01*
X153752342Y-102403000D01*
X154603000Y-102403000D01*
X154603000Y-102750020D01*
G37*
X154603000Y-102750020D02*
X153752342Y-102750020D01*
X153752342Y-102403000D01*
X154603000Y-102403000D01*
X154603000Y-102750020D01*
X150950380Y-106403000D02*
X151803000Y-106403000D01*
X151803000Y-106403000D02*
X151803000Y-106753900D01*
X151803000Y-106753900D02*
X150950380Y-106753900D01*
X150950380Y-106753900D02*
X150950380Y-106403000D01*
G36*
X151803000Y-106753900D02*
G01*
X150950380Y-106753900D01*
X150950380Y-106403000D01*
X151803000Y-106403000D01*
X151803000Y-106753900D01*
G37*
X151803000Y-106753900D02*
X150950380Y-106753900D01*
X150950380Y-106403000D01*
X151803000Y-106403000D01*
X151803000Y-106753900D01*
X152152090Y-108403000D02*
X153003000Y-108403000D01*
X153003000Y-108403000D02*
X153003000Y-108754300D01*
X153003000Y-108754300D02*
X152152090Y-108754300D01*
X152152090Y-108754300D02*
X152152090Y-108403000D01*
G36*
X153003000Y-108754300D02*
G01*
X152152090Y-108754300D01*
X152152090Y-108403000D01*
X153003000Y-108403000D01*
X153003000Y-108754300D01*
G37*
X153003000Y-108754300D02*
X152152090Y-108754300D01*
X152152090Y-108403000D01*
X153003000Y-108403000D01*
X153003000Y-108754300D01*
X155754400Y-108403000D02*
X156603000Y-108403000D01*
X156603000Y-108403000D02*
X156603000Y-108756240D01*
X156603000Y-108756240D02*
X155754400Y-108756240D01*
X155754400Y-108756240D02*
X155754400Y-108403000D01*
G36*
X156603000Y-108756240D02*
G01*
X155754400Y-108756240D01*
X155754400Y-108403000D01*
X156603000Y-108403000D01*
X156603000Y-108756240D01*
G37*
X156603000Y-108756240D02*
X155754400Y-108756240D01*
X155754400Y-108403000D01*
X156603000Y-108403000D01*
X156603000Y-108756240D01*
X154152762Y-102403000D02*
X155003000Y-102403000D01*
X155003000Y-102403000D02*
X155003000Y-102750010D01*
X155003000Y-102750010D02*
X154152762Y-102750010D01*
X154152762Y-102750010D02*
X154152762Y-102403000D01*
G36*
X155003000Y-102750010D02*
G01*
X154152762Y-102750010D01*
X154152762Y-102403000D01*
X155003000Y-102403000D01*
X155003000Y-102750010D01*
G37*
X155003000Y-102750010D02*
X154152762Y-102750010D01*
X154152762Y-102403000D01*
X155003000Y-102403000D01*
X155003000Y-102750010D01*
X153351960Y-102403000D02*
X154203000Y-102403000D01*
X154203000Y-102403000D02*
X154203000Y-102750130D01*
X154203000Y-102750130D02*
X153351960Y-102750130D01*
X153351960Y-102750130D02*
X153351960Y-102403000D01*
G36*
X154203000Y-102750130D02*
G01*
X153351960Y-102750130D01*
X153351960Y-102403000D01*
X154203000Y-102403000D01*
X154203000Y-102750130D01*
G37*
X154203000Y-102750130D02*
X153351960Y-102750130D01*
X153351960Y-102403000D01*
X154203000Y-102403000D01*
X154203000Y-102750130D01*
X156954020Y-103203000D02*
X157803000Y-103203000D01*
X157803000Y-103203000D02*
X157803000Y-103552200D01*
X157803000Y-103552200D02*
X156954020Y-103552200D01*
X156954020Y-103552200D02*
X156954020Y-103203000D01*
G36*
X157803000Y-103552200D02*
G01*
X156954020Y-103552200D01*
X156954020Y-103203000D01*
X157803000Y-103203000D01*
X157803000Y-103552200D01*
G37*
X157803000Y-103552200D02*
X156954020Y-103552200D01*
X156954020Y-103203000D01*
X157803000Y-103203000D01*
X157803000Y-103552200D01*
X150952710Y-105603000D02*
X151803000Y-105603000D01*
X151803000Y-105603000D02*
X151803000Y-105953031D01*
X151803000Y-105953031D02*
X150952710Y-105953031D01*
X150952710Y-105953031D02*
X150952710Y-105603000D01*
G36*
X151803000Y-105953031D02*
G01*
X150952710Y-105953031D01*
X150952710Y-105603000D01*
X151803000Y-105603000D01*
X151803000Y-105953031D01*
G37*
X151803000Y-105953031D02*
X150952710Y-105953031D01*
X150952710Y-105603000D01*
X151803000Y-105603000D01*
X151803000Y-105953031D01*
X156954120Y-106803000D02*
X157803000Y-106803000D01*
X157803000Y-106803000D02*
X157803000Y-107153680D01*
X157803000Y-107153680D02*
X156954120Y-107153680D01*
X156954120Y-107153680D02*
X156954120Y-106803000D01*
G36*
X157803000Y-107153680D02*
G01*
X156954120Y-107153680D01*
X156954120Y-106803000D01*
X157803000Y-106803000D01*
X157803000Y-107153680D01*
G37*
X157803000Y-107153680D02*
X156954120Y-107153680D01*
X156954120Y-106803000D01*
X157803000Y-106803000D01*
X157803000Y-107153680D01*
X155353833Y-108403000D02*
X156203000Y-108403000D01*
X156203000Y-108403000D02*
X156203000Y-108755710D01*
X156203000Y-108755710D02*
X155353833Y-108755710D01*
X155353833Y-108755710D02*
X155353833Y-108403000D01*
G36*
X156203000Y-108755710D02*
G01*
X155353833Y-108755710D01*
X155353833Y-108403000D01*
X156203000Y-108403000D01*
X156203000Y-108755710D01*
G37*
X156203000Y-108755710D02*
X155353833Y-108755710D01*
X155353833Y-108403000D01*
X156203000Y-108403000D01*
X156203000Y-108755710D01*
X150947890Y-104403000D02*
X151803000Y-104403000D01*
X151803000Y-104403000D02*
X151803000Y-104751769D01*
X151803000Y-104751769D02*
X150947890Y-104751769D01*
X150947890Y-104751769D02*
X150947890Y-104403000D01*
G36*
X151803000Y-104751769D02*
G01*
X150947890Y-104751769D01*
X150947890Y-104403000D01*
X151803000Y-104403000D01*
X151803000Y-104751769D01*
G37*
X151803000Y-104751769D02*
X150947890Y-104751769D01*
X150947890Y-104403000D01*
X151803000Y-104403000D01*
X151803000Y-104751769D01*
X155754900Y-102403000D02*
X156603000Y-102403000D01*
X156603000Y-102403000D02*
X156603000Y-102749090D01*
X156603000Y-102749090D02*
X155754900Y-102749090D01*
X155754900Y-102749090D02*
X155754900Y-102403000D01*
G36*
X156603000Y-102749090D02*
G01*
X155754900Y-102749090D01*
X155754900Y-102403000D01*
X156603000Y-102403000D01*
X156603000Y-102749090D01*
G37*
X156603000Y-102749090D02*
X155754900Y-102749090D01*
X155754900Y-102403000D01*
X156603000Y-102403000D01*
X156603000Y-102749090D01*
X150951120Y-107203000D02*
X151803000Y-107203000D01*
X151803000Y-107203000D02*
X151803000Y-107554080D01*
X151803000Y-107554080D02*
X150951120Y-107554080D01*
X150951120Y-107554080D02*
X150951120Y-107203000D01*
G36*
X151803000Y-107554080D02*
G01*
X150951120Y-107554080D01*
X150951120Y-107203000D01*
X151803000Y-107203000D01*
X151803000Y-107554080D01*
G37*
X151803000Y-107554080D02*
X150951120Y-107554080D01*
X150951120Y-107203000D01*
X151803000Y-107203000D01*
X151803000Y-107554080D01*
X156954400Y-107203000D02*
X157803000Y-107203000D01*
X157803000Y-107203000D02*
X157803000Y-107554080D01*
X157803000Y-107554080D02*
X156954400Y-107554080D01*
X156954400Y-107554080D02*
X156954400Y-107203000D01*
G36*
X157803000Y-107554080D02*
G01*
X156954400Y-107554080D01*
X156954400Y-107203000D01*
X157803000Y-107203000D01*
X157803000Y-107554080D01*
G37*
X157803000Y-107554080D02*
X156954400Y-107554080D01*
X156954400Y-107203000D01*
X157803000Y-107203000D01*
X157803000Y-107554080D01*
X156955910Y-103603000D02*
X157803000Y-103603000D01*
X157803000Y-103603000D02*
X157803000Y-103951170D01*
X157803000Y-103951170D02*
X156955910Y-103951170D01*
X156955910Y-103951170D02*
X156955910Y-103603000D01*
G36*
X157803000Y-103951170D02*
G01*
X156955910Y-103951170D01*
X156955910Y-103603000D01*
X157803000Y-103603000D01*
X157803000Y-103951170D01*
G37*
X157803000Y-103951170D02*
X156955910Y-103951170D01*
X156955910Y-103603000D01*
X157803000Y-103603000D01*
X157803000Y-103951170D01*
X156953500Y-104403000D02*
X157803000Y-104403000D01*
X157803000Y-104403000D02*
X157803000Y-104752839D01*
X157803000Y-104752839D02*
X156953500Y-104752839D01*
X156953500Y-104752839D02*
X156953500Y-104403000D01*
G36*
X157803000Y-104752839D02*
G01*
X156953500Y-104752839D01*
X156953500Y-104403000D01*
X157803000Y-104403000D01*
X157803000Y-104752839D01*
G37*
X157803000Y-104752839D02*
X156953500Y-104752839D01*
X156953500Y-104403000D01*
X157803000Y-104403000D01*
X157803000Y-104752839D01*
X156955620Y-105203000D02*
X157803000Y-105203000D01*
X157803000Y-105203000D02*
X157803000Y-105552975D01*
X157803000Y-105552975D02*
X156955620Y-105552975D01*
X156955620Y-105552975D02*
X156955620Y-105203000D01*
G36*
X157803000Y-105552975D02*
G01*
X156955620Y-105552975D01*
X156955620Y-105203000D01*
X157803000Y-105203000D01*
X157803000Y-105552975D01*
G37*
X157803000Y-105552975D02*
X156955620Y-105552975D01*
X156955620Y-105203000D01*
X157803000Y-105203000D01*
X157803000Y-105552975D01*
X152550660Y-108403000D02*
X153403000Y-108403000D01*
X153403000Y-108403000D02*
X153403000Y-108757070D01*
X153403000Y-108757070D02*
X152550660Y-108757070D01*
X152550660Y-108757070D02*
X152550660Y-108403000D01*
G36*
X153403000Y-108757070D02*
G01*
X152550660Y-108757070D01*
X152550660Y-108403000D01*
X153403000Y-108403000D01*
X153403000Y-108757070D01*
G37*
X153403000Y-108757070D02*
X152550660Y-108757070D01*
X152550660Y-108403000D01*
X153403000Y-108403000D01*
X153403000Y-108757070D01*
X150949550Y-103603000D02*
X151803000Y-103603000D01*
X151803000Y-103603000D02*
X151803000Y-103951360D01*
X151803000Y-103951360D02*
X150949550Y-103951360D01*
X150949550Y-103951360D02*
X150949550Y-103603000D01*
G36*
X151803000Y-103951360D02*
G01*
X150949550Y-103951360D01*
X150949550Y-103603000D01*
X151803000Y-103603000D01*
X151803000Y-103951360D01*
G37*
X151803000Y-103951360D02*
X150949550Y-103951360D01*
X150949550Y-103603000D01*
X151803000Y-103603000D01*
X151803000Y-103951360D01*
X154553316Y-102403000D02*
X155403000Y-102403000D01*
X155403000Y-102403000D02*
X155403000Y-102747890D01*
X155403000Y-102747890D02*
X154553316Y-102747890D01*
X154553316Y-102747890D02*
X154553316Y-102403000D01*
G36*
X155403000Y-102747890D02*
G01*
X154553316Y-102747890D01*
X154553316Y-102403000D01*
X155403000Y-102403000D01*
X155403000Y-102747890D01*
G37*
X155403000Y-102747890D02*
X154553316Y-102747890D01*
X154553316Y-102403000D01*
X155403000Y-102403000D01*
X155403000Y-102747890D01*
X156957830Y-106403000D02*
X157803000Y-106403000D01*
X157803000Y-106403000D02*
X157803000Y-106755210D01*
X157803000Y-106755210D02*
X156957830Y-106755210D01*
X156957830Y-106755210D02*
X156957830Y-106403000D01*
G36*
X157803000Y-106755210D02*
G01*
X156957830Y-106755210D01*
X156957830Y-106403000D01*
X157803000Y-106403000D01*
X157803000Y-106755210D01*
G37*
X157803000Y-106755210D02*
X156957830Y-106755210D01*
X156957830Y-106403000D01*
X157803000Y-106403000D01*
X157803000Y-106755210D01*
X156957020Y-104003000D02*
X157803000Y-104003000D01*
X157803000Y-104003000D02*
X157803000Y-104351090D01*
X157803000Y-104351090D02*
X156957020Y-104351090D01*
X156957020Y-104351090D02*
X156957020Y-104003000D01*
G36*
X157803000Y-104351090D02*
G01*
X156957020Y-104351090D01*
X156957020Y-104003000D01*
X157803000Y-104003000D01*
X157803000Y-104351090D01*
G37*
X157803000Y-104351090D02*
X156957020Y-104351090D01*
X156957020Y-104003000D01*
X157803000Y-104003000D01*
X157803000Y-104351090D01*
X150947830Y-107603000D02*
X151803000Y-107603000D01*
X151803000Y-107603000D02*
X151803000Y-107956580D01*
X151803000Y-107956580D02*
X150947830Y-107956580D01*
X150947830Y-107956580D02*
X150947830Y-107603000D01*
G36*
X151803000Y-107956580D02*
G01*
X150947830Y-107956580D01*
X150947830Y-107603000D01*
X151803000Y-107603000D01*
X151803000Y-107956580D01*
G37*
X151803000Y-107956580D02*
X150947830Y-107956580D01*
X150947830Y-107603000D01*
X151803000Y-107603000D01*
X151803000Y-107956580D01*
X156954340Y-106003000D02*
X157803000Y-106003000D01*
X157803000Y-106003000D02*
X157803000Y-106353402D01*
X157803000Y-106353402D02*
X156954340Y-106353402D01*
X156954340Y-106353402D02*
X156954340Y-106003000D01*
G36*
X157803000Y-106353402D02*
G01*
X156954340Y-106353402D01*
X156954340Y-106003000D01*
X157803000Y-106003000D01*
X157803000Y-106353402D01*
G37*
X157803000Y-106353402D02*
X156954340Y-106353402D01*
X156954340Y-106003000D01*
X157803000Y-106003000D01*
X157803000Y-106353402D01*
X156954030Y-105603000D02*
X157803000Y-105603000D01*
X157803000Y-105603000D02*
X157803000Y-105953151D01*
X157803000Y-105953151D02*
X156954030Y-105953151D01*
X156954030Y-105953151D02*
X156954030Y-105603000D01*
G36*
X157803000Y-105953151D02*
G01*
X156954030Y-105953151D01*
X156954030Y-105603000D01*
X157803000Y-105603000D01*
X157803000Y-105953151D01*
G37*
X157803000Y-105953151D02*
X156954030Y-105953151D01*
X156954030Y-105603000D01*
X157803000Y-105603000D01*
X157803000Y-105953151D01*
X151748110Y-108403000D02*
X152603000Y-108403000D01*
X152603000Y-108403000D02*
X152603000Y-108758920D01*
X152603000Y-108758920D02*
X151748110Y-108758920D01*
X151748110Y-108758920D02*
X151748110Y-108403000D01*
G36*
X152603000Y-108758920D02*
G01*
X151748110Y-108758920D01*
X151748110Y-108403000D01*
X152603000Y-108403000D01*
X152603000Y-108758920D01*
G37*
X152603000Y-108758920D02*
X151748110Y-108758920D01*
X151748110Y-108403000D01*
X152603000Y-108403000D01*
X152603000Y-108758920D01*
X153752219Y-108403000D02*
X154603000Y-108403000D01*
X154603000Y-108403000D02*
X154603000Y-108756970D01*
X154603000Y-108756970D02*
X153752219Y-108756970D01*
X153752219Y-108756970D02*
X153752219Y-108403000D01*
G36*
X154603000Y-108756970D02*
G01*
X153752219Y-108756970D01*
X153752219Y-108403000D01*
X154603000Y-108403000D01*
X154603000Y-108756970D01*
G37*
X154603000Y-108756970D02*
X153752219Y-108756970D01*
X153752219Y-108403000D01*
X154603000Y-108403000D01*
X154603000Y-108756970D01*
D11*
%TO.C,J1*%
X137850600Y-96950000D02*
G75*
G03*
X137850600Y-96950000I-250600J0D01*
G01*
X137850600Y-99450000D02*
G75*
G03*
X137850600Y-99450000I-250600J0D01*
G01*
X137850600Y-98200000D02*
G75*
G03*
X137850600Y-98200000I-250600J0D01*
G01*
D10*
X138101200Y-95198800D02*
X138101200Y-96201200D01*
X138101200Y-96201200D02*
X137098800Y-96201200D01*
X137098800Y-96201200D02*
X137098800Y-95198800D01*
X137098800Y-95198800D02*
X138101200Y-95198800D01*
G36*
X138101200Y-96201200D02*
G01*
X137098800Y-96201200D01*
X137098800Y-95198800D01*
X138101200Y-95198800D01*
X138101200Y-96201200D01*
G37*
X138101200Y-96201200D02*
X137098800Y-96201200D01*
X137098800Y-95198800D01*
X138101200Y-95198800D01*
X138101200Y-96201200D01*
%TD*%
D12*
%TO.C,C7*%
X153750000Y-110200000D03*
X152200000Y-110200000D03*
%TD*%
D13*
%TO.C,C10*%
X161100000Y-100700000D03*
X161875000Y-99357660D03*
%TD*%
D14*
%TO.C,C12*%
X153400000Y-99000000D03*
X153400000Y-97450000D03*
%TD*%
D15*
%TO.C,L1*%
X147025000Y-101100000D03*
X149150000Y-101100000D03*
%TD*%
D14*
%TO.C,C8*%
X145400000Y-106350000D03*
X145400000Y-104800000D03*
%TD*%
D16*
%TO.C,Y2*%
X148800000Y-104975000D03*
X148800000Y-106375000D03*
%TD*%
D17*
%TO.C,D1*%
X138405000Y-91800000D03*
D18*
X140200000Y-91800000D03*
X136610000Y-91800000D03*
%TD*%
D19*
%TO.C,L2*%
X161000000Y-97600000D03*
X161000000Y-95475000D03*
%TD*%
D20*
%TO.C,C3*%
X147000000Y-104825000D03*
X147000000Y-106375000D03*
%TD*%
D21*
%TO.C,S1*%
X150978000Y-99253788D03*
X144678000Y-99253788D03*
X150978000Y-95453788D03*
X144678000Y-95453788D03*
%TD*%
D22*
%TO.C,E1*%
X157050000Y-91100000D03*
X157050000Y-87700000D03*
%TD*%
D20*
%TO.C,C2*%
X155800000Y-95200000D03*
X155800000Y-96750000D03*
%TD*%
D23*
%TO.C,Y1*%
X156800000Y-100400000D03*
X159100000Y-100400000D03*
X159100000Y-98500000D03*
X156800000Y-98500000D03*
%TD*%
D24*
%TO.C,U2*%
X154378000Y-105578000D03*
%TD*%
D25*
%TO.C,R2*%
X151000000Y-94000000D03*
X152650000Y-94000000D03*
%TD*%
D26*
%TO.C,C5*%
X157200000Y-96800000D03*
X158750000Y-96800000D03*
%TD*%
D12*
%TO.C,C4*%
X148800000Y-107775000D03*
X147250000Y-107775000D03*
%TD*%
D15*
%TO.C,L3*%
X151400000Y-101000000D03*
X153525000Y-101000000D03*
%TD*%
D26*
%TO.C,C11*%
X146950000Y-103100000D03*
X148500000Y-103100000D03*
%TD*%
D27*
%TO.C,R1*%
X140525000Y-88900000D03*
X138875000Y-88900000D03*
%TD*%
D28*
%TO.C,BT1*%
X149300000Y-109800000D03*
X146200000Y-109800000D03*
X146200000Y-89000000D03*
X149300000Y-89000000D03*
%TD*%
M02*
