%TF.GenerationSoftware,KiCad,Pcbnew,(6.0.1)*%
%TF.CreationDate,2022-02-16T12:20:19+01:00*%
%TF.ProjectId,KiCad_PCB,4b694361-645f-4504-9342-2e6b69636164,rev?*%
%TF.SameCoordinates,Original*%
%TF.FileFunction,Copper,L4,Bot*%
%TF.FilePolarity,Positive*%
%FSLAX46Y46*%
G04 Gerber Fmt 4.6, Leading zero omitted, Abs format (unit mm)*
G04 Created by KiCad (PCBNEW (6.0.1)) date 2022-02-16 12:20:19*
%MOMM*%
%LPD*%
G01*
G04 APERTURE LIST*
%TA.AperFunction,EtchedComponent*%
%ADD10C,0.000100*%
%TD*%
%TA.AperFunction,ComponentPad*%
%ADD11O,1.400000X0.700000*%
%TD*%
%TA.AperFunction,ComponentPad*%
%ADD12O,0.750000X1.500000*%
%TD*%
%TA.AperFunction,ComponentPad*%
%ADD13R,1.700000X1.700000*%
%TD*%
%TA.AperFunction,ComponentPad*%
%ADD14O,1.700000X1.700000*%
%TD*%
%TA.AperFunction,ViaPad*%
%ADD15C,0.800000*%
%TD*%
%TA.AperFunction,Conductor*%
%ADD16C,0.250000*%
%TD*%
G04 APERTURE END LIST*
D10*
%TO.C,J2*%
X137476000Y-98040000D02*
X137475000Y-98072000D01*
X137475000Y-98072000D02*
X137473000Y-98101000D01*
X137473000Y-98101000D02*
X137469000Y-98129000D01*
X137469000Y-98129000D02*
X137464000Y-98158000D01*
X137464000Y-98158000D02*
X137457000Y-98186000D01*
X137457000Y-98186000D02*
X137449000Y-98213000D01*
X137449000Y-98213000D02*
X137439000Y-98240000D01*
X137439000Y-98240000D02*
X137428000Y-98267000D01*
X137428000Y-98267000D02*
X137416000Y-98293000D01*
X137416000Y-98293000D02*
X137402000Y-98319000D01*
X137402000Y-98319000D02*
X137387000Y-98343000D01*
X137387000Y-98343000D02*
X137371000Y-98367000D01*
X137371000Y-98367000D02*
X137353000Y-98390000D01*
X137353000Y-98390000D02*
X137334000Y-98412000D01*
X137334000Y-98412000D02*
X137315000Y-98433000D01*
X137315000Y-98433000D02*
X137294000Y-98452000D01*
X137294000Y-98452000D02*
X137272000Y-98471000D01*
X137272000Y-98471000D02*
X137249000Y-98489000D01*
X137249000Y-98489000D02*
X137225000Y-98505000D01*
X137225000Y-98505000D02*
X137201000Y-98520000D01*
X137201000Y-98520000D02*
X137175000Y-98534000D01*
X137175000Y-98534000D02*
X137149000Y-98546000D01*
X137149000Y-98546000D02*
X137122000Y-98557000D01*
X137122000Y-98557000D02*
X137095000Y-98567000D01*
X137095000Y-98567000D02*
X137068000Y-98575000D01*
X137068000Y-98575000D02*
X137040000Y-98582000D01*
X137040000Y-98582000D02*
X137011000Y-98587000D01*
X137011000Y-98587000D02*
X136983000Y-98591000D01*
X136983000Y-98591000D02*
X136954000Y-98593000D01*
X136954000Y-98593000D02*
X136928000Y-98594000D01*
X136928000Y-98594000D02*
X136818000Y-98594000D01*
X136818000Y-98594000D02*
X136790000Y-98593000D01*
X136790000Y-98593000D02*
X136761000Y-98591000D01*
X136761000Y-98591000D02*
X136732000Y-98587000D01*
X136732000Y-98587000D02*
X136704000Y-98582000D01*
X136704000Y-98582000D02*
X136676000Y-98575000D01*
X136676000Y-98575000D02*
X136648000Y-98567000D01*
X136648000Y-98567000D02*
X136621000Y-98557000D01*
X136621000Y-98557000D02*
X136594000Y-98546000D01*
X136594000Y-98546000D02*
X136568000Y-98534000D01*
X136568000Y-98534000D02*
X136542000Y-98520000D01*
X136542000Y-98520000D02*
X136518000Y-98505000D01*
X136518000Y-98505000D02*
X136494000Y-98488000D01*
X136494000Y-98488000D02*
X136471000Y-98471000D01*
X136471000Y-98471000D02*
X136449000Y-98452000D01*
X136449000Y-98452000D02*
X136428000Y-98432000D01*
X136428000Y-98432000D02*
X136408000Y-98411000D01*
X136408000Y-98411000D02*
X136389000Y-98389000D01*
X136389000Y-98389000D02*
X136372000Y-98366000D01*
X136372000Y-98366000D02*
X136355000Y-98342000D01*
X136355000Y-98342000D02*
X136340000Y-98318000D01*
X136340000Y-98318000D02*
X136326000Y-98292000D01*
X136326000Y-98292000D02*
X136314000Y-98266000D01*
X136314000Y-98266000D02*
X136303000Y-98239000D01*
X136303000Y-98239000D02*
X136293000Y-98212000D01*
X136293000Y-98212000D02*
X136285000Y-98184000D01*
X136285000Y-98184000D02*
X136278000Y-98156000D01*
X136278000Y-98156000D02*
X136273000Y-98128000D01*
X136273000Y-98128000D02*
X136269000Y-98099000D01*
X136269000Y-98099000D02*
X136267000Y-98070000D01*
X136267000Y-98070000D02*
X136266000Y-98040000D01*
X136266000Y-98040000D02*
X136467000Y-98040000D01*
X136467000Y-98040000D02*
X136468000Y-98040000D01*
X136468000Y-98040000D02*
X136468000Y-98039000D01*
X136468000Y-98039000D02*
X136468000Y-98059000D01*
X136468000Y-98059000D02*
X136470000Y-98078000D01*
X136470000Y-98078000D02*
X136472000Y-98096000D01*
X136472000Y-98096000D02*
X136476000Y-98114000D01*
X136476000Y-98114000D02*
X136480000Y-98132000D01*
X136480000Y-98132000D02*
X136485000Y-98150000D01*
X136485000Y-98150000D02*
X136491000Y-98168000D01*
X136491000Y-98168000D02*
X136499000Y-98185000D01*
X136499000Y-98185000D02*
X136506000Y-98201000D01*
X136506000Y-98201000D02*
X136515000Y-98218000D01*
X136515000Y-98218000D02*
X136525000Y-98233000D01*
X136525000Y-98233000D02*
X136535000Y-98248000D01*
X136535000Y-98248000D02*
X136547000Y-98263000D01*
X136547000Y-98263000D02*
X136559000Y-98277000D01*
X136559000Y-98277000D02*
X136571000Y-98291000D01*
X136571000Y-98291000D02*
X136585000Y-98303000D01*
X136585000Y-98303000D02*
X136599000Y-98315000D01*
X136599000Y-98315000D02*
X136614000Y-98327000D01*
X136614000Y-98327000D02*
X136629000Y-98337000D01*
X136629000Y-98337000D02*
X136644000Y-98347000D01*
X136644000Y-98347000D02*
X136661000Y-98356000D01*
X136661000Y-98356000D02*
X136677000Y-98363000D01*
X136677000Y-98363000D02*
X136694000Y-98371000D01*
X136694000Y-98371000D02*
X136712000Y-98377000D01*
X136712000Y-98377000D02*
X136730000Y-98382000D01*
X136730000Y-98382000D02*
X136748000Y-98386000D01*
X136748000Y-98386000D02*
X136766000Y-98390000D01*
X136766000Y-98390000D02*
X136784000Y-98392000D01*
X136784000Y-98392000D02*
X136803000Y-98394000D01*
X136803000Y-98394000D02*
X136819000Y-98394000D01*
X136819000Y-98394000D02*
X136927000Y-98394000D01*
X136927000Y-98394000D02*
X136943000Y-98394000D01*
X136943000Y-98394000D02*
X136962000Y-98392000D01*
X136962000Y-98392000D02*
X136980000Y-98390000D01*
X136980000Y-98390000D02*
X136998000Y-98386000D01*
X136998000Y-98386000D02*
X137016000Y-98382000D01*
X137016000Y-98382000D02*
X137034000Y-98377000D01*
X137034000Y-98377000D02*
X137051000Y-98371000D01*
X137051000Y-98371000D02*
X137068000Y-98364000D01*
X137068000Y-98364000D02*
X137085000Y-98356000D01*
X137085000Y-98356000D02*
X137101000Y-98347000D01*
X137101000Y-98347000D02*
X137117000Y-98337000D01*
X137117000Y-98337000D02*
X137132000Y-98327000D01*
X137132000Y-98327000D02*
X137147000Y-98316000D01*
X137147000Y-98316000D02*
X137161000Y-98304000D01*
X137161000Y-98304000D02*
X137174000Y-98291000D01*
X137174000Y-98291000D02*
X137187000Y-98278000D01*
X137187000Y-98278000D02*
X137199000Y-98264000D01*
X137199000Y-98264000D02*
X137210000Y-98249000D01*
X137210000Y-98249000D02*
X137220000Y-98234000D01*
X137220000Y-98234000D02*
X137230000Y-98218000D01*
X137230000Y-98218000D02*
X137239000Y-98202000D01*
X137239000Y-98202000D02*
X137247000Y-98185000D01*
X137247000Y-98185000D02*
X137254000Y-98168000D01*
X137254000Y-98168000D02*
X137260000Y-98151000D01*
X137260000Y-98151000D02*
X137265000Y-98133000D01*
X137265000Y-98133000D02*
X137269000Y-98115000D01*
X137269000Y-98115000D02*
X137273000Y-98097000D01*
X137273000Y-98097000D02*
X137275000Y-98079000D01*
X137275000Y-98079000D02*
X137277000Y-98060000D01*
X137277000Y-98060000D02*
X137277000Y-98040000D01*
X137277000Y-98040000D02*
X137476000Y-98040000D01*
X137476000Y-98040000D02*
X137476000Y-98040000D01*
G36*
X136468000Y-98059000D02*
G01*
X136470000Y-98078000D01*
X136472000Y-98096000D01*
X136480000Y-98132000D01*
X136485000Y-98150000D01*
X136491000Y-98168000D01*
X136499000Y-98185000D01*
X136506000Y-98201000D01*
X136515000Y-98218000D01*
X136535000Y-98248000D01*
X136547000Y-98263000D01*
X136571000Y-98291000D01*
X136599000Y-98315000D01*
X136614000Y-98327000D01*
X136644000Y-98347000D01*
X136661000Y-98356000D01*
X136677000Y-98363000D01*
X136694000Y-98371000D01*
X136712000Y-98377000D01*
X136730000Y-98382000D01*
X136766000Y-98390000D01*
X136784000Y-98392000D01*
X136803000Y-98394000D01*
X136943000Y-98394000D01*
X136962000Y-98392000D01*
X136980000Y-98390000D01*
X137016000Y-98382000D01*
X137034000Y-98377000D01*
X137051000Y-98371000D01*
X137068000Y-98364000D01*
X137085000Y-98356000D01*
X137101000Y-98347000D01*
X137117000Y-98337000D01*
X137132000Y-98327000D01*
X137147000Y-98316000D01*
X137161000Y-98304000D01*
X137187000Y-98278000D01*
X137199000Y-98264000D01*
X137210000Y-98249000D01*
X137220000Y-98234000D01*
X137230000Y-98218000D01*
X137239000Y-98202000D01*
X137247000Y-98185000D01*
X137254000Y-98168000D01*
X137260000Y-98151000D01*
X137265000Y-98133000D01*
X137273000Y-98097000D01*
X137275000Y-98079000D01*
X137277000Y-98060000D01*
X137277000Y-98040000D01*
X137476000Y-98040000D01*
X137475000Y-98072000D01*
X137473000Y-98101000D01*
X137469000Y-98129000D01*
X137464000Y-98158000D01*
X137457000Y-98186000D01*
X137449000Y-98213000D01*
X137439000Y-98240000D01*
X137428000Y-98267000D01*
X137416000Y-98293000D01*
X137402000Y-98319000D01*
X137387000Y-98343000D01*
X137371000Y-98367000D01*
X137353000Y-98390000D01*
X137334000Y-98412000D01*
X137315000Y-98433000D01*
X137294000Y-98452000D01*
X137272000Y-98471000D01*
X137249000Y-98489000D01*
X137225000Y-98505000D01*
X137201000Y-98520000D01*
X137175000Y-98534000D01*
X137149000Y-98546000D01*
X137122000Y-98557000D01*
X137095000Y-98567000D01*
X137068000Y-98575000D01*
X137040000Y-98582000D01*
X137011000Y-98587000D01*
X136983000Y-98591000D01*
X136954000Y-98593000D01*
X136928000Y-98594000D01*
X136818000Y-98594000D01*
X136790000Y-98593000D01*
X136761000Y-98591000D01*
X136732000Y-98587000D01*
X136704000Y-98582000D01*
X136676000Y-98575000D01*
X136648000Y-98567000D01*
X136621000Y-98557000D01*
X136594000Y-98546000D01*
X136568000Y-98534000D01*
X136542000Y-98520000D01*
X136518000Y-98505000D01*
X136494000Y-98488000D01*
X136471000Y-98471000D01*
X136449000Y-98452000D01*
X136428000Y-98432000D01*
X136408000Y-98411000D01*
X136389000Y-98389000D01*
X136372000Y-98366000D01*
X136355000Y-98342000D01*
X136340000Y-98318000D01*
X136326000Y-98292000D01*
X136314000Y-98266000D01*
X136303000Y-98239000D01*
X136293000Y-98212000D01*
X136285000Y-98184000D01*
X136278000Y-98156000D01*
X136273000Y-98128000D01*
X136269000Y-98099000D01*
X136267000Y-98070000D01*
X136266000Y-98040000D01*
X136468000Y-98040000D01*
X136468000Y-98059000D01*
G37*
X136468000Y-98059000D02*
X136470000Y-98078000D01*
X136472000Y-98096000D01*
X136480000Y-98132000D01*
X136485000Y-98150000D01*
X136491000Y-98168000D01*
X136499000Y-98185000D01*
X136506000Y-98201000D01*
X136515000Y-98218000D01*
X136535000Y-98248000D01*
X136547000Y-98263000D01*
X136571000Y-98291000D01*
X136599000Y-98315000D01*
X136614000Y-98327000D01*
X136644000Y-98347000D01*
X136661000Y-98356000D01*
X136677000Y-98363000D01*
X136694000Y-98371000D01*
X136712000Y-98377000D01*
X136730000Y-98382000D01*
X136766000Y-98390000D01*
X136784000Y-98392000D01*
X136803000Y-98394000D01*
X136943000Y-98394000D01*
X136962000Y-98392000D01*
X136980000Y-98390000D01*
X137016000Y-98382000D01*
X137034000Y-98377000D01*
X137051000Y-98371000D01*
X137068000Y-98364000D01*
X137085000Y-98356000D01*
X137101000Y-98347000D01*
X137117000Y-98337000D01*
X137132000Y-98327000D01*
X137147000Y-98316000D01*
X137161000Y-98304000D01*
X137187000Y-98278000D01*
X137199000Y-98264000D01*
X137210000Y-98249000D01*
X137220000Y-98234000D01*
X137230000Y-98218000D01*
X137239000Y-98202000D01*
X137247000Y-98185000D01*
X137254000Y-98168000D01*
X137260000Y-98151000D01*
X137265000Y-98133000D01*
X137273000Y-98097000D01*
X137275000Y-98079000D01*
X137277000Y-98060000D01*
X137277000Y-98040000D01*
X137476000Y-98040000D01*
X137475000Y-98072000D01*
X137473000Y-98101000D01*
X137469000Y-98129000D01*
X137464000Y-98158000D01*
X137457000Y-98186000D01*
X137449000Y-98213000D01*
X137439000Y-98240000D01*
X137428000Y-98267000D01*
X137416000Y-98293000D01*
X137402000Y-98319000D01*
X137387000Y-98343000D01*
X137371000Y-98367000D01*
X137353000Y-98390000D01*
X137334000Y-98412000D01*
X137315000Y-98433000D01*
X137294000Y-98452000D01*
X137272000Y-98471000D01*
X137249000Y-98489000D01*
X137225000Y-98505000D01*
X137201000Y-98520000D01*
X137175000Y-98534000D01*
X137149000Y-98546000D01*
X137122000Y-98557000D01*
X137095000Y-98567000D01*
X137068000Y-98575000D01*
X137040000Y-98582000D01*
X137011000Y-98587000D01*
X136983000Y-98591000D01*
X136954000Y-98593000D01*
X136928000Y-98594000D01*
X136818000Y-98594000D01*
X136790000Y-98593000D01*
X136761000Y-98591000D01*
X136732000Y-98587000D01*
X136704000Y-98582000D01*
X136676000Y-98575000D01*
X136648000Y-98567000D01*
X136621000Y-98557000D01*
X136594000Y-98546000D01*
X136568000Y-98534000D01*
X136542000Y-98520000D01*
X136518000Y-98505000D01*
X136494000Y-98488000D01*
X136471000Y-98471000D01*
X136449000Y-98452000D01*
X136428000Y-98432000D01*
X136408000Y-98411000D01*
X136389000Y-98389000D01*
X136372000Y-98366000D01*
X136355000Y-98342000D01*
X136340000Y-98318000D01*
X136326000Y-98292000D01*
X136314000Y-98266000D01*
X136303000Y-98239000D01*
X136293000Y-98212000D01*
X136285000Y-98184000D01*
X136278000Y-98156000D01*
X136273000Y-98128000D01*
X136269000Y-98099000D01*
X136267000Y-98070000D01*
X136266000Y-98040000D01*
X136468000Y-98040000D01*
X136468000Y-98059000D01*
X136266000Y-98039000D02*
X136267000Y-98013000D01*
X136267000Y-98013000D02*
X136269000Y-97985000D01*
X136269000Y-97985000D02*
X136273000Y-97956000D01*
X136273000Y-97956000D02*
X136278000Y-97928000D01*
X136278000Y-97928000D02*
X136285000Y-97900000D01*
X136285000Y-97900000D02*
X136293000Y-97873000D01*
X136293000Y-97873000D02*
X136302000Y-97846000D01*
X136302000Y-97846000D02*
X136313000Y-97819000D01*
X136313000Y-97819000D02*
X136326000Y-97793000D01*
X136326000Y-97793000D02*
X136339000Y-97768000D01*
X136339000Y-97768000D02*
X136354000Y-97744000D01*
X136354000Y-97744000D02*
X136371000Y-97720000D01*
X136371000Y-97720000D02*
X136388000Y-97697000D01*
X136388000Y-97697000D02*
X136407000Y-97675000D01*
X136407000Y-97675000D02*
X136426000Y-97654000D01*
X136426000Y-97654000D02*
X136447000Y-97635000D01*
X136447000Y-97635000D02*
X136469000Y-97616000D01*
X136469000Y-97616000D02*
X136492000Y-97599000D01*
X136492000Y-97599000D02*
X136516000Y-97582000D01*
X136516000Y-97582000D02*
X136540000Y-97567000D01*
X136540000Y-97567000D02*
X136565000Y-97554000D01*
X136565000Y-97554000D02*
X136591000Y-97541000D01*
X136591000Y-97541000D02*
X136618000Y-97530000D01*
X136618000Y-97530000D02*
X136645000Y-97521000D01*
X136645000Y-97521000D02*
X136672000Y-97513000D01*
X136672000Y-97513000D02*
X136700000Y-97506000D01*
X136700000Y-97506000D02*
X136728000Y-97501000D01*
X136728000Y-97501000D02*
X136757000Y-97497000D01*
X136757000Y-97497000D02*
X136785000Y-97495000D01*
X136785000Y-97495000D02*
X136817000Y-97494000D01*
X136817000Y-97494000D02*
X136927000Y-97494000D01*
X136927000Y-97494000D02*
X136958000Y-97495000D01*
X136958000Y-97495000D02*
X136986000Y-97497000D01*
X136986000Y-97497000D02*
X137015000Y-97501000D01*
X137015000Y-97501000D02*
X137043000Y-97506000D01*
X137043000Y-97506000D02*
X137071000Y-97513000D01*
X137071000Y-97513000D02*
X137098000Y-97521000D01*
X137098000Y-97521000D02*
X137125000Y-97530000D01*
X137125000Y-97530000D02*
X137151000Y-97541000D01*
X137151000Y-97541000D02*
X137177000Y-97554000D01*
X137177000Y-97554000D02*
X137203000Y-97567000D01*
X137203000Y-97567000D02*
X137227000Y-97582000D01*
X137227000Y-97582000D02*
X137251000Y-97598000D01*
X137251000Y-97598000D02*
X137273000Y-97616000D01*
X137273000Y-97616000D02*
X137295000Y-97634000D01*
X137295000Y-97634000D02*
X137316000Y-97654000D01*
X137316000Y-97654000D02*
X137336000Y-97675000D01*
X137336000Y-97675000D02*
X137354000Y-97697000D01*
X137354000Y-97697000D02*
X137372000Y-97719000D01*
X137372000Y-97719000D02*
X137388000Y-97743000D01*
X137388000Y-97743000D02*
X137403000Y-97767000D01*
X137403000Y-97767000D02*
X137416000Y-97793000D01*
X137416000Y-97793000D02*
X137429000Y-97819000D01*
X137429000Y-97819000D02*
X137440000Y-97845000D01*
X137440000Y-97845000D02*
X137449000Y-97872000D01*
X137449000Y-97872000D02*
X137457000Y-97899000D01*
X137457000Y-97899000D02*
X137464000Y-97927000D01*
X137464000Y-97927000D02*
X137469000Y-97955000D01*
X137469000Y-97955000D02*
X137473000Y-97984000D01*
X137473000Y-97984000D02*
X137475000Y-98012000D01*
X137475000Y-98012000D02*
X137476000Y-98039000D01*
X137476000Y-98039000D02*
X137278000Y-98039000D01*
X137278000Y-98039000D02*
X137277000Y-98039000D01*
X137277000Y-98039000D02*
X137277000Y-98040000D01*
X137277000Y-98040000D02*
X137277000Y-98022000D01*
X137277000Y-98022000D02*
X137275000Y-98003000D01*
X137275000Y-98003000D02*
X137273000Y-97985000D01*
X137273000Y-97985000D02*
X137269000Y-97967000D01*
X137269000Y-97967000D02*
X137265000Y-97949000D01*
X137265000Y-97949000D02*
X137260000Y-97932000D01*
X137260000Y-97932000D02*
X137254000Y-97914000D01*
X137254000Y-97914000D02*
X137247000Y-97897000D01*
X137247000Y-97897000D02*
X137239000Y-97881000D01*
X137239000Y-97881000D02*
X137230000Y-97865000D01*
X137230000Y-97865000D02*
X137220000Y-97849000D01*
X137220000Y-97849000D02*
X137210000Y-97834000D01*
X137210000Y-97834000D02*
X137199000Y-97819000D01*
X137199000Y-97819000D02*
X137187000Y-97805000D01*
X137187000Y-97805000D02*
X137174000Y-97792000D01*
X137174000Y-97792000D02*
X137161000Y-97779000D01*
X137161000Y-97779000D02*
X137147000Y-97767000D01*
X137147000Y-97767000D02*
X137132000Y-97756000D01*
X137132000Y-97756000D02*
X137117000Y-97746000D01*
X137117000Y-97746000D02*
X137101000Y-97736000D01*
X137101000Y-97736000D02*
X137085000Y-97727000D01*
X137085000Y-97727000D02*
X137069000Y-97719000D01*
X137069000Y-97719000D02*
X137052000Y-97712000D01*
X137052000Y-97712000D02*
X137034000Y-97706000D01*
X137034000Y-97706000D02*
X137017000Y-97701000D01*
X137017000Y-97701000D02*
X136999000Y-97697000D01*
X136999000Y-97697000D02*
X136981000Y-97693000D01*
X136981000Y-97693000D02*
X136963000Y-97691000D01*
X136963000Y-97691000D02*
X136944000Y-97689000D01*
X136944000Y-97689000D02*
X136926000Y-97689000D01*
X136926000Y-97689000D02*
X136818000Y-97689000D01*
X136818000Y-97689000D02*
X136800000Y-97689000D01*
X136800000Y-97689000D02*
X136781000Y-97691000D01*
X136781000Y-97691000D02*
X136763000Y-97693000D01*
X136763000Y-97693000D02*
X136745000Y-97697000D01*
X136745000Y-97697000D02*
X136727000Y-97701000D01*
X136727000Y-97701000D02*
X136710000Y-97706000D01*
X136710000Y-97706000D02*
X136693000Y-97712000D01*
X136693000Y-97712000D02*
X136676000Y-97719000D01*
X136676000Y-97719000D02*
X136659000Y-97727000D01*
X136659000Y-97727000D02*
X136643000Y-97736000D01*
X136643000Y-97736000D02*
X136627000Y-97745000D01*
X136627000Y-97745000D02*
X136612000Y-97756000D01*
X136612000Y-97756000D02*
X136598000Y-97767000D01*
X136598000Y-97767000D02*
X136584000Y-97779000D01*
X136584000Y-97779000D02*
X136571000Y-97792000D01*
X136571000Y-97792000D02*
X136558000Y-97805000D01*
X136558000Y-97805000D02*
X136546000Y-97819000D01*
X136546000Y-97819000D02*
X136535000Y-97833000D01*
X136535000Y-97833000D02*
X136524000Y-97848000D01*
X136524000Y-97848000D02*
X136515000Y-97864000D01*
X136515000Y-97864000D02*
X136506000Y-97880000D01*
X136506000Y-97880000D02*
X136498000Y-97897000D01*
X136498000Y-97897000D02*
X136491000Y-97914000D01*
X136491000Y-97914000D02*
X136485000Y-97931000D01*
X136485000Y-97931000D02*
X136480000Y-97948000D01*
X136480000Y-97948000D02*
X136476000Y-97966000D01*
X136476000Y-97966000D02*
X136472000Y-97984000D01*
X136472000Y-97984000D02*
X136470000Y-98002000D01*
X136470000Y-98002000D02*
X136468000Y-98021000D01*
X136468000Y-98021000D02*
X136468000Y-98039000D01*
X136468000Y-98039000D02*
X136266000Y-98039000D01*
X136266000Y-98039000D02*
X136266000Y-98039000D01*
G36*
X136958000Y-97495000D02*
G01*
X136986000Y-97497000D01*
X137015000Y-97501000D01*
X137043000Y-97506000D01*
X137071000Y-97513000D01*
X137098000Y-97521000D01*
X137125000Y-97530000D01*
X137151000Y-97541000D01*
X137203000Y-97567000D01*
X137227000Y-97582000D01*
X137251000Y-97598000D01*
X137295000Y-97634000D01*
X137316000Y-97654000D01*
X137336000Y-97675000D01*
X137372000Y-97719000D01*
X137388000Y-97743000D01*
X137403000Y-97767000D01*
X137429000Y-97819000D01*
X137440000Y-97845000D01*
X137449000Y-97872000D01*
X137457000Y-97899000D01*
X137464000Y-97927000D01*
X137469000Y-97955000D01*
X137473000Y-97984000D01*
X137475000Y-98012000D01*
X137476000Y-98039000D01*
X137277000Y-98039000D01*
X137277000Y-98022000D01*
X137275000Y-98003000D01*
X137273000Y-97985000D01*
X137265000Y-97949000D01*
X137260000Y-97932000D01*
X137254000Y-97914000D01*
X137247000Y-97897000D01*
X137239000Y-97881000D01*
X137230000Y-97865000D01*
X137220000Y-97849000D01*
X137210000Y-97834000D01*
X137199000Y-97819000D01*
X137187000Y-97805000D01*
X137161000Y-97779000D01*
X137147000Y-97767000D01*
X137132000Y-97756000D01*
X137117000Y-97746000D01*
X137101000Y-97736000D01*
X137085000Y-97727000D01*
X137069000Y-97719000D01*
X137052000Y-97712000D01*
X137034000Y-97706000D01*
X137017000Y-97701000D01*
X136981000Y-97693000D01*
X136963000Y-97691000D01*
X136944000Y-97689000D01*
X136800000Y-97689000D01*
X136781000Y-97691000D01*
X136763000Y-97693000D01*
X136727000Y-97701000D01*
X136710000Y-97706000D01*
X136693000Y-97712000D01*
X136676000Y-97719000D01*
X136659000Y-97727000D01*
X136627000Y-97745000D01*
X136612000Y-97756000D01*
X136598000Y-97767000D01*
X136584000Y-97779000D01*
X136558000Y-97805000D01*
X136546000Y-97819000D01*
X136535000Y-97833000D01*
X136524000Y-97848000D01*
X136506000Y-97880000D01*
X136498000Y-97897000D01*
X136491000Y-97914000D01*
X136485000Y-97931000D01*
X136480000Y-97948000D01*
X136472000Y-97984000D01*
X136470000Y-98002000D01*
X136468000Y-98021000D01*
X136468000Y-98039000D01*
X136266000Y-98039000D01*
X136267000Y-98013000D01*
X136269000Y-97985000D01*
X136273000Y-97956000D01*
X136278000Y-97928000D01*
X136285000Y-97900000D01*
X136293000Y-97873000D01*
X136302000Y-97846000D01*
X136313000Y-97819000D01*
X136326000Y-97793000D01*
X136339000Y-97768000D01*
X136354000Y-97744000D01*
X136371000Y-97720000D01*
X136388000Y-97697000D01*
X136407000Y-97675000D01*
X136426000Y-97654000D01*
X136447000Y-97635000D01*
X136469000Y-97616000D01*
X136492000Y-97599000D01*
X136516000Y-97582000D01*
X136540000Y-97567000D01*
X136565000Y-97554000D01*
X136591000Y-97541000D01*
X136618000Y-97530000D01*
X136645000Y-97521000D01*
X136672000Y-97513000D01*
X136700000Y-97506000D01*
X136728000Y-97501000D01*
X136757000Y-97497000D01*
X136785000Y-97495000D01*
X136817000Y-97494000D01*
X136927000Y-97494000D01*
X136958000Y-97495000D01*
G37*
X136958000Y-97495000D02*
X136986000Y-97497000D01*
X137015000Y-97501000D01*
X137043000Y-97506000D01*
X137071000Y-97513000D01*
X137098000Y-97521000D01*
X137125000Y-97530000D01*
X137151000Y-97541000D01*
X137203000Y-97567000D01*
X137227000Y-97582000D01*
X137251000Y-97598000D01*
X137295000Y-97634000D01*
X137316000Y-97654000D01*
X137336000Y-97675000D01*
X137372000Y-97719000D01*
X137388000Y-97743000D01*
X137403000Y-97767000D01*
X137429000Y-97819000D01*
X137440000Y-97845000D01*
X137449000Y-97872000D01*
X137457000Y-97899000D01*
X137464000Y-97927000D01*
X137469000Y-97955000D01*
X137473000Y-97984000D01*
X137475000Y-98012000D01*
X137476000Y-98039000D01*
X137277000Y-98039000D01*
X137277000Y-98022000D01*
X137275000Y-98003000D01*
X137273000Y-97985000D01*
X137265000Y-97949000D01*
X137260000Y-97932000D01*
X137254000Y-97914000D01*
X137247000Y-97897000D01*
X137239000Y-97881000D01*
X137230000Y-97865000D01*
X137220000Y-97849000D01*
X137210000Y-97834000D01*
X137199000Y-97819000D01*
X137187000Y-97805000D01*
X137161000Y-97779000D01*
X137147000Y-97767000D01*
X137132000Y-97756000D01*
X137117000Y-97746000D01*
X137101000Y-97736000D01*
X137085000Y-97727000D01*
X137069000Y-97719000D01*
X137052000Y-97712000D01*
X137034000Y-97706000D01*
X137017000Y-97701000D01*
X136981000Y-97693000D01*
X136963000Y-97691000D01*
X136944000Y-97689000D01*
X136800000Y-97689000D01*
X136781000Y-97691000D01*
X136763000Y-97693000D01*
X136727000Y-97701000D01*
X136710000Y-97706000D01*
X136693000Y-97712000D01*
X136676000Y-97719000D01*
X136659000Y-97727000D01*
X136627000Y-97745000D01*
X136612000Y-97756000D01*
X136598000Y-97767000D01*
X136584000Y-97779000D01*
X136558000Y-97805000D01*
X136546000Y-97819000D01*
X136535000Y-97833000D01*
X136524000Y-97848000D01*
X136506000Y-97880000D01*
X136498000Y-97897000D01*
X136491000Y-97914000D01*
X136485000Y-97931000D01*
X136480000Y-97948000D01*
X136472000Y-97984000D01*
X136470000Y-98002000D01*
X136468000Y-98021000D01*
X136468000Y-98039000D01*
X136266000Y-98039000D01*
X136267000Y-98013000D01*
X136269000Y-97985000D01*
X136273000Y-97956000D01*
X136278000Y-97928000D01*
X136285000Y-97900000D01*
X136293000Y-97873000D01*
X136302000Y-97846000D01*
X136313000Y-97819000D01*
X136326000Y-97793000D01*
X136339000Y-97768000D01*
X136354000Y-97744000D01*
X136371000Y-97720000D01*
X136388000Y-97697000D01*
X136407000Y-97675000D01*
X136426000Y-97654000D01*
X136447000Y-97635000D01*
X136469000Y-97616000D01*
X136492000Y-97599000D01*
X136516000Y-97582000D01*
X136540000Y-97567000D01*
X136565000Y-97554000D01*
X136591000Y-97541000D01*
X136618000Y-97530000D01*
X136645000Y-97521000D01*
X136672000Y-97513000D01*
X136700000Y-97506000D01*
X136728000Y-97501000D01*
X136757000Y-97497000D01*
X136785000Y-97495000D01*
X136817000Y-97494000D01*
X136927000Y-97494000D01*
X136958000Y-97495000D01*
X128716000Y-98039000D02*
X128717000Y-98013000D01*
X128717000Y-98013000D02*
X128719000Y-97985000D01*
X128719000Y-97985000D02*
X128723000Y-97956000D01*
X128723000Y-97956000D02*
X128728000Y-97928000D01*
X128728000Y-97928000D02*
X128735000Y-97900000D01*
X128735000Y-97900000D02*
X128743000Y-97873000D01*
X128743000Y-97873000D02*
X128752000Y-97846000D01*
X128752000Y-97846000D02*
X128763000Y-97819000D01*
X128763000Y-97819000D02*
X128776000Y-97793000D01*
X128776000Y-97793000D02*
X128789000Y-97768000D01*
X128789000Y-97768000D02*
X128804000Y-97744000D01*
X128804000Y-97744000D02*
X128821000Y-97720000D01*
X128821000Y-97720000D02*
X128838000Y-97697000D01*
X128838000Y-97697000D02*
X128857000Y-97675000D01*
X128857000Y-97675000D02*
X128876000Y-97654000D01*
X128876000Y-97654000D02*
X128897000Y-97635000D01*
X128897000Y-97635000D02*
X128919000Y-97616000D01*
X128919000Y-97616000D02*
X128942000Y-97599000D01*
X128942000Y-97599000D02*
X128966000Y-97582000D01*
X128966000Y-97582000D02*
X128990000Y-97567000D01*
X128990000Y-97567000D02*
X129015000Y-97554000D01*
X129015000Y-97554000D02*
X129041000Y-97541000D01*
X129041000Y-97541000D02*
X129068000Y-97530000D01*
X129068000Y-97530000D02*
X129095000Y-97521000D01*
X129095000Y-97521000D02*
X129122000Y-97513000D01*
X129122000Y-97513000D02*
X129150000Y-97506000D01*
X129150000Y-97506000D02*
X129178000Y-97501000D01*
X129178000Y-97501000D02*
X129207000Y-97497000D01*
X129207000Y-97497000D02*
X129235000Y-97495000D01*
X129235000Y-97495000D02*
X129267000Y-97494000D01*
X129267000Y-97494000D02*
X129377000Y-97494000D01*
X129377000Y-97494000D02*
X129408000Y-97495000D01*
X129408000Y-97495000D02*
X129436000Y-97497000D01*
X129436000Y-97497000D02*
X129465000Y-97501000D01*
X129465000Y-97501000D02*
X129493000Y-97506000D01*
X129493000Y-97506000D02*
X129521000Y-97513000D01*
X129521000Y-97513000D02*
X129548000Y-97521000D01*
X129548000Y-97521000D02*
X129575000Y-97530000D01*
X129575000Y-97530000D02*
X129601000Y-97541000D01*
X129601000Y-97541000D02*
X129627000Y-97554000D01*
X129627000Y-97554000D02*
X129653000Y-97567000D01*
X129653000Y-97567000D02*
X129677000Y-97582000D01*
X129677000Y-97582000D02*
X129701000Y-97598000D01*
X129701000Y-97598000D02*
X129723000Y-97616000D01*
X129723000Y-97616000D02*
X129745000Y-97634000D01*
X129745000Y-97634000D02*
X129766000Y-97654000D01*
X129766000Y-97654000D02*
X129786000Y-97675000D01*
X129786000Y-97675000D02*
X129804000Y-97697000D01*
X129804000Y-97697000D02*
X129822000Y-97719000D01*
X129822000Y-97719000D02*
X129838000Y-97743000D01*
X129838000Y-97743000D02*
X129853000Y-97767000D01*
X129853000Y-97767000D02*
X129866000Y-97793000D01*
X129866000Y-97793000D02*
X129879000Y-97819000D01*
X129879000Y-97819000D02*
X129890000Y-97845000D01*
X129890000Y-97845000D02*
X129899000Y-97872000D01*
X129899000Y-97872000D02*
X129907000Y-97899000D01*
X129907000Y-97899000D02*
X129914000Y-97927000D01*
X129914000Y-97927000D02*
X129919000Y-97955000D01*
X129919000Y-97955000D02*
X129923000Y-97984000D01*
X129923000Y-97984000D02*
X129925000Y-98012000D01*
X129925000Y-98012000D02*
X129926000Y-98039000D01*
X129926000Y-98039000D02*
X129728000Y-98039000D01*
X129728000Y-98039000D02*
X129727000Y-98039000D01*
X129727000Y-98039000D02*
X129727000Y-98040000D01*
X129727000Y-98040000D02*
X129727000Y-98022000D01*
X129727000Y-98022000D02*
X129725000Y-98003000D01*
X129725000Y-98003000D02*
X129723000Y-97985000D01*
X129723000Y-97985000D02*
X129719000Y-97967000D01*
X129719000Y-97967000D02*
X129715000Y-97949000D01*
X129715000Y-97949000D02*
X129710000Y-97932000D01*
X129710000Y-97932000D02*
X129704000Y-97914000D01*
X129704000Y-97914000D02*
X129697000Y-97897000D01*
X129697000Y-97897000D02*
X129689000Y-97881000D01*
X129689000Y-97881000D02*
X129680000Y-97865000D01*
X129680000Y-97865000D02*
X129670000Y-97849000D01*
X129670000Y-97849000D02*
X129660000Y-97834000D01*
X129660000Y-97834000D02*
X129649000Y-97819000D01*
X129649000Y-97819000D02*
X129637000Y-97805000D01*
X129637000Y-97805000D02*
X129624000Y-97792000D01*
X129624000Y-97792000D02*
X129611000Y-97779000D01*
X129611000Y-97779000D02*
X129597000Y-97767000D01*
X129597000Y-97767000D02*
X129582000Y-97756000D01*
X129582000Y-97756000D02*
X129567000Y-97746000D01*
X129567000Y-97746000D02*
X129551000Y-97736000D01*
X129551000Y-97736000D02*
X129535000Y-97727000D01*
X129535000Y-97727000D02*
X129519000Y-97719000D01*
X129519000Y-97719000D02*
X129502000Y-97712000D01*
X129502000Y-97712000D02*
X129484000Y-97706000D01*
X129484000Y-97706000D02*
X129467000Y-97701000D01*
X129467000Y-97701000D02*
X129449000Y-97697000D01*
X129449000Y-97697000D02*
X129431000Y-97693000D01*
X129431000Y-97693000D02*
X129413000Y-97691000D01*
X129413000Y-97691000D02*
X129394000Y-97689000D01*
X129394000Y-97689000D02*
X129376000Y-97689000D01*
X129376000Y-97689000D02*
X129268000Y-97689000D01*
X129268000Y-97689000D02*
X129250000Y-97689000D01*
X129250000Y-97689000D02*
X129231000Y-97691000D01*
X129231000Y-97691000D02*
X129213000Y-97693000D01*
X129213000Y-97693000D02*
X129195000Y-97697000D01*
X129195000Y-97697000D02*
X129177000Y-97701000D01*
X129177000Y-97701000D02*
X129160000Y-97706000D01*
X129160000Y-97706000D02*
X129143000Y-97712000D01*
X129143000Y-97712000D02*
X129126000Y-97719000D01*
X129126000Y-97719000D02*
X129109000Y-97727000D01*
X129109000Y-97727000D02*
X129093000Y-97736000D01*
X129093000Y-97736000D02*
X129077000Y-97745000D01*
X129077000Y-97745000D02*
X129062000Y-97756000D01*
X129062000Y-97756000D02*
X129048000Y-97767000D01*
X129048000Y-97767000D02*
X129034000Y-97779000D01*
X129034000Y-97779000D02*
X129021000Y-97792000D01*
X129021000Y-97792000D02*
X129008000Y-97805000D01*
X129008000Y-97805000D02*
X128996000Y-97819000D01*
X128996000Y-97819000D02*
X128985000Y-97833000D01*
X128985000Y-97833000D02*
X128974000Y-97848000D01*
X128974000Y-97848000D02*
X128965000Y-97864000D01*
X128965000Y-97864000D02*
X128956000Y-97880000D01*
X128956000Y-97880000D02*
X128948000Y-97897000D01*
X128948000Y-97897000D02*
X128941000Y-97914000D01*
X128941000Y-97914000D02*
X128935000Y-97931000D01*
X128935000Y-97931000D02*
X128930000Y-97948000D01*
X128930000Y-97948000D02*
X128926000Y-97966000D01*
X128926000Y-97966000D02*
X128922000Y-97984000D01*
X128922000Y-97984000D02*
X128920000Y-98002000D01*
X128920000Y-98002000D02*
X128918000Y-98021000D01*
X128918000Y-98021000D02*
X128918000Y-98039000D01*
X128918000Y-98039000D02*
X128716000Y-98039000D01*
X128716000Y-98039000D02*
X128716000Y-98039000D01*
G36*
X129408000Y-97495000D02*
G01*
X129436000Y-97497000D01*
X129465000Y-97501000D01*
X129493000Y-97506000D01*
X129521000Y-97513000D01*
X129548000Y-97521000D01*
X129575000Y-97530000D01*
X129601000Y-97541000D01*
X129653000Y-97567000D01*
X129677000Y-97582000D01*
X129701000Y-97598000D01*
X129745000Y-97634000D01*
X129766000Y-97654000D01*
X129786000Y-97675000D01*
X129822000Y-97719000D01*
X129838000Y-97743000D01*
X129853000Y-97767000D01*
X129879000Y-97819000D01*
X129890000Y-97845000D01*
X129899000Y-97872000D01*
X129907000Y-97899000D01*
X129914000Y-97927000D01*
X129919000Y-97955000D01*
X129923000Y-97984000D01*
X129925000Y-98012000D01*
X129926000Y-98039000D01*
X129727000Y-98039000D01*
X129727000Y-98022000D01*
X129725000Y-98003000D01*
X129723000Y-97985000D01*
X129715000Y-97949000D01*
X129710000Y-97932000D01*
X129704000Y-97914000D01*
X129697000Y-97897000D01*
X129689000Y-97881000D01*
X129680000Y-97865000D01*
X129670000Y-97849000D01*
X129660000Y-97834000D01*
X129649000Y-97819000D01*
X129637000Y-97805000D01*
X129611000Y-97779000D01*
X129597000Y-97767000D01*
X129582000Y-97756000D01*
X129567000Y-97746000D01*
X129551000Y-97736000D01*
X129535000Y-97727000D01*
X129519000Y-97719000D01*
X129502000Y-97712000D01*
X129484000Y-97706000D01*
X129467000Y-97701000D01*
X129431000Y-97693000D01*
X129413000Y-97691000D01*
X129394000Y-97689000D01*
X129250000Y-97689000D01*
X129231000Y-97691000D01*
X129213000Y-97693000D01*
X129177000Y-97701000D01*
X129160000Y-97706000D01*
X129143000Y-97712000D01*
X129126000Y-97719000D01*
X129109000Y-97727000D01*
X129077000Y-97745000D01*
X129062000Y-97756000D01*
X129048000Y-97767000D01*
X129034000Y-97779000D01*
X129008000Y-97805000D01*
X128996000Y-97819000D01*
X128985000Y-97833000D01*
X128974000Y-97848000D01*
X128956000Y-97880000D01*
X128948000Y-97897000D01*
X128941000Y-97914000D01*
X128935000Y-97931000D01*
X128930000Y-97948000D01*
X128922000Y-97984000D01*
X128920000Y-98002000D01*
X128918000Y-98021000D01*
X128918000Y-98039000D01*
X128716000Y-98039000D01*
X128717000Y-98013000D01*
X128719000Y-97985000D01*
X128723000Y-97956000D01*
X128728000Y-97928000D01*
X128735000Y-97900000D01*
X128743000Y-97873000D01*
X128752000Y-97846000D01*
X128763000Y-97819000D01*
X128776000Y-97793000D01*
X128789000Y-97768000D01*
X128804000Y-97744000D01*
X128821000Y-97720000D01*
X128838000Y-97697000D01*
X128857000Y-97675000D01*
X128876000Y-97654000D01*
X128897000Y-97635000D01*
X128919000Y-97616000D01*
X128942000Y-97599000D01*
X128966000Y-97582000D01*
X128990000Y-97567000D01*
X129015000Y-97554000D01*
X129041000Y-97541000D01*
X129068000Y-97530000D01*
X129095000Y-97521000D01*
X129122000Y-97513000D01*
X129150000Y-97506000D01*
X129178000Y-97501000D01*
X129207000Y-97497000D01*
X129235000Y-97495000D01*
X129267000Y-97494000D01*
X129377000Y-97494000D01*
X129408000Y-97495000D01*
G37*
X129408000Y-97495000D02*
X129436000Y-97497000D01*
X129465000Y-97501000D01*
X129493000Y-97506000D01*
X129521000Y-97513000D01*
X129548000Y-97521000D01*
X129575000Y-97530000D01*
X129601000Y-97541000D01*
X129653000Y-97567000D01*
X129677000Y-97582000D01*
X129701000Y-97598000D01*
X129745000Y-97634000D01*
X129766000Y-97654000D01*
X129786000Y-97675000D01*
X129822000Y-97719000D01*
X129838000Y-97743000D01*
X129853000Y-97767000D01*
X129879000Y-97819000D01*
X129890000Y-97845000D01*
X129899000Y-97872000D01*
X129907000Y-97899000D01*
X129914000Y-97927000D01*
X129919000Y-97955000D01*
X129923000Y-97984000D01*
X129925000Y-98012000D01*
X129926000Y-98039000D01*
X129727000Y-98039000D01*
X129727000Y-98022000D01*
X129725000Y-98003000D01*
X129723000Y-97985000D01*
X129715000Y-97949000D01*
X129710000Y-97932000D01*
X129704000Y-97914000D01*
X129697000Y-97897000D01*
X129689000Y-97881000D01*
X129680000Y-97865000D01*
X129670000Y-97849000D01*
X129660000Y-97834000D01*
X129649000Y-97819000D01*
X129637000Y-97805000D01*
X129611000Y-97779000D01*
X129597000Y-97767000D01*
X129582000Y-97756000D01*
X129567000Y-97746000D01*
X129551000Y-97736000D01*
X129535000Y-97727000D01*
X129519000Y-97719000D01*
X129502000Y-97712000D01*
X129484000Y-97706000D01*
X129467000Y-97701000D01*
X129431000Y-97693000D01*
X129413000Y-97691000D01*
X129394000Y-97689000D01*
X129250000Y-97689000D01*
X129231000Y-97691000D01*
X129213000Y-97693000D01*
X129177000Y-97701000D01*
X129160000Y-97706000D01*
X129143000Y-97712000D01*
X129126000Y-97719000D01*
X129109000Y-97727000D01*
X129077000Y-97745000D01*
X129062000Y-97756000D01*
X129048000Y-97767000D01*
X129034000Y-97779000D01*
X129008000Y-97805000D01*
X128996000Y-97819000D01*
X128985000Y-97833000D01*
X128974000Y-97848000D01*
X128956000Y-97880000D01*
X128948000Y-97897000D01*
X128941000Y-97914000D01*
X128935000Y-97931000D01*
X128930000Y-97948000D01*
X128922000Y-97984000D01*
X128920000Y-98002000D01*
X128918000Y-98021000D01*
X128918000Y-98039000D01*
X128716000Y-98039000D01*
X128717000Y-98013000D01*
X128719000Y-97985000D01*
X128723000Y-97956000D01*
X128728000Y-97928000D01*
X128735000Y-97900000D01*
X128743000Y-97873000D01*
X128752000Y-97846000D01*
X128763000Y-97819000D01*
X128776000Y-97793000D01*
X128789000Y-97768000D01*
X128804000Y-97744000D01*
X128821000Y-97720000D01*
X128838000Y-97697000D01*
X128857000Y-97675000D01*
X128876000Y-97654000D01*
X128897000Y-97635000D01*
X128919000Y-97616000D01*
X128942000Y-97599000D01*
X128966000Y-97582000D01*
X128990000Y-97567000D01*
X129015000Y-97554000D01*
X129041000Y-97541000D01*
X129068000Y-97530000D01*
X129095000Y-97521000D01*
X129122000Y-97513000D01*
X129150000Y-97506000D01*
X129178000Y-97501000D01*
X129207000Y-97497000D01*
X129235000Y-97495000D01*
X129267000Y-97494000D01*
X129377000Y-97494000D01*
X129408000Y-97495000D01*
G36*
X128596000Y-100424000D02*
G01*
X128583000Y-100424000D01*
X128570000Y-100425000D01*
X128544000Y-100429000D01*
X128532000Y-100433000D01*
X128519000Y-100436000D01*
X128483000Y-100451000D01*
X128471000Y-100458000D01*
X128460000Y-100464000D01*
X128449000Y-100472000D01*
X128429000Y-100488000D01*
X128419000Y-100497000D01*
X128410000Y-100507000D01*
X128394000Y-100527000D01*
X128386000Y-100538000D01*
X128380000Y-100549000D01*
X128373000Y-100561000D01*
X128358000Y-100597000D01*
X128355000Y-100610000D01*
X128351000Y-100622000D01*
X128347000Y-100648000D01*
X128346000Y-100661000D01*
X128346000Y-101487000D01*
X128347000Y-101500000D01*
X128351000Y-101526000D01*
X128355000Y-101539000D01*
X128358000Y-101551000D01*
X128363000Y-101564000D01*
X128368000Y-101576000D01*
X128373000Y-101587000D01*
X128379000Y-101599000D01*
X128386000Y-101610000D01*
X128394000Y-101621000D01*
X128410000Y-101641000D01*
X128419000Y-101651000D01*
X128429000Y-101660000D01*
X128449000Y-101676000D01*
X128460000Y-101684000D01*
X128471000Y-101691000D01*
X128483000Y-101697000D01*
X128494000Y-101702000D01*
X128506000Y-101707000D01*
X128519000Y-101712000D01*
X128531000Y-101715000D01*
X128544000Y-101719000D01*
X128570000Y-101723000D01*
X128583000Y-101724000D01*
X128596000Y-101724000D01*
X128596000Y-102694000D01*
X128576000Y-102693000D01*
X128557000Y-102692000D01*
X128537000Y-102689000D01*
X128518000Y-102686000D01*
X128480000Y-102676000D01*
X128462000Y-102669000D01*
X128443000Y-102662000D01*
X128426000Y-102653000D01*
X128408000Y-102644000D01*
X128392000Y-102634000D01*
X128360000Y-102610000D01*
X128345000Y-102598000D01*
X128317000Y-102570000D01*
X128305000Y-102555000D01*
X128281000Y-102523000D01*
X128271000Y-102507000D01*
X128262000Y-102489000D01*
X128253000Y-102472000D01*
X128246000Y-102453000D01*
X128239000Y-102435000D01*
X128229000Y-102397000D01*
X128226000Y-102378000D01*
X128223000Y-102358000D01*
X128222000Y-102339000D01*
X128221000Y-102319000D01*
X128221000Y-100669000D01*
X128222000Y-100649000D01*
X128223000Y-100630000D01*
X128226000Y-100610000D01*
X128229000Y-100591000D01*
X128239000Y-100553000D01*
X128246000Y-100535000D01*
X128253000Y-100516000D01*
X128271000Y-100482000D01*
X128281000Y-100465000D01*
X128305000Y-100433000D01*
X128317000Y-100418000D01*
X128345000Y-100390000D01*
X128360000Y-100378000D01*
X128392000Y-100354000D01*
X128408000Y-100344000D01*
X128426000Y-100335000D01*
X128443000Y-100326000D01*
X128462000Y-100319000D01*
X128480000Y-100312000D01*
X128518000Y-100302000D01*
X128537000Y-100299000D01*
X128557000Y-100296000D01*
X128576000Y-100295000D01*
X128596000Y-100294000D01*
X128596000Y-100424000D01*
G37*
G36*
X137596000Y-100425000D02*
G01*
X137583000Y-100425000D01*
X137570000Y-100426000D01*
X137544000Y-100430000D01*
X137531000Y-100434000D01*
X137519000Y-100437000D01*
X137506000Y-100442000D01*
X137494000Y-100447000D01*
X137483000Y-100452000D01*
X137471000Y-100458000D01*
X137460000Y-100465000D01*
X137449000Y-100473000D01*
X137429000Y-100489000D01*
X137419000Y-100498000D01*
X137410000Y-100508000D01*
X137394000Y-100528000D01*
X137386000Y-100539000D01*
X137379000Y-100550000D01*
X137373000Y-100562000D01*
X137368000Y-100573000D01*
X137363000Y-100585000D01*
X137358000Y-100598000D01*
X137355000Y-100610000D01*
X137351000Y-100623000D01*
X137347000Y-100649000D01*
X137346000Y-100662000D01*
X137346000Y-101487000D01*
X137347000Y-101500000D01*
X137351000Y-101526000D01*
X137355000Y-101539000D01*
X137358000Y-101551000D01*
X137363000Y-101564000D01*
X137368000Y-101576000D01*
X137373000Y-101587000D01*
X137379000Y-101599000D01*
X137386000Y-101610000D01*
X137394000Y-101621000D01*
X137410000Y-101641000D01*
X137419000Y-101651000D01*
X137429000Y-101660000D01*
X137449000Y-101676000D01*
X137460000Y-101684000D01*
X137471000Y-101691000D01*
X137483000Y-101697000D01*
X137494000Y-101702000D01*
X137506000Y-101707000D01*
X137519000Y-101712000D01*
X137531000Y-101715000D01*
X137544000Y-101719000D01*
X137570000Y-101723000D01*
X137583000Y-101724000D01*
X137596000Y-101724000D01*
X137596000Y-102694000D01*
X137576000Y-102693000D01*
X137557000Y-102692000D01*
X137537000Y-102689000D01*
X137518000Y-102686000D01*
X137480000Y-102676000D01*
X137462000Y-102669000D01*
X137443000Y-102662000D01*
X137409000Y-102644000D01*
X137392000Y-102634000D01*
X137360000Y-102610000D01*
X137345000Y-102598000D01*
X137317000Y-102570000D01*
X137305000Y-102555000D01*
X137281000Y-102523000D01*
X137271000Y-102507000D01*
X137262000Y-102489000D01*
X137253000Y-102472000D01*
X137246000Y-102453000D01*
X137239000Y-102435000D01*
X137229000Y-102397000D01*
X137226000Y-102378000D01*
X137223000Y-102358000D01*
X137222000Y-102339000D01*
X137221000Y-102319000D01*
X137221000Y-100669000D01*
X137222000Y-100649000D01*
X137223000Y-100630000D01*
X137226000Y-100610000D01*
X137229000Y-100591000D01*
X137239000Y-100553000D01*
X137246000Y-100535000D01*
X137253000Y-100516000D01*
X137271000Y-100482000D01*
X137281000Y-100465000D01*
X137305000Y-100433000D01*
X137317000Y-100418000D01*
X137345000Y-100390000D01*
X137360000Y-100378000D01*
X137392000Y-100354000D01*
X137409000Y-100344000D01*
X137443000Y-100326000D01*
X137462000Y-100319000D01*
X137480000Y-100312000D01*
X137518000Y-100302000D01*
X137537000Y-100299000D01*
X137557000Y-100296000D01*
X137576000Y-100295000D01*
X137596000Y-100294000D01*
X137596000Y-100425000D01*
G37*
G36*
X128616000Y-100295000D02*
G01*
X128636000Y-100296000D01*
X128674000Y-100302000D01*
X128712000Y-100312000D01*
X128731000Y-100319000D01*
X128749000Y-100326000D01*
X128767000Y-100335000D01*
X128784000Y-100344000D01*
X128800000Y-100354000D01*
X128817000Y-100366000D01*
X128832000Y-100377000D01*
X128847000Y-100390000D01*
X128875000Y-100418000D01*
X128888000Y-100433000D01*
X128899000Y-100448000D01*
X128911000Y-100465000D01*
X128921000Y-100481000D01*
X128930000Y-100498000D01*
X128939000Y-100516000D01*
X128946000Y-100534000D01*
X128953000Y-100553000D01*
X128963000Y-100591000D01*
X128969000Y-100629000D01*
X128971000Y-100669000D01*
X128971000Y-102321000D01*
X128970000Y-102340000D01*
X128969000Y-102360000D01*
X128963000Y-102398000D01*
X128953000Y-102436000D01*
X128939000Y-102472000D01*
X128930000Y-102490000D01*
X128921000Y-102507000D01*
X128911000Y-102524000D01*
X128900000Y-102540000D01*
X128888000Y-102556000D01*
X128875000Y-102570000D01*
X128862000Y-102585000D01*
X128847000Y-102598000D01*
X128833000Y-102611000D01*
X128817000Y-102623000D01*
X128801000Y-102634000D01*
X128784000Y-102644000D01*
X128767000Y-102653000D01*
X128749000Y-102662000D01*
X128713000Y-102676000D01*
X128675000Y-102686000D01*
X128637000Y-102692000D01*
X128597000Y-102694000D01*
X128596000Y-102694000D01*
X128596000Y-101725000D01*
X128609000Y-101725000D01*
X128622000Y-101724000D01*
X128648000Y-101720000D01*
X128661000Y-101716000D01*
X128673000Y-101713000D01*
X128686000Y-101708000D01*
X128698000Y-101703000D01*
X128709000Y-101698000D01*
X128721000Y-101692000D01*
X128732000Y-101685000D01*
X128743000Y-101677000D01*
X128763000Y-101661000D01*
X128773000Y-101652000D01*
X128782000Y-101642000D01*
X128798000Y-101622000D01*
X128806000Y-101611000D01*
X128813000Y-101600000D01*
X128819000Y-101588000D01*
X128824000Y-101577000D01*
X128829000Y-101565000D01*
X128834000Y-101552000D01*
X128837000Y-101540000D01*
X128841000Y-101527000D01*
X128845000Y-101501000D01*
X128846000Y-101488000D01*
X128846000Y-100660000D01*
X128845000Y-100647000D01*
X128841000Y-100621000D01*
X128838000Y-100609000D01*
X128834000Y-100596000D01*
X128819000Y-100560000D01*
X128813000Y-100549000D01*
X128806000Y-100537000D01*
X128798000Y-100527000D01*
X128791000Y-100516000D01*
X128782000Y-100506000D01*
X128764000Y-100488000D01*
X128754000Y-100479000D01*
X128743000Y-100472000D01*
X128733000Y-100464000D01*
X128722000Y-100457000D01*
X128710000Y-100451000D01*
X128674000Y-100436000D01*
X128661000Y-100432000D01*
X128649000Y-100429000D01*
X128623000Y-100425000D01*
X128610000Y-100424000D01*
X128597000Y-100424000D01*
X128597000Y-100294000D01*
X128616000Y-100295000D01*
G37*
X129928000Y-98040000D02*
X129927000Y-98071000D01*
X129927000Y-98071000D02*
X129925000Y-98100000D01*
X129925000Y-98100000D02*
X129921000Y-98128000D01*
X129921000Y-98128000D02*
X129916000Y-98157000D01*
X129916000Y-98157000D02*
X129909000Y-98185000D01*
X129909000Y-98185000D02*
X129901000Y-98213000D01*
X129901000Y-98213000D02*
X129891000Y-98240000D01*
X129891000Y-98240000D02*
X129880000Y-98267000D01*
X129880000Y-98267000D02*
X129868000Y-98293000D01*
X129868000Y-98293000D02*
X129854000Y-98318000D01*
X129854000Y-98318000D02*
X129839000Y-98343000D01*
X129839000Y-98343000D02*
X129823000Y-98366000D01*
X129823000Y-98366000D02*
X129805000Y-98389000D01*
X129805000Y-98389000D02*
X129786000Y-98411000D01*
X129786000Y-98411000D02*
X129766000Y-98432000D01*
X129766000Y-98432000D02*
X129745000Y-98452000D01*
X129745000Y-98452000D02*
X129723000Y-98471000D01*
X129723000Y-98471000D02*
X129700000Y-98489000D01*
X129700000Y-98489000D02*
X129677000Y-98505000D01*
X129677000Y-98505000D02*
X129652000Y-98520000D01*
X129652000Y-98520000D02*
X129627000Y-98534000D01*
X129627000Y-98534000D02*
X129601000Y-98546000D01*
X129601000Y-98546000D02*
X129574000Y-98557000D01*
X129574000Y-98557000D02*
X129547000Y-98567000D01*
X129547000Y-98567000D02*
X129519000Y-98575000D01*
X129519000Y-98575000D02*
X129491000Y-98582000D01*
X129491000Y-98582000D02*
X129462000Y-98587000D01*
X129462000Y-98587000D02*
X129434000Y-98591000D01*
X129434000Y-98591000D02*
X129405000Y-98593000D01*
X129405000Y-98593000D02*
X129378000Y-98594000D01*
X129378000Y-98594000D02*
X129268000Y-98594000D01*
X129268000Y-98594000D02*
X129241000Y-98593000D01*
X129241000Y-98593000D02*
X129212000Y-98591000D01*
X129212000Y-98591000D02*
X129184000Y-98587000D01*
X129184000Y-98587000D02*
X129155000Y-98582000D01*
X129155000Y-98582000D02*
X129127000Y-98575000D01*
X129127000Y-98575000D02*
X129099000Y-98567000D01*
X129099000Y-98567000D02*
X129072000Y-98557000D01*
X129072000Y-98557000D02*
X129045000Y-98546000D01*
X129045000Y-98546000D02*
X129019000Y-98534000D01*
X129019000Y-98534000D02*
X128994000Y-98520000D01*
X128994000Y-98520000D02*
X128969000Y-98505000D01*
X128969000Y-98505000D02*
X128946000Y-98489000D01*
X128946000Y-98489000D02*
X128923000Y-98471000D01*
X128923000Y-98471000D02*
X128901000Y-98452000D01*
X128901000Y-98452000D02*
X128880000Y-98432000D01*
X128880000Y-98432000D02*
X128860000Y-98411000D01*
X128860000Y-98411000D02*
X128841000Y-98389000D01*
X128841000Y-98389000D02*
X128823000Y-98366000D01*
X128823000Y-98366000D02*
X128807000Y-98343000D01*
X128807000Y-98343000D02*
X128792000Y-98318000D01*
X128792000Y-98318000D02*
X128778000Y-98293000D01*
X128778000Y-98293000D02*
X128766000Y-98267000D01*
X128766000Y-98267000D02*
X128755000Y-98240000D01*
X128755000Y-98240000D02*
X128745000Y-98213000D01*
X128745000Y-98213000D02*
X128737000Y-98185000D01*
X128737000Y-98185000D02*
X128730000Y-98157000D01*
X128730000Y-98157000D02*
X128725000Y-98128000D01*
X128725000Y-98128000D02*
X128721000Y-98100000D01*
X128721000Y-98100000D02*
X128719000Y-98071000D01*
X128719000Y-98071000D02*
X128718000Y-98040000D01*
X128718000Y-98040000D02*
X128917000Y-98040000D01*
X128917000Y-98040000D02*
X128918000Y-98040000D01*
X128918000Y-98040000D02*
X128918000Y-98039000D01*
X128918000Y-98039000D02*
X128918000Y-98059000D01*
X128918000Y-98059000D02*
X128920000Y-98078000D01*
X128920000Y-98078000D02*
X128922000Y-98096000D01*
X128922000Y-98096000D02*
X128926000Y-98114000D01*
X128926000Y-98114000D02*
X128930000Y-98132000D01*
X128930000Y-98132000D02*
X128935000Y-98150000D01*
X128935000Y-98150000D02*
X128941000Y-98168000D01*
X128941000Y-98168000D02*
X128949000Y-98185000D01*
X128949000Y-98185000D02*
X128956000Y-98201000D01*
X128956000Y-98201000D02*
X128965000Y-98218000D01*
X128965000Y-98218000D02*
X128975000Y-98233000D01*
X128975000Y-98233000D02*
X128985000Y-98248000D01*
X128985000Y-98248000D02*
X128997000Y-98263000D01*
X128997000Y-98263000D02*
X129009000Y-98277000D01*
X129009000Y-98277000D02*
X129021000Y-98291000D01*
X129021000Y-98291000D02*
X129035000Y-98303000D01*
X129035000Y-98303000D02*
X129049000Y-98315000D01*
X129049000Y-98315000D02*
X129064000Y-98327000D01*
X129064000Y-98327000D02*
X129079000Y-98337000D01*
X129079000Y-98337000D02*
X129094000Y-98347000D01*
X129094000Y-98347000D02*
X129111000Y-98356000D01*
X129111000Y-98356000D02*
X129127000Y-98363000D01*
X129127000Y-98363000D02*
X129144000Y-98371000D01*
X129144000Y-98371000D02*
X129162000Y-98377000D01*
X129162000Y-98377000D02*
X129180000Y-98382000D01*
X129180000Y-98382000D02*
X129198000Y-98386000D01*
X129198000Y-98386000D02*
X129216000Y-98390000D01*
X129216000Y-98390000D02*
X129234000Y-98392000D01*
X129234000Y-98392000D02*
X129253000Y-98394000D01*
X129253000Y-98394000D02*
X129269000Y-98394000D01*
X129269000Y-98394000D02*
X129377000Y-98394000D01*
X129377000Y-98394000D02*
X129393000Y-98394000D01*
X129393000Y-98394000D02*
X129412000Y-98392000D01*
X129412000Y-98392000D02*
X129430000Y-98390000D01*
X129430000Y-98390000D02*
X129448000Y-98386000D01*
X129448000Y-98386000D02*
X129466000Y-98382000D01*
X129466000Y-98382000D02*
X129484000Y-98377000D01*
X129484000Y-98377000D02*
X129501000Y-98371000D01*
X129501000Y-98371000D02*
X129518000Y-98364000D01*
X129518000Y-98364000D02*
X129535000Y-98356000D01*
X129535000Y-98356000D02*
X129551000Y-98347000D01*
X129551000Y-98347000D02*
X129567000Y-98337000D01*
X129567000Y-98337000D02*
X129582000Y-98327000D01*
X129582000Y-98327000D02*
X129597000Y-98316000D01*
X129597000Y-98316000D02*
X129611000Y-98304000D01*
X129611000Y-98304000D02*
X129624000Y-98291000D01*
X129624000Y-98291000D02*
X129637000Y-98278000D01*
X129637000Y-98278000D02*
X129649000Y-98264000D01*
X129649000Y-98264000D02*
X129660000Y-98249000D01*
X129660000Y-98249000D02*
X129670000Y-98234000D01*
X129670000Y-98234000D02*
X129680000Y-98218000D01*
X129680000Y-98218000D02*
X129689000Y-98202000D01*
X129689000Y-98202000D02*
X129697000Y-98185000D01*
X129697000Y-98185000D02*
X129704000Y-98168000D01*
X129704000Y-98168000D02*
X129710000Y-98151000D01*
X129710000Y-98151000D02*
X129715000Y-98133000D01*
X129715000Y-98133000D02*
X129719000Y-98115000D01*
X129719000Y-98115000D02*
X129723000Y-98097000D01*
X129723000Y-98097000D02*
X129725000Y-98079000D01*
X129725000Y-98079000D02*
X129727000Y-98060000D01*
X129727000Y-98060000D02*
X129727000Y-98040000D01*
X129727000Y-98040000D02*
X129928000Y-98040000D01*
X129928000Y-98040000D02*
X129928000Y-98040000D01*
G36*
X128918000Y-98059000D02*
G01*
X128920000Y-98078000D01*
X128922000Y-98096000D01*
X128930000Y-98132000D01*
X128935000Y-98150000D01*
X128941000Y-98168000D01*
X128949000Y-98185000D01*
X128956000Y-98201000D01*
X128965000Y-98218000D01*
X128985000Y-98248000D01*
X128997000Y-98263000D01*
X129021000Y-98291000D01*
X129049000Y-98315000D01*
X129064000Y-98327000D01*
X129094000Y-98347000D01*
X129111000Y-98356000D01*
X129127000Y-98363000D01*
X129144000Y-98371000D01*
X129162000Y-98377000D01*
X129180000Y-98382000D01*
X129216000Y-98390000D01*
X129234000Y-98392000D01*
X129253000Y-98394000D01*
X129393000Y-98394000D01*
X129412000Y-98392000D01*
X129430000Y-98390000D01*
X129466000Y-98382000D01*
X129484000Y-98377000D01*
X129501000Y-98371000D01*
X129518000Y-98364000D01*
X129535000Y-98356000D01*
X129551000Y-98347000D01*
X129567000Y-98337000D01*
X129582000Y-98327000D01*
X129597000Y-98316000D01*
X129611000Y-98304000D01*
X129637000Y-98278000D01*
X129649000Y-98264000D01*
X129660000Y-98249000D01*
X129670000Y-98234000D01*
X129680000Y-98218000D01*
X129689000Y-98202000D01*
X129697000Y-98185000D01*
X129704000Y-98168000D01*
X129710000Y-98151000D01*
X129715000Y-98133000D01*
X129723000Y-98097000D01*
X129725000Y-98079000D01*
X129727000Y-98060000D01*
X129727000Y-98040000D01*
X129928000Y-98040000D01*
X129927000Y-98071000D01*
X129925000Y-98100000D01*
X129921000Y-98128000D01*
X129916000Y-98157000D01*
X129909000Y-98185000D01*
X129901000Y-98213000D01*
X129891000Y-98240000D01*
X129880000Y-98267000D01*
X129868000Y-98293000D01*
X129854000Y-98318000D01*
X129839000Y-98343000D01*
X129823000Y-98366000D01*
X129805000Y-98389000D01*
X129786000Y-98411000D01*
X129766000Y-98432000D01*
X129745000Y-98452000D01*
X129723000Y-98471000D01*
X129700000Y-98489000D01*
X129677000Y-98505000D01*
X129652000Y-98520000D01*
X129627000Y-98534000D01*
X129601000Y-98546000D01*
X129574000Y-98557000D01*
X129547000Y-98567000D01*
X129519000Y-98575000D01*
X129491000Y-98582000D01*
X129462000Y-98587000D01*
X129434000Y-98591000D01*
X129405000Y-98593000D01*
X129378000Y-98594000D01*
X129268000Y-98594000D01*
X129241000Y-98593000D01*
X129212000Y-98591000D01*
X129184000Y-98587000D01*
X129155000Y-98582000D01*
X129127000Y-98575000D01*
X129099000Y-98567000D01*
X129072000Y-98557000D01*
X129045000Y-98546000D01*
X129019000Y-98534000D01*
X128994000Y-98520000D01*
X128969000Y-98505000D01*
X128946000Y-98489000D01*
X128923000Y-98471000D01*
X128901000Y-98452000D01*
X128880000Y-98432000D01*
X128860000Y-98411000D01*
X128841000Y-98389000D01*
X128823000Y-98366000D01*
X128807000Y-98343000D01*
X128792000Y-98318000D01*
X128778000Y-98293000D01*
X128766000Y-98267000D01*
X128755000Y-98240000D01*
X128745000Y-98213000D01*
X128737000Y-98185000D01*
X128730000Y-98157000D01*
X128725000Y-98128000D01*
X128721000Y-98100000D01*
X128719000Y-98071000D01*
X128718000Y-98040000D01*
X128918000Y-98040000D01*
X128918000Y-98059000D01*
G37*
X128918000Y-98059000D02*
X128920000Y-98078000D01*
X128922000Y-98096000D01*
X128930000Y-98132000D01*
X128935000Y-98150000D01*
X128941000Y-98168000D01*
X128949000Y-98185000D01*
X128956000Y-98201000D01*
X128965000Y-98218000D01*
X128985000Y-98248000D01*
X128997000Y-98263000D01*
X129021000Y-98291000D01*
X129049000Y-98315000D01*
X129064000Y-98327000D01*
X129094000Y-98347000D01*
X129111000Y-98356000D01*
X129127000Y-98363000D01*
X129144000Y-98371000D01*
X129162000Y-98377000D01*
X129180000Y-98382000D01*
X129216000Y-98390000D01*
X129234000Y-98392000D01*
X129253000Y-98394000D01*
X129393000Y-98394000D01*
X129412000Y-98392000D01*
X129430000Y-98390000D01*
X129466000Y-98382000D01*
X129484000Y-98377000D01*
X129501000Y-98371000D01*
X129518000Y-98364000D01*
X129535000Y-98356000D01*
X129551000Y-98347000D01*
X129567000Y-98337000D01*
X129582000Y-98327000D01*
X129597000Y-98316000D01*
X129611000Y-98304000D01*
X129637000Y-98278000D01*
X129649000Y-98264000D01*
X129660000Y-98249000D01*
X129670000Y-98234000D01*
X129680000Y-98218000D01*
X129689000Y-98202000D01*
X129697000Y-98185000D01*
X129704000Y-98168000D01*
X129710000Y-98151000D01*
X129715000Y-98133000D01*
X129723000Y-98097000D01*
X129725000Y-98079000D01*
X129727000Y-98060000D01*
X129727000Y-98040000D01*
X129928000Y-98040000D01*
X129927000Y-98071000D01*
X129925000Y-98100000D01*
X129921000Y-98128000D01*
X129916000Y-98157000D01*
X129909000Y-98185000D01*
X129901000Y-98213000D01*
X129891000Y-98240000D01*
X129880000Y-98267000D01*
X129868000Y-98293000D01*
X129854000Y-98318000D01*
X129839000Y-98343000D01*
X129823000Y-98366000D01*
X129805000Y-98389000D01*
X129786000Y-98411000D01*
X129766000Y-98432000D01*
X129745000Y-98452000D01*
X129723000Y-98471000D01*
X129700000Y-98489000D01*
X129677000Y-98505000D01*
X129652000Y-98520000D01*
X129627000Y-98534000D01*
X129601000Y-98546000D01*
X129574000Y-98557000D01*
X129547000Y-98567000D01*
X129519000Y-98575000D01*
X129491000Y-98582000D01*
X129462000Y-98587000D01*
X129434000Y-98591000D01*
X129405000Y-98593000D01*
X129378000Y-98594000D01*
X129268000Y-98594000D01*
X129241000Y-98593000D01*
X129212000Y-98591000D01*
X129184000Y-98587000D01*
X129155000Y-98582000D01*
X129127000Y-98575000D01*
X129099000Y-98567000D01*
X129072000Y-98557000D01*
X129045000Y-98546000D01*
X129019000Y-98534000D01*
X128994000Y-98520000D01*
X128969000Y-98505000D01*
X128946000Y-98489000D01*
X128923000Y-98471000D01*
X128901000Y-98452000D01*
X128880000Y-98432000D01*
X128860000Y-98411000D01*
X128841000Y-98389000D01*
X128823000Y-98366000D01*
X128807000Y-98343000D01*
X128792000Y-98318000D01*
X128778000Y-98293000D01*
X128766000Y-98267000D01*
X128755000Y-98240000D01*
X128745000Y-98213000D01*
X128737000Y-98185000D01*
X128730000Y-98157000D01*
X128725000Y-98128000D01*
X128721000Y-98100000D01*
X128719000Y-98071000D01*
X128718000Y-98040000D01*
X128918000Y-98040000D01*
X128918000Y-98059000D01*
G36*
X137616000Y-100295000D02*
G01*
X137636000Y-100296000D01*
X137674000Y-100302000D01*
X137712000Y-100312000D01*
X137731000Y-100319000D01*
X137749000Y-100326000D01*
X137767000Y-100335000D01*
X137784000Y-100344000D01*
X137800000Y-100354000D01*
X137817000Y-100366000D01*
X137832000Y-100377000D01*
X137847000Y-100390000D01*
X137875000Y-100418000D01*
X137888000Y-100433000D01*
X137899000Y-100448000D01*
X137911000Y-100465000D01*
X137921000Y-100481000D01*
X137930000Y-100498000D01*
X137939000Y-100516000D01*
X137946000Y-100534000D01*
X137953000Y-100553000D01*
X137963000Y-100591000D01*
X137969000Y-100629000D01*
X137971000Y-100669000D01*
X137971000Y-102321000D01*
X137970000Y-102340000D01*
X137969000Y-102360000D01*
X137963000Y-102398000D01*
X137953000Y-102436000D01*
X137939000Y-102472000D01*
X137930000Y-102490000D01*
X137921000Y-102507000D01*
X137911000Y-102524000D01*
X137900000Y-102540000D01*
X137888000Y-102556000D01*
X137875000Y-102570000D01*
X137862000Y-102585000D01*
X137847000Y-102598000D01*
X137833000Y-102611000D01*
X137817000Y-102623000D01*
X137801000Y-102634000D01*
X137784000Y-102644000D01*
X137767000Y-102653000D01*
X137749000Y-102662000D01*
X137713000Y-102676000D01*
X137675000Y-102686000D01*
X137637000Y-102692000D01*
X137597000Y-102694000D01*
X137596000Y-102694000D01*
X137596000Y-101725000D01*
X137609000Y-101725000D01*
X137622000Y-101724000D01*
X137648000Y-101720000D01*
X137661000Y-101716000D01*
X137673000Y-101713000D01*
X137686000Y-101708000D01*
X137698000Y-101703000D01*
X137709000Y-101698000D01*
X137721000Y-101692000D01*
X137732000Y-101685000D01*
X137743000Y-101677000D01*
X137763000Y-101661000D01*
X137773000Y-101652000D01*
X137782000Y-101642000D01*
X137798000Y-101622000D01*
X137806000Y-101611000D01*
X137813000Y-101600000D01*
X137819000Y-101588000D01*
X137824000Y-101577000D01*
X137829000Y-101565000D01*
X137834000Y-101552000D01*
X137837000Y-101540000D01*
X137841000Y-101527000D01*
X137845000Y-101501000D01*
X137846000Y-101488000D01*
X137846000Y-100660000D01*
X137845000Y-100647000D01*
X137841000Y-100621000D01*
X137838000Y-100609000D01*
X137834000Y-100596000D01*
X137819000Y-100560000D01*
X137813000Y-100549000D01*
X137806000Y-100537000D01*
X137798000Y-100527000D01*
X137791000Y-100516000D01*
X137782000Y-100506000D01*
X137764000Y-100488000D01*
X137754000Y-100479000D01*
X137743000Y-100472000D01*
X137733000Y-100464000D01*
X137722000Y-100457000D01*
X137710000Y-100451000D01*
X137674000Y-100436000D01*
X137661000Y-100432000D01*
X137649000Y-100429000D01*
X137623000Y-100425000D01*
X137610000Y-100424000D01*
X137597000Y-100424000D01*
X137597000Y-100294000D01*
X137616000Y-100295000D01*
G37*
%TD*%
D11*
%TO.P,J2,S1,SHIELD*%
%TO.N,GND*%
X129251000Y-96814000D03*
%TO.P,J2,S2,SHIELD*%
X136941000Y-96814000D03*
D12*
%TO.P,J2,S5,SHIELD*%
X137221000Y-99474000D03*
%TO.P,J2,S6,SHIELD*%
X128971000Y-99474000D03*
%TO.P,J2,S7,SHIELD*%
X137596000Y-101074000D03*
%TO.P,J2,S8,SHIELD*%
X128596000Y-101074000D03*
%TD*%
D13*
%TO.P,J1,1,Pin_1*%
%TO.N,PROG_SWCLK*%
X114046000Y-94244000D03*
D14*
%TO.P,J1,2,Pin_2*%
%TO.N,PROG_SWDIO*%
X114046000Y-96784000D03*
%TO.P,J1,3,Pin_3*%
%TO.N,+1V8*%
X114046000Y-99324000D03*
%TO.P,J1,4,Pin_4*%
%TO.N,GND*%
X114046000Y-101864000D03*
%TD*%
D15*
%TO.N,+1V8*%
X119888000Y-75946000D03*
%TO.N,+5V*%
X137922000Y-60452000D03*
%TO.N,+1V8*%
X126238000Y-65024000D03*
%TO.N,+5V*%
X134112000Y-102108000D03*
X131826000Y-95504000D03*
%TO.N,+1V8*%
X129794000Y-77724000D03*
%TO.N,+5V*%
X131572000Y-102108000D03*
%TO.N,+1V8*%
X123952000Y-90170000D03*
%TO.N,+5V*%
X134366000Y-95504000D03*
%TO.N,GND*%
X125319751Y-82581751D03*
X124369751Y-84481751D03*
X124369751Y-81631751D03*
X124369751Y-80681751D03*
X127219751Y-84481751D03*
X125319751Y-84481751D03*
X126269751Y-84481751D03*
X128169751Y-83531751D03*
X125319751Y-80681751D03*
X128169751Y-80681751D03*
X126269751Y-81631751D03*
X124369751Y-83531751D03*
X127219751Y-82581751D03*
X124369751Y-82581751D03*
X126269751Y-83531751D03*
X125319751Y-83531751D03*
X127219751Y-80681751D03*
X125319751Y-81631751D03*
X126269751Y-80681751D03*
X126269751Y-82581751D03*
X127219751Y-83531751D03*
X128169751Y-82581751D03*
X128169751Y-84481751D03*
X127219751Y-81631751D03*
X128169751Y-81631751D03*
%TO.N,PROG_SWCLK*%
X130556000Y-85852000D03*
%TO.N,PROG_SWDIO*%
X130556000Y-84836000D03*
%TD*%
D16*
%TO.N,PROG_SWCLK*%
X122164000Y-94244000D02*
X114046000Y-94244000D01*
X130556000Y-85852000D02*
X122164000Y-94244000D01*
%TO.N,PROG_SWDIO*%
X130556000Y-84836000D02*
X131180511Y-85460511D01*
X131180511Y-86110682D02*
X120507193Y-96784000D01*
X131180511Y-85460511D02*
X131180511Y-86110682D01*
X120507193Y-96784000D02*
X114046000Y-96784000D01*
%TD*%
%TA.AperFunction,Conductor*%
%TO.N,GND*%
G36*
X126800076Y-56401361D02*
G01*
X158586097Y-56425518D01*
X158654201Y-56445572D01*
X158700653Y-56499263D01*
X158712000Y-56551518D01*
X158712000Y-89282000D01*
X158691998Y-89350121D01*
X158638342Y-89396614D01*
X158586000Y-89408000D01*
X139192000Y-89408000D01*
X139192000Y-105284000D01*
X139171998Y-105352121D01*
X139118342Y-105398614D01*
X139066000Y-105410000D01*
X109854000Y-105410000D01*
X109785879Y-105389998D01*
X109739386Y-105336342D01*
X109728000Y-105284000D01*
X109728000Y-102131966D01*
X112714257Y-102131966D01*
X112744565Y-102266446D01*
X112747645Y-102276275D01*
X112827770Y-102473603D01*
X112832413Y-102482794D01*
X112943694Y-102664388D01*
X112949777Y-102672699D01*
X113089213Y-102833667D01*
X113096580Y-102840883D01*
X113260434Y-102976916D01*
X113268881Y-102982831D01*
X113452756Y-103090279D01*
X113462042Y-103094729D01*
X113661001Y-103170703D01*
X113670899Y-103173579D01*
X113774250Y-103194606D01*
X113788299Y-103193410D01*
X113792000Y-103183065D01*
X113792000Y-103182517D01*
X114300000Y-103182517D01*
X114304064Y-103196359D01*
X114317478Y-103198393D01*
X114324184Y-103197534D01*
X114334262Y-103195392D01*
X114538255Y-103134191D01*
X114547842Y-103130433D01*
X114739095Y-103036739D01*
X114747945Y-103031464D01*
X114921328Y-102907792D01*
X114929200Y-102901139D01*
X115080052Y-102750812D01*
X115086730Y-102742965D01*
X115211003Y-102570020D01*
X115216313Y-102561183D01*
X115310670Y-102370267D01*
X115314469Y-102360672D01*
X115331432Y-102304841D01*
X127711657Y-102304841D01*
X127711900Y-102309699D01*
X127712672Y-102325152D01*
X127712678Y-102325625D01*
X127712622Y-102326178D01*
X127712706Y-102327765D01*
X127712826Y-102330054D01*
X127713000Y-102336676D01*
X127713000Y-102355477D01*
X127713635Y-102359908D01*
X127713954Y-102364389D01*
X127713907Y-102364392D01*
X127714839Y-102378011D01*
X127714776Y-102389347D01*
X127714749Y-102394218D01*
X127715471Y-102399030D01*
X127715472Y-102399045D01*
X127716088Y-102403152D01*
X127717308Y-102415212D01*
X127717619Y-102421126D01*
X127718485Y-102425513D01*
X127718485Y-102425515D01*
X127721640Y-102441500D01*
X127722481Y-102446237D01*
X127723774Y-102454429D01*
X127723828Y-102454770D01*
X127723973Y-102455714D01*
X127724655Y-102460259D01*
X127725384Y-102466018D01*
X127727654Y-102488009D01*
X127728894Y-102492720D01*
X127728894Y-102492722D01*
X127729592Y-102495374D01*
X127732199Y-102507788D01*
X127732905Y-102512259D01*
X127734223Y-102516536D01*
X127734224Y-102516542D01*
X127739893Y-102534944D01*
X127741319Y-102539937D01*
X127744185Y-102550828D01*
X127745372Y-102555747D01*
X127751197Y-102582237D01*
X127752963Y-102586779D01*
X127754015Y-102590257D01*
X127754268Y-102591038D01*
X127754424Y-102590985D01*
X127755866Y-102595217D01*
X127757009Y-102599559D01*
X127768018Y-102625630D01*
X127769356Y-102628932D01*
X127770480Y-102631821D01*
X127771252Y-102633859D01*
X127773386Y-102639650D01*
X127774242Y-102642048D01*
X127785518Y-102674709D01*
X127787795Y-102679010D01*
X127788060Y-102679620D01*
X127788270Y-102680048D01*
X127788932Y-102681846D01*
X127791062Y-102685789D01*
X127791064Y-102685794D01*
X127806815Y-102714955D01*
X127811802Y-102725285D01*
X127815156Y-102733126D01*
X127819241Y-102742678D01*
X127824248Y-102750688D01*
X127830103Y-102761128D01*
X127832944Y-102766811D01*
X127838687Y-102775100D01*
X127846334Y-102787645D01*
X127850854Y-102796138D01*
X127853771Y-102800027D01*
X127853772Y-102800029D01*
X127858447Y-102806263D01*
X127864487Y-102815072D01*
X127866954Y-102819019D01*
X127869550Y-102823172D01*
X127872440Y-102826597D01*
X127876032Y-102830854D01*
X127882143Y-102838905D01*
X127883595Y-102841441D01*
X127891470Y-102851285D01*
X127891495Y-102851322D01*
X127891867Y-102852067D01*
X127893940Y-102854850D01*
X127894829Y-102856133D01*
X127894830Y-102856134D01*
X127894842Y-102856151D01*
X127894144Y-102856635D01*
X127895007Y-102858366D01*
X127896304Y-102857328D01*
X127902138Y-102864621D01*
X127904545Y-102867728D01*
X127915346Y-102882129D01*
X127920486Y-102888982D01*
X127921052Y-102889548D01*
X127923721Y-102892898D01*
X127929805Y-102901225D01*
X127933255Y-102904675D01*
X127933953Y-102905490D01*
X127937189Y-102909105D01*
X127937263Y-102909037D01*
X127940308Y-102912333D01*
X127943105Y-102915829D01*
X127946369Y-102918893D01*
X127962953Y-102934461D01*
X127965811Y-102937231D01*
X127975297Y-102946717D01*
X127979092Y-102950681D01*
X127996750Y-102969958D01*
X128000553Y-102973001D01*
X128001269Y-102973670D01*
X128004964Y-102976978D01*
X128005031Y-102976900D01*
X128008409Y-102979829D01*
X128011583Y-102983003D01*
X128018156Y-102987930D01*
X128021876Y-102990950D01*
X128023538Y-102992654D01*
X128039537Y-103004653D01*
X128039538Y-103004654D01*
X128047272Y-103010454D01*
X128050383Y-103012864D01*
X128071138Y-103029468D01*
X128072972Y-103030549D01*
X128081453Y-103037109D01*
X128085511Y-103040618D01*
X128085515Y-103040621D01*
X128089199Y-103043807D01*
X128093321Y-103046384D01*
X128093326Y-103046387D01*
X128099933Y-103050516D01*
X128108744Y-103056558D01*
X128116382Y-103062286D01*
X128123797Y-103066349D01*
X128136251Y-103074153D01*
X128145417Y-103080670D01*
X128149777Y-103082850D01*
X128149782Y-103082853D01*
X128153879Y-103084902D01*
X128164298Y-103090745D01*
X128165884Y-103091736D01*
X128165891Y-103091739D01*
X128169693Y-103094116D01*
X128188694Y-103102518D01*
X128196702Y-103106406D01*
X128197853Y-103107015D01*
X128200064Y-103108216D01*
X128225983Y-103122627D01*
X128225990Y-103122630D01*
X128230245Y-103124996D01*
X128234820Y-103126682D01*
X128235420Y-103126957D01*
X128235853Y-103127132D01*
X128237551Y-103128031D01*
X128241762Y-103129542D01*
X128241765Y-103129544D01*
X128273411Y-103140904D01*
X128274406Y-103141266D01*
X128280846Y-103143639D01*
X128287714Y-103146401D01*
X128307987Y-103155256D01*
X128307990Y-103155257D01*
X128312443Y-103157202D01*
X128317144Y-103158439D01*
X128320729Y-103159685D01*
X128321359Y-103159890D01*
X128321409Y-103159729D01*
X128325698Y-103161055D01*
X128329874Y-103162679D01*
X128357344Y-103169072D01*
X128360810Y-103169931D01*
X128371520Y-103172749D01*
X128378008Y-103174644D01*
X128399678Y-103181611D01*
X128404481Y-103182369D01*
X128404488Y-103182371D01*
X128407206Y-103182800D01*
X128419608Y-103185403D01*
X128423993Y-103186557D01*
X128428449Y-103187072D01*
X128428448Y-103187072D01*
X128445842Y-103189083D01*
X128450058Y-103189643D01*
X128452648Y-103190031D01*
X128459226Y-103191018D01*
X128460153Y-103191161D01*
X128464174Y-103191795D01*
X128470454Y-103192949D01*
X128486010Y-103196217D01*
X128486017Y-103196218D01*
X128490778Y-103197218D01*
X128495634Y-103197473D01*
X128495638Y-103197474D01*
X128497876Y-103197591D01*
X128498232Y-103197610D01*
X128510246Y-103198821D01*
X128511540Y-103199014D01*
X128520141Y-103201587D01*
X128529114Y-103201642D01*
X128529115Y-103201642D01*
X128536287Y-103201686D01*
X128554556Y-103201797D01*
X128555328Y-103201830D01*
X128556423Y-103202000D01*
X128563443Y-103202000D01*
X128576587Y-103202687D01*
X128582841Y-103203343D01*
X128587703Y-103203100D01*
X128587706Y-103203100D01*
X128590218Y-103202975D01*
X128602074Y-103202975D01*
X128602586Y-103202964D01*
X128607063Y-103203188D01*
X128611524Y-103202775D01*
X128611526Y-103202775D01*
X128611731Y-103202756D01*
X128624115Y-103202222D01*
X128632560Y-103202274D01*
X128665652Y-103202476D01*
X128674283Y-103200009D01*
X128674728Y-103199961D01*
X128677136Y-103199956D01*
X128682807Y-103199061D01*
X128689876Y-103198327D01*
X128689874Y-103198311D01*
X128694332Y-103197768D01*
X128698800Y-103197545D01*
X128703192Y-103196690D01*
X128703194Y-103196690D01*
X128724094Y-103192623D01*
X128728497Y-103191847D01*
X128731961Y-103191300D01*
X128736659Y-103190558D01*
X128743365Y-103189683D01*
X128749180Y-103189083D01*
X128761160Y-103187847D01*
X128761167Y-103187846D01*
X128766009Y-103187346D01*
X128773374Y-103185408D01*
X128785788Y-103182801D01*
X128790259Y-103182095D01*
X128794536Y-103180778D01*
X128794542Y-103180776D01*
X128804428Y-103177730D01*
X128812943Y-103175107D01*
X128817932Y-103173682D01*
X128828803Y-103170822D01*
X128833787Y-103169619D01*
X128855474Y-103164851D01*
X128855482Y-103164848D01*
X128860237Y-103163803D01*
X128864779Y-103162037D01*
X128868283Y-103160977D01*
X128869042Y-103160730D01*
X128868989Y-103160575D01*
X128873222Y-103159133D01*
X128877559Y-103157991D01*
X128884036Y-103155256D01*
X128903608Y-103146992D01*
X128906909Y-103145653D01*
X128914289Y-103142783D01*
X128921597Y-103140198D01*
X128940786Y-103134068D01*
X128949866Y-103129528D01*
X128960556Y-103124789D01*
X128967119Y-103122237D01*
X128976967Y-103116688D01*
X128979802Y-103115138D01*
X128990628Y-103109408D01*
X129002460Y-103103951D01*
X129002929Y-103103722D01*
X129007453Y-103101929D01*
X129017299Y-103096138D01*
X129021043Y-103094103D01*
X129022804Y-103093060D01*
X129026811Y-103091056D01*
X129030489Y-103088508D01*
X129031106Y-103088142D01*
X129036378Y-103085187D01*
X129047206Y-103079455D01*
X129051584Y-103077245D01*
X129056184Y-103075035D01*
X129060196Y-103072277D01*
X129070359Y-103065290D01*
X129077853Y-103060518D01*
X129086138Y-103055644D01*
X129086140Y-103055643D01*
X129090007Y-103053368D01*
X129092546Y-103051340D01*
X129094269Y-103050048D01*
X129094289Y-103050034D01*
X129111347Y-103037240D01*
X129115565Y-103034210D01*
X129123607Y-103028681D01*
X129134855Y-103020948D01*
X129136679Y-103019267D01*
X129141864Y-103015458D01*
X129145635Y-103012912D01*
X129145638Y-103012910D01*
X129149667Y-103010189D01*
X129153232Y-103006879D01*
X129153238Y-103006874D01*
X129154285Y-103005902D01*
X129160672Y-103000567D01*
X129163395Y-102998204D01*
X129166982Y-102995514D01*
X129170155Y-102992339D01*
X129183108Y-102979378D01*
X129190842Y-102972259D01*
X129197798Y-102966373D01*
X129219970Y-102947613D01*
X129222128Y-102945123D01*
X129222270Y-102945000D01*
X129248936Y-102914253D01*
X129256149Y-102906607D01*
X129265702Y-102897291D01*
X129270654Y-102892462D01*
X129273566Y-102888580D01*
X129273577Y-102888567D01*
X129274443Y-102887412D01*
X129279776Y-102881027D01*
X129282031Y-102878222D01*
X129285080Y-102874939D01*
X129289146Y-102869074D01*
X129293495Y-102863266D01*
X129296192Y-102860410D01*
X129298950Y-102856398D01*
X129298955Y-102856392D01*
X129311213Y-102838561D01*
X129314243Y-102834342D01*
X129320582Y-102825890D01*
X129323900Y-102821658D01*
X129325706Y-102819453D01*
X129325711Y-102819446D01*
X129328796Y-102815679D01*
X129337519Y-102800850D01*
X129342291Y-102793355D01*
X129344083Y-102790749D01*
X129350278Y-102781738D01*
X129351025Y-102780230D01*
X129351447Y-102779665D01*
X129353699Y-102775411D01*
X129353704Y-102775403D01*
X129360866Y-102761874D01*
X129363953Y-102756404D01*
X129366670Y-102752583D01*
X129369047Y-102747828D01*
X129373144Y-102740289D01*
X129375086Y-102736987D01*
X129375087Y-102736985D01*
X129377357Y-102733126D01*
X129379417Y-102728108D01*
X129384613Y-102717017D01*
X129387867Y-102710869D01*
X129390203Y-102706656D01*
X129395673Y-102697221D01*
X129395677Y-102697214D01*
X129398114Y-102693009D01*
X129399874Y-102688483D01*
X129399879Y-102688473D01*
X129401799Y-102683535D01*
X129406529Y-102672866D01*
X129407673Y-102670577D01*
X129407675Y-102670573D01*
X129409682Y-102666558D01*
X129416332Y-102646585D01*
X129418429Y-102640768D01*
X129421397Y-102633136D01*
X129423357Y-102628386D01*
X129423855Y-102627247D01*
X129434202Y-102603557D01*
X129435439Y-102598854D01*
X129436685Y-102595271D01*
X129436890Y-102594641D01*
X129436729Y-102594591D01*
X129438055Y-102590302D01*
X129439679Y-102586126D01*
X129446072Y-102558656D01*
X129446937Y-102555164D01*
X129449745Y-102544492D01*
X129451645Y-102537989D01*
X129457122Y-102520952D01*
X129458611Y-102516322D01*
X129459369Y-102511519D01*
X129459371Y-102511512D01*
X129459800Y-102508794D01*
X129462403Y-102496392D01*
X129462417Y-102496337D01*
X129463557Y-102492007D01*
X129466279Y-102468461D01*
X129466987Y-102463277D01*
X129468287Y-102455045D01*
X129469368Y-102449123D01*
X129473401Y-102429668D01*
X129473401Y-102429664D01*
X129474390Y-102424896D01*
X129474676Y-102419174D01*
X129475410Y-102412093D01*
X129475391Y-102412091D01*
X129475774Y-102407627D01*
X129476473Y-102403199D01*
X129476764Y-102382961D01*
X129478250Y-102365397D01*
X129479000Y-102360577D01*
X129479000Y-102337676D01*
X129479174Y-102331054D01*
X129479980Y-102315744D01*
X129479980Y-102315740D01*
X129480215Y-102311274D01*
X129479506Y-102303386D01*
X129479000Y-102292105D01*
X129479000Y-102108000D01*
X130658496Y-102108000D01*
X130678458Y-102297928D01*
X130737473Y-102479556D01*
X130740776Y-102485278D01*
X130740777Y-102485279D01*
X130755923Y-102511512D01*
X130832960Y-102644944D01*
X130837378Y-102649851D01*
X130837379Y-102649852D01*
X130956130Y-102781738D01*
X130960747Y-102786866D01*
X131005599Y-102819453D01*
X131081969Y-102874939D01*
X131115248Y-102899118D01*
X131121276Y-102901802D01*
X131121278Y-102901803D01*
X131231110Y-102950703D01*
X131289712Y-102976794D01*
X131371003Y-102994073D01*
X131470056Y-103015128D01*
X131470061Y-103015128D01*
X131476513Y-103016500D01*
X131667487Y-103016500D01*
X131673939Y-103015128D01*
X131673944Y-103015128D01*
X131772997Y-102994073D01*
X131854288Y-102976794D01*
X131912890Y-102950703D01*
X132022722Y-102901803D01*
X132022724Y-102901802D01*
X132028752Y-102899118D01*
X132062032Y-102874939D01*
X132138401Y-102819453D01*
X132183253Y-102786866D01*
X132187870Y-102781738D01*
X132306621Y-102649852D01*
X132306622Y-102649851D01*
X132311040Y-102644944D01*
X132388077Y-102511512D01*
X132403223Y-102485279D01*
X132403224Y-102485278D01*
X132406527Y-102479556D01*
X132465542Y-102297928D01*
X132485504Y-102108000D01*
X133198496Y-102108000D01*
X133218458Y-102297928D01*
X133277473Y-102479556D01*
X133280776Y-102485278D01*
X133280777Y-102485279D01*
X133295923Y-102511512D01*
X133372960Y-102644944D01*
X133377378Y-102649851D01*
X133377379Y-102649852D01*
X133496130Y-102781738D01*
X133500747Y-102786866D01*
X133545599Y-102819453D01*
X133621969Y-102874939D01*
X133655248Y-102899118D01*
X133661276Y-102901802D01*
X133661278Y-102901803D01*
X133771110Y-102950703D01*
X133829712Y-102976794D01*
X133911003Y-102994073D01*
X134010056Y-103015128D01*
X134010061Y-103015128D01*
X134016513Y-103016500D01*
X134207487Y-103016500D01*
X134213939Y-103015128D01*
X134213944Y-103015128D01*
X134312997Y-102994073D01*
X134394288Y-102976794D01*
X134452890Y-102950703D01*
X134562722Y-102901803D01*
X134562724Y-102901802D01*
X134568752Y-102899118D01*
X134602032Y-102874939D01*
X134678401Y-102819453D01*
X134723253Y-102786866D01*
X134727870Y-102781738D01*
X134846621Y-102649852D01*
X134846622Y-102649851D01*
X134851040Y-102644944D01*
X134928077Y-102511512D01*
X134943223Y-102485279D01*
X134943224Y-102485278D01*
X134946527Y-102479556D01*
X135005542Y-102297928D01*
X135025504Y-102108000D01*
X135005542Y-101918072D01*
X134946527Y-101736444D01*
X134851040Y-101571056D01*
X134723253Y-101429134D01*
X134568752Y-101316882D01*
X134562724Y-101314198D01*
X134562722Y-101314197D01*
X134400319Y-101241891D01*
X134400318Y-101241891D01*
X134394288Y-101239206D01*
X134300888Y-101219353D01*
X134213944Y-101200872D01*
X134213939Y-101200872D01*
X134207487Y-101199500D01*
X134016513Y-101199500D01*
X134010061Y-101200872D01*
X134010056Y-101200872D01*
X133923113Y-101219353D01*
X133829712Y-101239206D01*
X133823682Y-101241891D01*
X133823681Y-101241891D01*
X133661278Y-101314197D01*
X133661276Y-101314198D01*
X133655248Y-101316882D01*
X133500747Y-101429134D01*
X133372960Y-101571056D01*
X133277473Y-101736444D01*
X133218458Y-101918072D01*
X133198496Y-102108000D01*
X132485504Y-102108000D01*
X132465542Y-101918072D01*
X132406527Y-101736444D01*
X132311040Y-101571056D01*
X132183253Y-101429134D01*
X132028752Y-101316882D01*
X132022724Y-101314198D01*
X132022722Y-101314197D01*
X131860319Y-101241891D01*
X131860318Y-101241891D01*
X131854288Y-101239206D01*
X131760888Y-101219353D01*
X131673944Y-101200872D01*
X131673939Y-101200872D01*
X131667487Y-101199500D01*
X131476513Y-101199500D01*
X131470061Y-101200872D01*
X131470056Y-101200872D01*
X131383113Y-101219353D01*
X131289712Y-101239206D01*
X131283682Y-101241891D01*
X131283681Y-101241891D01*
X131121278Y-101314197D01*
X131121276Y-101314198D01*
X131115248Y-101316882D01*
X130960747Y-101429134D01*
X130832960Y-101571056D01*
X130737473Y-101736444D01*
X130678458Y-101918072D01*
X130658496Y-102108000D01*
X129479000Y-102108000D01*
X129479000Y-100702557D01*
X129479687Y-100689413D01*
X129479836Y-100687993D01*
X129480343Y-100683159D01*
X129479157Y-100659439D01*
X129479000Y-100653147D01*
X129479000Y-100635565D01*
X129499002Y-100567444D01*
X129530940Y-100533629D01*
X129559749Y-100512698D01*
X129569516Y-100503904D01*
X129684877Y-100375781D01*
X129692601Y-100365151D01*
X129778800Y-100215850D01*
X129784146Y-100203842D01*
X129837422Y-100039876D01*
X129840152Y-100027033D01*
X129853656Y-99898547D01*
X129854000Y-99891988D01*
X136338000Y-99891988D01*
X136338344Y-99898547D01*
X136351848Y-100027033D01*
X136354578Y-100039876D01*
X136407854Y-100203842D01*
X136413200Y-100215850D01*
X136499399Y-100365151D01*
X136507123Y-100375781D01*
X136622484Y-100503904D01*
X136632251Y-100512698D01*
X136661060Y-100533629D01*
X136704415Y-100589851D01*
X136713000Y-100635565D01*
X136713000Y-100651326D01*
X136712900Y-100655117D01*
X136712868Y-100657149D01*
X136712785Y-100658727D01*
X136712835Y-100659281D01*
X136712827Y-100659758D01*
X136711812Y-100680063D01*
X136712225Y-100684525D01*
X136712225Y-100684527D01*
X136712464Y-100687108D01*
X136713000Y-100698719D01*
X136713000Y-102285443D01*
X136712313Y-102298587D01*
X136711657Y-102304841D01*
X136711900Y-102309699D01*
X136712672Y-102325152D01*
X136712678Y-102325625D01*
X136712622Y-102326178D01*
X136712706Y-102327765D01*
X136712826Y-102330054D01*
X136713000Y-102336676D01*
X136713000Y-102355477D01*
X136713635Y-102359908D01*
X136713954Y-102364389D01*
X136713907Y-102364392D01*
X136714839Y-102378011D01*
X136714776Y-102389347D01*
X136714749Y-102394218D01*
X136715471Y-102399030D01*
X136715472Y-102399045D01*
X136716088Y-102403152D01*
X136717308Y-102415212D01*
X136717619Y-102421126D01*
X136718485Y-102425513D01*
X136718485Y-102425515D01*
X136721640Y-102441500D01*
X136722481Y-102446237D01*
X136723774Y-102454429D01*
X136723828Y-102454770D01*
X136723973Y-102455714D01*
X136724655Y-102460259D01*
X136725384Y-102466018D01*
X136727654Y-102488009D01*
X136728894Y-102492720D01*
X136728894Y-102492722D01*
X136729592Y-102495374D01*
X136732199Y-102507788D01*
X136732905Y-102512259D01*
X136734223Y-102516536D01*
X136734224Y-102516542D01*
X136739893Y-102534944D01*
X136741319Y-102539937D01*
X136744185Y-102550828D01*
X136745372Y-102555747D01*
X136751197Y-102582237D01*
X136752963Y-102586779D01*
X136754015Y-102590257D01*
X136754268Y-102591038D01*
X136754424Y-102590985D01*
X136755866Y-102595217D01*
X136757009Y-102599559D01*
X136768018Y-102625630D01*
X136769356Y-102628932D01*
X136770480Y-102631821D01*
X136771252Y-102633859D01*
X136773386Y-102639650D01*
X136774242Y-102642048D01*
X136785518Y-102674709D01*
X136787795Y-102679010D01*
X136788060Y-102679620D01*
X136788270Y-102680048D01*
X136788932Y-102681846D01*
X136791062Y-102685789D01*
X136791064Y-102685794D01*
X136806815Y-102714955D01*
X136811802Y-102725285D01*
X136815156Y-102733126D01*
X136819241Y-102742678D01*
X136824248Y-102750688D01*
X136830103Y-102761128D01*
X136832944Y-102766811D01*
X136838687Y-102775100D01*
X136846334Y-102787645D01*
X136850854Y-102796138D01*
X136853771Y-102800027D01*
X136853772Y-102800029D01*
X136858447Y-102806263D01*
X136864487Y-102815072D01*
X136866954Y-102819019D01*
X136869550Y-102823172D01*
X136872440Y-102826597D01*
X136876032Y-102830854D01*
X136882143Y-102838905D01*
X136883595Y-102841441D01*
X136891470Y-102851285D01*
X136891495Y-102851322D01*
X136891867Y-102852067D01*
X136893940Y-102854850D01*
X136894829Y-102856133D01*
X136894830Y-102856134D01*
X136894842Y-102856151D01*
X136894144Y-102856635D01*
X136895007Y-102858366D01*
X136896304Y-102857328D01*
X136902138Y-102864621D01*
X136904545Y-102867728D01*
X136915346Y-102882129D01*
X136920486Y-102888982D01*
X136921052Y-102889548D01*
X136923721Y-102892898D01*
X136929805Y-102901225D01*
X136933255Y-102904675D01*
X136933953Y-102905490D01*
X136937189Y-102909105D01*
X136937263Y-102909037D01*
X136940308Y-102912333D01*
X136943105Y-102915829D01*
X136946369Y-102918893D01*
X136962953Y-102934461D01*
X136965811Y-102937231D01*
X136975297Y-102946717D01*
X136979092Y-102950681D01*
X136996750Y-102969958D01*
X137000553Y-102973001D01*
X137001269Y-102973670D01*
X137004964Y-102976978D01*
X137005031Y-102976900D01*
X137008409Y-102979829D01*
X137011583Y-102983003D01*
X137018156Y-102987930D01*
X137021876Y-102990950D01*
X137023538Y-102992654D01*
X137039537Y-103004653D01*
X137039538Y-103004654D01*
X137047272Y-103010454D01*
X137050383Y-103012864D01*
X137071138Y-103029468D01*
X137075003Y-103031746D01*
X137075996Y-103032430D01*
X137084309Y-103038683D01*
X137100321Y-103051796D01*
X137104516Y-103054263D01*
X137106144Y-103055399D01*
X137108958Y-103057273D01*
X137109026Y-103057167D01*
X137112791Y-103059593D01*
X137116382Y-103062286D01*
X137120319Y-103064443D01*
X137123613Y-103066248D01*
X137130438Y-103070271D01*
X137132433Y-103071533D01*
X137136335Y-103074447D01*
X137140642Y-103076727D01*
X137140645Y-103076729D01*
X137153333Y-103083446D01*
X137153335Y-103083447D01*
X137158775Y-103086327D01*
X137163686Y-103089070D01*
X137182874Y-103100357D01*
X137187660Y-103102322D01*
X137201051Y-103108764D01*
X137225985Y-103122628D01*
X137225991Y-103122631D01*
X137230245Y-103124996D01*
X137234820Y-103126682D01*
X137235420Y-103126957D01*
X137235853Y-103127132D01*
X137237551Y-103128031D01*
X137241762Y-103129542D01*
X137241765Y-103129544D01*
X137273411Y-103140904D01*
X137274406Y-103141266D01*
X137280846Y-103143639D01*
X137287714Y-103146401D01*
X137307987Y-103155256D01*
X137307990Y-103155257D01*
X137312443Y-103157202D01*
X137317144Y-103158439D01*
X137320729Y-103159685D01*
X137321359Y-103159890D01*
X137321409Y-103159729D01*
X137325698Y-103161055D01*
X137329874Y-103162679D01*
X137357344Y-103169072D01*
X137360810Y-103169931D01*
X137371520Y-103172749D01*
X137378008Y-103174644D01*
X137399678Y-103181611D01*
X137404481Y-103182369D01*
X137404488Y-103182371D01*
X137407206Y-103182800D01*
X137419608Y-103185403D01*
X137423993Y-103186557D01*
X137428449Y-103187072D01*
X137428448Y-103187072D01*
X137445842Y-103189083D01*
X137450058Y-103189643D01*
X137452648Y-103190031D01*
X137459226Y-103191018D01*
X137460153Y-103191161D01*
X137464174Y-103191795D01*
X137470454Y-103192949D01*
X137486010Y-103196217D01*
X137486017Y-103196218D01*
X137490778Y-103197218D01*
X137495634Y-103197473D01*
X137495638Y-103197474D01*
X137497876Y-103197591D01*
X137498232Y-103197610D01*
X137510246Y-103198821D01*
X137511540Y-103199014D01*
X137520141Y-103201587D01*
X137529114Y-103201642D01*
X137529115Y-103201642D01*
X137536287Y-103201686D01*
X137554556Y-103201797D01*
X137555328Y-103201830D01*
X137556423Y-103202000D01*
X137563443Y-103202000D01*
X137576587Y-103202687D01*
X137582841Y-103203343D01*
X137587703Y-103203100D01*
X137587706Y-103203100D01*
X137590218Y-103202975D01*
X137602074Y-103202975D01*
X137602586Y-103202964D01*
X137607063Y-103203188D01*
X137611524Y-103202775D01*
X137611526Y-103202775D01*
X137611731Y-103202756D01*
X137624115Y-103202222D01*
X137632560Y-103202274D01*
X137665652Y-103202476D01*
X137674283Y-103200009D01*
X137674728Y-103199961D01*
X137677136Y-103199956D01*
X137682807Y-103199061D01*
X137689876Y-103198327D01*
X137689874Y-103198311D01*
X137694332Y-103197768D01*
X137698800Y-103197545D01*
X137703192Y-103196690D01*
X137703194Y-103196690D01*
X137724094Y-103192623D01*
X137728497Y-103191847D01*
X137731961Y-103191300D01*
X137736659Y-103190558D01*
X137743365Y-103189683D01*
X137749180Y-103189083D01*
X137761160Y-103187847D01*
X137761167Y-103187846D01*
X137766009Y-103187346D01*
X137773374Y-103185408D01*
X137785788Y-103182801D01*
X137790259Y-103182095D01*
X137794536Y-103180778D01*
X137794542Y-103180776D01*
X137804428Y-103177730D01*
X137812943Y-103175107D01*
X137817932Y-103173682D01*
X137828803Y-103170822D01*
X137833787Y-103169619D01*
X137855474Y-103164851D01*
X137855482Y-103164848D01*
X137860237Y-103163803D01*
X137864779Y-103162037D01*
X137868283Y-103160977D01*
X137869042Y-103160730D01*
X137868989Y-103160575D01*
X137873222Y-103159133D01*
X137877559Y-103157991D01*
X137884036Y-103155256D01*
X137903608Y-103146992D01*
X137906909Y-103145653D01*
X137914289Y-103142783D01*
X137921597Y-103140198D01*
X137940786Y-103134068D01*
X137949866Y-103129528D01*
X137960556Y-103124789D01*
X137967119Y-103122237D01*
X137976967Y-103116688D01*
X137979802Y-103115138D01*
X137990628Y-103109408D01*
X138002460Y-103103951D01*
X138002929Y-103103722D01*
X138007453Y-103101929D01*
X138017299Y-103096138D01*
X138021043Y-103094103D01*
X138022804Y-103093060D01*
X138026811Y-103091056D01*
X138030489Y-103088508D01*
X138031106Y-103088142D01*
X138036378Y-103085187D01*
X138047206Y-103079455D01*
X138051584Y-103077245D01*
X138056184Y-103075035D01*
X138060196Y-103072277D01*
X138070359Y-103065290D01*
X138077853Y-103060518D01*
X138086138Y-103055644D01*
X138086140Y-103055643D01*
X138090007Y-103053368D01*
X138092546Y-103051340D01*
X138094269Y-103050048D01*
X138094289Y-103050034D01*
X138111347Y-103037240D01*
X138115565Y-103034210D01*
X138123607Y-103028681D01*
X138134855Y-103020948D01*
X138136679Y-103019267D01*
X138141864Y-103015458D01*
X138145635Y-103012912D01*
X138145638Y-103012910D01*
X138149667Y-103010189D01*
X138153232Y-103006879D01*
X138153238Y-103006874D01*
X138154285Y-103005902D01*
X138160672Y-103000567D01*
X138163395Y-102998204D01*
X138166982Y-102995514D01*
X138170155Y-102992339D01*
X138183108Y-102979378D01*
X138190842Y-102972259D01*
X138197798Y-102966373D01*
X138219970Y-102947613D01*
X138222128Y-102945123D01*
X138222270Y-102945000D01*
X138248936Y-102914253D01*
X138256149Y-102906607D01*
X138265702Y-102897291D01*
X138270654Y-102892462D01*
X138273566Y-102888580D01*
X138273577Y-102888567D01*
X138274443Y-102887412D01*
X138279776Y-102881027D01*
X138282031Y-102878222D01*
X138285080Y-102874939D01*
X138289146Y-102869074D01*
X138293495Y-102863266D01*
X138296192Y-102860410D01*
X138298950Y-102856398D01*
X138298955Y-102856392D01*
X138311213Y-102838561D01*
X138314243Y-102834342D01*
X138320582Y-102825890D01*
X138323900Y-102821658D01*
X138325706Y-102819453D01*
X138325711Y-102819446D01*
X138328796Y-102815679D01*
X138337519Y-102800850D01*
X138342291Y-102793355D01*
X138344083Y-102790749D01*
X138350278Y-102781738D01*
X138351025Y-102780230D01*
X138351447Y-102779665D01*
X138353699Y-102775411D01*
X138353704Y-102775403D01*
X138360866Y-102761874D01*
X138363953Y-102756404D01*
X138366670Y-102752583D01*
X138369047Y-102747828D01*
X138373144Y-102740289D01*
X138375086Y-102736987D01*
X138375087Y-102736985D01*
X138377357Y-102733126D01*
X138379417Y-102728108D01*
X138384613Y-102717017D01*
X138387867Y-102710869D01*
X138390203Y-102706656D01*
X138395673Y-102697221D01*
X138395677Y-102697214D01*
X138398114Y-102693009D01*
X138399874Y-102688483D01*
X138399879Y-102688473D01*
X138401799Y-102683535D01*
X138406529Y-102672866D01*
X138407673Y-102670577D01*
X138407675Y-102670573D01*
X138409682Y-102666558D01*
X138416332Y-102646585D01*
X138418429Y-102640768D01*
X138421397Y-102633136D01*
X138423357Y-102628386D01*
X138423855Y-102627247D01*
X138434202Y-102603557D01*
X138435439Y-102598854D01*
X138436685Y-102595271D01*
X138436890Y-102594641D01*
X138436729Y-102594591D01*
X138438055Y-102590302D01*
X138439679Y-102586126D01*
X138446072Y-102558656D01*
X138446937Y-102555164D01*
X138449745Y-102544492D01*
X138451645Y-102537989D01*
X138457122Y-102520952D01*
X138458611Y-102516322D01*
X138459369Y-102511519D01*
X138459371Y-102511512D01*
X138459800Y-102508794D01*
X138462403Y-102496392D01*
X138462417Y-102496337D01*
X138463557Y-102492007D01*
X138466279Y-102468461D01*
X138466987Y-102463277D01*
X138468287Y-102455045D01*
X138469368Y-102449123D01*
X138473401Y-102429668D01*
X138473401Y-102429664D01*
X138474390Y-102424896D01*
X138474676Y-102419174D01*
X138475410Y-102412093D01*
X138475391Y-102412091D01*
X138475774Y-102407627D01*
X138476473Y-102403199D01*
X138476764Y-102382961D01*
X138478250Y-102365397D01*
X138479000Y-102360577D01*
X138479000Y-102337676D01*
X138479174Y-102331054D01*
X138479980Y-102315744D01*
X138479980Y-102315740D01*
X138480215Y-102311274D01*
X138479506Y-102303386D01*
X138479000Y-102292105D01*
X138479000Y-100702557D01*
X138479687Y-100689413D01*
X138479836Y-100687993D01*
X138480343Y-100683159D01*
X138479157Y-100659439D01*
X138479000Y-100653147D01*
X138479000Y-100632523D01*
X138478276Y-100627469D01*
X138477001Y-100609861D01*
X138476991Y-100605195D01*
X138476956Y-100588863D01*
X138476061Y-100583192D01*
X138475328Y-100576124D01*
X138475311Y-100576126D01*
X138474769Y-100571670D01*
X138474545Y-100567200D01*
X138471848Y-100553338D01*
X138469623Y-100541907D01*
X138468848Y-100537511D01*
X138467558Y-100529339D01*
X138466684Y-100522639D01*
X138464846Y-100504836D01*
X138464346Y-100499991D01*
X138462406Y-100492619D01*
X138459802Y-100480220D01*
X138459801Y-100480210D01*
X138459095Y-100475740D01*
X138452111Y-100453070D01*
X138450677Y-100448050D01*
X138450607Y-100447783D01*
X138449191Y-100442403D01*
X138447520Y-100435198D01*
X138444321Y-100419294D01*
X138444320Y-100419291D01*
X138443360Y-100414518D01*
X138440169Y-100405857D01*
X138436550Y-100394366D01*
X138436383Y-100393729D01*
X138434991Y-100388441D01*
X138428921Y-100374067D01*
X138427565Y-100370723D01*
X138421511Y-100355157D01*
X138420709Y-100353038D01*
X138418406Y-100346786D01*
X138416614Y-100341573D01*
X138412552Y-100328858D01*
X138411069Y-100324215D01*
X138408894Y-100319865D01*
X138408892Y-100319860D01*
X138406523Y-100315123D01*
X138401789Y-100304444D01*
X138400859Y-100302053D01*
X138399237Y-100297881D01*
X138397042Y-100293986D01*
X138397037Y-100293975D01*
X138393701Y-100288056D01*
X138392145Y-100285209D01*
X138382470Y-100266934D01*
X138377987Y-100257545D01*
X138374675Y-100249801D01*
X138374673Y-100249797D01*
X138372759Y-100245322D01*
X138363829Y-100231034D01*
X138359327Y-100223220D01*
X138354997Y-100215041D01*
X138354994Y-100215037D01*
X138352897Y-100211075D01*
X138350595Y-100207911D01*
X138348843Y-100204378D01*
X138336199Y-100186465D01*
X138333761Y-100182786D01*
X138332058Y-100179502D01*
X138329183Y-100175581D01*
X138326971Y-100172018D01*
X138326621Y-100171502D01*
X138325404Y-100169555D01*
X138322450Y-100164828D01*
X138316737Y-100158057D01*
X138306267Y-100143703D01*
X138300395Y-100134330D01*
X138297810Y-100130203D01*
X138294625Y-100126528D01*
X138294622Y-100126524D01*
X138288788Y-100119793D01*
X138282400Y-100111787D01*
X138276083Y-100103172D01*
X138272944Y-100099967D01*
X138270041Y-100096547D01*
X138270198Y-100096414D01*
X138268387Y-100094277D01*
X138268236Y-100094406D01*
X138265063Y-100090701D01*
X138262195Y-100086775D01*
X138258758Y-100083338D01*
X138258752Y-100083331D01*
X138250209Y-100074789D01*
X138244087Y-100068215D01*
X138237936Y-100061118D01*
X138235000Y-100057730D01*
X138228660Y-100052231D01*
X138215030Y-100038433D01*
X138212760Y-100035750D01*
X138212757Y-100035747D01*
X138209612Y-100032030D01*
X138196787Y-100020915D01*
X138190213Y-100014793D01*
X138180417Y-100004997D01*
X138176825Y-100002306D01*
X138173435Y-99999366D01*
X138173636Y-99999134D01*
X138171528Y-99997302D01*
X138171462Y-99997378D01*
X138167763Y-99994199D01*
X138164328Y-99990751D01*
X138155487Y-99984268D01*
X138112384Y-99927855D01*
X138104000Y-99882662D01*
X138104000Y-99746115D01*
X138099525Y-99730876D01*
X138098135Y-99729671D01*
X138090452Y-99728000D01*
X136356115Y-99728000D01*
X136340876Y-99732475D01*
X136339671Y-99733865D01*
X136338000Y-99741548D01*
X136338000Y-99891988D01*
X129854000Y-99891988D01*
X129854000Y-99746115D01*
X129849525Y-99730876D01*
X129848135Y-99729671D01*
X129840452Y-99728000D01*
X128106115Y-99728000D01*
X128090876Y-99732475D01*
X128089671Y-99733865D01*
X128088000Y-99741548D01*
X128088000Y-99884000D01*
X128067998Y-99952121D01*
X128037598Y-99984801D01*
X128026018Y-99993486D01*
X128025450Y-99994054D01*
X128022102Y-99996721D01*
X128013775Y-100002805D01*
X128010330Y-100006250D01*
X128009523Y-100006941D01*
X128005894Y-100010190D01*
X128005963Y-100010264D01*
X128002667Y-100013309D01*
X127999171Y-100016106D01*
X127996107Y-100019370D01*
X127980551Y-100035941D01*
X127977781Y-100038799D01*
X127968283Y-100048297D01*
X127964297Y-100052113D01*
X127954467Y-100061118D01*
X127945042Y-100069751D01*
X127942004Y-100073549D01*
X127941318Y-100074282D01*
X127938023Y-100077964D01*
X127938100Y-100078031D01*
X127935171Y-100081409D01*
X127931997Y-100084583D01*
X127927070Y-100091156D01*
X127924050Y-100094876D01*
X127922346Y-100096538D01*
X127910347Y-100112537D01*
X127910345Y-100112540D01*
X127904534Y-100120288D01*
X127902124Y-100123399D01*
X127885532Y-100144139D01*
X127883252Y-100148008D01*
X127882577Y-100148987D01*
X127876326Y-100157298D01*
X127863204Y-100173321D01*
X127860734Y-100177520D01*
X127859596Y-100179152D01*
X127857726Y-100181959D01*
X127857832Y-100182027D01*
X127855403Y-100185797D01*
X127852714Y-100189382D01*
X127850562Y-100193309D01*
X127850559Y-100193314D01*
X127848752Y-100196613D01*
X127844729Y-100203437D01*
X127843461Y-100205442D01*
X127840553Y-100209336D01*
X127838279Y-100213632D01*
X127838278Y-100213633D01*
X127831554Y-100226334D01*
X127828685Y-100231754D01*
X127825941Y-100236669D01*
X127814643Y-100255875D01*
X127812944Y-100260015D01*
X127812682Y-100260654D01*
X127806237Y-100274049D01*
X127792955Y-100297938D01*
X127790004Y-100303245D01*
X127788322Y-100307812D01*
X127788044Y-100308417D01*
X127787866Y-100308858D01*
X127786969Y-100310551D01*
X127785454Y-100314770D01*
X127785454Y-100314771D01*
X127774118Y-100346349D01*
X127773755Y-100347349D01*
X127771361Y-100353845D01*
X127768603Y-100360702D01*
X127765341Y-100368171D01*
X127757798Y-100385443D01*
X127756561Y-100390145D01*
X127755315Y-100393729D01*
X127755110Y-100394359D01*
X127755271Y-100394409D01*
X127753945Y-100398698D01*
X127752321Y-100402874D01*
X127748500Y-100419294D01*
X127745930Y-100430335D01*
X127745065Y-100433827D01*
X127743275Y-100440632D01*
X127742254Y-100444511D01*
X127740355Y-100451012D01*
X127733389Y-100472679D01*
X127732200Y-100480210D01*
X127729596Y-100492610D01*
X127728443Y-100496993D01*
X127727928Y-100501446D01*
X127727927Y-100501453D01*
X127725917Y-100518848D01*
X127725358Y-100523058D01*
X127724416Y-100529339D01*
X127723974Y-100532284D01*
X127723861Y-100533017D01*
X127723194Y-100537244D01*
X127722055Y-100543434D01*
X127717782Y-100563778D01*
X127717526Y-100568644D01*
X127717308Y-100572786D01*
X127716088Y-100584850D01*
X127715874Y-100586278D01*
X127715873Y-100586289D01*
X127715209Y-100590716D01*
X127715179Y-100595190D01*
X127715179Y-100595194D01*
X127715101Y-100606994D01*
X127714071Y-100619752D01*
X127714125Y-100619756D01*
X127713749Y-100624611D01*
X127713000Y-100629423D01*
X127713000Y-100651326D01*
X127712900Y-100655117D01*
X127712868Y-100657149D01*
X127712785Y-100658727D01*
X127712835Y-100659281D01*
X127712827Y-100659758D01*
X127711812Y-100680063D01*
X127712225Y-100684525D01*
X127712225Y-100684527D01*
X127712464Y-100687108D01*
X127713000Y-100698719D01*
X127713000Y-102285443D01*
X127712313Y-102298587D01*
X127711657Y-102304841D01*
X115331432Y-102304841D01*
X115376377Y-102156910D01*
X115378555Y-102146837D01*
X115379986Y-102135962D01*
X115377775Y-102121778D01*
X115364617Y-102118000D01*
X114318115Y-102118000D01*
X114302876Y-102122475D01*
X114301671Y-102123865D01*
X114300000Y-102131548D01*
X114300000Y-103182517D01*
X113792000Y-103182517D01*
X113792000Y-102136115D01*
X113787525Y-102120876D01*
X113786135Y-102119671D01*
X113778452Y-102118000D01*
X112729225Y-102118000D01*
X112715694Y-102121973D01*
X112714257Y-102131966D01*
X109728000Y-102131966D01*
X109728000Y-99290695D01*
X112683251Y-99290695D01*
X112683548Y-99295848D01*
X112683548Y-99295851D01*
X112689011Y-99390590D01*
X112696110Y-99513715D01*
X112697247Y-99518761D01*
X112697248Y-99518767D01*
X112717119Y-99606939D01*
X112745222Y-99731639D01*
X112796742Y-99858518D01*
X112813758Y-99900423D01*
X112829266Y-99938616D01*
X112871892Y-100008175D01*
X112942501Y-100123399D01*
X112945987Y-100129088D01*
X113092250Y-100297938D01*
X113264126Y-100440632D01*
X113311036Y-100468044D01*
X113337955Y-100483774D01*
X113386679Y-100535412D01*
X113399750Y-100605195D01*
X113373019Y-100670967D01*
X113332562Y-100704327D01*
X113324457Y-100708546D01*
X113315738Y-100714036D01*
X113145433Y-100841905D01*
X113137726Y-100848748D01*
X112990590Y-101002717D01*
X112984104Y-101010727D01*
X112864098Y-101186649D01*
X112859000Y-101195623D01*
X112769338Y-101388783D01*
X112765775Y-101398470D01*
X112710389Y-101598183D01*
X112711912Y-101606607D01*
X112724292Y-101610000D01*
X115364344Y-101610000D01*
X115377875Y-101606027D01*
X115379180Y-101596947D01*
X115337214Y-101429875D01*
X115333894Y-101420124D01*
X115248972Y-101224814D01*
X115244105Y-101215739D01*
X115128426Y-101036926D01*
X115122136Y-101028757D01*
X114978806Y-100871240D01*
X114971273Y-100864215D01*
X114804139Y-100732222D01*
X114795556Y-100726520D01*
X114758602Y-100706120D01*
X114708631Y-100655687D01*
X114693859Y-100586245D01*
X114718975Y-100519839D01*
X114746327Y-100493232D01*
X114805513Y-100451015D01*
X114925860Y-100365173D01*
X114935976Y-100355093D01*
X115025852Y-100265530D01*
X115084096Y-100207489D01*
X115087208Y-100203159D01*
X115211435Y-100030277D01*
X115214453Y-100026077D01*
X115218457Y-100017977D01*
X115311136Y-99830453D01*
X115311137Y-99830451D01*
X115313430Y-99825811D01*
X115378370Y-99612069D01*
X115407529Y-99390590D01*
X115409156Y-99324000D01*
X115390852Y-99101361D01*
X115336431Y-98884702D01*
X115247354Y-98679840D01*
X115190323Y-98591684D01*
X115128822Y-98496617D01*
X115128820Y-98496614D01*
X115126014Y-98492277D01*
X114975670Y-98327051D01*
X114971619Y-98323852D01*
X114971615Y-98323848D01*
X114804414Y-98191800D01*
X114804410Y-98191798D01*
X114800359Y-98188598D01*
X114759053Y-98165796D01*
X114709084Y-98115364D01*
X114694312Y-98045921D01*
X114719428Y-97979516D01*
X114746780Y-97952909D01*
X114814437Y-97904650D01*
X114925860Y-97825173D01*
X114933698Y-97817363D01*
X115024667Y-97726711D01*
X115084096Y-97667489D01*
X115096854Y-97649735D01*
X115211435Y-97490277D01*
X115214453Y-97486077D01*
X115216746Y-97481437D01*
X115218446Y-97478608D01*
X115270674Y-97430518D01*
X115326451Y-97417500D01*
X120428426Y-97417500D01*
X120439609Y-97418027D01*
X120447102Y-97419702D01*
X120455028Y-97419453D01*
X120455029Y-97419453D01*
X120515179Y-97417562D01*
X120519138Y-97417500D01*
X120547049Y-97417500D01*
X120550984Y-97417003D01*
X120551049Y-97416995D01*
X120562886Y-97416062D01*
X120595144Y-97415048D01*
X120599163Y-97414922D01*
X120607082Y-97414673D01*
X120626536Y-97409021D01*
X120645893Y-97405013D01*
X120658123Y-97403468D01*
X120658124Y-97403468D01*
X120665990Y-97402474D01*
X120673361Y-97399555D01*
X120673363Y-97399555D01*
X120707105Y-97386196D01*
X120718335Y-97382351D01*
X120753176Y-97372229D01*
X120753177Y-97372229D01*
X120760786Y-97370018D01*
X120767605Y-97365985D01*
X120767610Y-97365983D01*
X120778221Y-97359707D01*
X120795969Y-97351012D01*
X120814810Y-97343552D01*
X120840274Y-97325052D01*
X120850580Y-97317564D01*
X120860500Y-97311048D01*
X120891728Y-97292580D01*
X120891731Y-97292578D01*
X120898555Y-97288542D01*
X120912876Y-97274221D01*
X120927910Y-97261380D01*
X120937887Y-97254131D01*
X120944300Y-97249472D01*
X120972491Y-97215395D01*
X120980481Y-97206616D01*
X121106800Y-97080297D01*
X128084385Y-97080297D01*
X128096737Y-97125138D01*
X128101729Y-97137747D01*
X128182307Y-97290574D01*
X128189900Y-97301832D01*
X128301797Y-97434245D01*
X128330488Y-97499186D01*
X128319515Y-97569329D01*
X128313545Y-97580494D01*
X128307431Y-97590662D01*
X128305593Y-97595174D01*
X128301686Y-97604763D01*
X128297703Y-97613557D01*
X128292273Y-97624419D01*
X128290855Y-97628679D01*
X128289144Y-97632811D01*
X128289055Y-97632774D01*
X128286469Y-97638908D01*
X128286658Y-97638988D01*
X128284772Y-97643462D01*
X128282537Y-97647795D01*
X128280995Y-97652420D01*
X128280994Y-97652423D01*
X128276553Y-97665744D01*
X128273708Y-97673435D01*
X128267736Y-97688095D01*
X128266834Y-97691709D01*
X128266275Y-97693597D01*
X128266171Y-97693914D01*
X128266056Y-97694335D01*
X128258913Y-97718440D01*
X128257653Y-97722445D01*
X128256222Y-97726737D01*
X128254306Y-97731817D01*
X128253610Y-97733902D01*
X128251718Y-97738384D01*
X128249852Y-97745848D01*
X128249486Y-97746946D01*
X128249244Y-97748281D01*
X128248906Y-97749634D01*
X128248905Y-97749635D01*
X128245429Y-97763538D01*
X128244006Y-97768752D01*
X128237520Y-97790643D01*
X128237461Y-97791046D01*
X128236401Y-97795128D01*
X128234819Y-97799729D01*
X128231666Y-97817386D01*
X128229868Y-97825783D01*
X128227358Y-97835820D01*
X128227355Y-97835834D01*
X128226272Y-97840168D01*
X128225813Y-97844613D01*
X128225618Y-97845723D01*
X128225123Y-97847375D01*
X128224897Y-97849014D01*
X128221433Y-97874125D01*
X128220656Y-97879036D01*
X128216449Y-97902599D01*
X128216449Y-97902600D01*
X128216448Y-97902600D01*
X128216153Y-97904573D01*
X128215061Y-97909327D01*
X128214237Y-97920861D01*
X128213727Y-97928004D01*
X128212865Y-97936244D01*
X128211343Y-97947275D01*
X128211342Y-97947284D01*
X128210731Y-97951716D01*
X128210743Y-97953992D01*
X128210544Y-97955846D01*
X128208364Y-97963133D01*
X128208309Y-97972109D01*
X128208309Y-97972110D01*
X128208122Y-98002713D01*
X128207962Y-98006850D01*
X128207962Y-98008711D01*
X128207642Y-98013187D01*
X128207960Y-98017656D01*
X128207959Y-98022147D01*
X128207954Y-98022147D01*
X128207995Y-98023434D01*
X128207974Y-98026877D01*
X128207883Y-98030948D01*
X128207095Y-98051435D01*
X128207095Y-98051444D01*
X128206923Y-98055924D01*
X128207388Y-98060390D01*
X128207535Y-98064862D01*
X128207416Y-98064866D01*
X128207707Y-98070772D01*
X128207475Y-98108659D01*
X128209940Y-98117285D01*
X128211159Y-98126183D01*
X128210989Y-98126206D01*
X128212117Y-98132721D01*
X128212459Y-98132672D01*
X128214779Y-98148911D01*
X128215747Y-98158062D01*
X128216354Y-98166869D01*
X128216357Y-98166887D01*
X128216664Y-98171346D01*
X128217602Y-98175722D01*
X128217635Y-98175958D01*
X128218443Y-98180141D01*
X128222781Y-98205297D01*
X128223348Y-98208890D01*
X128226134Y-98228392D01*
X128226884Y-98234823D01*
X128227078Y-98236964D01*
X128227080Y-98236977D01*
X128227520Y-98241825D01*
X128228701Y-98246548D01*
X128231408Y-98257380D01*
X128233336Y-98266519D01*
X128234772Y-98274847D01*
X128234774Y-98274856D01*
X128235535Y-98279268D01*
X128236915Y-98283533D01*
X128237598Y-98286297D01*
X128237625Y-98286518D01*
X128237823Y-98287212D01*
X128237826Y-98287223D01*
X128245591Y-98314401D01*
X128246676Y-98318453D01*
X128252778Y-98342859D01*
X128253771Y-98347245D01*
X128253862Y-98347564D01*
X128254831Y-98352340D01*
X128260157Y-98366720D01*
X128260160Y-98366727D01*
X128263154Y-98375870D01*
X128265286Y-98383331D01*
X128266519Y-98387645D01*
X128268352Y-98391745D01*
X128269553Y-98395040D01*
X128269566Y-98395035D01*
X128280659Y-98422262D01*
X128282128Y-98426041D01*
X128284291Y-98431881D01*
X128286152Y-98437566D01*
X128286541Y-98438614D01*
X128286553Y-98438791D01*
X128287300Y-98441072D01*
X128288126Y-98443967D01*
X128286938Y-98444306D01*
X128291483Y-98509439D01*
X128262043Y-98566753D01*
X128257127Y-98572213D01*
X128249399Y-98582849D01*
X128163200Y-98732150D01*
X128157854Y-98744158D01*
X128104578Y-98908124D01*
X128101848Y-98920967D01*
X128088344Y-99049453D01*
X128088000Y-99056012D01*
X128088000Y-99201885D01*
X128092475Y-99217124D01*
X128093865Y-99218329D01*
X128101548Y-99220000D01*
X129835885Y-99220000D01*
X129851124Y-99215525D01*
X129852329Y-99214135D01*
X129854000Y-99206452D01*
X129854000Y-99063020D01*
X129874002Y-98994899D01*
X129918425Y-98953091D01*
X129922524Y-98950795D01*
X129928917Y-98947450D01*
X129930266Y-98946793D01*
X129930268Y-98946792D01*
X129934640Y-98944662D01*
X129949589Y-98934263D01*
X129956714Y-98929655D01*
X129965821Y-98924191D01*
X129965823Y-98924190D01*
X129969669Y-98921882D01*
X129973146Y-98919055D01*
X129976535Y-98916679D01*
X129977906Y-98915743D01*
X129981948Y-98913484D01*
X129985778Y-98910487D01*
X129985785Y-98910482D01*
X129999078Y-98900079D01*
X130004776Y-98895872D01*
X130011075Y-98891490D01*
X130020074Y-98885230D01*
X130022381Y-98883080D01*
X130025119Y-98881372D01*
X130028807Y-98878187D01*
X130028811Y-98878184D01*
X130043493Y-98865505D01*
X130048174Y-98861655D01*
X130064841Y-98848611D01*
X130065169Y-98848269D01*
X130066720Y-98847193D01*
X130081973Y-98832667D01*
X130084214Y-98830533D01*
X130088749Y-98826420D01*
X130101272Y-98815604D01*
X130101275Y-98815601D01*
X130104678Y-98812662D01*
X130105053Y-98812231D01*
X130106604Y-98811039D01*
X130123236Y-98793576D01*
X130127578Y-98789234D01*
X130139539Y-98777842D01*
X130142794Y-98774742D01*
X130143161Y-98774276D01*
X130144636Y-98773024D01*
X130160421Y-98754747D01*
X130164525Y-98750222D01*
X130175952Y-98738223D01*
X130179055Y-98734965D01*
X130179361Y-98734535D01*
X130180700Y-98733282D01*
X130195653Y-98714175D01*
X130199510Y-98709485D01*
X130210414Y-98696860D01*
X130210415Y-98696859D01*
X130213346Y-98693465D01*
X130214396Y-98691827D01*
X130217460Y-98688618D01*
X130229874Y-98670773D01*
X130234081Y-98665075D01*
X130242809Y-98653923D01*
X130242815Y-98653914D01*
X130245573Y-98650390D01*
X130246995Y-98647916D01*
X130248385Y-98646064D01*
X130248348Y-98646038D01*
X130251168Y-98642069D01*
X130254287Y-98638327D01*
X130256793Y-98634151D01*
X130256799Y-98634142D01*
X130263650Y-98622723D01*
X130268259Y-98615596D01*
X130274335Y-98606862D01*
X130274341Y-98606853D01*
X130276892Y-98603185D01*
X130278900Y-98599189D01*
X130279214Y-98598660D01*
X130280944Y-98595401D01*
X130292643Y-98574510D01*
X130294530Y-98571256D01*
X130305851Y-98552389D01*
X130308968Y-98547456D01*
X130310011Y-98545887D01*
X130310012Y-98545886D01*
X130312704Y-98541837D01*
X130314738Y-98537429D01*
X130314744Y-98537419D01*
X130318913Y-98528384D01*
X130323384Y-98519614D01*
X130326908Y-98513321D01*
X130329099Y-98509409D01*
X130330711Y-98505230D01*
X130331808Y-98502897D01*
X130333983Y-98497976D01*
X130335569Y-98495338D01*
X130345065Y-98472029D01*
X130347328Y-98466819D01*
X130352330Y-98455981D01*
X130353678Y-98453566D01*
X130354627Y-98451004D01*
X130356575Y-98446783D01*
X130357858Y-98442486D01*
X130358722Y-98440200D01*
X130359583Y-98437624D01*
X130363884Y-98426010D01*
X130365341Y-98422262D01*
X130374145Y-98400651D01*
X130376445Y-98395356D01*
X130376594Y-98395034D01*
X130376595Y-98395031D01*
X130378630Y-98390626D01*
X130379966Y-98385951D01*
X130382850Y-98375859D01*
X130385843Y-98366720D01*
X130386211Y-98365727D01*
X130390092Y-98355247D01*
X130391039Y-98350858D01*
X130392260Y-98346669D01*
X130392282Y-98346616D01*
X130392295Y-98346566D01*
X130399318Y-98318472D01*
X130400405Y-98314412D01*
X130406735Y-98292259D01*
X130408342Y-98287095D01*
X130408379Y-98286948D01*
X130409939Y-98282323D01*
X130412664Y-98266519D01*
X130414591Y-98257382D01*
X130416640Y-98249184D01*
X130416640Y-98249183D01*
X130417728Y-98244832D01*
X130418189Y-98240365D01*
X130418294Y-98239765D01*
X130418620Y-98237114D01*
X130422656Y-98208863D01*
X130423206Y-98205373D01*
X130426142Y-98188347D01*
X130427432Y-98181885D01*
X130428044Y-98179191D01*
X130428045Y-98179187D01*
X130429123Y-98174438D01*
X130430252Y-98158070D01*
X130431219Y-98148927D01*
X130432467Y-98140188D01*
X130432468Y-98140180D01*
X130433102Y-98135739D01*
X130433101Y-98131252D01*
X130433344Y-98127815D01*
X130433510Y-98126937D01*
X130433534Y-98126206D01*
X130433756Y-98122153D01*
X130435636Y-98115867D01*
X130435852Y-98080473D01*
X130436049Y-98075220D01*
X130436046Y-98074050D01*
X130436356Y-98069564D01*
X130436026Y-98065082D01*
X130436016Y-98060603D01*
X130436034Y-98060603D01*
X130435983Y-98059071D01*
X130436039Y-98049840D01*
X130436103Y-98046540D01*
X130436228Y-98042670D01*
X130436962Y-98019922D01*
X130436680Y-98017371D01*
X135756914Y-98017371D01*
X135757076Y-98022232D01*
X135757076Y-98022235D01*
X135757456Y-98033626D01*
X135757433Y-98042670D01*
X135756923Y-98055924D01*
X135757389Y-98060395D01*
X135757521Y-98064427D01*
X135757483Y-98064865D01*
X135757416Y-98064867D01*
X135757440Y-98065363D01*
X135757431Y-98065472D01*
X135757483Y-98066218D01*
X135757707Y-98070772D01*
X135757475Y-98108659D01*
X135757481Y-98108680D01*
X135757475Y-98109659D01*
X135759727Y-98117539D01*
X135760384Y-98124221D01*
X135760392Y-98124352D01*
X135760307Y-98129213D01*
X135761821Y-98140188D01*
X135762760Y-98146998D01*
X135763642Y-98155535D01*
X135763817Y-98158070D01*
X135764664Y-98170346D01*
X135765604Y-98174735D01*
X135765865Y-98176582D01*
X135765904Y-98178350D01*
X135766134Y-98179637D01*
X135766136Y-98179651D01*
X135770653Y-98204949D01*
X135771433Y-98209877D01*
X135774699Y-98233551D01*
X135774670Y-98233555D01*
X135775080Y-98235979D01*
X135775520Y-98240825D01*
X135776700Y-98245545D01*
X135779870Y-98258227D01*
X135781667Y-98266620D01*
X135784274Y-98281219D01*
X135785583Y-98285184D01*
X135785625Y-98285518D01*
X135786190Y-98287497D01*
X135786196Y-98287519D01*
X135793591Y-98313400D01*
X135794676Y-98317453D01*
X135800778Y-98341859D01*
X135801771Y-98346245D01*
X135801862Y-98346564D01*
X135802831Y-98351340D01*
X135808160Y-98365727D01*
X135811154Y-98374870D01*
X135813286Y-98382331D01*
X135814519Y-98386645D01*
X135816352Y-98390745D01*
X135817553Y-98394040D01*
X135817566Y-98394035D01*
X135828659Y-98421262D01*
X135830128Y-98425041D01*
X135832291Y-98430881D01*
X135834152Y-98436565D01*
X135834790Y-98438284D01*
X135836126Y-98442968D01*
X135846676Y-98465827D01*
X135848935Y-98471028D01*
X135857262Y-98491467D01*
X135857927Y-98492604D01*
X135858292Y-98493429D01*
X135859913Y-98498020D01*
X135862219Y-98502303D01*
X135862221Y-98502307D01*
X135869428Y-98515691D01*
X135872890Y-98522624D01*
X135875549Y-98528384D01*
X135879997Y-98538022D01*
X135882415Y-98541757D01*
X135883973Y-98544947D01*
X135884032Y-98544916D01*
X135886283Y-98549226D01*
X135888199Y-98553705D01*
X135897266Y-98568211D01*
X135898305Y-98569874D01*
X135902387Y-98576899D01*
X135909971Y-98590984D01*
X135912632Y-98594587D01*
X135913455Y-98595885D01*
X135915169Y-98598667D01*
X135915377Y-98599015D01*
X135917543Y-98603366D01*
X135926206Y-98615596D01*
X135929845Y-98620734D01*
X135933868Y-98626777D01*
X135941126Y-98638389D01*
X135943507Y-98642198D01*
X135947957Y-98647472D01*
X135952958Y-98653801D01*
X135959681Y-98662898D01*
X135961083Y-98664836D01*
X135963227Y-98667862D01*
X135968563Y-98675395D01*
X135972629Y-98681505D01*
X135978628Y-98691119D01*
X135981804Y-98694797D01*
X135981806Y-98694799D01*
X135988771Y-98702863D01*
X135994728Y-98710314D01*
X136002120Y-98720315D01*
X136005264Y-98723502D01*
X136007593Y-98726224D01*
X136010711Y-98729699D01*
X136012807Y-98732720D01*
X136016164Y-98736244D01*
X136016164Y-98736245D01*
X136029467Y-98750214D01*
X136033580Y-98754749D01*
X136033590Y-98754760D01*
X136047338Y-98770678D01*
X136047769Y-98771053D01*
X136048961Y-98772604D01*
X136052489Y-98775964D01*
X136066424Y-98789236D01*
X136070764Y-98793576D01*
X136085258Y-98808794D01*
X136085724Y-98809161D01*
X136086976Y-98810636D01*
X136105252Y-98826420D01*
X136109778Y-98830525D01*
X136112027Y-98832667D01*
X136125035Y-98845055D01*
X136127044Y-98846486D01*
X136132588Y-98851552D01*
X136133770Y-98852575D01*
X136137193Y-98856037D01*
X136141110Y-98858932D01*
X136141112Y-98858934D01*
X136149671Y-98865261D01*
X136157127Y-98871222D01*
X136163136Y-98876411D01*
X136163140Y-98876414D01*
X136166535Y-98879346D01*
X136170312Y-98881767D01*
X136170314Y-98881769D01*
X136174614Y-98884526D01*
X136179434Y-98887776D01*
X136195149Y-98898907D01*
X136197223Y-98900407D01*
X136201948Y-98903900D01*
X136209465Y-98909914D01*
X136211384Y-98911573D01*
X136215173Y-98914850D01*
X136219292Y-98917424D01*
X136219301Y-98917431D01*
X136233218Y-98926129D01*
X136239269Y-98930158D01*
X136250448Y-98938076D01*
X136250452Y-98938078D01*
X136254105Y-98940666D01*
X136256699Y-98941997D01*
X136258268Y-98943063D01*
X136258314Y-98942991D01*
X136262412Y-98945625D01*
X136266287Y-98948560D01*
X136270564Y-98950863D01*
X136270572Y-98950868D01*
X136271737Y-98951495D01*
X136272088Y-98951842D01*
X136274667Y-98953499D01*
X136274317Y-98954044D01*
X136322232Y-99001402D01*
X136338000Y-99062434D01*
X136338000Y-99201885D01*
X136342475Y-99217124D01*
X136343865Y-99218329D01*
X136351548Y-99220000D01*
X138085885Y-99220000D01*
X138101124Y-99215525D01*
X138102329Y-99214135D01*
X138104000Y-99206452D01*
X138104000Y-99056012D01*
X138103656Y-99049453D01*
X138090152Y-98920967D01*
X138087422Y-98908124D01*
X138034146Y-98744158D01*
X138028800Y-98732150D01*
X137942601Y-98582849D01*
X137934877Y-98572218D01*
X137931269Y-98568211D01*
X137900552Y-98504204D01*
X137906239Y-98447290D01*
X137904572Y-98446792D01*
X137905007Y-98445335D01*
X137907584Y-98437620D01*
X137911873Y-98426041D01*
X137911891Y-98425992D01*
X137913357Y-98422222D01*
X137919698Y-98406657D01*
X137922524Y-98400237D01*
X137922788Y-98399679D01*
X137922788Y-98399678D01*
X137924874Y-98395277D01*
X137930111Y-98377601D01*
X137932763Y-98369636D01*
X137936532Y-98359460D01*
X137936534Y-98359453D01*
X137938092Y-98355247D01*
X137939039Y-98350860D01*
X137939319Y-98349898D01*
X137940282Y-98347616D01*
X137946579Y-98322427D01*
X137947988Y-98317268D01*
X137954480Y-98295357D01*
X137954567Y-98294767D01*
X137955549Y-98291233D01*
X137956384Y-98287935D01*
X137957939Y-98283323D01*
X137960662Y-98267528D01*
X137962591Y-98258382D01*
X137964640Y-98250184D01*
X137964640Y-98250183D01*
X137965728Y-98245832D01*
X137966189Y-98241365D01*
X137966294Y-98240765D01*
X137966620Y-98238114D01*
X137966763Y-98237114D01*
X137970656Y-98209863D01*
X137971206Y-98206373D01*
X137974142Y-98189347D01*
X137975432Y-98182885D01*
X137976044Y-98180191D01*
X137976045Y-98180187D01*
X137977123Y-98175438D01*
X137978252Y-98159070D01*
X137979219Y-98149927D01*
X137980469Y-98141174D01*
X137980470Y-98141166D01*
X137981102Y-98136739D01*
X137981101Y-98132266D01*
X137981370Y-98128473D01*
X137981566Y-98127427D01*
X137981634Y-98125245D01*
X137981812Y-98121968D01*
X137983636Y-98115867D01*
X137983846Y-98081564D01*
X137984142Y-98073677D01*
X137984356Y-98070570D01*
X137984416Y-98070574D01*
X137984481Y-98069447D01*
X137984400Y-98069444D01*
X137984596Y-98064586D01*
X137985167Y-98059747D01*
X137984520Y-98042273D01*
X137984495Y-98033681D01*
X137984581Y-98030948D01*
X137984941Y-98019409D01*
X137984537Y-98015784D01*
X137984579Y-98015279D01*
X137984371Y-98012370D01*
X137984295Y-98007873D01*
X137984297Y-98007675D01*
X137984525Y-97970341D01*
X137984519Y-97970320D01*
X137984525Y-97969341D01*
X137982089Y-97960817D01*
X137981648Y-97956340D01*
X137981693Y-97953788D01*
X137979136Y-97935247D01*
X137979135Y-97935242D01*
X137978273Y-97927002D01*
X137977479Y-97915884D01*
X137977479Y-97915882D01*
X137977160Y-97911419D01*
X137976211Y-97907042D01*
X137976138Y-97906534D01*
X137976096Y-97904650D01*
X137975330Y-97900363D01*
X137975329Y-97900351D01*
X137971348Y-97878058D01*
X137970568Y-97873129D01*
X137967301Y-97849447D01*
X137967330Y-97849443D01*
X137966919Y-97847017D01*
X137966480Y-97842175D01*
X137962130Y-97824773D01*
X137960332Y-97816374D01*
X137958514Y-97806195D01*
X137957726Y-97801781D01*
X137956318Y-97797519D01*
X137955682Y-97795004D01*
X137955361Y-97792615D01*
X137947998Y-97767765D01*
X137946568Y-97762527D01*
X137944237Y-97753203D01*
X137944236Y-97753201D01*
X137944194Y-97753033D01*
X137943494Y-97748886D01*
X137942148Y-97744848D01*
X137941034Y-97740392D01*
X137939342Y-97736244D01*
X137938485Y-97733622D01*
X137937696Y-97731491D01*
X137934361Y-97721487D01*
X137933085Y-97717434D01*
X137925755Y-97692695D01*
X137925942Y-97692640D01*
X137925280Y-97690534D01*
X137924500Y-97688203D01*
X137923318Y-97683492D01*
X137921428Y-97679024D01*
X137921424Y-97679013D01*
X137917599Y-97669973D01*
X137914107Y-97660724D01*
X137911863Y-97653991D01*
X137911861Y-97653986D01*
X137910444Y-97649735D01*
X137908438Y-97645727D01*
X137906721Y-97641583D01*
X137906827Y-97641539D01*
X137904670Y-97636239D01*
X137904429Y-97636337D01*
X137902592Y-97631823D01*
X137901113Y-97627192D01*
X137892408Y-97609782D01*
X137889064Y-97602527D01*
X137884434Y-97591584D01*
X137882685Y-97587449D01*
X137876792Y-97577673D01*
X137871897Y-97568759D01*
X137871792Y-97568548D01*
X137859351Y-97498650D01*
X137886674Y-97433122D01*
X137898024Y-97420864D01*
X137943296Y-97378053D01*
X137952087Y-97367723D01*
X138049201Y-97224825D01*
X138055570Y-97212845D01*
X138106776Y-97084821D01*
X138108112Y-97070781D01*
X138103291Y-97068000D01*
X137365415Y-97068000D01*
X137323542Y-97059535D01*
X137323208Y-97060538D01*
X137309270Y-97055892D01*
X137300037Y-97052406D01*
X137289362Y-97047890D01*
X137285020Y-97046744D01*
X137280790Y-97045299D01*
X137280791Y-97045295D01*
X137280302Y-97045138D01*
X137280277Y-97045126D01*
X137252570Y-97036916D01*
X137248562Y-97035655D01*
X137244254Y-97034219D01*
X137239176Y-97032304D01*
X137237102Y-97031611D01*
X137232616Y-97029718D01*
X137225152Y-97027852D01*
X137224054Y-97027486D01*
X137222719Y-97027244D01*
X137221366Y-97026906D01*
X137221365Y-97026905D01*
X137207462Y-97023429D01*
X137202248Y-97022006D01*
X137180357Y-97015520D01*
X137179954Y-97015461D01*
X137175872Y-97014401D01*
X137171271Y-97012819D01*
X137153614Y-97009666D01*
X137145217Y-97007868D01*
X137135180Y-97005358D01*
X137135166Y-97005355D01*
X137130832Y-97004272D01*
X137126387Y-97003813D01*
X137125277Y-97003618D01*
X137123625Y-97003123D01*
X137096869Y-96999432D01*
X137091964Y-96998656D01*
X137068401Y-96994449D01*
X137068400Y-96994449D01*
X137068400Y-96994448D01*
X137066427Y-96994153D01*
X137061673Y-96993061D01*
X137050139Y-96992237D01*
X137042996Y-96991727D01*
X137034756Y-96990865D01*
X137023736Y-96989345D01*
X137023734Y-96989345D01*
X137019284Y-96988731D01*
X137015320Y-96988752D01*
X137013936Y-96988490D01*
X136986712Y-96987612D01*
X136981876Y-96987361D01*
X136970351Y-96986538D01*
X136970349Y-96986538D01*
X136970355Y-96986453D01*
X136970065Y-96986493D01*
X136966577Y-96985950D01*
X136962125Y-96985950D01*
X136957813Y-96985642D01*
X136953478Y-96985950D01*
X136937211Y-96985950D01*
X136933149Y-96985884D01*
X136932591Y-96985866D01*
X136906922Y-96985038D01*
X136902469Y-96985530D01*
X136897981Y-96985704D01*
X136897977Y-96985606D01*
X136891724Y-96985950D01*
X136856443Y-96985950D01*
X136850394Y-96985576D01*
X136850384Y-96985784D01*
X136845517Y-96985560D01*
X136840689Y-96984962D01*
X136821038Y-96985576D01*
X136811020Y-96985889D01*
X136807085Y-96985950D01*
X136799862Y-96985950D01*
X136797507Y-96985852D01*
X136793137Y-96985826D01*
X136788279Y-96985421D01*
X136783421Y-96985768D01*
X136783420Y-96985768D01*
X136782047Y-96985866D01*
X136782046Y-96985866D01*
X136780873Y-96985950D01*
X136780523Y-96985950D01*
X136780174Y-96986000D01*
X136761459Y-96987337D01*
X136756442Y-96987594D01*
X136740226Y-96988101D01*
X136734238Y-96988288D01*
X136733289Y-96988295D01*
X136731667Y-96988392D01*
X136726788Y-96988307D01*
X136721963Y-96988973D01*
X136721956Y-96988973D01*
X136708242Y-96990865D01*
X136700002Y-96991727D01*
X136688884Y-96992521D01*
X136688882Y-96992521D01*
X136684419Y-96992840D01*
X136680042Y-96993789D01*
X136679534Y-96993862D01*
X136677650Y-96993904D01*
X136668334Y-96995568D01*
X136651058Y-96998652D01*
X136646129Y-96999432D01*
X136634660Y-97001014D01*
X136622447Y-97002699D01*
X136622443Y-97002670D01*
X136620017Y-97003081D01*
X136615175Y-97003520D01*
X136610454Y-97004700D01*
X136610455Y-97004700D01*
X136597773Y-97007870D01*
X136589380Y-97009667D01*
X136574781Y-97012274D01*
X136570519Y-97013682D01*
X136568004Y-97014318D01*
X136565615Y-97014639D01*
X136560950Y-97016021D01*
X136560947Y-97016022D01*
X136540765Y-97022002D01*
X136535527Y-97023432D01*
X136526203Y-97025763D01*
X136526201Y-97025764D01*
X136526033Y-97025806D01*
X136521886Y-97026506D01*
X136517848Y-97027852D01*
X136513392Y-97028966D01*
X136509244Y-97030658D01*
X136506622Y-97031515D01*
X136504491Y-97032304D01*
X136494487Y-97035639D01*
X136490436Y-97036914D01*
X136474507Y-97041634D01*
X136467722Y-97043440D01*
X136467700Y-97043445D01*
X136467693Y-97043447D01*
X136462966Y-97044566D01*
X136445421Y-97051714D01*
X136437761Y-97054547D01*
X136422735Y-97059556D01*
X136422733Y-97059557D01*
X136422597Y-97059149D01*
X136378117Y-97068000D01*
X135789113Y-97068000D01*
X135775582Y-97071973D01*
X135774385Y-97080297D01*
X135786737Y-97125138D01*
X135791729Y-97137747D01*
X135872307Y-97290574D01*
X135879900Y-97301833D01*
X135906959Y-97333852D01*
X135935651Y-97398793D01*
X135924678Y-97468936D01*
X135919762Y-97478089D01*
X135918334Y-97480104D01*
X135916280Y-97484107D01*
X135915377Y-97485596D01*
X135909678Y-97494114D01*
X135909392Y-97494573D01*
X135906508Y-97498496D01*
X135904265Y-97502810D01*
X135904264Y-97502811D01*
X135899817Y-97511363D01*
X135894877Y-97520009D01*
X135891214Y-97525869D01*
X135891208Y-97525879D01*
X135888842Y-97529666D01*
X135887032Y-97533760D01*
X135883871Y-97540909D01*
X135881328Y-97546311D01*
X135873815Y-97561336D01*
X135872936Y-97563059D01*
X135870082Y-97568548D01*
X135867748Y-97573036D01*
X135863950Y-97579820D01*
X135857431Y-97590662D01*
X135855593Y-97595174D01*
X135851686Y-97604763D01*
X135847703Y-97613557D01*
X135842273Y-97624419D01*
X135840855Y-97628679D01*
X135839144Y-97632811D01*
X135839055Y-97632774D01*
X135836469Y-97638908D01*
X135836658Y-97638988D01*
X135834772Y-97643462D01*
X135832537Y-97647795D01*
X135830995Y-97652420D01*
X135830994Y-97652423D01*
X135826553Y-97665744D01*
X135823708Y-97673435D01*
X135817736Y-97688095D01*
X135816834Y-97691709D01*
X135816275Y-97693597D01*
X135816171Y-97693914D01*
X135816056Y-97694335D01*
X135808913Y-97718440D01*
X135807653Y-97722445D01*
X135806222Y-97726737D01*
X135804306Y-97731817D01*
X135803610Y-97733902D01*
X135801718Y-97738384D01*
X135799852Y-97745848D01*
X135799486Y-97746946D01*
X135799244Y-97748281D01*
X135798906Y-97749634D01*
X135798905Y-97749635D01*
X135795429Y-97763538D01*
X135794006Y-97768752D01*
X135787520Y-97790643D01*
X135787461Y-97791046D01*
X135786401Y-97795128D01*
X135784819Y-97799729D01*
X135781666Y-97817386D01*
X135779868Y-97825783D01*
X135777358Y-97835820D01*
X135777355Y-97835834D01*
X135776272Y-97840168D01*
X135775813Y-97844613D01*
X135775618Y-97845723D01*
X135775123Y-97847375D01*
X135774897Y-97849014D01*
X135771433Y-97874125D01*
X135770656Y-97879036D01*
X135766449Y-97902599D01*
X135766449Y-97902600D01*
X135766448Y-97902600D01*
X135766153Y-97904573D01*
X135765061Y-97909327D01*
X135764237Y-97920861D01*
X135763727Y-97928004D01*
X135762865Y-97936244D01*
X135761343Y-97947275D01*
X135761342Y-97947284D01*
X135760731Y-97951716D01*
X135760743Y-97953992D01*
X135760544Y-97955846D01*
X135758364Y-97963133D01*
X135758309Y-97972109D01*
X135758309Y-97972110D01*
X135758136Y-98000440D01*
X135757675Y-98007673D01*
X135757715Y-98007675D01*
X135757501Y-98012544D01*
X135756914Y-98017371D01*
X130436680Y-98017371D01*
X130436471Y-98015474D01*
X130436390Y-98013391D01*
X130436297Y-98007735D01*
X130436470Y-97979313D01*
X130436525Y-97970341D01*
X130434049Y-97961677D01*
X130430382Y-97944282D01*
X130429135Y-97935247D01*
X130429135Y-97935242D01*
X130429134Y-97935234D01*
X130428272Y-97926992D01*
X130427479Y-97915887D01*
X130427479Y-97915884D01*
X130427160Y-97911419D01*
X130426210Y-97907041D01*
X130426138Y-97906535D01*
X130426096Y-97904650D01*
X130425330Y-97900363D01*
X130425329Y-97900351D01*
X130421348Y-97878058D01*
X130420568Y-97873129D01*
X130417301Y-97849447D01*
X130417330Y-97849443D01*
X130416919Y-97847017D01*
X130416480Y-97842175D01*
X130412130Y-97824773D01*
X130410332Y-97816374D01*
X130408514Y-97806195D01*
X130407726Y-97801781D01*
X130406318Y-97797519D01*
X130405682Y-97795004D01*
X130405361Y-97792615D01*
X130397998Y-97767765D01*
X130396568Y-97762527D01*
X130394237Y-97753203D01*
X130394236Y-97753201D01*
X130394194Y-97753033D01*
X130393494Y-97748886D01*
X130392148Y-97744848D01*
X130391034Y-97740392D01*
X130389342Y-97736244D01*
X130388485Y-97733622D01*
X130387696Y-97731491D01*
X130384361Y-97721487D01*
X130383085Y-97717434D01*
X130375755Y-97692695D01*
X130375942Y-97692640D01*
X130375280Y-97690534D01*
X130374500Y-97688203D01*
X130373318Y-97683492D01*
X130371428Y-97679024D01*
X130371424Y-97679013D01*
X130367599Y-97669973D01*
X130364107Y-97660724D01*
X130361863Y-97653991D01*
X130361861Y-97653986D01*
X130360444Y-97649735D01*
X130358438Y-97645727D01*
X130356721Y-97641583D01*
X130356827Y-97641539D01*
X130354670Y-97636239D01*
X130354429Y-97636337D01*
X130352592Y-97631823D01*
X130351113Y-97627192D01*
X130342408Y-97609782D01*
X130339064Y-97602527D01*
X130334434Y-97591584D01*
X130332685Y-97587449D01*
X130326792Y-97577673D01*
X130322006Y-97568977D01*
X130316157Y-97557280D01*
X130313002Y-97550471D01*
X130306716Y-97535771D01*
X130306712Y-97535764D01*
X130304801Y-97531295D01*
X130299784Y-97523267D01*
X130293945Y-97512855D01*
X130291101Y-97507167D01*
X130286457Y-97500465D01*
X130283206Y-97495259D01*
X130282676Y-97494114D01*
X130277318Y-97486077D01*
X130276993Y-97485589D01*
X130255847Y-97417815D01*
X130277617Y-97344871D01*
X130359201Y-97224825D01*
X130365570Y-97212845D01*
X130416776Y-97084821D01*
X130418112Y-97070781D01*
X130413291Y-97068000D01*
X129815415Y-97068000D01*
X129773542Y-97059535D01*
X129773208Y-97060538D01*
X129759270Y-97055892D01*
X129750037Y-97052406D01*
X129739362Y-97047890D01*
X129735020Y-97046744D01*
X129730790Y-97045299D01*
X129730791Y-97045295D01*
X129730302Y-97045138D01*
X129730277Y-97045126D01*
X129702570Y-97036916D01*
X129698562Y-97035655D01*
X129694254Y-97034219D01*
X129689176Y-97032304D01*
X129687102Y-97031611D01*
X129682616Y-97029718D01*
X129675152Y-97027852D01*
X129674054Y-97027486D01*
X129672719Y-97027244D01*
X129671366Y-97026906D01*
X129671365Y-97026905D01*
X129657462Y-97023429D01*
X129652248Y-97022006D01*
X129630357Y-97015520D01*
X129629954Y-97015461D01*
X129625872Y-97014401D01*
X129621271Y-97012819D01*
X129603614Y-97009666D01*
X129595217Y-97007868D01*
X129585180Y-97005358D01*
X129585166Y-97005355D01*
X129580832Y-97004272D01*
X129576387Y-97003813D01*
X129575277Y-97003618D01*
X129573625Y-97003123D01*
X129546869Y-96999432D01*
X129541964Y-96998656D01*
X129518401Y-96994449D01*
X129518400Y-96994449D01*
X129518400Y-96994448D01*
X129516427Y-96994153D01*
X129511673Y-96993061D01*
X129500139Y-96992237D01*
X129492996Y-96991727D01*
X129484756Y-96990865D01*
X129473736Y-96989345D01*
X129473734Y-96989345D01*
X129469284Y-96988731D01*
X129465320Y-96988752D01*
X129463936Y-96988490D01*
X129436712Y-96987612D01*
X129431876Y-96987361D01*
X129420351Y-96986538D01*
X129420349Y-96986538D01*
X129420355Y-96986453D01*
X129420065Y-96986493D01*
X129416577Y-96985950D01*
X129412125Y-96985950D01*
X129407813Y-96985642D01*
X129403478Y-96985950D01*
X129387211Y-96985950D01*
X129383149Y-96985884D01*
X129382591Y-96985866D01*
X129356922Y-96985038D01*
X129352469Y-96985530D01*
X129347981Y-96985704D01*
X129347977Y-96985606D01*
X129341724Y-96985950D01*
X129306443Y-96985950D01*
X129300394Y-96985576D01*
X129300384Y-96985784D01*
X129295517Y-96985560D01*
X129290689Y-96984962D01*
X129271038Y-96985576D01*
X129261020Y-96985889D01*
X129257085Y-96985950D01*
X129249862Y-96985950D01*
X129247507Y-96985852D01*
X129243137Y-96985826D01*
X129238279Y-96985421D01*
X129233421Y-96985768D01*
X129233420Y-96985768D01*
X129232047Y-96985866D01*
X129232046Y-96985866D01*
X129230873Y-96985950D01*
X129230523Y-96985950D01*
X129230174Y-96986000D01*
X129211459Y-96987337D01*
X129206442Y-96987594D01*
X129190226Y-96988101D01*
X129184238Y-96988288D01*
X129183289Y-96988295D01*
X129181667Y-96988392D01*
X129176788Y-96988307D01*
X129171963Y-96988973D01*
X129171956Y-96988973D01*
X129158242Y-96990865D01*
X129150002Y-96991727D01*
X129138884Y-96992521D01*
X129138882Y-96992521D01*
X129134419Y-96992840D01*
X129130042Y-96993789D01*
X129129534Y-96993862D01*
X129127650Y-96993904D01*
X129118334Y-96995568D01*
X129101058Y-96998652D01*
X129096129Y-96999432D01*
X129084660Y-97001014D01*
X129072447Y-97002699D01*
X129072443Y-97002670D01*
X129070017Y-97003081D01*
X129065175Y-97003520D01*
X129060454Y-97004700D01*
X129060455Y-97004700D01*
X129047773Y-97007870D01*
X129039380Y-97009667D01*
X129024781Y-97012274D01*
X129020519Y-97013682D01*
X129018004Y-97014318D01*
X129015615Y-97014639D01*
X129010950Y-97016021D01*
X129010947Y-97016022D01*
X128990765Y-97022002D01*
X128985527Y-97023432D01*
X128976203Y-97025763D01*
X128976201Y-97025764D01*
X128976033Y-97025806D01*
X128971886Y-97026506D01*
X128967848Y-97027852D01*
X128963392Y-97028966D01*
X128959244Y-97030658D01*
X128956622Y-97031515D01*
X128954491Y-97032304D01*
X128944487Y-97035639D01*
X128940436Y-97036914D01*
X128924507Y-97041634D01*
X128917722Y-97043440D01*
X128917700Y-97043445D01*
X128917693Y-97043447D01*
X128912966Y-97044566D01*
X128895421Y-97051714D01*
X128887761Y-97054547D01*
X128872735Y-97059556D01*
X128872733Y-97059557D01*
X128872597Y-97059149D01*
X128828117Y-97068000D01*
X128099113Y-97068000D01*
X128085582Y-97071973D01*
X128084385Y-97080297D01*
X121106800Y-97080297D01*
X121629878Y-96557219D01*
X128083888Y-96557219D01*
X128088709Y-96560000D01*
X128978885Y-96560000D01*
X128994124Y-96555525D01*
X128995329Y-96554135D01*
X128997000Y-96546452D01*
X128997000Y-96541885D01*
X129505000Y-96541885D01*
X129509475Y-96557124D01*
X129510865Y-96558329D01*
X129518548Y-96560000D01*
X130402887Y-96560000D01*
X130412358Y-96557219D01*
X135773888Y-96557219D01*
X135778709Y-96560000D01*
X136668885Y-96560000D01*
X136684124Y-96555525D01*
X136685329Y-96554135D01*
X136687000Y-96546452D01*
X136687000Y-96541885D01*
X137195000Y-96541885D01*
X137199475Y-96557124D01*
X137200865Y-96558329D01*
X137208548Y-96560000D01*
X138092887Y-96560000D01*
X138106418Y-96556027D01*
X138107615Y-96547703D01*
X138095263Y-96502862D01*
X138090271Y-96490253D01*
X138009693Y-96337426D01*
X138002099Y-96326167D01*
X137890587Y-96194210D01*
X137880761Y-96184852D01*
X137743511Y-96079916D01*
X137731902Y-96072885D01*
X137575311Y-95999866D01*
X137562483Y-95995499D01*
X137392247Y-95957447D01*
X137382348Y-95956074D01*
X137379704Y-95956000D01*
X137213115Y-95956000D01*
X137197876Y-95960475D01*
X137196671Y-95961865D01*
X137195000Y-95969548D01*
X137195000Y-96541885D01*
X136687000Y-96541885D01*
X136687000Y-95974115D01*
X136682525Y-95958876D01*
X136681135Y-95957671D01*
X136673452Y-95956000D01*
X136547848Y-95956000D01*
X136541034Y-95956369D01*
X136412456Y-95970337D01*
X136399203Y-95973251D01*
X136235458Y-96028357D01*
X136223136Y-96034050D01*
X136075047Y-96123032D01*
X136064233Y-96131240D01*
X135938706Y-96249945D01*
X135929914Y-96260276D01*
X135832799Y-96403175D01*
X135826430Y-96415155D01*
X135775224Y-96543179D01*
X135773888Y-96557219D01*
X130412358Y-96557219D01*
X130416418Y-96556027D01*
X130417615Y-96547703D01*
X130405263Y-96502862D01*
X130400271Y-96490253D01*
X130319693Y-96337426D01*
X130312099Y-96326167D01*
X130200587Y-96194210D01*
X130190761Y-96184852D01*
X130053511Y-96079916D01*
X130041902Y-96072885D01*
X129885311Y-95999866D01*
X129872483Y-95995499D01*
X129702247Y-95957447D01*
X129692348Y-95956074D01*
X129689704Y-95956000D01*
X129523115Y-95956000D01*
X129507876Y-95960475D01*
X129506671Y-95961865D01*
X129505000Y-95969548D01*
X129505000Y-96541885D01*
X128997000Y-96541885D01*
X128997000Y-95974115D01*
X128992525Y-95958876D01*
X128991135Y-95957671D01*
X128983452Y-95956000D01*
X128857848Y-95956000D01*
X128851034Y-95956369D01*
X128722456Y-95970337D01*
X128709203Y-95973251D01*
X128545458Y-96028357D01*
X128533136Y-96034050D01*
X128385047Y-96123032D01*
X128374233Y-96131240D01*
X128248706Y-96249945D01*
X128239914Y-96260276D01*
X128142799Y-96403175D01*
X128136430Y-96415155D01*
X128085224Y-96543179D01*
X128083888Y-96557219D01*
X121629878Y-96557219D01*
X122683097Y-95504000D01*
X130912496Y-95504000D01*
X130913186Y-95510565D01*
X130925863Y-95631176D01*
X130932458Y-95693928D01*
X130991473Y-95875556D01*
X131086960Y-96040944D01*
X131091378Y-96045851D01*
X131091379Y-96045852D01*
X131210325Y-96177955D01*
X131214747Y-96182866D01*
X131369248Y-96295118D01*
X131375276Y-96297802D01*
X131375278Y-96297803D01*
X131537681Y-96370109D01*
X131543712Y-96372794D01*
X131637112Y-96392647D01*
X131724056Y-96411128D01*
X131724061Y-96411128D01*
X131730513Y-96412500D01*
X131921487Y-96412500D01*
X131927939Y-96411128D01*
X131927944Y-96411128D01*
X132014888Y-96392647D01*
X132108288Y-96372794D01*
X132114319Y-96370109D01*
X132276722Y-96297803D01*
X132276724Y-96297802D01*
X132282752Y-96295118D01*
X132437253Y-96182866D01*
X132441675Y-96177955D01*
X132560621Y-96045852D01*
X132560622Y-96045851D01*
X132565040Y-96040944D01*
X132660527Y-95875556D01*
X132719542Y-95693928D01*
X132726138Y-95631176D01*
X132738814Y-95510565D01*
X132739504Y-95504000D01*
X133452496Y-95504000D01*
X133453186Y-95510565D01*
X133465863Y-95631176D01*
X133472458Y-95693928D01*
X133531473Y-95875556D01*
X133626960Y-96040944D01*
X133631378Y-96045851D01*
X133631379Y-96045852D01*
X133750325Y-96177955D01*
X133754747Y-96182866D01*
X133909248Y-96295118D01*
X133915276Y-96297802D01*
X133915278Y-96297803D01*
X134077681Y-96370109D01*
X134083712Y-96372794D01*
X134177112Y-96392647D01*
X134264056Y-96411128D01*
X134264061Y-96411128D01*
X134270513Y-96412500D01*
X134461487Y-96412500D01*
X134467939Y-96411128D01*
X134467944Y-96411128D01*
X134554888Y-96392647D01*
X134648288Y-96372794D01*
X134654319Y-96370109D01*
X134816722Y-96297803D01*
X134816724Y-96297802D01*
X134822752Y-96295118D01*
X134977253Y-96182866D01*
X134981675Y-96177955D01*
X135100621Y-96045852D01*
X135100622Y-96045851D01*
X135105040Y-96040944D01*
X135200527Y-95875556D01*
X135259542Y-95693928D01*
X135266138Y-95631176D01*
X135278814Y-95510565D01*
X135279504Y-95504000D01*
X135273837Y-95450081D01*
X135260232Y-95320635D01*
X135260232Y-95320633D01*
X135259542Y-95314072D01*
X135200527Y-95132444D01*
X135105040Y-94967056D01*
X135090726Y-94951158D01*
X134981675Y-94830045D01*
X134981674Y-94830044D01*
X134977253Y-94825134D01*
X134822752Y-94712882D01*
X134816724Y-94710198D01*
X134816722Y-94710197D01*
X134654319Y-94637891D01*
X134654318Y-94637891D01*
X134648288Y-94635206D01*
X134554887Y-94615353D01*
X134467944Y-94596872D01*
X134467939Y-94596872D01*
X134461487Y-94595500D01*
X134270513Y-94595500D01*
X134264061Y-94596872D01*
X134264056Y-94596872D01*
X134177113Y-94615353D01*
X134083712Y-94635206D01*
X134077682Y-94637891D01*
X134077681Y-94637891D01*
X133915278Y-94710197D01*
X133915276Y-94710198D01*
X133909248Y-94712882D01*
X133754747Y-94825134D01*
X133750326Y-94830044D01*
X133750325Y-94830045D01*
X133641275Y-94951158D01*
X133626960Y-94967056D01*
X133531473Y-95132444D01*
X133472458Y-95314072D01*
X133471768Y-95320633D01*
X133471768Y-95320635D01*
X133458163Y-95450081D01*
X133452496Y-95504000D01*
X132739504Y-95504000D01*
X132733837Y-95450081D01*
X132720232Y-95320635D01*
X132720232Y-95320633D01*
X132719542Y-95314072D01*
X132660527Y-95132444D01*
X132565040Y-94967056D01*
X132550726Y-94951158D01*
X132441675Y-94830045D01*
X132441674Y-94830044D01*
X132437253Y-94825134D01*
X132282752Y-94712882D01*
X132276724Y-94710198D01*
X132276722Y-94710197D01*
X132114319Y-94637891D01*
X132114318Y-94637891D01*
X132108288Y-94635206D01*
X132014887Y-94615353D01*
X131927944Y-94596872D01*
X131927939Y-94596872D01*
X131921487Y-94595500D01*
X131730513Y-94595500D01*
X131724061Y-94596872D01*
X131724056Y-94596872D01*
X131637113Y-94615353D01*
X131543712Y-94635206D01*
X131537682Y-94637891D01*
X131537681Y-94637891D01*
X131375278Y-94710197D01*
X131375276Y-94710198D01*
X131369248Y-94712882D01*
X131214747Y-94825134D01*
X131210326Y-94830044D01*
X131210325Y-94830045D01*
X131101275Y-94951158D01*
X131086960Y-94967056D01*
X130991473Y-95132444D01*
X130932458Y-95314072D01*
X130931768Y-95320633D01*
X130931768Y-95320635D01*
X130918163Y-95450081D01*
X130912496Y-95504000D01*
X122683097Y-95504000D01*
X131572764Y-86614334D01*
X131581050Y-86606794D01*
X131587529Y-86602682D01*
X131634155Y-86553030D01*
X131636909Y-86550189D01*
X131656646Y-86530452D01*
X131659126Y-86527255D01*
X131666831Y-86518233D01*
X131691670Y-86491782D01*
X131697097Y-86486003D01*
X131700916Y-86479057D01*
X131700918Y-86479054D01*
X131706859Y-86468248D01*
X131717710Y-86451729D01*
X131725269Y-86441983D01*
X131730125Y-86435723D01*
X131733270Y-86428454D01*
X131733273Y-86428450D01*
X131747685Y-86395145D01*
X131752902Y-86384495D01*
X131774206Y-86345742D01*
X131779244Y-86326119D01*
X131785648Y-86307416D01*
X131790544Y-86296102D01*
X131790544Y-86296101D01*
X131793692Y-86288827D01*
X131794931Y-86281004D01*
X131794934Y-86280994D01*
X131800610Y-86245158D01*
X131803016Y-86233538D01*
X131812039Y-86198393D01*
X131812039Y-86198392D01*
X131814011Y-86190712D01*
X131814011Y-86170458D01*
X131815562Y-86150747D01*
X131817491Y-86138568D01*
X131818731Y-86130739D01*
X131814570Y-86086720D01*
X131814011Y-86074863D01*
X131814011Y-85539278D01*
X131814538Y-85528095D01*
X131816213Y-85520602D01*
X131814073Y-85452511D01*
X131814011Y-85448554D01*
X131814011Y-85420655D01*
X131813507Y-85416664D01*
X131812574Y-85404822D01*
X131811434Y-85368547D01*
X131811185Y-85360622D01*
X131808973Y-85353008D01*
X131808972Y-85353003D01*
X131805534Y-85341170D01*
X131801523Y-85321806D01*
X131799978Y-85309575D01*
X131798985Y-85301714D01*
X131796068Y-85294347D01*
X131796067Y-85294342D01*
X131782709Y-85260603D01*
X131778865Y-85249376D01*
X131768741Y-85214533D01*
X131766529Y-85206918D01*
X131756218Y-85189483D01*
X131747523Y-85171735D01*
X131740063Y-85152894D01*
X131714075Y-85117124D01*
X131707559Y-85107204D01*
X131689091Y-85075976D01*
X131689089Y-85075973D01*
X131685053Y-85069149D01*
X131670732Y-85054828D01*
X131657891Y-85039794D01*
X131650643Y-85029818D01*
X131645983Y-85023404D01*
X131611912Y-84995218D01*
X131603133Y-84987229D01*
X131503122Y-84887218D01*
X131469096Y-84824906D01*
X131466907Y-84811293D01*
X131450232Y-84652635D01*
X131450232Y-84652633D01*
X131449542Y-84646072D01*
X131390527Y-84464444D01*
X131295040Y-84299056D01*
X131167253Y-84157134D01*
X131012752Y-84044882D01*
X131006724Y-84042198D01*
X131006722Y-84042197D01*
X130844319Y-83969891D01*
X130844318Y-83969891D01*
X130838288Y-83967206D01*
X130744888Y-83947353D01*
X130657944Y-83928872D01*
X130657939Y-83928872D01*
X130651487Y-83927500D01*
X130460513Y-83927500D01*
X130454061Y-83928872D01*
X130454056Y-83928872D01*
X130367112Y-83947353D01*
X130273712Y-83967206D01*
X130267682Y-83969891D01*
X130267681Y-83969891D01*
X130105278Y-84042197D01*
X130105276Y-84042198D01*
X130099248Y-84044882D01*
X129944747Y-84157134D01*
X129816960Y-84299056D01*
X129721473Y-84464444D01*
X129662458Y-84646072D01*
X129642496Y-84836000D01*
X129643186Y-84842565D01*
X129661662Y-85018351D01*
X129662458Y-85025928D01*
X129721473Y-85207556D01*
X129724776Y-85213278D01*
X129724777Y-85213279D01*
X129763876Y-85281000D01*
X129780614Y-85349995D01*
X129763876Y-85407000D01*
X129737600Y-85452512D01*
X129721473Y-85480444D01*
X129662458Y-85662072D01*
X129661768Y-85668633D01*
X129661768Y-85668635D01*
X129645093Y-85827292D01*
X129618080Y-85892949D01*
X129608878Y-85903217D01*
X125061127Y-90450968D01*
X124998815Y-90484994D01*
X124928000Y-90479929D01*
X124871164Y-90437382D01*
X124846353Y-90370862D01*
X124846722Y-90348703D01*
X124864814Y-90176565D01*
X124865504Y-90170000D01*
X124845542Y-89980072D01*
X124786527Y-89798444D01*
X124691040Y-89633056D01*
X124563253Y-89491134D01*
X124408752Y-89378882D01*
X124402724Y-89376198D01*
X124402722Y-89376197D01*
X124240319Y-89303891D01*
X124240318Y-89303891D01*
X124234288Y-89301206D01*
X124140887Y-89281353D01*
X124053944Y-89262872D01*
X124053939Y-89262872D01*
X124047487Y-89261500D01*
X123856513Y-89261500D01*
X123850061Y-89262872D01*
X123850056Y-89262872D01*
X123763113Y-89281353D01*
X123669712Y-89301206D01*
X123663682Y-89303891D01*
X123663681Y-89303891D01*
X123501278Y-89376197D01*
X123501276Y-89376198D01*
X123495248Y-89378882D01*
X123340747Y-89491134D01*
X123212960Y-89633056D01*
X123117473Y-89798444D01*
X123058458Y-89980072D01*
X123038496Y-90170000D01*
X123058458Y-90359928D01*
X123117473Y-90541556D01*
X123212960Y-90706944D01*
X123340747Y-90848866D01*
X123495248Y-90961118D01*
X123501276Y-90963802D01*
X123501278Y-90963803D01*
X123663681Y-91036109D01*
X123669712Y-91038794D01*
X123763113Y-91058647D01*
X123850056Y-91077128D01*
X123850061Y-91077128D01*
X123856513Y-91078500D01*
X124047487Y-91078500D01*
X124053939Y-91077128D01*
X124053944Y-91077128D01*
X124121745Y-91062716D01*
X124192536Y-91068118D01*
X124249168Y-91110935D01*
X124273662Y-91177573D01*
X124258241Y-91246874D01*
X124237037Y-91275058D01*
X121938500Y-93573595D01*
X121876188Y-93607621D01*
X121849405Y-93610500D01*
X115530500Y-93610500D01*
X115462379Y-93590498D01*
X115415886Y-93536842D01*
X115404500Y-93484500D01*
X115404500Y-93345866D01*
X115397745Y-93283684D01*
X115346615Y-93147295D01*
X115259261Y-93030739D01*
X115142705Y-92943385D01*
X115006316Y-92892255D01*
X114944134Y-92885500D01*
X113147866Y-92885500D01*
X113085684Y-92892255D01*
X112949295Y-92943385D01*
X112832739Y-93030739D01*
X112745385Y-93147295D01*
X112694255Y-93283684D01*
X112687500Y-93345866D01*
X112687500Y-95142134D01*
X112694255Y-95204316D01*
X112745385Y-95340705D01*
X112832739Y-95457261D01*
X112949295Y-95544615D01*
X112957704Y-95547767D01*
X112957705Y-95547768D01*
X113066451Y-95588535D01*
X113123216Y-95631176D01*
X113147916Y-95697738D01*
X113132709Y-95767087D01*
X113113316Y-95793568D01*
X112986629Y-95926138D01*
X112983715Y-95930410D01*
X112983714Y-95930411D01*
X112966208Y-95956074D01*
X112860743Y-96110680D01*
X112843596Y-96147621D01*
X112773884Y-96297803D01*
X112766688Y-96313305D01*
X112706989Y-96528570D01*
X112683251Y-96750695D01*
X112696110Y-96973715D01*
X112697247Y-96978761D01*
X112697248Y-96978767D01*
X112717130Y-97066985D01*
X112745222Y-97191639D01*
X112796718Y-97318460D01*
X112824888Y-97387833D01*
X112829266Y-97398616D01*
X112855208Y-97440949D01*
X112940311Y-97579825D01*
X112945987Y-97589088D01*
X113092250Y-97757938D01*
X113264126Y-97900632D01*
X113271002Y-97904650D01*
X113337445Y-97943476D01*
X113386169Y-97995114D01*
X113399240Y-98064897D01*
X113372509Y-98130669D01*
X113332055Y-98164027D01*
X113326596Y-98166869D01*
X113319607Y-98170507D01*
X113315474Y-98173610D01*
X113315471Y-98173612D01*
X113145100Y-98301530D01*
X113140965Y-98304635D01*
X113128929Y-98317230D01*
X113001109Y-98450986D01*
X112986629Y-98466138D01*
X112983715Y-98470410D01*
X112983714Y-98470411D01*
X112915865Y-98569874D01*
X112860743Y-98650680D01*
X112822401Y-98733282D01*
X112769026Y-98848269D01*
X112766688Y-98853305D01*
X112706989Y-99068570D01*
X112683251Y-99290695D01*
X109728000Y-99290695D01*
X109728000Y-77724000D01*
X128880496Y-77724000D01*
X128900458Y-77913928D01*
X128959473Y-78095556D01*
X129054960Y-78260944D01*
X129182747Y-78402866D01*
X129337248Y-78515118D01*
X129343276Y-78517802D01*
X129343278Y-78517803D01*
X129505681Y-78590109D01*
X129511712Y-78592794D01*
X129605113Y-78612647D01*
X129692056Y-78631128D01*
X129692061Y-78631128D01*
X129698513Y-78632500D01*
X129889487Y-78632500D01*
X129895939Y-78631128D01*
X129895944Y-78631128D01*
X129982887Y-78612647D01*
X130076288Y-78592794D01*
X130082319Y-78590109D01*
X130244722Y-78517803D01*
X130244724Y-78517802D01*
X130250752Y-78515118D01*
X130405253Y-78402866D01*
X130533040Y-78260944D01*
X130628527Y-78095556D01*
X130687542Y-77913928D01*
X130707504Y-77724000D01*
X130687542Y-77534072D01*
X130628527Y-77352444D01*
X130533040Y-77187056D01*
X130405253Y-77045134D01*
X130250752Y-76932882D01*
X130244724Y-76930198D01*
X130244722Y-76930197D01*
X130082319Y-76857891D01*
X130082318Y-76857891D01*
X130076288Y-76855206D01*
X129982888Y-76835353D01*
X129895944Y-76816872D01*
X129895939Y-76816872D01*
X129889487Y-76815500D01*
X129698513Y-76815500D01*
X129692061Y-76816872D01*
X129692056Y-76816872D01*
X129605112Y-76835353D01*
X129511712Y-76855206D01*
X129505682Y-76857891D01*
X129505681Y-76857891D01*
X129343278Y-76930197D01*
X129343276Y-76930198D01*
X129337248Y-76932882D01*
X129182747Y-77045134D01*
X129054960Y-77187056D01*
X128959473Y-77352444D01*
X128900458Y-77534072D01*
X128880496Y-77724000D01*
X109728000Y-77724000D01*
X109728000Y-75946000D01*
X118974496Y-75946000D01*
X118994458Y-76135928D01*
X119053473Y-76317556D01*
X119148960Y-76482944D01*
X119276747Y-76624866D01*
X119431248Y-76737118D01*
X119437276Y-76739802D01*
X119437278Y-76739803D01*
X119599681Y-76812109D01*
X119605712Y-76814794D01*
X119699112Y-76834647D01*
X119786056Y-76853128D01*
X119786061Y-76853128D01*
X119792513Y-76854500D01*
X119983487Y-76854500D01*
X119989939Y-76853128D01*
X119989944Y-76853128D01*
X120076888Y-76834647D01*
X120170288Y-76814794D01*
X120176319Y-76812109D01*
X120338722Y-76739803D01*
X120338724Y-76739802D01*
X120344752Y-76737118D01*
X120499253Y-76624866D01*
X120627040Y-76482944D01*
X120722527Y-76317556D01*
X120781542Y-76135928D01*
X120801504Y-75946000D01*
X120781542Y-75756072D01*
X120722527Y-75574444D01*
X120627040Y-75409056D01*
X120499253Y-75267134D01*
X120344752Y-75154882D01*
X120338724Y-75152198D01*
X120338722Y-75152197D01*
X120176319Y-75079891D01*
X120176318Y-75079891D01*
X120170288Y-75077206D01*
X120076887Y-75057353D01*
X119989944Y-75038872D01*
X119989939Y-75038872D01*
X119983487Y-75037500D01*
X119792513Y-75037500D01*
X119786061Y-75038872D01*
X119786056Y-75038872D01*
X119699113Y-75057353D01*
X119605712Y-75077206D01*
X119599682Y-75079891D01*
X119599681Y-75079891D01*
X119437278Y-75152197D01*
X119437276Y-75152198D01*
X119431248Y-75154882D01*
X119276747Y-75267134D01*
X119148960Y-75409056D01*
X119053473Y-75574444D01*
X118994458Y-75756072D01*
X118974496Y-75946000D01*
X109728000Y-75946000D01*
X109728000Y-70410817D01*
X147585514Y-70410817D01*
X147586095Y-70415837D01*
X147586095Y-70415841D01*
X147601923Y-70552631D01*
X147613415Y-70651956D01*
X147614791Y-70656820D01*
X147614792Y-70656823D01*
X147660476Y-70818266D01*
X147679510Y-70885532D01*
X147681644Y-70890108D01*
X147681646Y-70890114D01*
X147738446Y-71011922D01*
X147782099Y-71105536D01*
X147918544Y-71306307D01*
X148085332Y-71482681D01*
X148089358Y-71485759D01*
X148089359Y-71485760D01*
X148274154Y-71627047D01*
X148274158Y-71627050D01*
X148278174Y-71630120D01*
X148492109Y-71744831D01*
X148721631Y-71823862D01*
X148820978Y-71841022D01*
X148956926Y-71864504D01*
X148956932Y-71864505D01*
X148960836Y-71865179D01*
X148964797Y-71865359D01*
X148964798Y-71865359D01*
X148988506Y-71866436D01*
X148988525Y-71866436D01*
X148989925Y-71866500D01*
X149159001Y-71866500D01*
X149161509Y-71866298D01*
X149161514Y-71866298D01*
X149334924Y-71852346D01*
X149334929Y-71852345D01*
X149339965Y-71851940D01*
X149344873Y-71850734D01*
X149344876Y-71850734D01*
X149570792Y-71795244D01*
X149575706Y-71794037D01*
X149580358Y-71792062D01*
X149580362Y-71792061D01*
X149794498Y-71701165D01*
X149799156Y-71699188D01*
X149905037Y-71632511D01*
X150000288Y-71572528D01*
X150000291Y-71572526D01*
X150004567Y-71569833D01*
X150103422Y-71482681D01*
X150182858Y-71412650D01*
X150182861Y-71412647D01*
X150186655Y-71409302D01*
X150340734Y-71221722D01*
X150462841Y-71011922D01*
X150549833Y-70785298D01*
X150599474Y-70547680D01*
X150610486Y-70305183D01*
X150595235Y-70173373D01*
X150583167Y-70069071D01*
X150583166Y-70069067D01*
X150582585Y-70064044D01*
X150543517Y-69925978D01*
X150517866Y-69835331D01*
X150516490Y-69830468D01*
X150514356Y-69825892D01*
X150514354Y-69825886D01*
X150416038Y-69615046D01*
X150416036Y-69615042D01*
X150413901Y-69610464D01*
X150277456Y-69409693D01*
X150110668Y-69233319D01*
X150106641Y-69230240D01*
X149921846Y-69088953D01*
X149921842Y-69088950D01*
X149917826Y-69085880D01*
X149703891Y-68971169D01*
X149474369Y-68892138D01*
X149375022Y-68874978D01*
X149239074Y-68851496D01*
X149239068Y-68851495D01*
X149235164Y-68850821D01*
X149231203Y-68850641D01*
X149231202Y-68850641D01*
X149207494Y-68849564D01*
X149207475Y-68849564D01*
X149206075Y-68849500D01*
X149036999Y-68849500D01*
X149034491Y-68849702D01*
X149034486Y-68849702D01*
X148861076Y-68863654D01*
X148861071Y-68863655D01*
X148856035Y-68864060D01*
X148851127Y-68865266D01*
X148851124Y-68865266D01*
X148735007Y-68893787D01*
X148620294Y-68921963D01*
X148615642Y-68923938D01*
X148615638Y-68923939D01*
X148508252Y-68969522D01*
X148396844Y-69016812D01*
X148392560Y-69019510D01*
X148195712Y-69143472D01*
X148195709Y-69143474D01*
X148191433Y-69146167D01*
X148187639Y-69149512D01*
X148013142Y-69303350D01*
X148013139Y-69303353D01*
X148009345Y-69306698D01*
X147855266Y-69494278D01*
X147733159Y-69704078D01*
X147646167Y-69930702D01*
X147596526Y-70168320D01*
X147585514Y-70410817D01*
X109728000Y-70410817D01*
X109728000Y-66092817D01*
X147331514Y-66092817D01*
X147332095Y-66097837D01*
X147332095Y-66097841D01*
X147347923Y-66234631D01*
X147359415Y-66333956D01*
X147360791Y-66338820D01*
X147360792Y-66338823D01*
X147406476Y-66500266D01*
X147425510Y-66567532D01*
X147427644Y-66572108D01*
X147427646Y-66572114D01*
X147484446Y-66693922D01*
X147528099Y-66787536D01*
X147664544Y-66988307D01*
X147831332Y-67164681D01*
X147835358Y-67167759D01*
X147835359Y-67167760D01*
X148020154Y-67309047D01*
X148020158Y-67309050D01*
X148024174Y-67312120D01*
X148238109Y-67426831D01*
X148467631Y-67505862D01*
X148566978Y-67523022D01*
X148702926Y-67546504D01*
X148702932Y-67546505D01*
X148706836Y-67547179D01*
X148710797Y-67547359D01*
X148710798Y-67547359D01*
X148734506Y-67548436D01*
X148734525Y-67548436D01*
X148735925Y-67548500D01*
X148905001Y-67548500D01*
X148907509Y-67548298D01*
X148907514Y-67548298D01*
X149080924Y-67534346D01*
X149080929Y-67534345D01*
X149085965Y-67533940D01*
X149090873Y-67532734D01*
X149090876Y-67532734D01*
X149316792Y-67477244D01*
X149321706Y-67476037D01*
X149326358Y-67474062D01*
X149326362Y-67474061D01*
X149540498Y-67383165D01*
X149545156Y-67381188D01*
X149651037Y-67314511D01*
X149746288Y-67254528D01*
X149746291Y-67254526D01*
X149750567Y-67251833D01*
X149849422Y-67164681D01*
X149928858Y-67094650D01*
X149928861Y-67094647D01*
X149932655Y-67091302D01*
X150086734Y-66903722D01*
X150208841Y-66693922D01*
X150295833Y-66467298D01*
X150345474Y-66229680D01*
X150356486Y-65987183D01*
X150350000Y-65931128D01*
X150329167Y-65751071D01*
X150329166Y-65751067D01*
X150328585Y-65746044D01*
X150289517Y-65607978D01*
X150263866Y-65517331D01*
X150262490Y-65512468D01*
X150260356Y-65507892D01*
X150260354Y-65507886D01*
X150162038Y-65297046D01*
X150162036Y-65297042D01*
X150159901Y-65292464D01*
X150023456Y-65091693D01*
X149856668Y-64915319D01*
X149852641Y-64912240D01*
X149667846Y-64770953D01*
X149667842Y-64770950D01*
X149663826Y-64767880D01*
X149449891Y-64653169D01*
X149220369Y-64574138D01*
X149121022Y-64556978D01*
X148985074Y-64533496D01*
X148985068Y-64533495D01*
X148981164Y-64532821D01*
X148977203Y-64532641D01*
X148977202Y-64532641D01*
X148953494Y-64531564D01*
X148953475Y-64531564D01*
X148952075Y-64531500D01*
X148782999Y-64531500D01*
X148780491Y-64531702D01*
X148780486Y-64531702D01*
X148607076Y-64545654D01*
X148607071Y-64545655D01*
X148602035Y-64546060D01*
X148597127Y-64547266D01*
X148597124Y-64547266D01*
X148481007Y-64575787D01*
X148366294Y-64603963D01*
X148361642Y-64605938D01*
X148361638Y-64605939D01*
X148225829Y-64663587D01*
X148142844Y-64698812D01*
X148138560Y-64701510D01*
X147941712Y-64825472D01*
X147941709Y-64825474D01*
X147937433Y-64828167D01*
X147933639Y-64831512D01*
X147759142Y-64985350D01*
X147759139Y-64985353D01*
X147755345Y-64988698D01*
X147601266Y-65176278D01*
X147479159Y-65386078D01*
X147477346Y-65390801D01*
X147414230Y-65555226D01*
X147392167Y-65612702D01*
X147391133Y-65617652D01*
X147391132Y-65617655D01*
X147372520Y-65706749D01*
X147342526Y-65850320D01*
X147331514Y-66092817D01*
X109728000Y-66092817D01*
X109728000Y-65024000D01*
X125324496Y-65024000D01*
X125344458Y-65213928D01*
X125403473Y-65395556D01*
X125498960Y-65560944D01*
X125503378Y-65565851D01*
X125503379Y-65565852D01*
X125545563Y-65612702D01*
X125626747Y-65702866D01*
X125781248Y-65815118D01*
X125787276Y-65817802D01*
X125787278Y-65817803D01*
X125949681Y-65890109D01*
X125955712Y-65892794D01*
X126049112Y-65912647D01*
X126136056Y-65931128D01*
X126136061Y-65931128D01*
X126142513Y-65932500D01*
X126333487Y-65932500D01*
X126339939Y-65931128D01*
X126339944Y-65931128D01*
X126426888Y-65912647D01*
X126520288Y-65892794D01*
X126526319Y-65890109D01*
X126688722Y-65817803D01*
X126688724Y-65817802D01*
X126694752Y-65815118D01*
X126849253Y-65702866D01*
X126930437Y-65612702D01*
X126972621Y-65565852D01*
X126972622Y-65565851D01*
X126977040Y-65560944D01*
X127072527Y-65395556D01*
X127131542Y-65213928D01*
X127151504Y-65024000D01*
X127131542Y-64834072D01*
X127072527Y-64652444D01*
X126977040Y-64487056D01*
X126849253Y-64345134D01*
X126694752Y-64232882D01*
X126688724Y-64230198D01*
X126688722Y-64230197D01*
X126526319Y-64157891D01*
X126526318Y-64157891D01*
X126520288Y-64155206D01*
X126426887Y-64135353D01*
X126339944Y-64116872D01*
X126339939Y-64116872D01*
X126333487Y-64115500D01*
X126142513Y-64115500D01*
X126136061Y-64116872D01*
X126136056Y-64116872D01*
X126049113Y-64135353D01*
X125955712Y-64155206D01*
X125949682Y-64157891D01*
X125949681Y-64157891D01*
X125787278Y-64230197D01*
X125787276Y-64230198D01*
X125781248Y-64232882D01*
X125626747Y-64345134D01*
X125498960Y-64487056D01*
X125403473Y-64652444D01*
X125344458Y-64834072D01*
X125324496Y-65024000D01*
X109728000Y-65024000D01*
X109728000Y-62536817D01*
X147331514Y-62536817D01*
X147332095Y-62541837D01*
X147332095Y-62541841D01*
X147347923Y-62678631D01*
X147359415Y-62777956D01*
X147360791Y-62782820D01*
X147360792Y-62782823D01*
X147406476Y-62944266D01*
X147425510Y-63011532D01*
X147427644Y-63016108D01*
X147427646Y-63016114D01*
X147484446Y-63137922D01*
X147528099Y-63231536D01*
X147664544Y-63432307D01*
X147831332Y-63608681D01*
X147835358Y-63611759D01*
X147835359Y-63611760D01*
X148020154Y-63753047D01*
X148020158Y-63753050D01*
X148024174Y-63756120D01*
X148238109Y-63870831D01*
X148467631Y-63949862D01*
X148566978Y-63967022D01*
X148702926Y-63990504D01*
X148702932Y-63990505D01*
X148706836Y-63991179D01*
X148710797Y-63991359D01*
X148710798Y-63991359D01*
X148734506Y-63992436D01*
X148734525Y-63992436D01*
X148735925Y-63992500D01*
X148905001Y-63992500D01*
X148907509Y-63992298D01*
X148907514Y-63992298D01*
X149080924Y-63978346D01*
X149080929Y-63978345D01*
X149085965Y-63977940D01*
X149090873Y-63976734D01*
X149090876Y-63976734D01*
X149316792Y-63921244D01*
X149321706Y-63920037D01*
X149326358Y-63918062D01*
X149326362Y-63918061D01*
X149540498Y-63827165D01*
X149545156Y-63825188D01*
X149651037Y-63758511D01*
X149746288Y-63698528D01*
X149746291Y-63698526D01*
X149750567Y-63695833D01*
X149849422Y-63608681D01*
X149928858Y-63538650D01*
X149928861Y-63538647D01*
X149932655Y-63535302D01*
X150086734Y-63347722D01*
X150208841Y-63137922D01*
X150295833Y-62911298D01*
X150345474Y-62673680D01*
X150356486Y-62431183D01*
X150341235Y-62299373D01*
X150329167Y-62195071D01*
X150329166Y-62195067D01*
X150328585Y-62190044D01*
X150289517Y-62051978D01*
X150263866Y-61961331D01*
X150262490Y-61956468D01*
X150260356Y-61951892D01*
X150260354Y-61951886D01*
X150162038Y-61741046D01*
X150162036Y-61741042D01*
X150159901Y-61736464D01*
X150023456Y-61535693D01*
X149856668Y-61359319D01*
X149808074Y-61322166D01*
X149667846Y-61214953D01*
X149667842Y-61214950D01*
X149663826Y-61211880D01*
X149449891Y-61097169D01*
X149220369Y-61018138D01*
X149121022Y-61000978D01*
X148985074Y-60977496D01*
X148985068Y-60977495D01*
X148981164Y-60976821D01*
X148977203Y-60976641D01*
X148977202Y-60976641D01*
X148953494Y-60975564D01*
X148953475Y-60975564D01*
X148952075Y-60975500D01*
X148782999Y-60975500D01*
X148780491Y-60975702D01*
X148780486Y-60975702D01*
X148607076Y-60989654D01*
X148607071Y-60989655D01*
X148602035Y-60990060D01*
X148597127Y-60991266D01*
X148597124Y-60991266D01*
X148481007Y-61019787D01*
X148366294Y-61047963D01*
X148361642Y-61049938D01*
X148361638Y-61049939D01*
X148254252Y-61095522D01*
X148142844Y-61142812D01*
X148138560Y-61145510D01*
X147941712Y-61269472D01*
X147941709Y-61269474D01*
X147937433Y-61272167D01*
X147933639Y-61275512D01*
X147759142Y-61429350D01*
X147759139Y-61429353D01*
X147755345Y-61432698D01*
X147601266Y-61620278D01*
X147479159Y-61830078D01*
X147392167Y-62056702D01*
X147342526Y-62294320D01*
X147331514Y-62536817D01*
X109728000Y-62536817D01*
X109728000Y-60452000D01*
X137008496Y-60452000D01*
X137028458Y-60641928D01*
X137087473Y-60823556D01*
X137182960Y-60988944D01*
X137310747Y-61130866D01*
X137465248Y-61243118D01*
X137471276Y-61245802D01*
X137471278Y-61245803D01*
X137524440Y-61269472D01*
X137639712Y-61320794D01*
X137733113Y-61340647D01*
X137820056Y-61359128D01*
X137820061Y-61359128D01*
X137826513Y-61360500D01*
X138017487Y-61360500D01*
X138023939Y-61359128D01*
X138023944Y-61359128D01*
X138110887Y-61340647D01*
X138204288Y-61320794D01*
X138319560Y-61269472D01*
X138372722Y-61245803D01*
X138372724Y-61245802D01*
X138378752Y-61243118D01*
X138533253Y-61130866D01*
X138661040Y-60988944D01*
X138756527Y-60823556D01*
X138815542Y-60641928D01*
X138835504Y-60452000D01*
X138815542Y-60262072D01*
X138756527Y-60080444D01*
X138661040Y-59915056D01*
X138533253Y-59773134D01*
X138378752Y-59660882D01*
X138372724Y-59658198D01*
X138372722Y-59658197D01*
X138210319Y-59585891D01*
X138210318Y-59585891D01*
X138204288Y-59583206D01*
X138110888Y-59563353D01*
X138023944Y-59544872D01*
X138023939Y-59544872D01*
X138017487Y-59543500D01*
X137826513Y-59543500D01*
X137820061Y-59544872D01*
X137820056Y-59544872D01*
X137733112Y-59563353D01*
X137639712Y-59583206D01*
X137633682Y-59585891D01*
X137633681Y-59585891D01*
X137471278Y-59658197D01*
X137471276Y-59658198D01*
X137465248Y-59660882D01*
X137310747Y-59773134D01*
X137182960Y-59915056D01*
X137087473Y-60080444D01*
X137028458Y-60262072D01*
X137008496Y-60452000D01*
X109728000Y-60452000D01*
X109728000Y-56514482D01*
X109748002Y-56446361D01*
X109801658Y-56399868D01*
X109854096Y-56388482D01*
X126800076Y-56401361D01*
G37*
%TD.AperFunction*%
%TD*%
M02*
