%FSLAX45Y45*%
G04 Gerber Fmt 4.5, Leading zero omitted, Abs format (unit mm)*
G04 Created by KiCad (PCBNEW (6.0.1)) date 2022-03-21 18:16:19*
%MOMM*%
%LPD*%
G01*
G04 APERTURE LIST*
%TA.AperFunction,Profile*%
%ADD10C,0.100000*%
%TD*%
%ADD11C,0.200000*%
G04 APERTURE END LIST*
D10*
X16293000Y-9737179D02*
G75*
G03*
X16293000Y-9737179I-1500000J0D01*
G01*
D11*
X13740500Y-9080000D02*
X13940500Y-9280000D01*
X13940500Y-9080000D02*
X13740500Y-9280000D01*
X13545619Y-11552655D02*
X13545619Y-11352655D01*
X13593238Y-11352655D01*
X13621809Y-11362179D01*
X13640857Y-11381226D01*
X13650381Y-11400274D01*
X13659905Y-11438369D01*
X13659905Y-11466941D01*
X13650381Y-11505036D01*
X13640857Y-11524083D01*
X13621809Y-11543131D01*
X13593238Y-11552655D01*
X13545619Y-11552655D01*
X13745619Y-11552655D02*
X13745619Y-11419322D01*
X13745619Y-11457417D02*
X13755143Y-11438369D01*
X13764667Y-11428845D01*
X13783714Y-11419322D01*
X13802762Y-11419322D01*
X13869428Y-11552655D02*
X13869428Y-11419322D01*
X13869428Y-11352655D02*
X13859905Y-11362179D01*
X13869428Y-11371703D01*
X13878952Y-11362179D01*
X13869428Y-11352655D01*
X13869428Y-11371703D01*
X13993238Y-11552655D02*
X13974190Y-11543131D01*
X13964667Y-11524083D01*
X13964667Y-11352655D01*
X14098000Y-11552655D02*
X14078952Y-11543131D01*
X14069428Y-11524083D01*
X14069428Y-11352655D01*
X14326571Y-11552655D02*
X14326571Y-11352655D01*
X14393238Y-11495512D01*
X14459905Y-11352655D01*
X14459905Y-11552655D01*
X14640857Y-11552655D02*
X14640857Y-11447893D01*
X14631333Y-11428845D01*
X14612286Y-11419322D01*
X14574190Y-11419322D01*
X14555143Y-11428845D01*
X14640857Y-11543131D02*
X14621809Y-11552655D01*
X14574190Y-11552655D01*
X14555143Y-11543131D01*
X14545619Y-11524083D01*
X14545619Y-11505036D01*
X14555143Y-11485988D01*
X14574190Y-11476464D01*
X14621809Y-11476464D01*
X14640857Y-11466941D01*
X14736095Y-11419322D02*
X14736095Y-11619322D01*
X14736095Y-11428845D02*
X14755143Y-11419322D01*
X14793238Y-11419322D01*
X14812286Y-11428845D01*
X14821809Y-11438369D01*
X14831333Y-11457417D01*
X14831333Y-11514560D01*
X14821809Y-11533607D01*
X14812286Y-11543131D01*
X14793238Y-11552655D01*
X14755143Y-11552655D01*
X14736095Y-11543131D01*
X14917048Y-11533607D02*
X14926571Y-11543131D01*
X14917048Y-11552655D01*
X14907524Y-11543131D01*
X14917048Y-11533607D01*
X14917048Y-11552655D01*
X14917048Y-11428845D02*
X14926571Y-11438369D01*
X14917048Y-11447893D01*
X14907524Y-11438369D01*
X14917048Y-11428845D01*
X14917048Y-11447893D01*
X13088000Y-11782179D02*
X13288000Y-11982179D01*
X13288000Y-11782179D02*
X13088000Y-11982179D01*
X13536095Y-11791703D02*
X13545619Y-11782179D01*
X13564667Y-11772655D01*
X13612286Y-11772655D01*
X13631333Y-11782179D01*
X13640857Y-11791703D01*
X13650381Y-11810750D01*
X13650381Y-11829798D01*
X13640857Y-11858369D01*
X13526571Y-11972655D01*
X13650381Y-11972655D01*
X13736095Y-11953607D02*
X13745619Y-11963131D01*
X13736095Y-11972655D01*
X13726571Y-11963131D01*
X13736095Y-11953607D01*
X13736095Y-11972655D01*
X13869428Y-11772655D02*
X13888476Y-11772655D01*
X13907524Y-11782179D01*
X13917048Y-11791703D01*
X13926571Y-11810750D01*
X13936095Y-11848845D01*
X13936095Y-11896464D01*
X13926571Y-11934560D01*
X13917048Y-11953607D01*
X13907524Y-11963131D01*
X13888476Y-11972655D01*
X13869428Y-11972655D01*
X13850381Y-11963131D01*
X13840857Y-11953607D01*
X13831333Y-11934560D01*
X13821809Y-11896464D01*
X13821809Y-11848845D01*
X13831333Y-11810750D01*
X13840857Y-11791703D01*
X13850381Y-11782179D01*
X13869428Y-11772655D01*
X14059905Y-11772655D02*
X14078952Y-11772655D01*
X14098000Y-11782179D01*
X14107524Y-11791703D01*
X14117048Y-11810750D01*
X14126571Y-11848845D01*
X14126571Y-11896464D01*
X14117048Y-11934560D01*
X14107524Y-11953607D01*
X14098000Y-11963131D01*
X14078952Y-11972655D01*
X14059905Y-11972655D01*
X14040857Y-11963131D01*
X14031333Y-11953607D01*
X14021809Y-11934560D01*
X14012286Y-11896464D01*
X14012286Y-11848845D01*
X14021809Y-11810750D01*
X14031333Y-11791703D01*
X14040857Y-11782179D01*
X14059905Y-11772655D01*
X14250381Y-11772655D02*
X14269428Y-11772655D01*
X14288476Y-11782179D01*
X14298000Y-11791703D01*
X14307524Y-11810750D01*
X14317048Y-11848845D01*
X14317048Y-11896464D01*
X14307524Y-11934560D01*
X14298000Y-11953607D01*
X14288476Y-11963131D01*
X14269428Y-11972655D01*
X14250381Y-11972655D01*
X14231333Y-11963131D01*
X14221809Y-11953607D01*
X14212286Y-11934560D01*
X14202762Y-11896464D01*
X14202762Y-11848845D01*
X14212286Y-11810750D01*
X14221809Y-11791703D01*
X14231333Y-11782179D01*
X14250381Y-11772655D01*
X14402762Y-11972655D02*
X14402762Y-11839322D01*
X14402762Y-11858369D02*
X14412286Y-11848845D01*
X14431333Y-11839322D01*
X14459905Y-11839322D01*
X14478952Y-11848845D01*
X14488476Y-11867893D01*
X14488476Y-11972655D01*
X14488476Y-11867893D02*
X14498000Y-11848845D01*
X14517048Y-11839322D01*
X14545619Y-11839322D01*
X14564667Y-11848845D01*
X14574190Y-11867893D01*
X14574190Y-11972655D01*
X14669428Y-11972655D02*
X14669428Y-11839322D01*
X14669428Y-11858369D02*
X14678952Y-11848845D01*
X14698000Y-11839322D01*
X14726571Y-11839322D01*
X14745619Y-11848845D01*
X14755143Y-11867893D01*
X14755143Y-11972655D01*
X14755143Y-11867893D02*
X14764667Y-11848845D01*
X14783714Y-11839322D01*
X14812286Y-11839322D01*
X14831333Y-11848845D01*
X14840857Y-11867893D01*
X14840857Y-11972655D01*
X15231333Y-11763131D02*
X15059905Y-12020274D01*
X15488476Y-11772655D02*
X15507524Y-11772655D01*
X15526571Y-11782179D01*
X15536095Y-11791703D01*
X15545619Y-11810750D01*
X15555143Y-11848845D01*
X15555143Y-11896464D01*
X15545619Y-11934560D01*
X15536095Y-11953607D01*
X15526571Y-11963131D01*
X15507524Y-11972655D01*
X15488476Y-11972655D01*
X15469428Y-11963131D01*
X15459905Y-11953607D01*
X15450381Y-11934560D01*
X15440857Y-11896464D01*
X15440857Y-11848845D01*
X15450381Y-11810750D01*
X15459905Y-11791703D01*
X15469428Y-11782179D01*
X15488476Y-11772655D01*
X15640857Y-11953607D02*
X15650381Y-11963131D01*
X15640857Y-11972655D01*
X15631333Y-11963131D01*
X15640857Y-11953607D01*
X15640857Y-11972655D01*
X15774190Y-11772655D02*
X15793238Y-11772655D01*
X15812286Y-11782179D01*
X15821809Y-11791703D01*
X15831333Y-11810750D01*
X15840857Y-11848845D01*
X15840857Y-11896464D01*
X15831333Y-11934560D01*
X15821809Y-11953607D01*
X15812286Y-11963131D01*
X15793238Y-11972655D01*
X15774190Y-11972655D01*
X15755143Y-11963131D01*
X15745619Y-11953607D01*
X15736095Y-11934560D01*
X15726571Y-11896464D01*
X15726571Y-11848845D01*
X15736095Y-11810750D01*
X15745619Y-11791703D01*
X15755143Y-11782179D01*
X15774190Y-11772655D01*
X15907524Y-11772655D02*
X16040857Y-11772655D01*
X15955143Y-11972655D01*
X16145619Y-11858369D02*
X16126571Y-11848845D01*
X16117048Y-11839322D01*
X16107524Y-11820274D01*
X16107524Y-11810750D01*
X16117048Y-11791703D01*
X16126571Y-11782179D01*
X16145619Y-11772655D01*
X16183714Y-11772655D01*
X16202762Y-11782179D01*
X16212286Y-11791703D01*
X16221809Y-11810750D01*
X16221809Y-11820274D01*
X16212286Y-11839322D01*
X16202762Y-11848845D01*
X16183714Y-11858369D01*
X16145619Y-11858369D01*
X16126571Y-11867893D01*
X16117048Y-11877417D01*
X16107524Y-11896464D01*
X16107524Y-11934560D01*
X16117048Y-11953607D01*
X16126571Y-11963131D01*
X16145619Y-11972655D01*
X16183714Y-11972655D01*
X16202762Y-11963131D01*
X16212286Y-11953607D01*
X16221809Y-11934560D01*
X16221809Y-11896464D01*
X16212286Y-11877417D01*
X16202762Y-11867893D01*
X16183714Y-11858369D01*
X16288476Y-11772655D02*
X16421809Y-11772655D01*
X16336095Y-11972655D01*
X16488476Y-11772655D02*
X16488476Y-11810750D01*
X16564667Y-11772655D02*
X16564667Y-11810750D01*
X16859905Y-12048845D02*
X16850381Y-12039322D01*
X16831333Y-12010750D01*
X16821810Y-11991703D01*
X16812286Y-11963131D01*
X16802762Y-11915512D01*
X16802762Y-11877417D01*
X16812286Y-11829798D01*
X16821810Y-11801226D01*
X16831333Y-11782179D01*
X16850381Y-11753607D01*
X16859905Y-11744083D01*
X17040857Y-11972655D02*
X16926571Y-11972655D01*
X16983714Y-11972655D02*
X16983714Y-11772655D01*
X16964667Y-11801226D01*
X16945619Y-11820274D01*
X16926571Y-11829798D01*
X17278952Y-11972655D02*
X17278952Y-11772655D01*
X17364667Y-11972655D02*
X17364667Y-11867893D01*
X17355143Y-11848845D01*
X17336095Y-11839322D01*
X17307524Y-11839322D01*
X17288476Y-11848845D01*
X17278952Y-11858369D01*
X17488476Y-11972655D02*
X17469429Y-11963131D01*
X17459905Y-11953607D01*
X17450381Y-11934560D01*
X17450381Y-11877417D01*
X17459905Y-11858369D01*
X17469429Y-11848845D01*
X17488476Y-11839322D01*
X17517048Y-11839322D01*
X17536095Y-11848845D01*
X17545619Y-11858369D01*
X17555143Y-11877417D01*
X17555143Y-11934560D01*
X17545619Y-11953607D01*
X17536095Y-11963131D01*
X17517048Y-11972655D01*
X17488476Y-11972655D01*
X17669429Y-11972655D02*
X17650381Y-11963131D01*
X17640857Y-11944083D01*
X17640857Y-11772655D01*
X17821810Y-11963131D02*
X17802762Y-11972655D01*
X17764667Y-11972655D01*
X17745619Y-11963131D01*
X17736095Y-11944083D01*
X17736095Y-11867893D01*
X17745619Y-11848845D01*
X17764667Y-11839322D01*
X17802762Y-11839322D01*
X17821810Y-11848845D01*
X17831333Y-11867893D01*
X17831333Y-11886941D01*
X17736095Y-11905988D01*
X17898000Y-12048845D02*
X17907524Y-12039322D01*
X17926571Y-12010750D01*
X17936095Y-11991703D01*
X17945619Y-11963131D01*
X17955143Y-11915512D01*
X17955143Y-11877417D01*
X17945619Y-11829798D01*
X17936095Y-11801226D01*
X17926571Y-11782179D01*
X17907524Y-11753607D01*
X17898000Y-11744083D01*
X18259905Y-12048845D02*
X18250381Y-12039322D01*
X18231333Y-12010750D01*
X18221810Y-11991703D01*
X18212286Y-11963131D01*
X18202762Y-11915512D01*
X18202762Y-11877417D01*
X18212286Y-11829798D01*
X18221810Y-11801226D01*
X18231333Y-11782179D01*
X18250381Y-11753607D01*
X18259905Y-11744083D01*
X18336095Y-11839322D02*
X18336095Y-11972655D01*
X18336095Y-11858369D02*
X18345619Y-11848845D01*
X18364667Y-11839322D01*
X18393238Y-11839322D01*
X18412286Y-11848845D01*
X18421810Y-11867893D01*
X18421810Y-11972655D01*
X18545619Y-11972655D02*
X18526571Y-11963131D01*
X18517048Y-11953607D01*
X18507524Y-11934560D01*
X18507524Y-11877417D01*
X18517048Y-11858369D01*
X18526571Y-11848845D01*
X18545619Y-11839322D01*
X18574190Y-11839322D01*
X18593238Y-11848845D01*
X18602762Y-11858369D01*
X18612286Y-11877417D01*
X18612286Y-11934560D01*
X18602762Y-11953607D01*
X18593238Y-11963131D01*
X18574190Y-11972655D01*
X18545619Y-11972655D01*
X18669429Y-11839322D02*
X18745619Y-11839322D01*
X18698000Y-11772655D02*
X18698000Y-11944083D01*
X18707524Y-11963131D01*
X18726571Y-11972655D01*
X18745619Y-11972655D01*
X18964667Y-11839322D02*
X18964667Y-12039322D01*
X18964667Y-11848845D02*
X18983714Y-11839322D01*
X19021810Y-11839322D01*
X19040857Y-11848845D01*
X19050381Y-11858369D01*
X19059905Y-11877417D01*
X19059905Y-11934560D01*
X19050381Y-11953607D01*
X19040857Y-11963131D01*
X19021810Y-11972655D01*
X18983714Y-11972655D01*
X18964667Y-11963131D01*
X19174190Y-11972655D02*
X19155143Y-11963131D01*
X19145619Y-11944083D01*
X19145619Y-11772655D01*
X19336095Y-11972655D02*
X19336095Y-11867893D01*
X19326571Y-11848845D01*
X19307524Y-11839322D01*
X19269429Y-11839322D01*
X19250381Y-11848845D01*
X19336095Y-11963131D02*
X19317048Y-11972655D01*
X19269429Y-11972655D01*
X19250381Y-11963131D01*
X19240857Y-11944083D01*
X19240857Y-11925036D01*
X19250381Y-11905988D01*
X19269429Y-11896464D01*
X19317048Y-11896464D01*
X19336095Y-11886941D01*
X19402762Y-11839322D02*
X19478952Y-11839322D01*
X19431333Y-11772655D02*
X19431333Y-11944083D01*
X19440857Y-11963131D01*
X19459905Y-11972655D01*
X19478952Y-11972655D01*
X19621810Y-11963131D02*
X19602762Y-11972655D01*
X19564667Y-11972655D01*
X19545619Y-11963131D01*
X19536095Y-11944083D01*
X19536095Y-11867893D01*
X19545619Y-11848845D01*
X19564667Y-11839322D01*
X19602762Y-11839322D01*
X19621810Y-11848845D01*
X19631333Y-11867893D01*
X19631333Y-11886941D01*
X19536095Y-11905988D01*
X19802762Y-11972655D02*
X19802762Y-11772655D01*
X19802762Y-11963131D02*
X19783714Y-11972655D01*
X19745619Y-11972655D01*
X19726571Y-11963131D01*
X19717048Y-11953607D01*
X19707524Y-11934560D01*
X19707524Y-11877417D01*
X19717048Y-11858369D01*
X19726571Y-11848845D01*
X19745619Y-11839322D01*
X19783714Y-11839322D01*
X19802762Y-11848845D01*
X19878952Y-12048845D02*
X19888476Y-12039322D01*
X19907524Y-12010750D01*
X19917048Y-11991703D01*
X19926571Y-11963131D01*
X19936095Y-11915512D01*
X19936095Y-11877417D01*
X19926571Y-11829798D01*
X19917048Y-11801226D01*
X19907524Y-11782179D01*
X19888476Y-11753607D01*
X19878952Y-11744083D01*
M02*
