%TF.GenerationSoftware,KiCad,Pcbnew,(6.0.1)*%
%TF.CreationDate,2022-03-21T18:15:35+01:00*%
%TF.ProjectId,KiCad_PCB,4b694361-645f-4504-9342-2e6b69636164,rev?*%
%TF.SameCoordinates,Original*%
%TF.FileFunction,Copper,L1,Top*%
%TF.FilePolarity,Positive*%
%FSLAX46Y46*%
G04 Gerber Fmt 4.6, Leading zero omitted, Abs format (unit mm)*
G04 Created by KiCad (PCBNEW (6.0.1)) date 2022-03-21 18:15:35*
%MOMM*%
%LPD*%
G01*
G04 APERTURE LIST*
G04 Aperture macros list*
%AMRoundRect*
0 Rectangle with rounded corners*
0 $1 Rounding radius*
0 $2 $3 $4 $5 $6 $7 $8 $9 X,Y pos of 4 corners*
0 Add a 4 corners polygon primitive as box body*
4,1,4,$2,$3,$4,$5,$6,$7,$8,$9,$2,$3,0*
0 Add four circle primitives for the rounded corners*
1,1,$1+$1,$2,$3*
1,1,$1+$1,$4,$5*
1,1,$1+$1,$6,$7*
1,1,$1+$1,$8,$9*
0 Add four rect primitives between the rounded corners*
20,1,$1+$1,$2,$3,$4,$5,0*
20,1,$1+$1,$4,$5,$6,$7,0*
20,1,$1+$1,$6,$7,$8,$9,0*
20,1,$1+$1,$8,$9,$2,$3,0*%
G04 Aperture macros list end*
%TA.AperFunction,SMDPad,CuDef*%
%ADD10RoundRect,0.225000X0.225000X0.250000X-0.225000X0.250000X-0.225000X-0.250000X0.225000X-0.250000X0*%
%TD*%
%TA.AperFunction,SMDPad,CuDef*%
%ADD11RoundRect,0.225000X0.104006X-0.319856X0.329006X0.069856X-0.104006X0.319856X-0.329006X-0.069856X0*%
%TD*%
%TA.AperFunction,SMDPad,CuDef*%
%ADD12RoundRect,0.225000X0.250000X-0.225000X0.250000X0.225000X-0.250000X0.225000X-0.250000X-0.225000X0*%
%TD*%
%TA.AperFunction,SMDPad,CuDef*%
%ADD13RoundRect,0.218750X-0.218750X-0.381250X0.218750X-0.381250X0.218750X0.381250X-0.218750X0.381250X0*%
%TD*%
%TA.AperFunction,SMDPad,CuDef*%
%ADD14R,1.100000X0.600000*%
%TD*%
%TA.AperFunction,SMDPad,CuDef*%
%ADD15R,1.500000X1.590000*%
%TD*%
%TA.AperFunction,SMDPad,CuDef*%
%ADD16RoundRect,0.218750X0.381250X-0.218750X0.381250X0.218750X-0.381250X0.218750X-0.381250X-0.218750X0*%
%TD*%
%TA.AperFunction,SMDPad,CuDef*%
%ADD17RoundRect,0.225000X-0.250000X0.225000X-0.250000X-0.225000X0.250000X-0.225000X0.250000X0.225000X0*%
%TD*%
%TA.AperFunction,SMDPad,CuDef*%
%ADD18R,1.700000X1.000000*%
%TD*%
%TA.AperFunction,SMDPad,CuDef*%
%ADD19R,1.600000X0.800000*%
%TD*%
%TA.AperFunction,SMDPad,CuDef*%
%ADD20R,1.300000X1.100000*%
%TD*%
%TA.AperFunction,SMDPad,CuDef*%
%ADD21O,0.800000X0.300000*%
%TD*%
%TA.AperFunction,SMDPad,CuDef*%
%ADD22O,0.300000X0.800000*%
%TD*%
%TA.AperFunction,SMDPad,CuDef*%
%ADD23RoundRect,1.058000X-1.242000X-1.242000X1.242000X-1.242000X1.242000X1.242000X-1.242000X1.242000X0*%
%TD*%
%TA.AperFunction,ComponentPad*%
%ADD24R,0.850000X0.850000*%
%TD*%
%TA.AperFunction,ComponentPad*%
%ADD25C,0.850000*%
%TD*%
%TA.AperFunction,SMDPad,CuDef*%
%ADD26RoundRect,0.200000X-0.200000X-0.275000X0.200000X-0.275000X0.200000X0.275000X-0.200000X0.275000X0*%
%TD*%
%TA.AperFunction,SMDPad,CuDef*%
%ADD27RoundRect,0.225000X-0.225000X-0.250000X0.225000X-0.250000X0.225000X0.250000X-0.225000X0.250000X0*%
%TD*%
%TA.AperFunction,SMDPad,CuDef*%
%ADD28RoundRect,0.200000X0.200000X0.275000X-0.200000X0.275000X-0.200000X-0.275000X0.200000X-0.275000X0*%
%TD*%
%TA.AperFunction,ComponentPad*%
%ADD29C,2.300000*%
%TD*%
%TA.AperFunction,ViaPad*%
%ADD30C,0.800000*%
%TD*%
%TA.AperFunction,Conductor*%
%ADD31C,0.250000*%
%TD*%
%TA.AperFunction,Conductor*%
%ADD32C,0.500000*%
%TD*%
G04 APERTURE END LIST*
D10*
%TO.P,C7,1*%
%TO.N,GND*%
X153750000Y-110200000D03*
%TO.P,C7,2*%
%TO.N,+1V8*%
X152200000Y-110200000D03*
%TD*%
D11*
%TO.P,C10,1*%
%TO.N,Net-(C10-Pad1)*%
X161100000Y-100700000D03*
%TO.P,C10,2*%
%TO.N,GND*%
X161875000Y-99357660D03*
%TD*%
D12*
%TO.P,C12,1*%
%TO.N,Net-(C12-Pad1)*%
X153400000Y-99000000D03*
%TO.P,C12,2*%
%TO.N,GND*%
X153400000Y-97450000D03*
%TD*%
D13*
%TO.P,L1,1,1*%
%TO.N,Net-(L1-Pad1)*%
X147025000Y-101100000D03*
%TO.P,L1,2,2*%
%TO.N,Net-(L1-Pad2)*%
X149150000Y-101100000D03*
%TD*%
D12*
%TO.P,C8,1*%
%TO.N,GND*%
X145400000Y-106350000D03*
%TO.P,C8,2*%
%TO.N,Net-(C8-Pad2)*%
X145400000Y-104800000D03*
%TD*%
D14*
%TO.P,Y2,1*%
%TO.N,Net-(C3-Pad1)*%
X148800000Y-104975000D03*
%TO.P,Y2,2*%
%TO.N,Net-(C4-Pad1)*%
X148800000Y-106375000D03*
%TD*%
D15*
%TO.P,D1,A,A*%
%TO.N,Net-(D1-PadA)*%
X140200000Y-91800000D03*
%TO.P,D1,C,C*%
%TO.N,Net-(D1-PadC)*%
X136610000Y-91800000D03*
%TD*%
D16*
%TO.P,L2,1,1*%
%TO.N,Net-(C10-Pad1)*%
X161000000Y-97600000D03*
%TO.P,L2,2,2*%
%TO.N,Net-(E1-Pad1)*%
X161000000Y-95475000D03*
%TD*%
D17*
%TO.P,C3,1*%
%TO.N,Net-(C3-Pad1)*%
X147000000Y-104825000D03*
%TO.P,C3,2*%
%TO.N,GND*%
X147000000Y-106375000D03*
%TD*%
D18*
%TO.P,S1,1*%
%TO.N,GND*%
X150978000Y-99253788D03*
%TO.P,S1,2*%
X144678000Y-99253788D03*
%TO.P,S1,3*%
%TO.N,Net-(R2-Pad1)*%
X150978000Y-95453788D03*
%TO.P,S1,4*%
X144678000Y-95453788D03*
%TD*%
D19*
%TO.P,E1,1*%
%TO.N,Net-(E1-Pad1)*%
X157050000Y-91100000D03*
%TO.P,E1,2*%
%TO.N,N/C*%
X157050000Y-87700000D03*
%TD*%
D17*
%TO.P,C2,1*%
%TO.N,GND*%
X155800000Y-95200000D03*
%TO.P,C2,2*%
%TO.N,ECS-320_XCS2*%
X155800000Y-96750000D03*
%TD*%
D20*
%TO.P,Y1,1,IN/OUT*%
%TO.N,ECS-320_XCS2*%
X156800000Y-100400000D03*
%TO.P,Y1,2,GND_1*%
%TO.N,GND*%
X159100000Y-100400000D03*
%TO.P,Y1,3,OUT/IN*%
%TO.N,Net-(C5-Pad2)*%
X159100000Y-98500000D03*
%TO.P,Y1,4,GND_2*%
%TO.N,GND*%
X156800000Y-98500000D03*
%TD*%
D21*
%TO.P,U2,1,DEC1*%
%TO.N,Net-(C8-Pad2)*%
X151378000Y-103378000D03*
%TO.P,U2,2,P0.00*%
%TO.N,Net-(C3-Pad1)*%
X151378000Y-103778000D03*
%TO.P,U2,3,P0.01*%
%TO.N,Net-(C4-Pad1)*%
X151378000Y-104178000D03*
%TO.P,U2,4,P0.02*%
%TO.N,unconnected-(U2-Pad4)*%
X151378000Y-104578000D03*
%TO.P,U2,5,P0.03*%
%TO.N,unconnected-(U2-Pad5)*%
X151378000Y-104978000D03*
%TO.P,U2,6,P0.04*%
%TO.N,unconnected-(U2-Pad6)*%
X151378000Y-105378000D03*
%TO.P,U2,7,P0.05*%
%TO.N,unconnected-(U2-Pad7)*%
X151378000Y-105778000D03*
%TO.P,U2,8,P0.06*%
%TO.N,unconnected-(U2-Pad8)*%
X151378000Y-106178000D03*
%TO.P,U2,9,P0.07*%
%TO.N,unconnected-(U2-Pad9)*%
X151378000Y-106578000D03*
%TO.P,U2,10,P0.08*%
%TO.N,unconnected-(U2-Pad10)*%
X151378000Y-106978000D03*
%TO.P,U2,11,P0.09*%
%TO.N,unconnected-(U2-Pad11)*%
X151378000Y-107378000D03*
%TO.P,U2,12,P0.10*%
%TO.N,unconnected-(U2-Pad12)*%
X151378000Y-107778000D03*
D22*
%TO.P,U2,13,VDD1*%
%TO.N,+1V8*%
X152178000Y-108578000D03*
%TO.P,U2,14,P0.11*%
%TO.N,unconnected-(U2-Pad14)*%
X152578000Y-108578000D03*
%TO.P,U2,15,P0.12*%
%TO.N,unconnected-(U2-Pad15)*%
X152978000Y-108578000D03*
%TO.P,U2,16,P0.13*%
%TO.N,unconnected-(U2-Pad16)*%
X153378000Y-108578000D03*
%TO.P,U2,17,P0.14*%
%TO.N,unconnected-(U2-Pad17)*%
X153778000Y-108578000D03*
%TO.P,U2,18,P0.15*%
%TO.N,unconnected-(U2-Pad18)*%
X154178000Y-108578000D03*
%TO.P,U2,19,P0.16*%
%TO.N,unconnected-(U2-Pad19)*%
X154578000Y-108578000D03*
%TO.P,U2,20,P0.17*%
%TO.N,unconnected-(U2-Pad20)*%
X154978000Y-108578000D03*
%TO.P,U2,21,P0.18*%
%TO.N,unconnected-(U2-Pad21)*%
X155378000Y-108578000D03*
%TO.P,U2,22,P0.19*%
%TO.N,unconnected-(U2-Pad22)*%
X155778000Y-108578000D03*
%TO.P,U2,23,P0.20*%
%TO.N,unconnected-(U2-Pad23)*%
X156178000Y-108578000D03*
%TO.P,U2,24,P0.21*%
%TO.N,unconnected-(U2-Pad24)*%
X156578000Y-108578000D03*
D21*
%TO.P,U2,25,SWDCLK*%
%TO.N,PROG_SWCLK*%
X157378000Y-107778000D03*
%TO.P,U2,26,SWDIO*%
%TO.N,PROG_SWDIO*%
X157378000Y-107378000D03*
%TO.P,U2,27,P0.22*%
%TO.N,unconnected-(U2-Pad27)*%
X157378000Y-106978000D03*
%TO.P,U2,28,P0.23*%
%TO.N,unconnected-(U2-Pad28)*%
X157378000Y-106578000D03*
%TO.P,U2,29,P0.24*%
%TO.N,unconnected-(U2-Pad29)*%
X157378000Y-106178000D03*
%TO.P,U2,30,ANT*%
%TO.N,Net-(C10-Pad1)*%
X157378000Y-105778000D03*
%TO.P,U2,31,VSS1*%
%TO.N,GND*%
X157378000Y-105378000D03*
%TO.P,U2,32,DEC2*%
%TO.N,unconnected-(U2-Pad32)*%
X157378000Y-104978000D03*
%TO.P,U2,33,DEC3*%
%TO.N,Net-(C9-Pad2)*%
X157378000Y-104578000D03*
%TO.P,U2,34,XC1*%
%TO.N,Net-(C5-Pad2)*%
X157378000Y-104178000D03*
%TO.P,U2,35,XC2*%
%TO.N,ECS-320_XCS2*%
X157378000Y-103778000D03*
%TO.P,U2,36,VDD2*%
%TO.N,+1V8*%
X157378000Y-103378000D03*
D22*
%TO.P,U2,37,P0.25*%
%TO.N,unconnected-(U2-Pad37)*%
X156578000Y-102578000D03*
%TO.P,U2,38,P0.26*%
%TO.N,Net-(D1-PadA)*%
X156178000Y-102578000D03*
%TO.P,U2,39,P0.27*%
%TO.N,unconnected-(U2-Pad39)*%
X155778000Y-102578000D03*
%TO.P,U2,40,P0.28*%
%TO.N,unconnected-(U2-Pad40)*%
X155378000Y-102578000D03*
%TO.P,U2,41,P0.29*%
%TO.N,unconnected-(U2-Pad41)*%
X154978000Y-102578000D03*
%TO.P,U2,42,P0.30*%
%TO.N,Net-(R2-Pad2)*%
X154578000Y-102578000D03*
%TO.P,U2,43,P0.31*%
%TO.N,unconnected-(U2-Pad43)*%
X154178000Y-102578000D03*
%TO.P,U2,44*%
%TO.N,N/C*%
X153778000Y-102578000D03*
%TO.P,U2,45,VSS2*%
%TO.N,GND*%
X153378000Y-102578000D03*
%TO.P,U2,46,DEC4*%
%TO.N,Net-(C12-Pad1)*%
X152978000Y-102578000D03*
%TO.P,U2,47,DCC*%
%TO.N,Net-(L1-Pad1)*%
X152578000Y-102578000D03*
%TO.P,U2,48,VDD3*%
%TO.N,+1V8*%
X152178000Y-102578000D03*
D23*
%TO.P,U2,49,EXP*%
%TO.N,GND*%
X154378000Y-105578000D03*
%TD*%
D24*
%TO.P,J1,1,1*%
%TO.N,GND*%
X137600000Y-95700000D03*
D25*
%TO.P,J1,2,2*%
%TO.N,PROG_SWCLK*%
X137600000Y-96950000D03*
%TO.P,J1,3,3*%
%TO.N,PROG_SWDIO*%
X137600000Y-98200000D03*
%TO.P,J1,4,4*%
%TO.N,+1V8*%
X137600000Y-99450000D03*
%TD*%
D26*
%TO.P,R2,1*%
%TO.N,Net-(R2-Pad1)*%
X151000000Y-94000000D03*
%TO.P,R2,2*%
%TO.N,Net-(R2-Pad2)*%
X152650000Y-94000000D03*
%TD*%
D27*
%TO.P,C5,1*%
%TO.N,GND*%
X157200000Y-96800000D03*
%TO.P,C5,2*%
%TO.N,Net-(C5-Pad2)*%
X158750000Y-96800000D03*
%TD*%
D10*
%TO.P,C4,1*%
%TO.N,Net-(C4-Pad1)*%
X148800000Y-107775000D03*
%TO.P,C4,2*%
%TO.N,GND*%
X147250000Y-107775000D03*
%TD*%
D13*
%TO.P,L3,1,1*%
%TO.N,Net-(L1-Pad2)*%
X151400000Y-101000000D03*
%TO.P,L3,2,2*%
%TO.N,Net-(C12-Pad1)*%
X153525000Y-101000000D03*
%TD*%
D27*
%TO.P,C11,1*%
%TO.N,GND*%
X146950000Y-103100000D03*
%TO.P,C11,2*%
%TO.N,+1V8*%
X148500000Y-103100000D03*
%TD*%
D28*
%TO.P,R1,1*%
%TO.N,GND*%
X140525000Y-88900000D03*
%TO.P,R1,2*%
%TO.N,Net-(D1-PadC)*%
X138875000Y-88900000D03*
%TD*%
D29*
%TO.P,BT1,P1*%
%TO.N,+1V8*%
X149300000Y-109800000D03*
%TO.P,BT1,P2*%
X146200000Y-109800000D03*
%TO.P,BT1,P3*%
X146200000Y-89000000D03*
%TO.P,BT1,P4*%
X149300000Y-89000000D03*
%TD*%
D30*
%TO.N,GND*%
X158014538Y-97653997D03*
X155556520Y-109818983D03*
X134620000Y-96520000D03*
X135890000Y-101600000D03*
X151130000Y-85090000D03*
X149860000Y-85090000D03*
X148590000Y-85090000D03*
X147320000Y-85090000D03*
X146050000Y-85090000D03*
X144780000Y-85090000D03*
X143510000Y-85090000D03*
X151130000Y-83820000D03*
X149860000Y-83820000D03*
X148590000Y-83820000D03*
X146050000Y-83820000D03*
X147320000Y-83820000D03*
X144780000Y-83820000D03*
X143510000Y-83820000D03*
X142240000Y-93980000D03*
X140970000Y-100330000D03*
X139700000Y-105410000D03*
X140970000Y-109220000D03*
X143510000Y-110490000D03*
X161736869Y-101866793D03*
X148197627Y-100248255D03*
%TO.N,+1V8*%
X158000000Y-102400000D03*
X143600000Y-108300000D03*
X151200000Y-111200000D03*
%TO.N,GND*%
X153550000Y-105700000D03*
X152600000Y-107600000D03*
X152600000Y-104750000D03*
X152600000Y-103800000D03*
X155450000Y-107600000D03*
X153550000Y-107600000D03*
X154500000Y-107600000D03*
X156400000Y-106650000D03*
X153550000Y-103800000D03*
X156400000Y-103800000D03*
X154500000Y-104750000D03*
X152600000Y-106650000D03*
X155450000Y-105700000D03*
X152600000Y-105700000D03*
X154500000Y-106650000D03*
X153550000Y-106650000D03*
X155450000Y-103800000D03*
X153550000Y-104750000D03*
X154500000Y-103800000D03*
X154500000Y-105700000D03*
X155450000Y-106650000D03*
X156400000Y-105700000D03*
X156400000Y-107600000D03*
X155450000Y-104750000D03*
X156400000Y-104750000D03*
%TO.N,Net-(C9-Pad2)*%
X159900000Y-102200000D03*
%TO.N,PROG_SWCLK*%
X159700000Y-105600000D03*
%TO.N,PROG_SWDIO*%
X158700000Y-105800000D03*
%TD*%
D31*
%TO.N,Net-(D1-PadC)*%
X136610000Y-91165000D02*
X136610000Y-91800000D01*
X138875000Y-88900000D02*
X136610000Y-91165000D01*
D32*
%TO.N,GND*%
X157200000Y-98500000D02*
X159100000Y-100400000D01*
X156800000Y-98500000D02*
X157200000Y-98500000D01*
D31*
%TO.N,Net-(E1-Pad1)*%
X157050000Y-91525000D02*
X157050000Y-91100000D01*
X161000000Y-95475000D02*
X157050000Y-91525000D01*
%TO.N,+1V8*%
X152178000Y-108578000D02*
X152178000Y-110178000D01*
X152200000Y-110200000D02*
X151200000Y-111200000D01*
X148500000Y-103100000D02*
X148500000Y-102850000D01*
X149322000Y-102578000D02*
X148950000Y-102950000D01*
X157378000Y-103378000D02*
X157378000Y-103022000D01*
X147850000Y-102200000D02*
X145500000Y-102200000D01*
X148500000Y-102850000D02*
X147850000Y-102200000D01*
X152178000Y-102578000D02*
X149322000Y-102578000D01*
X143600000Y-104100000D02*
X143600000Y-108300000D01*
X145500000Y-102200000D02*
X143600000Y-104100000D01*
X152178000Y-110178000D02*
X152200000Y-110200000D01*
X157378000Y-103022000D02*
X158000000Y-102400000D01*
%TO.N,GND*%
X154578000Y-105378000D02*
X154378000Y-105578000D01*
X153378000Y-103628000D02*
X153550000Y-103800000D01*
X157378000Y-105378000D02*
X154578000Y-105378000D01*
X137600000Y-95804944D02*
X137474189Y-95930755D01*
X153378000Y-102578000D02*
X153378000Y-103628000D01*
X137600000Y-95700000D02*
X137600000Y-95804944D01*
%TO.N,ECS-320_XCS2*%
X156800000Y-100400000D02*
X155600000Y-99200000D01*
X158022000Y-103778000D02*
X158800000Y-103000000D01*
X157200000Y-100400000D02*
X156800000Y-100400000D01*
X158800000Y-103000000D02*
X158800000Y-102000000D01*
X158800000Y-102000000D02*
X157200000Y-100400000D01*
X155600000Y-97000000D02*
X155800000Y-96800000D01*
X155600000Y-99200000D02*
X155600000Y-97000000D01*
X157378000Y-103778000D02*
X158022000Y-103778000D01*
%TO.N,Net-(C8-Pad2)*%
X151378000Y-103378000D02*
X149622000Y-103378000D01*
X149000000Y-104000000D02*
X146200000Y-104000000D01*
X146200000Y-104000000D02*
X145400000Y-104800000D01*
X149622000Y-103378000D02*
X149000000Y-104000000D01*
%TO.N,Net-(C9-Pad2)*%
X159700000Y-103200000D02*
X159900000Y-103000000D01*
X158322000Y-104578000D02*
X159700000Y-103200000D01*
X159900000Y-103000000D02*
X159900000Y-102200000D01*
X157378000Y-104578000D02*
X158322000Y-104578000D01*
%TO.N,Net-(C10-Pad1)*%
X161000000Y-100967340D02*
X161225000Y-100742340D01*
X157378000Y-105778000D02*
X157757651Y-105778000D01*
X160800000Y-97800000D02*
X161000000Y-97600000D01*
X157757651Y-105778000D02*
X161000000Y-102535651D01*
X161225000Y-100742340D02*
X161225000Y-100575000D01*
X161000000Y-102535651D02*
X161000000Y-101200000D01*
X161000000Y-101200000D02*
X161000000Y-100967340D01*
X161000000Y-101200000D02*
X161000000Y-97600000D01*
%TO.N,Net-(C12-Pad1)*%
X152978000Y-102578000D02*
X152978000Y-101422000D01*
X153400000Y-100875000D02*
X153525000Y-101000000D01*
X153400000Y-101000000D02*
X153525000Y-101000000D01*
X153400000Y-99000000D02*
X153400000Y-100875000D01*
X152978000Y-101422000D02*
X153400000Y-101000000D01*
%TO.N,PROG_SWCLK*%
X157851946Y-107778000D02*
X159700000Y-105929946D01*
X159700000Y-105929946D02*
X159700000Y-105600000D01*
X157378000Y-107778000D02*
X157851946Y-107778000D01*
%TO.N,PROG_SWDIO*%
X157757651Y-107378000D02*
X158700000Y-106435651D01*
X158700000Y-106435651D02*
X158700000Y-105800000D01*
X157378000Y-107378000D02*
X157757651Y-107378000D01*
%TO.N,Net-(L1-Pad1)*%
X152578000Y-98378000D02*
X152200000Y-98000000D01*
X152578000Y-102578000D02*
X152578000Y-98378000D01*
X152200000Y-98000000D02*
X148800000Y-98000000D01*
X148800000Y-98000000D02*
X147025000Y-99775000D01*
X147025000Y-99775000D02*
X147025000Y-101100000D01*
%TO.N,Net-(L1-Pad2)*%
X151400000Y-101000000D02*
X149275000Y-101000000D01*
%TO.N,Net-(C5-Pad2)*%
X160200000Y-101000000D02*
X160200000Y-99600000D01*
X159100000Y-98500000D02*
X159100000Y-97150000D01*
X157378000Y-104178000D02*
X158222000Y-104178000D01*
X159200000Y-102000000D02*
X160200000Y-101000000D01*
X158222000Y-104178000D02*
X159200000Y-103200000D01*
X159100000Y-97150000D02*
X158750000Y-96800000D01*
X159200000Y-103200000D02*
X159200000Y-102000000D01*
X160200000Y-99600000D02*
X159100000Y-98500000D01*
D32*
%TO.N,Net-(R2-Pad1)*%
X144678000Y-95453788D02*
X150978000Y-95453788D01*
X150978000Y-94022000D02*
X151000000Y-94000000D01*
X150978000Y-95453788D02*
X150978000Y-94022000D01*
D31*
%TO.N,Net-(D1-PadA)*%
X156178000Y-102578000D02*
X156178000Y-102178000D01*
X156178000Y-102178000D02*
X155000000Y-101000000D01*
X152200000Y-91800000D02*
X140200000Y-91800000D01*
X155000000Y-96400000D02*
X153800000Y-95200000D01*
X155000000Y-101000000D02*
X155000000Y-96400000D01*
X153800000Y-93400000D02*
X152200000Y-91800000D01*
X153800000Y-95200000D02*
X153800000Y-93400000D01*
%TO.N,Net-(E1-Pad1)*%
X161000000Y-95475000D02*
X161000000Y-95400000D01*
%TO.N,Net-(R2-Pad2)*%
X154578000Y-96978000D02*
X152650000Y-95050000D01*
X154578000Y-97822000D02*
X154600000Y-97800000D01*
X154578000Y-97822000D02*
X154578000Y-96978000D01*
X152650000Y-95050000D02*
X152650000Y-94000000D01*
X154578000Y-102578000D02*
X154578000Y-97822000D01*
%TO.N,Net-(C3-Pad1)*%
X149997000Y-103778000D02*
X148800000Y-104975000D01*
X147150000Y-104975000D02*
X147000000Y-104825000D01*
X151378000Y-103778000D02*
X149997000Y-103778000D01*
X148800000Y-104975000D02*
X147150000Y-104975000D01*
%TO.N,Net-(C4-Pad1)*%
X150000000Y-104800000D02*
X150000000Y-106000000D01*
X151378000Y-104178000D02*
X150622000Y-104178000D01*
X149625000Y-106375000D02*
X148800000Y-106375000D01*
X148800000Y-106375000D02*
X148800000Y-107775000D01*
X150622000Y-104178000D02*
X150000000Y-104800000D01*
X150000000Y-106000000D02*
X149625000Y-106375000D01*
%TD*%
%TA.AperFunction,Conductor*%
%TO.N,GND*%
G36*
X147959033Y-82391026D02*
G01*
X148693712Y-82392308D01*
X148696900Y-82392354D01*
X148711832Y-82392758D01*
X148718198Y-82393092D01*
X148724519Y-82393584D01*
X148733070Y-82394249D01*
X148736212Y-82394533D01*
X150203578Y-82546170D01*
X150206740Y-82546538D01*
X150221551Y-82548449D01*
X150227840Y-82549422D01*
X150230624Y-82549925D01*
X150242632Y-82552097D01*
X150245653Y-82552683D01*
X151690169Y-82851828D01*
X151693195Y-82852494D01*
X151707808Y-82855908D01*
X151713961Y-82857511D01*
X151728367Y-82861655D01*
X151731420Y-82862576D01*
X153138217Y-83306137D01*
X153141165Y-83307107D01*
X153155402Y-83311996D01*
X153161359Y-83314212D01*
X153175283Y-83319796D01*
X153178223Y-83321018D01*
X153593839Y-83500010D01*
X153648492Y-83545325D01*
X153670000Y-83615734D01*
X153670000Y-91440000D01*
X153680827Y-91447218D01*
X153680828Y-91447219D01*
X157464477Y-93969652D01*
X157464479Y-93969653D01*
X157480000Y-93980000D01*
X159133905Y-93980000D01*
X159202026Y-94000002D01*
X159223000Y-94016905D01*
X160270495Y-95064400D01*
X160304521Y-95126712D01*
X160302951Y-95171995D01*
X160305621Y-95172347D01*
X160299500Y-95218841D01*
X160299501Y-95731158D01*
X160305621Y-95777653D01*
X160309693Y-95786385D01*
X160309694Y-95786389D01*
X160341870Y-95855390D01*
X160353201Y-95879689D01*
X160432811Y-95959299D01*
X160442803Y-95963958D01*
X160442804Y-95963959D01*
X160526109Y-96002805D01*
X160526112Y-96002806D01*
X160534847Y-96006879D01*
X160544403Y-96008137D01*
X160544406Y-96008138D01*
X160577239Y-96012460D01*
X160581341Y-96013000D01*
X160999847Y-96013000D01*
X161418658Y-96012999D01*
X161465153Y-96006879D01*
X161473885Y-96002807D01*
X161473889Y-96002806D01*
X161557196Y-95963959D01*
X161557197Y-95963958D01*
X161567189Y-95959299D01*
X161646799Y-95879689D01*
X161658130Y-95855390D01*
X161690305Y-95786391D01*
X161690306Y-95786388D01*
X161694379Y-95777653D01*
X161695637Y-95768097D01*
X161695638Y-95768094D01*
X161699962Y-95735246D01*
X161699962Y-95735245D01*
X161700500Y-95731159D01*
X161700499Y-95218842D01*
X161694379Y-95172347D01*
X161690307Y-95163615D01*
X161690306Y-95163611D01*
X161651459Y-95080304D01*
X161651458Y-95080303D01*
X161646799Y-95070311D01*
X161567189Y-94990701D01*
X161538425Y-94977288D01*
X161473891Y-94947195D01*
X161473888Y-94947194D01*
X161465153Y-94943121D01*
X161455597Y-94941863D01*
X161455594Y-94941862D01*
X161422746Y-94937538D01*
X161422745Y-94937538D01*
X161418659Y-94937000D01*
X161371976Y-94937000D01*
X160833096Y-94937001D01*
X160764975Y-94916999D01*
X160744001Y-94900096D01*
X160039000Y-94195095D01*
X160004974Y-94132783D01*
X160010039Y-94061968D01*
X160052586Y-94005132D01*
X160119106Y-93980321D01*
X160128095Y-93980000D01*
X162428927Y-93980000D01*
X162497048Y-94000002D01*
X162543541Y-94053658D01*
X162550914Y-94074452D01*
X162618289Y-94334971D01*
X162619043Y-94338050D01*
X162622421Y-94352622D01*
X162623699Y-94358847D01*
X162626342Y-94373610D01*
X162626856Y-94376711D01*
X162847692Y-95819876D01*
X162849981Y-95834835D01*
X162850424Y-95837998D01*
X162852310Y-95852828D01*
X162852954Y-95859170D01*
X162854088Y-95874082D01*
X162854290Y-95877261D01*
X162928920Y-97350470D01*
X162929041Y-97353646D01*
X162929455Y-97370028D01*
X162929494Y-97373592D01*
X162929370Y-97409024D01*
X162929140Y-97474694D01*
X162929075Y-97478316D01*
X162928549Y-97494619D01*
X162928407Y-97497788D01*
X162902547Y-97946288D01*
X162863720Y-98619658D01*
X162839830Y-98686515D01*
X162783587Y-98729842D01*
X162712848Y-98735883D01*
X162664136Y-98714536D01*
X162615278Y-98679235D01*
X162609901Y-98675753D01*
X162589659Y-98664066D01*
X162574224Y-98660321D01*
X162572484Y-98660924D01*
X162567196Y-98666740D01*
X162030970Y-99595511D01*
X161979588Y-99644504D01*
X161909874Y-99657940D01*
X161858851Y-99641630D01*
X161637149Y-99513630D01*
X161588156Y-99462247D01*
X161574720Y-99392534D01*
X161591030Y-99341511D01*
X162124972Y-98416697D01*
X162128717Y-98401262D01*
X162128114Y-98399522D01*
X162122298Y-98394235D01*
X162098146Y-98380291D01*
X162092333Y-98377324D01*
X162007786Y-98339546D01*
X161994740Y-98335355D01*
X161841202Y-98303977D01*
X161826716Y-98302735D01*
X161670501Y-98307507D01*
X161658680Y-98309253D01*
X161588368Y-98299417D01*
X161534536Y-98253128D01*
X161514275Y-98185084D01*
X161534018Y-98116888D01*
X161563630Y-98085959D01*
X161567189Y-98084299D01*
X161646799Y-98004689D01*
X161651459Y-97994696D01*
X161690305Y-97911391D01*
X161690306Y-97911388D01*
X161694379Y-97902653D01*
X161695637Y-97893097D01*
X161695638Y-97893094D01*
X161699962Y-97860246D01*
X161699962Y-97860245D01*
X161700500Y-97856159D01*
X161700499Y-97343842D01*
X161694379Y-97297347D01*
X161690307Y-97288615D01*
X161690306Y-97288611D01*
X161651459Y-97205304D01*
X161651458Y-97205303D01*
X161646799Y-97195311D01*
X161567189Y-97115701D01*
X161557196Y-97111041D01*
X161473891Y-97072195D01*
X161473888Y-97072194D01*
X161465153Y-97068121D01*
X161455597Y-97066863D01*
X161455594Y-97066862D01*
X161422746Y-97062538D01*
X161422745Y-97062538D01*
X161418659Y-97062000D01*
X161000153Y-97062000D01*
X160581342Y-97062001D01*
X160534847Y-97068121D01*
X160526115Y-97072193D01*
X160526111Y-97072194D01*
X160442804Y-97111041D01*
X160432811Y-97115701D01*
X160353201Y-97195311D01*
X160348542Y-97205303D01*
X160348541Y-97205304D01*
X160309695Y-97288609D01*
X160309694Y-97288612D01*
X160305621Y-97297347D01*
X160304363Y-97306903D01*
X160304362Y-97306906D01*
X160302540Y-97320747D01*
X160299500Y-97343841D01*
X160299501Y-97856158D01*
X160305621Y-97902653D01*
X160309693Y-97911385D01*
X160309694Y-97911389D01*
X160348541Y-97994696D01*
X160353201Y-98004689D01*
X160432811Y-98084299D01*
X160442803Y-98088958D01*
X160442804Y-98088959D01*
X160526109Y-98127805D01*
X160526112Y-98127806D01*
X160534847Y-98131879D01*
X160544403Y-98133137D01*
X160544406Y-98133138D01*
X160577254Y-98137462D01*
X160581341Y-98138000D01*
X160648500Y-98138000D01*
X160716621Y-98158002D01*
X160763114Y-98211658D01*
X160774500Y-98264000D01*
X160774500Y-100087735D01*
X160754498Y-100155856D01*
X160748472Y-100164426D01*
X160733172Y-100184365D01*
X160731112Y-100187933D01*
X160731110Y-100187936D01*
X160660619Y-100310031D01*
X160609237Y-100359024D01*
X160539523Y-100372460D01*
X160473612Y-100346074D01*
X160432430Y-100288242D01*
X160425500Y-100247031D01*
X160425500Y-99609208D01*
X160425673Y-99602614D01*
X160427007Y-99577163D01*
X160427007Y-99577162D01*
X160427700Y-99563936D01*
X160422954Y-99551574D01*
X160422954Y-99551571D01*
X160420436Y-99545012D01*
X160414820Y-99526053D01*
X160413361Y-99519187D01*
X160413360Y-99519185D01*
X160410607Y-99506232D01*
X160402822Y-99495517D01*
X160400797Y-99490969D01*
X160398091Y-99486802D01*
X160393346Y-99474441D01*
X160379017Y-99460112D01*
X160366176Y-99445078D01*
X160362043Y-99439389D01*
X160362042Y-99439388D01*
X160354260Y-99428677D01*
X160342794Y-99422057D01*
X160332949Y-99413193D01*
X160333267Y-99412840D01*
X160326728Y-99407823D01*
X159887405Y-98968500D01*
X159853379Y-98906188D01*
X159850500Y-98879405D01*
X159850499Y-97946295D01*
X159850499Y-97940102D01*
X159847732Y-97926190D01*
X159847089Y-97922955D01*
X159844669Y-97910787D01*
X159822457Y-97877543D01*
X159789213Y-97855331D01*
X159759899Y-97849500D01*
X159451500Y-97849500D01*
X159383379Y-97829498D01*
X159336886Y-97775842D01*
X159325500Y-97723500D01*
X159325500Y-97159208D01*
X159325673Y-97152614D01*
X159327007Y-97127163D01*
X159327007Y-97127162D01*
X159327700Y-97113936D01*
X159322954Y-97101574D01*
X159322954Y-97101571D01*
X159320436Y-97095012D01*
X159314820Y-97076053D01*
X159313360Y-97069185D01*
X159310607Y-97056232D01*
X159309154Y-97054233D01*
X159300500Y-97013519D01*
X159300499Y-96515987D01*
X159300499Y-96511862D01*
X159294259Y-96464455D01*
X159245747Y-96360421D01*
X159164579Y-96279253D01*
X159110967Y-96254253D01*
X159069282Y-96234815D01*
X159069281Y-96234815D01*
X159060545Y-96230741D01*
X159013139Y-96224500D01*
X158750096Y-96224500D01*
X158486862Y-96224501D01*
X158439455Y-96230741D01*
X158430721Y-96234814D01*
X158430720Y-96234814D01*
X158383391Y-96256884D01*
X158335421Y-96279253D01*
X158308572Y-96306102D01*
X158246260Y-96340128D01*
X158175445Y-96335063D01*
X158118609Y-96292516D01*
X158099954Y-96256884D01*
X158095622Y-96243898D01*
X158089445Y-96230714D01*
X158007212Y-96097827D01*
X157998176Y-96086426D01*
X157887571Y-95976014D01*
X157876160Y-95967002D01*
X157743120Y-95884996D01*
X157729939Y-95878849D01*
X157581186Y-95829509D01*
X157567810Y-95826642D01*
X157476903Y-95817328D01*
X157471874Y-95817071D01*
X157456876Y-95821475D01*
X157455671Y-95822865D01*
X157454000Y-95830548D01*
X157454000Y-96928000D01*
X157433998Y-96996121D01*
X157380342Y-97042614D01*
X157328000Y-97054000D01*
X157072000Y-97054000D01*
X157003879Y-97033998D01*
X156957386Y-96980342D01*
X156946000Y-96928000D01*
X156946000Y-95835115D01*
X156941525Y-95819876D01*
X156940135Y-95818671D01*
X156932452Y-95817000D01*
X156929562Y-95817000D01*
X156923045Y-95817337D01*
X156877933Y-95822018D01*
X156808112Y-95809153D01*
X156756329Y-95760582D01*
X156739027Y-95691727D01*
X156745336Y-95657023D01*
X156770491Y-95581186D01*
X156773358Y-95567810D01*
X156782672Y-95476903D01*
X156782929Y-95471874D01*
X156778525Y-95456876D01*
X156777135Y-95455671D01*
X156769452Y-95454000D01*
X154835115Y-95454000D01*
X154819876Y-95458475D01*
X154818671Y-95459865D01*
X154817000Y-95467548D01*
X154817000Y-95470438D01*
X154817337Y-95476953D01*
X154826895Y-95569061D01*
X154829919Y-95583064D01*
X154824749Y-95653872D01*
X154782118Y-95710645D01*
X154715560Y-95735356D01*
X154646209Y-95720161D01*
X154617664Y-95698759D01*
X154062405Y-95143500D01*
X154028379Y-95081188D01*
X154025500Y-95054405D01*
X154025500Y-94928126D01*
X154817071Y-94928126D01*
X154821475Y-94943124D01*
X154822865Y-94944329D01*
X154830548Y-94946000D01*
X155527885Y-94946000D01*
X155543124Y-94941525D01*
X155544329Y-94940135D01*
X155546000Y-94932452D01*
X155546000Y-94927885D01*
X156054000Y-94927885D01*
X156058475Y-94943124D01*
X156059865Y-94944329D01*
X156067548Y-94946000D01*
X156764885Y-94946000D01*
X156780124Y-94941525D01*
X156781329Y-94940135D01*
X156783000Y-94932452D01*
X156783000Y-94929562D01*
X156782663Y-94923047D01*
X156773106Y-94830943D01*
X156770212Y-94817544D01*
X156720619Y-94668893D01*
X156714445Y-94655714D01*
X156632212Y-94522827D01*
X156623176Y-94511426D01*
X156512571Y-94401014D01*
X156501160Y-94392002D01*
X156368120Y-94309996D01*
X156354939Y-94303849D01*
X156206186Y-94254509D01*
X156192810Y-94251642D01*
X156101903Y-94242328D01*
X156095486Y-94242000D01*
X156072115Y-94242000D01*
X156056876Y-94246475D01*
X156055671Y-94247865D01*
X156054000Y-94255548D01*
X156054000Y-94927885D01*
X155546000Y-94927885D01*
X155546000Y-94260115D01*
X155541525Y-94244876D01*
X155540135Y-94243671D01*
X155532452Y-94242000D01*
X155504562Y-94242000D01*
X155498047Y-94242337D01*
X155405943Y-94251894D01*
X155392544Y-94254788D01*
X155243893Y-94304381D01*
X155230714Y-94310555D01*
X155097827Y-94392788D01*
X155086426Y-94401824D01*
X154976014Y-94512429D01*
X154967002Y-94523840D01*
X154884996Y-94656880D01*
X154878849Y-94670061D01*
X154829509Y-94818814D01*
X154826642Y-94832190D01*
X154817328Y-94923097D01*
X154817071Y-94928126D01*
X154025500Y-94928126D01*
X154025500Y-93409208D01*
X154025673Y-93402614D01*
X154027007Y-93377163D01*
X154027007Y-93377162D01*
X154027700Y-93363936D01*
X154022954Y-93351574D01*
X154022954Y-93351571D01*
X154020436Y-93345012D01*
X154014820Y-93326053D01*
X154013361Y-93319187D01*
X154013360Y-93319185D01*
X154010607Y-93306232D01*
X154002822Y-93295517D01*
X154000797Y-93290969D01*
X153998091Y-93286802D01*
X153993346Y-93274441D01*
X153979017Y-93260112D01*
X153966176Y-93245078D01*
X153962043Y-93239389D01*
X153962042Y-93239388D01*
X153954260Y-93228677D01*
X153942794Y-93222057D01*
X153932949Y-93213193D01*
X153933267Y-93212840D01*
X153926728Y-93207823D01*
X152365977Y-91647072D01*
X152361436Y-91642288D01*
X152335507Y-91613491D01*
X152316985Y-91605245D01*
X152299622Y-91595817D01*
X152282618Y-91584774D01*
X152269537Y-91582702D01*
X152264894Y-91580920D01*
X152260028Y-91579886D01*
X152247932Y-91574500D01*
X152227666Y-91574500D01*
X152207957Y-91572949D01*
X152187935Y-91569778D01*
X152175146Y-91573205D01*
X152161918Y-91573898D01*
X152161893Y-91573424D01*
X152153723Y-91574500D01*
X141176499Y-91574500D01*
X141108378Y-91554498D01*
X141061885Y-91500842D01*
X141050499Y-91448500D01*
X141050499Y-90995102D01*
X141047575Y-90980400D01*
X141047089Y-90977955D01*
X141044669Y-90965787D01*
X141022457Y-90932543D01*
X140989213Y-90910331D01*
X140959899Y-90904500D01*
X140200369Y-90904500D01*
X139440102Y-90904501D01*
X139410787Y-90910331D01*
X139400492Y-90917210D01*
X139329919Y-90924794D01*
X139267496Y-90893990D01*
X139168260Y-90803692D01*
X139168254Y-90803687D01*
X139164107Y-90799914D01*
X138975010Y-90681293D01*
X138767895Y-90598034D01*
X138762407Y-90596897D01*
X138762402Y-90596896D01*
X138597845Y-90562818D01*
X138549310Y-90552767D01*
X138544697Y-90552501D01*
X138494474Y-90549605D01*
X138494470Y-90549605D01*
X138492651Y-90549500D01*
X138348370Y-90549500D01*
X138345583Y-90549749D01*
X138345577Y-90549749D01*
X138276003Y-90555959D01*
X138182661Y-90564289D01*
X138177247Y-90565770D01*
X138177242Y-90565771D01*
X138063470Y-90596896D01*
X137967349Y-90623192D01*
X137962291Y-90625604D01*
X137962287Y-90625606D01*
X137866610Y-90671242D01*
X137765871Y-90719292D01*
X137761318Y-90722564D01*
X137633624Y-90814321D01*
X137566632Y-90837828D01*
X137497566Y-90821386D01*
X137448353Y-90770214D01*
X137434618Y-90700558D01*
X137460723Y-90634535D01*
X137471003Y-90622903D01*
X138581501Y-89512405D01*
X138643813Y-89478379D01*
X138670596Y-89475500D01*
X139119646Y-89475500D01*
X139123350Y-89475059D01*
X139123353Y-89475059D01*
X139130746Y-89474179D01*
X139145846Y-89472382D01*
X139248153Y-89426939D01*
X139277142Y-89397900D01*
X139319023Y-89355945D01*
X139327241Y-89347713D01*
X139343315Y-89311356D01*
X139351529Y-89292775D01*
X139372506Y-89245327D01*
X139373328Y-89238280D01*
X139409879Y-89178896D01*
X139473874Y-89148153D01*
X139544331Y-89156888D01*
X139598881Y-89202329D01*
X139619699Y-89260969D01*
X139623130Y-89298306D01*
X139625743Y-89311351D01*
X139672715Y-89461243D01*
X139678921Y-89474988D01*
X139759824Y-89608574D01*
X139769131Y-89620443D01*
X139879557Y-89730869D01*
X139891426Y-89740176D01*
X140025012Y-89821079D01*
X140038757Y-89827285D01*
X140188644Y-89874256D01*
X140201694Y-89876869D01*
X140256586Y-89881913D01*
X140268124Y-89878525D01*
X140269329Y-89877135D01*
X140271000Y-89869452D01*
X140271000Y-89864884D01*
X140779000Y-89864884D01*
X140783475Y-89880123D01*
X140784865Y-89881328D01*
X140789294Y-89882291D01*
X140848315Y-89876868D01*
X140861351Y-89874257D01*
X141011243Y-89827285D01*
X141024988Y-89821079D01*
X141158574Y-89740176D01*
X141170443Y-89730869D01*
X141280869Y-89620443D01*
X141290176Y-89608574D01*
X141371079Y-89474988D01*
X141377285Y-89461243D01*
X141424256Y-89311356D01*
X141426869Y-89298306D01*
X141432734Y-89234479D01*
X141433000Y-89228691D01*
X141433000Y-89172115D01*
X141428525Y-89156876D01*
X141427135Y-89155671D01*
X141419452Y-89154000D01*
X140797115Y-89154000D01*
X140781876Y-89158475D01*
X140780671Y-89159865D01*
X140779000Y-89167548D01*
X140779000Y-89864884D01*
X140271000Y-89864884D01*
X140271000Y-89000000D01*
X144944723Y-89000000D01*
X144963793Y-89217977D01*
X145020425Y-89429330D01*
X145022747Y-89434310D01*
X145022748Y-89434312D01*
X145059164Y-89512405D01*
X145112898Y-89627638D01*
X145238402Y-89806877D01*
X145393123Y-89961598D01*
X145397631Y-89964755D01*
X145397634Y-89964757D01*
X145567852Y-90083945D01*
X145572361Y-90087102D01*
X145577343Y-90089425D01*
X145577348Y-90089428D01*
X145765688Y-90177252D01*
X145770670Y-90179575D01*
X145775978Y-90180997D01*
X145775980Y-90180998D01*
X145841745Y-90198620D01*
X145982023Y-90236207D01*
X146200000Y-90255277D01*
X146417977Y-90236207D01*
X146558255Y-90198620D01*
X146624020Y-90180998D01*
X146624022Y-90180997D01*
X146629330Y-90179575D01*
X146634312Y-90177252D01*
X146822652Y-90089428D01*
X146822657Y-90089425D01*
X146827639Y-90087102D01*
X146832148Y-90083945D01*
X147002366Y-89964757D01*
X147002369Y-89964755D01*
X147006877Y-89961598D01*
X147161598Y-89806877D01*
X147287102Y-89627638D01*
X147340837Y-89512405D01*
X147377252Y-89434312D01*
X147377253Y-89434310D01*
X147379575Y-89429330D01*
X147436207Y-89217977D01*
X147455277Y-89000000D01*
X148044723Y-89000000D01*
X148063793Y-89217977D01*
X148120425Y-89429330D01*
X148122747Y-89434310D01*
X148122748Y-89434312D01*
X148159164Y-89512405D01*
X148212898Y-89627638D01*
X148338402Y-89806877D01*
X148493123Y-89961598D01*
X148497631Y-89964755D01*
X148497634Y-89964757D01*
X148667852Y-90083945D01*
X148672361Y-90087102D01*
X148677343Y-90089425D01*
X148677348Y-90089428D01*
X148865688Y-90177252D01*
X148870670Y-90179575D01*
X148875978Y-90180997D01*
X148875980Y-90180998D01*
X148941745Y-90198620D01*
X149082023Y-90236207D01*
X149300000Y-90255277D01*
X149517977Y-90236207D01*
X149658255Y-90198620D01*
X149724020Y-90180998D01*
X149724022Y-90180997D01*
X149729330Y-90179575D01*
X149734312Y-90177252D01*
X149922652Y-90089428D01*
X149922657Y-90089425D01*
X149927639Y-90087102D01*
X149932148Y-90083945D01*
X150102366Y-89964757D01*
X150102369Y-89964755D01*
X150106877Y-89961598D01*
X150261598Y-89806877D01*
X150387102Y-89627638D01*
X150440837Y-89512405D01*
X150477252Y-89434312D01*
X150477253Y-89434310D01*
X150479575Y-89429330D01*
X150536207Y-89217977D01*
X150555277Y-89000000D01*
X150536207Y-88782023D01*
X150498188Y-88640135D01*
X150480998Y-88575980D01*
X150480997Y-88575978D01*
X150479575Y-88570670D01*
X150474970Y-88560794D01*
X150389425Y-88377343D01*
X150389423Y-88377340D01*
X150387102Y-88372362D01*
X150261598Y-88193123D01*
X150106877Y-88038402D01*
X150102369Y-88035245D01*
X150102366Y-88035243D01*
X149932148Y-87916055D01*
X149932145Y-87916053D01*
X149927639Y-87912898D01*
X149922657Y-87910575D01*
X149922652Y-87910572D01*
X149734312Y-87822748D01*
X149734311Y-87822747D01*
X149729330Y-87820425D01*
X149724022Y-87819003D01*
X149724020Y-87819002D01*
X149658255Y-87801380D01*
X149517977Y-87763793D01*
X149300000Y-87744723D01*
X149082023Y-87763793D01*
X148941745Y-87801380D01*
X148875980Y-87819002D01*
X148875978Y-87819003D01*
X148870670Y-87820425D01*
X148865690Y-87822747D01*
X148865688Y-87822748D01*
X148677343Y-87910575D01*
X148677340Y-87910577D01*
X148672362Y-87912898D01*
X148493123Y-88038402D01*
X148338402Y-88193123D01*
X148212898Y-88372362D01*
X148210577Y-88377340D01*
X148210575Y-88377343D01*
X148125030Y-88560794D01*
X148120425Y-88570670D01*
X148119003Y-88575978D01*
X148119002Y-88575980D01*
X148101812Y-88640135D01*
X148063793Y-88782023D01*
X148044723Y-89000000D01*
X147455277Y-89000000D01*
X147436207Y-88782023D01*
X147398188Y-88640135D01*
X147380998Y-88575980D01*
X147380997Y-88575978D01*
X147379575Y-88570670D01*
X147374970Y-88560794D01*
X147289425Y-88377343D01*
X147289423Y-88377340D01*
X147287102Y-88372362D01*
X147161598Y-88193123D01*
X147006877Y-88038402D01*
X147002369Y-88035245D01*
X147002366Y-88035243D01*
X146832148Y-87916055D01*
X146832145Y-87916053D01*
X146827639Y-87912898D01*
X146822657Y-87910575D01*
X146822652Y-87910572D01*
X146634312Y-87822748D01*
X146634311Y-87822747D01*
X146629330Y-87820425D01*
X146624022Y-87819003D01*
X146624020Y-87819002D01*
X146558255Y-87801380D01*
X146417977Y-87763793D01*
X146200000Y-87744723D01*
X145982023Y-87763793D01*
X145841745Y-87801380D01*
X145775980Y-87819002D01*
X145775978Y-87819003D01*
X145770670Y-87820425D01*
X145765690Y-87822747D01*
X145765688Y-87822748D01*
X145577343Y-87910575D01*
X145577340Y-87910577D01*
X145572362Y-87912898D01*
X145393123Y-88038402D01*
X145238402Y-88193123D01*
X145112898Y-88372362D01*
X145110577Y-88377340D01*
X145110575Y-88377343D01*
X145025030Y-88560794D01*
X145020425Y-88570670D01*
X145019003Y-88575978D01*
X145019002Y-88575980D01*
X145001812Y-88640135D01*
X144963793Y-88782023D01*
X144944723Y-89000000D01*
X140271000Y-89000000D01*
X140271000Y-88627885D01*
X140779000Y-88627885D01*
X140783475Y-88643124D01*
X140784865Y-88644329D01*
X140792548Y-88646000D01*
X141414884Y-88646000D01*
X141430123Y-88641525D01*
X141431328Y-88640135D01*
X141432999Y-88632452D01*
X141432999Y-88571295D01*
X141432736Y-88565546D01*
X141426868Y-88501685D01*
X141424257Y-88488649D01*
X141377285Y-88338757D01*
X141371079Y-88325012D01*
X141290176Y-88191426D01*
X141280869Y-88179557D01*
X141170443Y-88069131D01*
X141158574Y-88059824D01*
X141024988Y-87978921D01*
X141011243Y-87972715D01*
X140861356Y-87925744D01*
X140848306Y-87923131D01*
X140793414Y-87918087D01*
X140781876Y-87921475D01*
X140780671Y-87922865D01*
X140779000Y-87930548D01*
X140779000Y-88627885D01*
X140271000Y-88627885D01*
X140271000Y-87935116D01*
X140266525Y-87919877D01*
X140265135Y-87918672D01*
X140260706Y-87917709D01*
X140201685Y-87923132D01*
X140188649Y-87925743D01*
X140038757Y-87972715D01*
X140025012Y-87978921D01*
X139891426Y-88059824D01*
X139879557Y-88069131D01*
X139769131Y-88179557D01*
X139759824Y-88191426D01*
X139678921Y-88325012D01*
X139672715Y-88338757D01*
X139625744Y-88488644D01*
X139623131Y-88501694D01*
X139619709Y-88538930D01*
X139593558Y-88604934D01*
X139535873Y-88646322D01*
X139464969Y-88649953D01*
X139403358Y-88614675D01*
X139373286Y-88561747D01*
X139372382Y-88554154D01*
X139326939Y-88451847D01*
X139247713Y-88372759D01*
X139237076Y-88368056D01*
X139237074Y-88368055D01*
X139170803Y-88338757D01*
X139145327Y-88327494D01*
X139119646Y-88324500D01*
X138630354Y-88324500D01*
X138626650Y-88324941D01*
X138626647Y-88324941D01*
X138619254Y-88325821D01*
X138604154Y-88327618D01*
X138501847Y-88373061D01*
X138422759Y-88452287D01*
X138418056Y-88462924D01*
X138418055Y-88462926D01*
X138406683Y-88488649D01*
X138377494Y-88554673D01*
X138374500Y-88580354D01*
X138374500Y-89029405D01*
X138354498Y-89097526D01*
X138337595Y-89118500D01*
X136588499Y-90867596D01*
X136526187Y-90901622D01*
X136499404Y-90904501D01*
X135850102Y-90904501D01*
X135836190Y-90907268D01*
X135832961Y-90907910D01*
X135820787Y-90910331D01*
X135787543Y-90932543D01*
X135765331Y-90965787D01*
X135759500Y-90995101D01*
X135759501Y-92604898D01*
X135760709Y-92610971D01*
X135762911Y-92622042D01*
X135765331Y-92634213D01*
X135787543Y-92667457D01*
X135820787Y-92689669D01*
X135850101Y-92695500D01*
X136609631Y-92695500D01*
X137369898Y-92695499D01*
X137399213Y-92689669D01*
X137409508Y-92682790D01*
X137480081Y-92675206D01*
X137542504Y-92706010D01*
X137641740Y-92796308D01*
X137641746Y-92796313D01*
X137645893Y-92800086D01*
X137834990Y-92918707D01*
X138042105Y-93001966D01*
X138047593Y-93003103D01*
X138047598Y-93003104D01*
X138197896Y-93034229D01*
X138260690Y-93047233D01*
X138265303Y-93047499D01*
X138315526Y-93050395D01*
X138315530Y-93050395D01*
X138317349Y-93050500D01*
X138461630Y-93050500D01*
X138464417Y-93050251D01*
X138464423Y-93050251D01*
X138533997Y-93044041D01*
X138627339Y-93035711D01*
X138632753Y-93034230D01*
X138632758Y-93034229D01*
X138760104Y-92999390D01*
X138842651Y-92976808D01*
X138847709Y-92974396D01*
X138847713Y-92974394D01*
X138964462Y-92918707D01*
X139044129Y-92880708D01*
X139152177Y-92803068D01*
X139220848Y-92753723D01*
X139220851Y-92753720D01*
X139225405Y-92750448D01*
X139262754Y-92711907D01*
X139324525Y-92676908D01*
X139401028Y-92683148D01*
X139410787Y-92689669D01*
X139422956Y-92692090D01*
X139422957Y-92692090D01*
X139428792Y-92693251D01*
X139440101Y-92695500D01*
X140199631Y-92695500D01*
X140959898Y-92695499D01*
X140973810Y-92692732D01*
X140977045Y-92692089D01*
X140989213Y-92689669D01*
X141022457Y-92667457D01*
X141044669Y-92634213D01*
X141050500Y-92604899D01*
X141050500Y-92151500D01*
X141070502Y-92083379D01*
X141124158Y-92036886D01*
X141176500Y-92025500D01*
X152054404Y-92025500D01*
X152122525Y-92045502D01*
X152143499Y-92062405D01*
X153537595Y-93456501D01*
X153571621Y-93518813D01*
X153574500Y-93545596D01*
X153574500Y-95190792D01*
X153574327Y-95197386D01*
X153573073Y-95221323D01*
X153572300Y-95236064D01*
X153577047Y-95248430D01*
X153579563Y-95254985D01*
X153585179Y-95273941D01*
X153589393Y-95293768D01*
X153597176Y-95304481D01*
X153599201Y-95309029D01*
X153601908Y-95313198D01*
X153606654Y-95325560D01*
X153620986Y-95339892D01*
X153633827Y-95354927D01*
X153637955Y-95360609D01*
X153637957Y-95360611D01*
X153645740Y-95371323D01*
X153657207Y-95377944D01*
X153667050Y-95386806D01*
X153666732Y-95387159D01*
X153673269Y-95392175D01*
X154211383Y-95930288D01*
X154737595Y-96456500D01*
X154771620Y-96518812D01*
X154774500Y-96545595D01*
X154774500Y-96551405D01*
X154754498Y-96619526D01*
X154700842Y-96666019D01*
X154630568Y-96676123D01*
X154565988Y-96646629D01*
X154559405Y-96640500D01*
X152912405Y-94993500D01*
X152878379Y-94931188D01*
X152875500Y-94904405D01*
X152875500Y-94674427D01*
X152895502Y-94606306D01*
X152950352Y-94559276D01*
X153012518Y-94531663D01*
X153023153Y-94526939D01*
X153102241Y-94447713D01*
X153126524Y-94392788D01*
X153142911Y-94355720D01*
X153147506Y-94345327D01*
X153150500Y-94319646D01*
X153150500Y-93680354D01*
X153147382Y-93654154D01*
X153107351Y-93564030D01*
X153106663Y-93562482D01*
X153101939Y-93551847D01*
X153022713Y-93472759D01*
X153012076Y-93468056D01*
X153012074Y-93468055D01*
X152952538Y-93441735D01*
X152920327Y-93427494D01*
X152894646Y-93424500D01*
X152405354Y-93424500D01*
X152401650Y-93424941D01*
X152401647Y-93424941D01*
X152394254Y-93425821D01*
X152379154Y-93427618D01*
X152276847Y-93473061D01*
X152197759Y-93552287D01*
X152152494Y-93654673D01*
X152149500Y-93680354D01*
X152149500Y-94319646D01*
X152152618Y-94345846D01*
X152198061Y-94448153D01*
X152277287Y-94527241D01*
X152349450Y-94559144D01*
X152403663Y-94604981D01*
X152424500Y-94674383D01*
X152424500Y-95040792D01*
X152424327Y-95047386D01*
X152423126Y-95070311D01*
X152422300Y-95086064D01*
X152427047Y-95098430D01*
X152429563Y-95104985D01*
X152435179Y-95123941D01*
X152439393Y-95143768D01*
X152447176Y-95154481D01*
X152449201Y-95159029D01*
X152451908Y-95163198D01*
X152456654Y-95175560D01*
X152470986Y-95189892D01*
X152483827Y-95204927D01*
X152487955Y-95210609D01*
X152487957Y-95210611D01*
X152495740Y-95221323D01*
X152507207Y-95227944D01*
X152517050Y-95236806D01*
X152516732Y-95237159D01*
X152523269Y-95242175D01*
X153629955Y-96348861D01*
X153663981Y-96411173D01*
X153660066Y-96465910D01*
X153662507Y-96466441D01*
X153654000Y-96505548D01*
X153654000Y-97578000D01*
X153633998Y-97646121D01*
X153580342Y-97692614D01*
X153528000Y-97704000D01*
X152435115Y-97704000D01*
X152419876Y-97708475D01*
X152398178Y-97733516D01*
X152389665Y-97749106D01*
X152327353Y-97783131D01*
X152273695Y-97779294D01*
X152272984Y-97782640D01*
X152260029Y-97779886D01*
X152247932Y-97774500D01*
X152227666Y-97774500D01*
X152207957Y-97772949D01*
X152187935Y-97769778D01*
X152175146Y-97773205D01*
X152161918Y-97773898D01*
X152161893Y-97773424D01*
X152153723Y-97774500D01*
X148809208Y-97774500D01*
X148802614Y-97774327D01*
X148777164Y-97772993D01*
X148777163Y-97772993D01*
X148763936Y-97772300D01*
X148751569Y-97777047D01*
X148751570Y-97777047D01*
X148745015Y-97779563D01*
X148726059Y-97785179D01*
X148706232Y-97789393D01*
X148695519Y-97797176D01*
X148690971Y-97799201D01*
X148686802Y-97801908D01*
X148674440Y-97806654D01*
X148660108Y-97820986D01*
X148645073Y-97833827D01*
X148639391Y-97837955D01*
X148639389Y-97837957D01*
X148628677Y-97845740D01*
X148622056Y-97857207D01*
X148613194Y-97867050D01*
X148612841Y-97866732D01*
X148607825Y-97873269D01*
X146872072Y-99609023D01*
X146867288Y-99613564D01*
X146838491Y-99639493D01*
X146830245Y-99658015D01*
X146820817Y-99675378D01*
X146809774Y-99692382D01*
X146807702Y-99705463D01*
X146805920Y-99710106D01*
X146804886Y-99714972D01*
X146799500Y-99727068D01*
X146799500Y-99747334D01*
X146797949Y-99767043D01*
X146794778Y-99787065D01*
X146798205Y-99799854D01*
X146798898Y-99813082D01*
X146798424Y-99813107D01*
X146799500Y-99821277D01*
X146799500Y-100290143D01*
X146779498Y-100358264D01*
X146725842Y-100404757D01*
X146724160Y-100405382D01*
X146722347Y-100405621D01*
X146717743Y-100407768D01*
X146717740Y-100407769D01*
X146632412Y-100447558D01*
X146620311Y-100453201D01*
X146540701Y-100532811D01*
X146536042Y-100542803D01*
X146536041Y-100542804D01*
X146497195Y-100626109D01*
X146497194Y-100626112D01*
X146493121Y-100634847D01*
X146491863Y-100644403D01*
X146491862Y-100644406D01*
X146487539Y-100677249D01*
X146487000Y-100681341D01*
X146487001Y-101518658D01*
X146493121Y-101565153D01*
X146497193Y-101573885D01*
X146497194Y-101573889D01*
X146531193Y-101646799D01*
X146540701Y-101667189D01*
X146620311Y-101746799D01*
X146624118Y-101748574D01*
X146665819Y-101800748D01*
X146673126Y-101871367D01*
X146641093Y-101934727D01*
X146579890Y-101970710D01*
X146549218Y-101974500D01*
X145509208Y-101974500D01*
X145502614Y-101974327D01*
X145477163Y-101972993D01*
X145477162Y-101972993D01*
X145463936Y-101972300D01*
X145451574Y-101977046D01*
X145451571Y-101977046D01*
X145445012Y-101979564D01*
X145426053Y-101985180D01*
X145419187Y-101986639D01*
X145419185Y-101986640D01*
X145406232Y-101989393D01*
X145395517Y-101997178D01*
X145390969Y-101999203D01*
X145386802Y-102001909D01*
X145374441Y-102006654D01*
X145360112Y-102020983D01*
X145345078Y-102033824D01*
X145339501Y-102037876D01*
X145328677Y-102045740D01*
X145322057Y-102057206D01*
X145313193Y-102067051D01*
X145312840Y-102066733D01*
X145307823Y-102073272D01*
X143447072Y-103934023D01*
X143442288Y-103938564D01*
X143413491Y-103964493D01*
X143405245Y-103983015D01*
X143395817Y-104000378D01*
X143384774Y-104017382D01*
X143382702Y-104030463D01*
X143380920Y-104035106D01*
X143379886Y-104039972D01*
X143374500Y-104052068D01*
X143374500Y-104072334D01*
X143372949Y-104092043D01*
X143369778Y-104112065D01*
X143373205Y-104124854D01*
X143373898Y-104138082D01*
X143373424Y-104138107D01*
X143374500Y-104146277D01*
X143374500Y-107780950D01*
X143354498Y-107849071D01*
X143315735Y-107887512D01*
X143272280Y-107914930D01*
X143177377Y-108022388D01*
X143116447Y-108152163D01*
X143111701Y-108182647D01*
X143098258Y-108268987D01*
X143094391Y-108293823D01*
X143095555Y-108302725D01*
X143095555Y-108302728D01*
X143100837Y-108343120D01*
X143112980Y-108435979D01*
X143116597Y-108444199D01*
X143160829Y-108544723D01*
X143170720Y-108567203D01*
X143176497Y-108574076D01*
X143176498Y-108574077D01*
X143217410Y-108622748D01*
X143262970Y-108676948D01*
X143270447Y-108681925D01*
X143365521Y-108745212D01*
X143382313Y-108756390D01*
X143519157Y-108799142D01*
X143528129Y-108799306D01*
X143528132Y-108799307D01*
X143593463Y-108800504D01*
X143662499Y-108801770D01*
X143671533Y-108799307D01*
X143792158Y-108766421D01*
X143792160Y-108766420D01*
X143800817Y-108764060D01*
X143922991Y-108689045D01*
X144019200Y-108582754D01*
X144065316Y-108487571D01*
X144077795Y-108461814D01*
X144077795Y-108461813D01*
X144081710Y-108453733D01*
X144105496Y-108312354D01*
X144105647Y-108300000D01*
X144091633Y-108202143D01*
X144086596Y-108166968D01*
X144086595Y-108166965D01*
X144085323Y-108158082D01*
X144025984Y-108027572D01*
X144005242Y-108003500D01*
X143938260Y-107925763D01*
X143938257Y-107925760D01*
X143932400Y-107918963D01*
X143882966Y-107886921D01*
X143836684Y-107833088D01*
X143825500Y-107781191D01*
X143825500Y-106620438D01*
X144417000Y-106620438D01*
X144417337Y-106626953D01*
X144426894Y-106719057D01*
X144429788Y-106732456D01*
X144479381Y-106881107D01*
X144485555Y-106894286D01*
X144567788Y-107027173D01*
X144576824Y-107038574D01*
X144687429Y-107148986D01*
X144698840Y-107157998D01*
X144831880Y-107240004D01*
X144845061Y-107246151D01*
X144993814Y-107295491D01*
X145007190Y-107298358D01*
X145098097Y-107307672D01*
X145104513Y-107308000D01*
X145127885Y-107308000D01*
X145143124Y-107303525D01*
X145144329Y-107302135D01*
X145146000Y-107294452D01*
X145146000Y-107289885D01*
X145654000Y-107289885D01*
X145658475Y-107305124D01*
X145659865Y-107306329D01*
X145667548Y-107308000D01*
X145695438Y-107308000D01*
X145701953Y-107307663D01*
X145794057Y-107298106D01*
X145807456Y-107295212D01*
X145956107Y-107245619D01*
X145969286Y-107239445D01*
X146102174Y-107157211D01*
X146108170Y-107152459D01*
X146173980Y-107125821D01*
X146243744Y-107138991D01*
X146275452Y-107162031D01*
X146292608Y-107179157D01*
X146290553Y-107181216D01*
X146323939Y-107228324D01*
X146327158Y-107299248D01*
X146324370Y-107308934D01*
X146304510Y-107368811D01*
X146301642Y-107382190D01*
X146292328Y-107473097D01*
X146292000Y-107479514D01*
X146292000Y-107502885D01*
X146296475Y-107518124D01*
X146297865Y-107519329D01*
X146305548Y-107521000D01*
X146977885Y-107521000D01*
X146993124Y-107516525D01*
X146994329Y-107515135D01*
X146996000Y-107507452D01*
X146996000Y-107391115D01*
X146991525Y-107375876D01*
X146990135Y-107374671D01*
X146982452Y-107373000D01*
X146872000Y-107373000D01*
X146803879Y-107352998D01*
X146757386Y-107299342D01*
X146746000Y-107247000D01*
X146746000Y-106647115D01*
X146741525Y-106631876D01*
X146740135Y-106630671D01*
X146732452Y-106629000D01*
X146045053Y-106629000D01*
X145976932Y-106608998D01*
X145973043Y-106606086D01*
X145963452Y-106604000D01*
X145672115Y-106604000D01*
X145656876Y-106608475D01*
X145655671Y-106609865D01*
X145654000Y-106617548D01*
X145654000Y-107289885D01*
X145146000Y-107289885D01*
X145146000Y-106622115D01*
X145141525Y-106606876D01*
X145140135Y-106605671D01*
X145132452Y-106604000D01*
X144435115Y-106604000D01*
X144419876Y-106608475D01*
X144418671Y-106609865D01*
X144417000Y-106617548D01*
X144417000Y-106620438D01*
X143825500Y-106620438D01*
X143825500Y-104245596D01*
X143845502Y-104177475D01*
X143862405Y-104156501D01*
X145556501Y-102462405D01*
X145618813Y-102428379D01*
X145645596Y-102425500D01*
X145918963Y-102425500D01*
X145987084Y-102445502D01*
X146033577Y-102499158D01*
X146043681Y-102569432D01*
X146038556Y-102591168D01*
X146004509Y-102693814D01*
X146001642Y-102707190D01*
X145992328Y-102798097D01*
X145992000Y-102804514D01*
X145992000Y-102827885D01*
X145996475Y-102843124D01*
X145997865Y-102844329D01*
X146005548Y-102846000D01*
X147078000Y-102846000D01*
X147146121Y-102866002D01*
X147192614Y-102919658D01*
X147204000Y-102972000D01*
X147204000Y-103228000D01*
X147183998Y-103296121D01*
X147130342Y-103342614D01*
X147078000Y-103354000D01*
X146010115Y-103354000D01*
X145994876Y-103358475D01*
X145993671Y-103359865D01*
X145992000Y-103367548D01*
X145992000Y-103395438D01*
X145992337Y-103401953D01*
X146001894Y-103494057D01*
X146004788Y-103507456D01*
X146054381Y-103656107D01*
X146060554Y-103669285D01*
X146064434Y-103675554D01*
X146083274Y-103744005D01*
X146062115Y-103811776D01*
X146047269Y-103827229D01*
X146048252Y-103828114D01*
X146039389Y-103837957D01*
X146028677Y-103845740D01*
X146022057Y-103857207D01*
X146013193Y-103867051D01*
X146012840Y-103866733D01*
X146007823Y-103873272D01*
X145668500Y-104212595D01*
X145606188Y-104246621D01*
X145579405Y-104249500D01*
X145149932Y-104249501D01*
X145111862Y-104249501D01*
X145064455Y-104255741D01*
X145055721Y-104259814D01*
X145055720Y-104259814D01*
X144971347Y-104299158D01*
X144960421Y-104304253D01*
X144879253Y-104385421D01*
X144874594Y-104395413D01*
X144874593Y-104395414D01*
X144835029Y-104480260D01*
X144830741Y-104489455D01*
X144824500Y-104536861D01*
X144824501Y-105063138D01*
X144830741Y-105110545D01*
X144834814Y-105119279D01*
X144834814Y-105119280D01*
X144843743Y-105138428D01*
X144879253Y-105214579D01*
X144906102Y-105241428D01*
X144940128Y-105303740D01*
X144935063Y-105374555D01*
X144892516Y-105431391D01*
X144856884Y-105450046D01*
X144843898Y-105454378D01*
X144830714Y-105460555D01*
X144697827Y-105542788D01*
X144686426Y-105551824D01*
X144576014Y-105662429D01*
X144567002Y-105673840D01*
X144484996Y-105806880D01*
X144478849Y-105820061D01*
X144429509Y-105968814D01*
X144426642Y-105982190D01*
X144417328Y-106073097D01*
X144417071Y-106078126D01*
X144421475Y-106093124D01*
X144422865Y-106094329D01*
X144430548Y-106096000D01*
X146354947Y-106096000D01*
X146423068Y-106116002D01*
X146426957Y-106118914D01*
X146436548Y-106121000D01*
X147128000Y-106121000D01*
X147196121Y-106141002D01*
X147242614Y-106194658D01*
X147254000Y-106247000D01*
X147254000Y-106733885D01*
X147258475Y-106749124D01*
X147259865Y-106750329D01*
X147267548Y-106752000D01*
X147378000Y-106752000D01*
X147446121Y-106772002D01*
X147492614Y-106825658D01*
X147504000Y-106878000D01*
X147504000Y-108739885D01*
X147508475Y-108755124D01*
X147509865Y-108756329D01*
X147517548Y-108758000D01*
X147520438Y-108758000D01*
X147526953Y-108757663D01*
X147619057Y-108748106D01*
X147632456Y-108745212D01*
X147781107Y-108695619D01*
X147794286Y-108689445D01*
X147927173Y-108607212D01*
X147938574Y-108598176D01*
X148048986Y-108487571D01*
X148057998Y-108476160D01*
X148140004Y-108343120D01*
X148146151Y-108329939D01*
X148149972Y-108318418D01*
X148190401Y-108260057D01*
X148255964Y-108232818D01*
X148325846Y-108245350D01*
X148358661Y-108268987D01*
X148385421Y-108295747D01*
X148395413Y-108300406D01*
X148395414Y-108300407D01*
X148480718Y-108340185D01*
X148489455Y-108344259D01*
X148536861Y-108350500D01*
X148551691Y-108350500D01*
X148920981Y-108350499D01*
X148989100Y-108370501D01*
X149035593Y-108424156D01*
X149045698Y-108494430D01*
X149016205Y-108559011D01*
X148953592Y-108598206D01*
X148870670Y-108620425D01*
X148865690Y-108622747D01*
X148865688Y-108622748D01*
X148677343Y-108710575D01*
X148677340Y-108710577D01*
X148672362Y-108712898D01*
X148493123Y-108838402D01*
X148338402Y-108993123D01*
X148212898Y-109172362D01*
X148210577Y-109177340D01*
X148210575Y-109177343D01*
X148158286Y-109289477D01*
X148120425Y-109370670D01*
X148063793Y-109582023D01*
X148044723Y-109800000D01*
X148063793Y-110017977D01*
X148120425Y-110229330D01*
X148212898Y-110427638D01*
X148338402Y-110606877D01*
X148493123Y-110761598D01*
X148497631Y-110764755D01*
X148497634Y-110764757D01*
X148664359Y-110881499D01*
X148672361Y-110887102D01*
X148677343Y-110889425D01*
X148677348Y-110889428D01*
X148765458Y-110930514D01*
X148870670Y-110979575D01*
X148875978Y-110980997D01*
X148875980Y-110980998D01*
X148941745Y-110998620D01*
X149082023Y-111036207D01*
X149300000Y-111055277D01*
X149517977Y-111036207D01*
X149658255Y-110998620D01*
X149724020Y-110980998D01*
X149724022Y-110980997D01*
X149729330Y-110979575D01*
X149834542Y-110930514D01*
X149922652Y-110889428D01*
X149922657Y-110889425D01*
X149927639Y-110887102D01*
X149935641Y-110881499D01*
X150102366Y-110764757D01*
X150102369Y-110764755D01*
X150106877Y-110761598D01*
X150261598Y-110606877D01*
X150387102Y-110427638D01*
X150479575Y-110229330D01*
X150536207Y-110017977D01*
X150555277Y-109800000D01*
X150536207Y-109582023D01*
X150479575Y-109370670D01*
X150441714Y-109289477D01*
X150389425Y-109177343D01*
X150389423Y-109177340D01*
X150387102Y-109172362D01*
X150261598Y-108993123D01*
X150106877Y-108838402D01*
X150102369Y-108835245D01*
X150102366Y-108835243D01*
X149932148Y-108716055D01*
X149932145Y-108716053D01*
X149927639Y-108712898D01*
X149922657Y-108710575D01*
X149922652Y-108710572D01*
X149734312Y-108622748D01*
X149734311Y-108622747D01*
X149729330Y-108620425D01*
X149724022Y-108619003D01*
X149724020Y-108619002D01*
X149646296Y-108598176D01*
X149517977Y-108563793D01*
X149300000Y-108544723D01*
X149294525Y-108545202D01*
X149294523Y-108545202D01*
X149249471Y-108549143D01*
X149179866Y-108535153D01*
X149128875Y-108485753D01*
X149112685Y-108416627D01*
X149136438Y-108349722D01*
X149185241Y-108309427D01*
X149214579Y-108295747D01*
X149295747Y-108214579D01*
X149309570Y-108184937D01*
X149340185Y-108119282D01*
X149340185Y-108119281D01*
X149344259Y-108110545D01*
X149350500Y-108063139D01*
X149350499Y-107486862D01*
X149344259Y-107439455D01*
X149321278Y-107390171D01*
X149300407Y-107345414D01*
X149300406Y-107345413D01*
X149295747Y-107335421D01*
X149214579Y-107254253D01*
X149204586Y-107249593D01*
X149119276Y-107209812D01*
X149119274Y-107209811D01*
X149110545Y-107205741D01*
X149110709Y-107205389D01*
X149056437Y-107170661D01*
X149026818Y-107106138D01*
X149025500Y-107087962D01*
X149025500Y-106901499D01*
X149045502Y-106833378D01*
X149099158Y-106786885D01*
X149151500Y-106775499D01*
X149359898Y-106775499D01*
X149373810Y-106772732D01*
X149377045Y-106772089D01*
X149389213Y-106769669D01*
X149422457Y-106747457D01*
X149444669Y-106714213D01*
X149447091Y-106702039D01*
X149447116Y-106701915D01*
X149447244Y-106701670D01*
X149451838Y-106690579D01*
X149452831Y-106690990D01*
X149480025Y-106639006D01*
X149541721Y-106603876D01*
X149570694Y-106600500D01*
X149615792Y-106600500D01*
X149622386Y-106600673D01*
X149647836Y-106602007D01*
X149647837Y-106602007D01*
X149661064Y-106602700D01*
X149679984Y-106595437D01*
X149698942Y-106589821D01*
X149705816Y-106588360D01*
X149718768Y-106585607D01*
X149729481Y-106577824D01*
X149734029Y-106575799D01*
X149738198Y-106573092D01*
X149750560Y-106568346D01*
X149764892Y-106554014D01*
X149779927Y-106541173D01*
X149785609Y-106537045D01*
X149785611Y-106537043D01*
X149796323Y-106529260D01*
X149802944Y-106517793D01*
X149811806Y-106507950D01*
X149812160Y-106508269D01*
X149817173Y-106501733D01*
X150152938Y-106165968D01*
X150157722Y-106161427D01*
X150170968Y-106149500D01*
X150186509Y-106135507D01*
X150194755Y-106116985D01*
X150204183Y-106099622D01*
X150215226Y-106082618D01*
X150217298Y-106069537D01*
X150219080Y-106064894D01*
X150220114Y-106060028D01*
X150225500Y-106047932D01*
X150225500Y-106027666D01*
X150227051Y-106007955D01*
X150228151Y-106001011D01*
X150230222Y-105987935D01*
X150226795Y-105975146D01*
X150226102Y-105961918D01*
X150226576Y-105961893D01*
X150225500Y-105953723D01*
X150225500Y-104945596D01*
X150245502Y-104877475D01*
X150262405Y-104856501D01*
X150661243Y-104457663D01*
X150723555Y-104423637D01*
X150794370Y-104428702D01*
X150851206Y-104471249D01*
X150876017Y-104537769D01*
X150875013Y-104553813D01*
X150875013Y-104565829D01*
X150872592Y-104578000D01*
X150892034Y-104675740D01*
X150898927Y-104686056D01*
X150898929Y-104686061D01*
X150913588Y-104708000D01*
X150934802Y-104775753D01*
X150913588Y-104848000D01*
X150898929Y-104869939D01*
X150898927Y-104869944D01*
X150892034Y-104880260D01*
X150872592Y-104978000D01*
X150892034Y-105075740D01*
X150898927Y-105086056D01*
X150898929Y-105086061D01*
X150913588Y-105108000D01*
X150934802Y-105175753D01*
X150913588Y-105248000D01*
X150898929Y-105269939D01*
X150898927Y-105269944D01*
X150892034Y-105280260D01*
X150872592Y-105378000D01*
X150892034Y-105475740D01*
X150898927Y-105486056D01*
X150898929Y-105486061D01*
X150913588Y-105508000D01*
X150934802Y-105575753D01*
X150913588Y-105648000D01*
X150898929Y-105669939D01*
X150898927Y-105669944D01*
X150892034Y-105680260D01*
X150872592Y-105778000D01*
X150892034Y-105875740D01*
X150898927Y-105886056D01*
X150898929Y-105886061D01*
X150913588Y-105908000D01*
X150934802Y-105975753D01*
X150913588Y-106048000D01*
X150898929Y-106069939D01*
X150898927Y-106069944D01*
X150892034Y-106080260D01*
X150872592Y-106178000D01*
X150892034Y-106275740D01*
X150898927Y-106286056D01*
X150898929Y-106286061D01*
X150913588Y-106308000D01*
X150934802Y-106375753D01*
X150913588Y-106448000D01*
X150898929Y-106469939D01*
X150898927Y-106469944D01*
X150892034Y-106480260D01*
X150872592Y-106578000D01*
X150892034Y-106675740D01*
X150898927Y-106686056D01*
X150898929Y-106686061D01*
X150913588Y-106708000D01*
X150934802Y-106775753D01*
X150913588Y-106848000D01*
X150898929Y-106869939D01*
X150898927Y-106869944D01*
X150892034Y-106880260D01*
X150872592Y-106978000D01*
X150892034Y-107075740D01*
X150898927Y-107086056D01*
X150898929Y-107086061D01*
X150913588Y-107108000D01*
X150934802Y-107175753D01*
X150913588Y-107248000D01*
X150898929Y-107269939D01*
X150898927Y-107269944D01*
X150892034Y-107280260D01*
X150872592Y-107378000D01*
X150892034Y-107475740D01*
X150898927Y-107486056D01*
X150898929Y-107486061D01*
X150913588Y-107508000D01*
X150934802Y-107575753D01*
X150913588Y-107648000D01*
X150898929Y-107669939D01*
X150898927Y-107669944D01*
X150892034Y-107680260D01*
X150872592Y-107778000D01*
X150892034Y-107875740D01*
X150947399Y-107958601D01*
X150957714Y-107965493D01*
X151016852Y-108005007D01*
X151030260Y-108013966D01*
X151103326Y-108028500D01*
X151652674Y-108028500D01*
X151725740Y-108013966D01*
X151739149Y-108005007D01*
X151798286Y-107965493D01*
X151808601Y-107958601D01*
X151821518Y-107939269D01*
X151875995Y-107893741D01*
X151946438Y-107884892D01*
X152010482Y-107915533D01*
X152019380Y-107924671D01*
X152032500Y-107937791D01*
X152031615Y-107938676D01*
X152067307Y-107993149D01*
X152067936Y-108064143D01*
X152030082Y-108124207D01*
X152016731Y-108134482D01*
X151997399Y-108147399D01*
X151990507Y-108157714D01*
X151952512Y-108214579D01*
X151942034Y-108230260D01*
X151927500Y-108303326D01*
X151927500Y-108852674D01*
X151942034Y-108925740D01*
X151944474Y-108929391D01*
X151952500Y-108969744D01*
X151952500Y-109521072D01*
X151932498Y-109589193D01*
X151879751Y-109635266D01*
X151785421Y-109679253D01*
X151704253Y-109760421D01*
X151655741Y-109864455D01*
X151649500Y-109911861D01*
X151649501Y-110157948D01*
X151649501Y-110379404D01*
X151629499Y-110447525D01*
X151612596Y-110468499D01*
X151409846Y-110671249D01*
X151347534Y-110705275D01*
X151292311Y-110703163D01*
X151292215Y-110703806D01*
X151286402Y-110702937D01*
X151284647Y-110702870D01*
X151274739Y-110699907D01*
X151265763Y-110699852D01*
X151265762Y-110699852D01*
X151205555Y-110699484D01*
X151131376Y-110699031D01*
X150993529Y-110738428D01*
X150872280Y-110814930D01*
X150777377Y-110922388D01*
X150716447Y-111052163D01*
X150694391Y-111193823D01*
X150695555Y-111202725D01*
X150695555Y-111202728D01*
X150696814Y-111212354D01*
X150712980Y-111335979D01*
X150770720Y-111467203D01*
X150776497Y-111474076D01*
X150776498Y-111474077D01*
X150783792Y-111482754D01*
X150862970Y-111576948D01*
X150982313Y-111656390D01*
X151119157Y-111699142D01*
X151128129Y-111699306D01*
X151128132Y-111699307D01*
X151193463Y-111700504D01*
X151262499Y-111701770D01*
X151271533Y-111699307D01*
X151392158Y-111666421D01*
X151392160Y-111666420D01*
X151400817Y-111664060D01*
X151522991Y-111589045D01*
X151619200Y-111482754D01*
X151681710Y-111353733D01*
X151705496Y-111212354D01*
X151705647Y-111200000D01*
X151691189Y-111099043D01*
X151701332Y-111028775D01*
X151726820Y-110992086D01*
X151906500Y-110812405D01*
X151968812Y-110778380D01*
X151995596Y-110775500D01*
X152425069Y-110775499D01*
X152463138Y-110775499D01*
X152510545Y-110769259D01*
X152535332Y-110757701D01*
X152604586Y-110725407D01*
X152604587Y-110725406D01*
X152614579Y-110720747D01*
X152641428Y-110693898D01*
X152703740Y-110659872D01*
X152774555Y-110664937D01*
X152831391Y-110707484D01*
X152850046Y-110743116D01*
X152854378Y-110756102D01*
X152860555Y-110769286D01*
X152942788Y-110902173D01*
X152951824Y-110913574D01*
X153062429Y-111023986D01*
X153073840Y-111032998D01*
X153206880Y-111115004D01*
X153220061Y-111121151D01*
X153271678Y-111138272D01*
X153330038Y-111178703D01*
X153357274Y-111244268D01*
X153344740Y-111314149D01*
X153296415Y-111366161D01*
X153281049Y-111373930D01*
X153080003Y-111458855D01*
X153077053Y-111460057D01*
X153063086Y-111465545D01*
X153057103Y-111467723D01*
X153042902Y-111472488D01*
X153039908Y-111473451D01*
X151630005Y-111907194D01*
X151626944Y-111908093D01*
X151612558Y-111912123D01*
X151606383Y-111913686D01*
X151591793Y-111916988D01*
X151588698Y-111917647D01*
X150142203Y-112206685D01*
X150139084Y-112207268D01*
X150124310Y-112209833D01*
X150118009Y-112210764D01*
X150103122Y-112212578D01*
X150100012Y-112212918D01*
X149006945Y-112318168D01*
X148631692Y-112354301D01*
X148628546Y-112354564D01*
X148613590Y-112355623D01*
X148607263Y-112355910D01*
X148592237Y-112356212D01*
X148589056Y-112356235D01*
X148565821Y-112356113D01*
X147114013Y-112348510D01*
X147110827Y-112348453D01*
X147095893Y-112347997D01*
X147089533Y-112347642D01*
X147089507Y-112347640D01*
X147074591Y-112346427D01*
X147071537Y-112346140D01*
X145604633Y-112189373D01*
X145601575Y-112189007D01*
X145586712Y-112187037D01*
X145580448Y-112186045D01*
X145565697Y-112183324D01*
X145562589Y-112182710D01*
X144119201Y-111878540D01*
X144116097Y-111877845D01*
X144101532Y-111874388D01*
X144095389Y-111872765D01*
X144080991Y-111868568D01*
X144077944Y-111867638D01*
X142672735Y-111419178D01*
X142669716Y-111418173D01*
X142658486Y-111414274D01*
X142655548Y-111413254D01*
X142649610Y-111411022D01*
X142635718Y-111405395D01*
X142632824Y-111404180D01*
X142425767Y-111314149D01*
X141279975Y-110815944D01*
X141277174Y-110814684D01*
X141267300Y-110810090D01*
X141263576Y-110808357D01*
X141257883Y-110805531D01*
X141255348Y-110804192D01*
X141244613Y-110798520D01*
X141241923Y-110797055D01*
X139955396Y-110075089D01*
X139952782Y-110073579D01*
X139939835Y-110065876D01*
X139934457Y-110062488D01*
X139922065Y-110054239D01*
X139919434Y-110052440D01*
X139560248Y-109800000D01*
X144944723Y-109800000D01*
X144963793Y-110017977D01*
X145020425Y-110229330D01*
X145112898Y-110427638D01*
X145238402Y-110606877D01*
X145393123Y-110761598D01*
X145397631Y-110764755D01*
X145397634Y-110764757D01*
X145564359Y-110881499D01*
X145572361Y-110887102D01*
X145577343Y-110889425D01*
X145577348Y-110889428D01*
X145665458Y-110930514D01*
X145770670Y-110979575D01*
X145775978Y-110980997D01*
X145775980Y-110980998D01*
X145841745Y-110998620D01*
X145982023Y-111036207D01*
X146200000Y-111055277D01*
X146417977Y-111036207D01*
X146558255Y-110998620D01*
X146624020Y-110980998D01*
X146624022Y-110980997D01*
X146629330Y-110979575D01*
X146734542Y-110930514D01*
X146822652Y-110889428D01*
X146822657Y-110889425D01*
X146827639Y-110887102D01*
X146835641Y-110881499D01*
X147002366Y-110764757D01*
X147002369Y-110764755D01*
X147006877Y-110761598D01*
X147161598Y-110606877D01*
X147287102Y-110427638D01*
X147379575Y-110229330D01*
X147436207Y-110017977D01*
X147455277Y-109800000D01*
X147436207Y-109582023D01*
X147379575Y-109370670D01*
X147341714Y-109289477D01*
X147289425Y-109177343D01*
X147289423Y-109177340D01*
X147287102Y-109172362D01*
X147161598Y-108993123D01*
X147029808Y-108861333D01*
X146995782Y-108799021D01*
X146995782Y-108745457D01*
X146996000Y-108744455D01*
X146996000Y-108047115D01*
X146991525Y-108031876D01*
X146990135Y-108030671D01*
X146982452Y-108029000D01*
X146310115Y-108029000D01*
X146294876Y-108033475D01*
X146293671Y-108034865D01*
X146292000Y-108042548D01*
X146292000Y-108070438D01*
X146292337Y-108076953D01*
X146301894Y-108169057D01*
X146304788Y-108182456D01*
X146354381Y-108331107D01*
X146360552Y-108344279D01*
X146368619Y-108357316D01*
X146387456Y-108425768D01*
X146366294Y-108493538D01*
X146311854Y-108539109D01*
X146250494Y-108549140D01*
X146205477Y-108545202D01*
X146205475Y-108545202D01*
X146200000Y-108544723D01*
X145982023Y-108563793D01*
X145853704Y-108598176D01*
X145775980Y-108619002D01*
X145775978Y-108619003D01*
X145770670Y-108620425D01*
X145765690Y-108622747D01*
X145765688Y-108622748D01*
X145577343Y-108710575D01*
X145577340Y-108710577D01*
X145572362Y-108712898D01*
X145393123Y-108838402D01*
X145238402Y-108993123D01*
X145112898Y-109172362D01*
X145110577Y-109177340D01*
X145110575Y-109177343D01*
X145058286Y-109289477D01*
X145020425Y-109370670D01*
X144963793Y-109582023D01*
X144944723Y-109800000D01*
X139560248Y-109800000D01*
X138712535Y-109204218D01*
X138709990Y-109202381D01*
X138697927Y-109193439D01*
X138692920Y-109189526D01*
X138681373Y-109180023D01*
X138678944Y-109177972D01*
X137563959Y-108212143D01*
X137561575Y-108210024D01*
X137550565Y-108199988D01*
X137545960Y-108195572D01*
X137535418Y-108184937D01*
X137533205Y-108182647D01*
X136744235Y-107345414D01*
X136521571Y-107109129D01*
X136519469Y-107106842D01*
X136509412Y-107095614D01*
X136505326Y-107090813D01*
X136495885Y-107079133D01*
X136493927Y-107076647D01*
X135595956Y-105906388D01*
X135594050Y-105903837D01*
X135585240Y-105891734D01*
X135581627Y-105886498D01*
X135573403Y-105873906D01*
X135571721Y-105871257D01*
X135546682Y-105830714D01*
X134796622Y-104616262D01*
X134794982Y-104613532D01*
X134790883Y-104606503D01*
X134787440Y-104600599D01*
X134784376Y-104595025D01*
X134777492Y-104581715D01*
X134776065Y-104578868D01*
X134255815Y-103507456D01*
X134131738Y-103251930D01*
X134130388Y-103249058D01*
X134126482Y-103240467D01*
X134124209Y-103235468D01*
X134121718Y-103229600D01*
X134116224Y-103215686D01*
X134115093Y-103212712D01*
X133720634Y-102134802D01*
X133608146Y-101827415D01*
X133607097Y-101824432D01*
X133605252Y-101818963D01*
X133602321Y-101810280D01*
X133600438Y-101804195D01*
X133596382Y-101789815D01*
X133595554Y-101786732D01*
X133231200Y-100357316D01*
X133230463Y-100354260D01*
X133227133Y-100339657D01*
X133225875Y-100333418D01*
X133223281Y-100318633D01*
X133222769Y-100315483D01*
X133041336Y-99101486D01*
X133004747Y-98856662D01*
X133004317Y-98853513D01*
X133002479Y-98838654D01*
X133001856Y-98832301D01*
X133000772Y-98817356D01*
X133000582Y-98814177D01*
X132995779Y-98712328D01*
X132931094Y-97340690D01*
X132930988Y-97337607D01*
X132930809Y-97329431D01*
X132930661Y-97322615D01*
X132930683Y-97316252D01*
X132931113Y-97301308D01*
X132931245Y-97298118D01*
X132942939Y-97082190D01*
X132992360Y-96169669D01*
X136667001Y-96169669D01*
X136667371Y-96176490D01*
X136672895Y-96227352D01*
X136676521Y-96242604D01*
X136721676Y-96363054D01*
X136730214Y-96378649D01*
X136806715Y-96480724D01*
X136819276Y-96493285D01*
X136921351Y-96569786D01*
X136936948Y-96578325D01*
X137029726Y-96613106D01*
X137086491Y-96655747D01*
X137111191Y-96722309D01*
X137101907Y-96779304D01*
X137088026Y-96812817D01*
X137069965Y-96950000D01*
X137088026Y-97087183D01*
X137140976Y-97215017D01*
X137164556Y-97245747D01*
X137220180Y-97318238D01*
X137220183Y-97318241D01*
X137225209Y-97324791D01*
X137231759Y-97329817D01*
X137231760Y-97329818D01*
X137283160Y-97369259D01*
X137334982Y-97409024D01*
X137342609Y-97412183D01*
X137454650Y-97458591D01*
X137509931Y-97503139D01*
X137532352Y-97570502D01*
X137514794Y-97639293D01*
X137462832Y-97687672D01*
X137454654Y-97691407D01*
X137334983Y-97740976D01*
X137225209Y-97825209D01*
X137140976Y-97934983D01*
X137088026Y-98062817D01*
X137069965Y-98200000D01*
X137088026Y-98337183D01*
X137140976Y-98465017D01*
X137164950Y-98496260D01*
X137220180Y-98568238D01*
X137220183Y-98568241D01*
X137225209Y-98574791D01*
X137231759Y-98579817D01*
X137231760Y-98579818D01*
X137328432Y-98653998D01*
X137334982Y-98659024D01*
X137439467Y-98702302D01*
X137454650Y-98708591D01*
X137509931Y-98753139D01*
X137532352Y-98820502D01*
X137514794Y-98889293D01*
X137462832Y-98937672D01*
X137454654Y-98941407D01*
X137334983Y-98990976D01*
X137225209Y-99075209D01*
X137140976Y-99184983D01*
X137088026Y-99312817D01*
X137069965Y-99450000D01*
X137088026Y-99587183D01*
X137140976Y-99715017D01*
X137174564Y-99758789D01*
X137220180Y-99818238D01*
X137220183Y-99818241D01*
X137225209Y-99824791D01*
X137231759Y-99829817D01*
X137231760Y-99829818D01*
X137237248Y-99834029D01*
X137334982Y-99909024D01*
X137342611Y-99912184D01*
X137455189Y-99958815D01*
X137455193Y-99958816D01*
X137462817Y-99961974D01*
X137470997Y-99963051D01*
X137471001Y-99963052D01*
X137591812Y-99978957D01*
X137600000Y-99980035D01*
X137608188Y-99978957D01*
X137728999Y-99963052D01*
X137729003Y-99963051D01*
X137737183Y-99961974D01*
X137744807Y-99958816D01*
X137744811Y-99958815D01*
X137857389Y-99912184D01*
X137865018Y-99909024D01*
X137962752Y-99834029D01*
X137968240Y-99829818D01*
X137968241Y-99829817D01*
X137974791Y-99824791D01*
X137979817Y-99818241D01*
X137979820Y-99818238D01*
X137994998Y-99798457D01*
X143320001Y-99798457D01*
X143320371Y-99805278D01*
X143325895Y-99856140D01*
X143329521Y-99871392D01*
X143374676Y-99991842D01*
X143383214Y-100007437D01*
X143459715Y-100109512D01*
X143472276Y-100122073D01*
X143574351Y-100198574D01*
X143589946Y-100207112D01*
X143710394Y-100252266D01*
X143725649Y-100255893D01*
X143776514Y-100261419D01*
X143783328Y-100261788D01*
X144405885Y-100261788D01*
X144421124Y-100257313D01*
X144422329Y-100255923D01*
X144424000Y-100248240D01*
X144424000Y-100243672D01*
X144932000Y-100243672D01*
X144936475Y-100258911D01*
X144937865Y-100260116D01*
X144945548Y-100261787D01*
X145572669Y-100261787D01*
X145579490Y-100261417D01*
X145630352Y-100255893D01*
X145645604Y-100252267D01*
X145766054Y-100207112D01*
X145781649Y-100198574D01*
X145883724Y-100122073D01*
X145896285Y-100109512D01*
X145972786Y-100007437D01*
X145981324Y-99991842D01*
X146026478Y-99871394D01*
X146030105Y-99856139D01*
X146035631Y-99805274D01*
X146036000Y-99798460D01*
X146036000Y-99525903D01*
X146031525Y-99510664D01*
X146030135Y-99509459D01*
X146022452Y-99507788D01*
X144950115Y-99507788D01*
X144934876Y-99512263D01*
X144933671Y-99513653D01*
X144932000Y-99521336D01*
X144932000Y-100243672D01*
X144424000Y-100243672D01*
X144424000Y-99525903D01*
X144419525Y-99510664D01*
X144418135Y-99509459D01*
X144410452Y-99507788D01*
X143338116Y-99507788D01*
X143322877Y-99512263D01*
X143321672Y-99513653D01*
X143320001Y-99521336D01*
X143320001Y-99798457D01*
X137994998Y-99798457D01*
X138025436Y-99758789D01*
X138059024Y-99715017D01*
X138111974Y-99587183D01*
X138130035Y-99450000D01*
X138111974Y-99312817D01*
X138059024Y-99184983D01*
X138003131Y-99112142D01*
X137979820Y-99081762D01*
X137979817Y-99081759D01*
X137974791Y-99075209D01*
X137865018Y-98990976D01*
X137842558Y-98981673D01*
X143320000Y-98981673D01*
X143324475Y-98996912D01*
X143325865Y-98998117D01*
X143333548Y-98999788D01*
X144405885Y-98999788D01*
X144421124Y-98995313D01*
X144422329Y-98993923D01*
X144424000Y-98986240D01*
X144424000Y-98981673D01*
X144932000Y-98981673D01*
X144936475Y-98996912D01*
X144937865Y-98998117D01*
X144945548Y-98999788D01*
X146017884Y-98999788D01*
X146033123Y-98995313D01*
X146034328Y-98993923D01*
X146035999Y-98986240D01*
X146035999Y-98709119D01*
X146035629Y-98702298D01*
X146030105Y-98651436D01*
X146026479Y-98636184D01*
X145981324Y-98515734D01*
X145972786Y-98500139D01*
X145896285Y-98398064D01*
X145883724Y-98385503D01*
X145781649Y-98309002D01*
X145766054Y-98300464D01*
X145645606Y-98255310D01*
X145630351Y-98251683D01*
X145579486Y-98246157D01*
X145572672Y-98245788D01*
X144950115Y-98245788D01*
X144934876Y-98250263D01*
X144933671Y-98251653D01*
X144932000Y-98259336D01*
X144932000Y-98981673D01*
X144424000Y-98981673D01*
X144424000Y-98263904D01*
X144419525Y-98248665D01*
X144418135Y-98247460D01*
X144410452Y-98245789D01*
X143783331Y-98245789D01*
X143776510Y-98246159D01*
X143725648Y-98251683D01*
X143710396Y-98255309D01*
X143589946Y-98300464D01*
X143574351Y-98309002D01*
X143472276Y-98385503D01*
X143459715Y-98398064D01*
X143383214Y-98500139D01*
X143374676Y-98515734D01*
X143329522Y-98636182D01*
X143325895Y-98651437D01*
X143320369Y-98702302D01*
X143320000Y-98709116D01*
X143320000Y-98981673D01*
X137842558Y-98981673D01*
X137745350Y-98941409D01*
X137690069Y-98896861D01*
X137667647Y-98829498D01*
X137685205Y-98760707D01*
X137737166Y-98712328D01*
X137745350Y-98708591D01*
X137760534Y-98702302D01*
X137865018Y-98659024D01*
X137871568Y-98653998D01*
X137968240Y-98579818D01*
X137968241Y-98579817D01*
X137974791Y-98574791D01*
X137979817Y-98568241D01*
X137979820Y-98568238D01*
X138035050Y-98496260D01*
X138059024Y-98465017D01*
X138111974Y-98337183D01*
X138130035Y-98200000D01*
X138111974Y-98062817D01*
X138059024Y-97934983D01*
X138003193Y-97862223D01*
X137979820Y-97831762D01*
X137979817Y-97831759D01*
X137974791Y-97825209D01*
X137947479Y-97804251D01*
X137871568Y-97746002D01*
X137865018Y-97740976D01*
X137745350Y-97691409D01*
X137690069Y-97646861D01*
X137667647Y-97579498D01*
X137685205Y-97510707D01*
X137737166Y-97462328D01*
X137745350Y-97458591D01*
X137857389Y-97412184D01*
X137857391Y-97412183D01*
X137865018Y-97409024D01*
X137916840Y-97369259D01*
X137968240Y-97329818D01*
X137968241Y-97329817D01*
X137974791Y-97324791D01*
X137979817Y-97318241D01*
X137979820Y-97318238D01*
X138035444Y-97245747D01*
X138059024Y-97215017D01*
X138074305Y-97178126D01*
X152417071Y-97178126D01*
X152421475Y-97193124D01*
X152422865Y-97194329D01*
X152430548Y-97196000D01*
X153127885Y-97196000D01*
X153143124Y-97191525D01*
X153144329Y-97190135D01*
X153146000Y-97182452D01*
X153146000Y-96510115D01*
X153141525Y-96494876D01*
X153140135Y-96493671D01*
X153132452Y-96492000D01*
X153104562Y-96492000D01*
X153098047Y-96492337D01*
X153005943Y-96501894D01*
X152992544Y-96504788D01*
X152843893Y-96554381D01*
X152830714Y-96560555D01*
X152697827Y-96642788D01*
X152686426Y-96651824D01*
X152576014Y-96762429D01*
X152567002Y-96773840D01*
X152484996Y-96906880D01*
X152478849Y-96920061D01*
X152429509Y-97068814D01*
X152426642Y-97082190D01*
X152417328Y-97173097D01*
X152417071Y-97178126D01*
X138074305Y-97178126D01*
X138111974Y-97087183D01*
X138130035Y-96950000D01*
X138111974Y-96812817D01*
X138098093Y-96779304D01*
X138090505Y-96708714D01*
X138122286Y-96645228D01*
X138170274Y-96613106D01*
X138263052Y-96578325D01*
X138278649Y-96569786D01*
X138380724Y-96493285D01*
X138393285Y-96480724D01*
X138469786Y-96378649D01*
X138478324Y-96363054D01*
X138523478Y-96242606D01*
X138527105Y-96227351D01*
X138532631Y-96176486D01*
X138533000Y-96169672D01*
X138533000Y-95972115D01*
X138528525Y-95956876D01*
X138527135Y-95955671D01*
X138519452Y-95954000D01*
X136685116Y-95954000D01*
X136669877Y-95958475D01*
X136668672Y-95959865D01*
X136667001Y-95967548D01*
X136667001Y-96169669D01*
X132992360Y-96169669D01*
X133011019Y-95825144D01*
X133011231Y-95821979D01*
X133011399Y-95819876D01*
X133012416Y-95807093D01*
X133013082Y-95800756D01*
X133015022Y-95785919D01*
X133015476Y-95782762D01*
X133048941Y-95569061D01*
X133071048Y-95427885D01*
X136667000Y-95427885D01*
X136671475Y-95443124D01*
X136672865Y-95444329D01*
X136680548Y-95446000D01*
X137327885Y-95446000D01*
X137343124Y-95441525D01*
X137344329Y-95440135D01*
X137346000Y-95432452D01*
X137346000Y-95427885D01*
X137854000Y-95427885D01*
X137858475Y-95443124D01*
X137859865Y-95444329D01*
X137867548Y-95446000D01*
X138514884Y-95446000D01*
X138530123Y-95441525D01*
X138531328Y-95440135D01*
X138532999Y-95432452D01*
X138532999Y-95230331D01*
X138532629Y-95223510D01*
X138527105Y-95172648D01*
X138523479Y-95157396D01*
X138478324Y-95036946D01*
X138469786Y-95021351D01*
X138411731Y-94943889D01*
X143727500Y-94943889D01*
X143727501Y-95963686D01*
X143728709Y-95969759D01*
X143730911Y-95980830D01*
X143733331Y-95993001D01*
X143755543Y-96026245D01*
X143788787Y-96048457D01*
X143818101Y-96054288D01*
X144677583Y-96054288D01*
X145537898Y-96054287D01*
X145551810Y-96051520D01*
X145555045Y-96050877D01*
X145567213Y-96048457D01*
X145600457Y-96026245D01*
X145622669Y-95993001D01*
X145628500Y-95963687D01*
X145628500Y-95930288D01*
X145648502Y-95862167D01*
X145702158Y-95815674D01*
X145754500Y-95804288D01*
X149901501Y-95804288D01*
X149969622Y-95824290D01*
X150016115Y-95877946D01*
X150027501Y-95930288D01*
X150027501Y-95963686D01*
X150028709Y-95969759D01*
X150030911Y-95980830D01*
X150033331Y-95993001D01*
X150055543Y-96026245D01*
X150088787Y-96048457D01*
X150118101Y-96054288D01*
X150977583Y-96054288D01*
X151837898Y-96054287D01*
X151851810Y-96051520D01*
X151855045Y-96050877D01*
X151867213Y-96048457D01*
X151900457Y-96026245D01*
X151922669Y-95993001D01*
X151928500Y-95963687D01*
X151928499Y-94943890D01*
X151925316Y-94927885D01*
X151925089Y-94926743D01*
X151922669Y-94914575D01*
X151900457Y-94881331D01*
X151867213Y-94859119D01*
X151837899Y-94853288D01*
X151454500Y-94853288D01*
X151386379Y-94833286D01*
X151339886Y-94779630D01*
X151328500Y-94727288D01*
X151328500Y-94621336D01*
X151348502Y-94553215D01*
X151373572Y-94527357D01*
X151373153Y-94526939D01*
X151388639Y-94511426D01*
X151452241Y-94447713D01*
X151476524Y-94392788D01*
X151492911Y-94355720D01*
X151497506Y-94345327D01*
X151500500Y-94319646D01*
X151500500Y-93680354D01*
X151497382Y-93654154D01*
X151457351Y-93564030D01*
X151456663Y-93562482D01*
X151451939Y-93551847D01*
X151372713Y-93472759D01*
X151362076Y-93468056D01*
X151362074Y-93468055D01*
X151302538Y-93441735D01*
X151270327Y-93427494D01*
X151244646Y-93424500D01*
X150755354Y-93424500D01*
X150751650Y-93424941D01*
X150751647Y-93424941D01*
X150744254Y-93425821D01*
X150729154Y-93427618D01*
X150626847Y-93473061D01*
X150547759Y-93552287D01*
X150502494Y-93654673D01*
X150499500Y-93680354D01*
X150499500Y-94319646D01*
X150502618Y-94345846D01*
X150548061Y-94448153D01*
X150556294Y-94456372D01*
X150556295Y-94456373D01*
X150590518Y-94490536D01*
X150624597Y-94552818D01*
X150627500Y-94579709D01*
X150627500Y-94727289D01*
X150607498Y-94795410D01*
X150553842Y-94841903D01*
X150501500Y-94853289D01*
X150118102Y-94853289D01*
X150104190Y-94856056D01*
X150100961Y-94856698D01*
X150088787Y-94859119D01*
X150055543Y-94881331D01*
X150033331Y-94914575D01*
X150027500Y-94943889D01*
X150027500Y-94977288D01*
X150007498Y-95045409D01*
X149953842Y-95091902D01*
X149901500Y-95103288D01*
X145754499Y-95103288D01*
X145686378Y-95083286D01*
X145639885Y-95029630D01*
X145628499Y-94977288D01*
X145628499Y-94943890D01*
X145625316Y-94927885D01*
X145625089Y-94926743D01*
X145622669Y-94914575D01*
X145600457Y-94881331D01*
X145567213Y-94859119D01*
X145537899Y-94853288D01*
X144678417Y-94853288D01*
X143818102Y-94853289D01*
X143804190Y-94856056D01*
X143800961Y-94856698D01*
X143788787Y-94859119D01*
X143755543Y-94881331D01*
X143733331Y-94914575D01*
X143727500Y-94943889D01*
X138411731Y-94943889D01*
X138393285Y-94919276D01*
X138380724Y-94906715D01*
X138278649Y-94830214D01*
X138263054Y-94821676D01*
X138142606Y-94776522D01*
X138127351Y-94772895D01*
X138076486Y-94767369D01*
X138069672Y-94767000D01*
X137872115Y-94767000D01*
X137856876Y-94771475D01*
X137855671Y-94772865D01*
X137854000Y-94780548D01*
X137854000Y-95427885D01*
X137346000Y-95427885D01*
X137346000Y-94785116D01*
X137341525Y-94769877D01*
X137340135Y-94768672D01*
X137332452Y-94767001D01*
X137130331Y-94767001D01*
X137123510Y-94767371D01*
X137072648Y-94772895D01*
X137057396Y-94776521D01*
X136936946Y-94821676D01*
X136921351Y-94830214D01*
X136819276Y-94906715D01*
X136806715Y-94919276D01*
X136730214Y-95021351D01*
X136721676Y-95036946D01*
X136676522Y-95157394D01*
X136672895Y-95172649D01*
X136667369Y-95223514D01*
X136667000Y-95230328D01*
X136667000Y-95427885D01*
X133071048Y-95427885D01*
X133243684Y-94325451D01*
X133244216Y-94322316D01*
X133246909Y-94307573D01*
X133248211Y-94301339D01*
X133251649Y-94286742D01*
X133252404Y-94283705D01*
X133259791Y-94255548D01*
X133626737Y-92856834D01*
X133627574Y-92853805D01*
X133631730Y-92839455D01*
X133633658Y-92833377D01*
X133638540Y-92819240D01*
X133639617Y-92816243D01*
X134156227Y-91434507D01*
X134157381Y-91431536D01*
X134162949Y-91417722D01*
X134165475Y-91411884D01*
X134171754Y-91398326D01*
X134173131Y-91395449D01*
X134367934Y-91001295D01*
X134826725Y-90073001D01*
X134828164Y-90070180D01*
X134835119Y-90056962D01*
X134838225Y-90051404D01*
X134845855Y-90038527D01*
X134847518Y-90035801D01*
X134948855Y-89874256D01*
X135631360Y-88786248D01*
X135633083Y-88783577D01*
X135641368Y-88771084D01*
X135645020Y-88765869D01*
X135653919Y-88753821D01*
X135655844Y-88751281D01*
X135737553Y-88646322D01*
X135987741Y-88324941D01*
X136561958Y-87587328D01*
X136563944Y-87584842D01*
X136573449Y-87573250D01*
X136577577Y-87568468D01*
X136587671Y-87557355D01*
X136589840Y-87555028D01*
X137061818Y-87061131D01*
X137608973Y-86488566D01*
X137611145Y-86486350D01*
X137616851Y-86480673D01*
X137621780Y-86475771D01*
X137626402Y-86471400D01*
X137628861Y-86469190D01*
X137637553Y-86461377D01*
X137639923Y-86459301D01*
X138761582Y-85501314D01*
X138763996Y-85499303D01*
X138775671Y-85489833D01*
X138780700Y-85485960D01*
X138792790Y-85477128D01*
X138795387Y-85475281D01*
X140008095Y-84635563D01*
X140010734Y-84633784D01*
X140011549Y-84633249D01*
X140023278Y-84625559D01*
X140028670Y-84622217D01*
X140035139Y-84618429D01*
X140041572Y-84614663D01*
X140044337Y-84613091D01*
X141335749Y-83900192D01*
X141338558Y-83898687D01*
X141351842Y-83891787D01*
X141357537Y-83889009D01*
X141371187Y-83882774D01*
X141374041Y-83881514D01*
X142730929Y-83302752D01*
X142733866Y-83301544D01*
X142747733Y-83296040D01*
X142753717Y-83293838D01*
X142767870Y-83289034D01*
X142770900Y-83288048D01*
X144179276Y-82849388D01*
X144182330Y-82848479D01*
X144196703Y-82844398D01*
X144202883Y-82842811D01*
X144217483Y-82839454D01*
X144220598Y-82838780D01*
X145665997Y-82544709D01*
X145669133Y-82544112D01*
X145683919Y-82541492D01*
X145690213Y-82540540D01*
X145705089Y-82538673D01*
X145708221Y-82538321D01*
X145885540Y-82520622D01*
X147176086Y-82391809D01*
X147179159Y-82391541D01*
X147186715Y-82390980D01*
X147194109Y-82390431D01*
X147200467Y-82390120D01*
X147207296Y-82389959D01*
X147215404Y-82389768D01*
X147218563Y-82389733D01*
X147959033Y-82391026D01*
G37*
%TD.AperFunction*%
%TA.AperFunction,Conductor*%
G36*
X159774335Y-106278682D02*
G01*
X159831171Y-106321229D01*
X159855982Y-106387749D01*
X159840891Y-106457123D01*
X159829457Y-106474485D01*
X159263826Y-107195861D01*
X159261830Y-107198341D01*
X159252291Y-107209893D01*
X159248127Y-107214684D01*
X159237982Y-107225775D01*
X159235839Y-107228058D01*
X159115606Y-107352998D01*
X158213002Y-108290942D01*
X158210779Y-108293195D01*
X158200121Y-108303724D01*
X158195505Y-108308059D01*
X158184261Y-108318094D01*
X158181949Y-108320105D01*
X157482160Y-108913569D01*
X157056924Y-109274195D01*
X157054476Y-109276219D01*
X157042814Y-109285613D01*
X157037759Y-109289477D01*
X157025638Y-109298267D01*
X157023035Y-109300105D01*
X156751937Y-109486426D01*
X155807379Y-110135603D01*
X155804753Y-110137359D01*
X155792187Y-110145535D01*
X155786768Y-110148869D01*
X155780766Y-110152355D01*
X155773827Y-110156385D01*
X155771055Y-110157948D01*
X154892100Y-110639162D01*
X154822743Y-110654331D01*
X154756195Y-110629594D01*
X154713585Y-110572806D01*
X154706248Y-110515797D01*
X154707673Y-110501896D01*
X154708000Y-110495487D01*
X154708000Y-110472115D01*
X154703525Y-110456876D01*
X154702135Y-110455671D01*
X154694452Y-110454000D01*
X153622000Y-110454000D01*
X153553879Y-110433998D01*
X153507386Y-110380342D01*
X153496000Y-110328000D01*
X153496000Y-110072000D01*
X153516002Y-110003879D01*
X153569658Y-109957386D01*
X153622000Y-109946000D01*
X154689885Y-109946000D01*
X154705124Y-109941525D01*
X154706329Y-109940135D01*
X154708000Y-109932452D01*
X154708000Y-109904562D01*
X154707663Y-109898047D01*
X154698106Y-109805943D01*
X154695212Y-109792544D01*
X154645619Y-109643893D01*
X154639445Y-109630714D01*
X154557212Y-109497827D01*
X154548176Y-109486426D01*
X154437571Y-109376014D01*
X154426160Y-109367002D01*
X154293116Y-109284993D01*
X154290474Y-109283761D01*
X154288972Y-109282439D01*
X154286888Y-109281154D01*
X154287108Y-109280797D01*
X154237189Y-109236843D01*
X154217729Y-109168566D01*
X154238272Y-109100606D01*
X154278140Y-109067556D01*
X154275741Y-109063966D01*
X154308000Y-109042412D01*
X154375753Y-109021198D01*
X154448000Y-109042412D01*
X154469939Y-109057071D01*
X154469944Y-109057073D01*
X154480260Y-109063966D01*
X154578000Y-109083408D01*
X154675740Y-109063966D01*
X154686056Y-109057073D01*
X154686061Y-109057071D01*
X154708000Y-109042412D01*
X154775753Y-109021198D01*
X154848000Y-109042412D01*
X154869939Y-109057071D01*
X154869944Y-109057073D01*
X154880260Y-109063966D01*
X154978000Y-109083408D01*
X155075740Y-109063966D01*
X155086056Y-109057073D01*
X155086061Y-109057071D01*
X155108000Y-109042412D01*
X155175753Y-109021198D01*
X155248000Y-109042412D01*
X155269939Y-109057071D01*
X155269944Y-109057073D01*
X155280260Y-109063966D01*
X155378000Y-109083408D01*
X155475740Y-109063966D01*
X155486056Y-109057073D01*
X155486061Y-109057071D01*
X155508000Y-109042412D01*
X155575753Y-109021198D01*
X155648000Y-109042412D01*
X155669939Y-109057071D01*
X155669944Y-109057073D01*
X155680260Y-109063966D01*
X155778000Y-109083408D01*
X155875740Y-109063966D01*
X155886056Y-109057073D01*
X155886061Y-109057071D01*
X155908000Y-109042412D01*
X155975753Y-109021198D01*
X156048000Y-109042412D01*
X156069939Y-109057071D01*
X156069944Y-109057073D01*
X156080260Y-109063966D01*
X156178000Y-109083408D01*
X156275740Y-109063966D01*
X156286056Y-109057073D01*
X156286061Y-109057071D01*
X156308000Y-109042412D01*
X156375753Y-109021198D01*
X156448000Y-109042412D01*
X156469939Y-109057071D01*
X156469944Y-109057073D01*
X156480260Y-109063966D01*
X156578000Y-109083408D01*
X156675740Y-109063966D01*
X156758601Y-109008601D01*
X156813966Y-108925740D01*
X156828500Y-108852674D01*
X156828500Y-108303326D01*
X156813966Y-108230260D01*
X156803489Y-108214579D01*
X156765493Y-108157714D01*
X156758601Y-108147399D01*
X156739269Y-108134482D01*
X156693741Y-108080005D01*
X156684892Y-108009562D01*
X156715533Y-107945518D01*
X156724671Y-107936620D01*
X156737791Y-107923500D01*
X156738676Y-107924385D01*
X156793149Y-107888693D01*
X156864143Y-107888064D01*
X156924207Y-107925918D01*
X156934482Y-107939269D01*
X156947399Y-107958601D01*
X156957714Y-107965493D01*
X157016852Y-108005007D01*
X157030260Y-108013966D01*
X157103326Y-108028500D01*
X157652674Y-108028500D01*
X157725740Y-108013966D01*
X157729391Y-108011526D01*
X157769744Y-108003500D01*
X157842738Y-108003500D01*
X157849332Y-108003673D01*
X157874782Y-108005007D01*
X157874783Y-108005007D01*
X157888010Y-108005700D01*
X157906930Y-107998437D01*
X157925888Y-107992821D01*
X157932762Y-107991360D01*
X157945714Y-107988607D01*
X157956427Y-107980824D01*
X157960975Y-107978799D01*
X157965144Y-107976092D01*
X157977506Y-107971346D01*
X157991838Y-107957014D01*
X158006873Y-107944173D01*
X158012555Y-107940045D01*
X158012557Y-107940043D01*
X158023269Y-107932260D01*
X158029890Y-107920793D01*
X158038752Y-107910950D01*
X158039105Y-107911268D01*
X158044121Y-107904731D01*
X158842056Y-107106796D01*
X159641208Y-106307643D01*
X159703520Y-106273618D01*
X159774335Y-106278682D01*
G37*
%TD.AperFunction*%
%TA.AperFunction,Conductor*%
G36*
X162544913Y-100253781D02*
G01*
X162599164Y-100299578D01*
X162620044Y-100367435D01*
X162618469Y-100388982D01*
X162605947Y-100467160D01*
X162605593Y-100469368D01*
X162605049Y-100472511D01*
X162602308Y-100487227D01*
X162600982Y-100493463D01*
X162597501Y-100508018D01*
X162596720Y-100511109D01*
X162317589Y-101560163D01*
X162217926Y-101934727D01*
X162217429Y-101936593D01*
X162216582Y-101939624D01*
X162212358Y-101954021D01*
X162210415Y-101960071D01*
X162205482Y-101974195D01*
X162204395Y-101977187D01*
X161682984Y-103357061D01*
X161681820Y-103360028D01*
X161676185Y-103373871D01*
X161673629Y-103379719D01*
X161667311Y-103393236D01*
X161665927Y-103396104D01*
X161007712Y-104716279D01*
X161006254Y-104719112D01*
X160999266Y-104732283D01*
X160996138Y-104737834D01*
X160989171Y-104749500D01*
X160988486Y-104750646D01*
X160986821Y-104753355D01*
X160433819Y-105628118D01*
X160380513Y-105675009D01*
X160310316Y-105685637D01*
X160245517Y-105656626D01*
X160206689Y-105597188D01*
X160202590Y-105578652D01*
X160189177Y-105484996D01*
X160185323Y-105458082D01*
X160179236Y-105444693D01*
X160159597Y-105401500D01*
X160125984Y-105327572D01*
X160098562Y-105295747D01*
X160038260Y-105225763D01*
X160038257Y-105225760D01*
X160032400Y-105218963D01*
X159912095Y-105140985D01*
X159774739Y-105099907D01*
X159765763Y-105099852D01*
X159765762Y-105099852D01*
X159705555Y-105099484D01*
X159631376Y-105099031D01*
X159493529Y-105138428D01*
X159372280Y-105214930D01*
X159366338Y-105221658D01*
X159366337Y-105221659D01*
X159348878Y-105241428D01*
X159277377Y-105322388D01*
X159245633Y-105389999D01*
X159244239Y-105392969D01*
X159197182Y-105446131D01*
X159128854Y-105465413D01*
X159060948Y-105444693D01*
X159045497Y-105431124D01*
X159045025Y-105431665D01*
X159038260Y-105425764D01*
X159032400Y-105418963D01*
X158912095Y-105340985D01*
X158807620Y-105309741D01*
X158748088Y-105271060D01*
X158718917Y-105206332D01*
X158729372Y-105136110D01*
X158754628Y-105099929D01*
X161152928Y-102701628D01*
X161157712Y-102697087D01*
X161173630Y-102682754D01*
X161186509Y-102671158D01*
X161194755Y-102652636D01*
X161204183Y-102635273D01*
X161215226Y-102618269D01*
X161217298Y-102605188D01*
X161219080Y-102600545D01*
X161220114Y-102595679D01*
X161225500Y-102583583D01*
X161225500Y-102563317D01*
X161227051Y-102543606D01*
X161228151Y-102536662D01*
X161230222Y-102523586D01*
X161226795Y-102510797D01*
X161226102Y-102497569D01*
X161226576Y-102497544D01*
X161225500Y-102489374D01*
X161225500Y-101447762D01*
X161245502Y-101379641D01*
X161299158Y-101333148D01*
X161318889Y-101326055D01*
X161327640Y-101323710D01*
X161343691Y-101319409D01*
X161437720Y-101253569D01*
X161466828Y-101215635D01*
X161487146Y-101180444D01*
X161598291Y-100987934D01*
X161729966Y-100759865D01*
X161732190Y-100754498D01*
X161744577Y-100724593D01*
X161748265Y-100715690D01*
X161758270Y-100601338D01*
X161755416Y-100590686D01*
X161748443Y-100564662D01*
X161750131Y-100493685D01*
X161789925Y-100434889D01*
X161855189Y-100406940D01*
X161895377Y-100408600D01*
X161908804Y-100411344D01*
X161923284Y-100412585D01*
X162079499Y-100407813D01*
X162093881Y-100405689D01*
X162244805Y-100365107D01*
X162258320Y-100359729D01*
X162395859Y-100285517D01*
X162407765Y-100277180D01*
X162410319Y-100274909D01*
X162412439Y-100273908D01*
X162413765Y-100272979D01*
X162413924Y-100273206D01*
X162474514Y-100244585D01*
X162544913Y-100253781D01*
G37*
%TD.AperFunction*%
%TA.AperFunction,Conductor*%
G36*
X157101652Y-105228167D02*
G01*
X157103326Y-105228500D01*
X157402000Y-105228500D01*
X157470121Y-105248502D01*
X157516614Y-105302158D01*
X157528000Y-105354500D01*
X157528000Y-105401500D01*
X157507998Y-105469621D01*
X157454342Y-105516114D01*
X157402000Y-105527500D01*
X157103326Y-105527500D01*
X157101652Y-105527833D01*
X157098248Y-105528000D01*
X156556000Y-105528000D01*
X156487879Y-105507998D01*
X156441386Y-105454342D01*
X156430000Y-105402000D01*
X156430000Y-105354000D01*
X156450002Y-105285879D01*
X156503658Y-105239386D01*
X156556000Y-105228000D01*
X157098248Y-105228000D01*
X157101652Y-105228167D01*
G37*
%TD.AperFunction*%
%TA.AperFunction,Conductor*%
G36*
X149705275Y-98245502D02*
G01*
X149751768Y-98299158D01*
X149761872Y-98369432D01*
X149737980Y-98427065D01*
X149683214Y-98500139D01*
X149674676Y-98515734D01*
X149629522Y-98636182D01*
X149625895Y-98651437D01*
X149620369Y-98702302D01*
X149620000Y-98709116D01*
X149620000Y-98981673D01*
X149624475Y-98996912D01*
X149625865Y-98998117D01*
X149633548Y-98999788D01*
X151106000Y-98999788D01*
X151174121Y-99019790D01*
X151220614Y-99073446D01*
X151232000Y-99125788D01*
X151232000Y-99381788D01*
X151211998Y-99449909D01*
X151158342Y-99496402D01*
X151106000Y-99507788D01*
X149638116Y-99507788D01*
X149622877Y-99512263D01*
X149621672Y-99513653D01*
X149620001Y-99521336D01*
X149620001Y-99798457D01*
X149620371Y-99805278D01*
X149625895Y-99856140D01*
X149629521Y-99871392D01*
X149674676Y-99991842D01*
X149683214Y-100007437D01*
X149759715Y-100109512D01*
X149772276Y-100122073D01*
X149874351Y-100198574D01*
X149889946Y-100207112D01*
X150010394Y-100252266D01*
X150025649Y-100255893D01*
X150076514Y-100261419D01*
X150083328Y-100261788D01*
X150797670Y-100261788D01*
X150865791Y-100281790D01*
X150912284Y-100335446D01*
X150922388Y-100405720D01*
X150911866Y-100441036D01*
X150888866Y-100490359D01*
X150880632Y-100508018D01*
X150868121Y-100534847D01*
X150866863Y-100544403D01*
X150866862Y-100544406D01*
X150864196Y-100564662D01*
X150862000Y-100581341D01*
X150862000Y-100648500D01*
X150841998Y-100716621D01*
X150788342Y-100763114D01*
X150736000Y-100774500D01*
X149810762Y-100774500D01*
X149742641Y-100754498D01*
X149696148Y-100700842D01*
X149685841Y-100664949D01*
X149681879Y-100634847D01*
X149677807Y-100626115D01*
X149677806Y-100626111D01*
X149638959Y-100542804D01*
X149638958Y-100542803D01*
X149634299Y-100532811D01*
X149554689Y-100453201D01*
X149542588Y-100447558D01*
X149461391Y-100409695D01*
X149461388Y-100409694D01*
X149452653Y-100405621D01*
X149443097Y-100404363D01*
X149443094Y-100404362D01*
X149410246Y-100400038D01*
X149410245Y-100400038D01*
X149406159Y-100399500D01*
X149150094Y-100399500D01*
X148893842Y-100399501D01*
X148847347Y-100405621D01*
X148838615Y-100409693D01*
X148838611Y-100409694D01*
X148757412Y-100447558D01*
X148745311Y-100453201D01*
X148665701Y-100532811D01*
X148661042Y-100542803D01*
X148661041Y-100542804D01*
X148622195Y-100626109D01*
X148622194Y-100626112D01*
X148618121Y-100634847D01*
X148616863Y-100644403D01*
X148616862Y-100644406D01*
X148612539Y-100677249D01*
X148612000Y-100681341D01*
X148612001Y-101518658D01*
X148618121Y-101565153D01*
X148622193Y-101573885D01*
X148622194Y-101573889D01*
X148656193Y-101646799D01*
X148665701Y-101667189D01*
X148745311Y-101746799D01*
X148755303Y-101751458D01*
X148755304Y-101751459D01*
X148838609Y-101790305D01*
X148838612Y-101790306D01*
X148847347Y-101794379D01*
X148856903Y-101795637D01*
X148856906Y-101795638D01*
X148889739Y-101799960D01*
X148893841Y-101800500D01*
X149149906Y-101800500D01*
X149406158Y-101800499D01*
X149452653Y-101794379D01*
X149461385Y-101790307D01*
X149461389Y-101790306D01*
X149544696Y-101751459D01*
X149544697Y-101751458D01*
X149554689Y-101746799D01*
X149634299Y-101667189D01*
X149643807Y-101646799D01*
X149677805Y-101573891D01*
X149677806Y-101573888D01*
X149681879Y-101565153D01*
X149683137Y-101555597D01*
X149683138Y-101555594D01*
X149687462Y-101522746D01*
X149687462Y-101522745D01*
X149688000Y-101518659D01*
X149688000Y-101351500D01*
X149708002Y-101283379D01*
X149761658Y-101236886D01*
X149814000Y-101225500D01*
X150736001Y-101225500D01*
X150804122Y-101245502D01*
X150850615Y-101299158D01*
X150862001Y-101351500D01*
X150862001Y-101418658D01*
X150868121Y-101465153D01*
X150872193Y-101473885D01*
X150872194Y-101473889D01*
X150911041Y-101557196D01*
X150915701Y-101567189D01*
X150995311Y-101646799D01*
X151005303Y-101651458D01*
X151005304Y-101651459D01*
X151088609Y-101690305D01*
X151088612Y-101690306D01*
X151097347Y-101694379D01*
X151106903Y-101695637D01*
X151106906Y-101695638D01*
X151139739Y-101699960D01*
X151143841Y-101700500D01*
X151399906Y-101700500D01*
X151656158Y-101700499D01*
X151702653Y-101694379D01*
X151711385Y-101690307D01*
X151711389Y-101690306D01*
X151794696Y-101651459D01*
X151794697Y-101651458D01*
X151804689Y-101646799D01*
X151884299Y-101567189D01*
X151888959Y-101557196D01*
X151927805Y-101473891D01*
X151927806Y-101473888D01*
X151931879Y-101465153D01*
X151933137Y-101455597D01*
X151933138Y-101455594D01*
X151937462Y-101422746D01*
X151937462Y-101422745D01*
X151938000Y-101418659D01*
X151937999Y-100581342D01*
X151931879Y-100534847D01*
X151927807Y-100526115D01*
X151927806Y-100526111D01*
X151891634Y-100448541D01*
X151884299Y-100432811D01*
X151885126Y-100432425D01*
X151865628Y-100374611D01*
X151882913Y-100305751D01*
X151934682Y-100257166D01*
X151947299Y-100251632D01*
X152066054Y-100207112D01*
X152081649Y-100198574D01*
X152150935Y-100146647D01*
X152217442Y-100121799D01*
X152286824Y-100136852D01*
X152337054Y-100187026D01*
X152352500Y-100247473D01*
X152352500Y-101953771D01*
X152332498Y-102021892D01*
X152278842Y-102068385D01*
X152201919Y-102077350D01*
X152178000Y-102072592D01*
X152080260Y-102092034D01*
X151997399Y-102147399D01*
X151942034Y-102230260D01*
X151939613Y-102242429D01*
X151939613Y-102242430D01*
X151937892Y-102251083D01*
X151904984Y-102313992D01*
X151843288Y-102349123D01*
X151814313Y-102352500D01*
X149331189Y-102352500D01*
X149324595Y-102352327D01*
X149299163Y-102350994D01*
X149299162Y-102350994D01*
X149285936Y-102350301D01*
X149273573Y-102355047D01*
X149273572Y-102355047D01*
X149267018Y-102357563D01*
X149248060Y-102363179D01*
X149228232Y-102367393D01*
X149217520Y-102375175D01*
X149212979Y-102377197D01*
X149208803Y-102379909D01*
X149196440Y-102384655D01*
X149182112Y-102398983D01*
X149167079Y-102411823D01*
X149150677Y-102423740D01*
X149144057Y-102435206D01*
X149135193Y-102445051D01*
X149134840Y-102444733D01*
X149129824Y-102451270D01*
X149036476Y-102544618D01*
X148974164Y-102578644D01*
X148903349Y-102573579D01*
X148894131Y-102569718D01*
X148819282Y-102534815D01*
X148819281Y-102534815D01*
X148810545Y-102530741D01*
X148763139Y-102524500D01*
X148743395Y-102524500D01*
X148545596Y-102524501D01*
X148477476Y-102504499D01*
X148456501Y-102487596D01*
X148015977Y-102047072D01*
X148011436Y-102042288D01*
X147998568Y-102027997D01*
X147985507Y-102013491D01*
X147966985Y-102005245D01*
X147949622Y-101995817D01*
X147932618Y-101984774D01*
X147919537Y-101982702D01*
X147914894Y-101980920D01*
X147910028Y-101979886D01*
X147897932Y-101974500D01*
X147877666Y-101974500D01*
X147857957Y-101972949D01*
X147837935Y-101969778D01*
X147825146Y-101973205D01*
X147811918Y-101973898D01*
X147811893Y-101973424D01*
X147803723Y-101974500D01*
X147500782Y-101974500D01*
X147432661Y-101954498D01*
X147386168Y-101900842D01*
X147376064Y-101830568D01*
X147405558Y-101765988D01*
X147423777Y-101749556D01*
X147429689Y-101746799D01*
X147509299Y-101667189D01*
X147518807Y-101646799D01*
X147552805Y-101573891D01*
X147552806Y-101573888D01*
X147556879Y-101565153D01*
X147558137Y-101555597D01*
X147558138Y-101555594D01*
X147562462Y-101522746D01*
X147562462Y-101522745D01*
X147563000Y-101518659D01*
X147562999Y-100681342D01*
X147556879Y-100634847D01*
X147552807Y-100626115D01*
X147552806Y-100626111D01*
X147513959Y-100542804D01*
X147513958Y-100542803D01*
X147509299Y-100532811D01*
X147429689Y-100453201D01*
X147407393Y-100442804D01*
X147327653Y-100405621D01*
X147328805Y-100403150D01*
X147281446Y-100372851D01*
X147251820Y-100308331D01*
X147250500Y-100290143D01*
X147250500Y-99920596D01*
X147270502Y-99852475D01*
X147287405Y-99831501D01*
X148856500Y-98262405D01*
X148918812Y-98228380D01*
X148945595Y-98225500D01*
X149637154Y-98225500D01*
X149705275Y-98245502D01*
G37*
%TD.AperFunction*%
%TA.AperFunction,Conductor*%
G36*
X158275846Y-97270350D02*
G01*
X158308661Y-97293987D01*
X158335421Y-97320747D01*
X158345413Y-97325406D01*
X158345414Y-97325407D01*
X158430718Y-97365185D01*
X158439455Y-97369259D01*
X158486861Y-97375500D01*
X158499141Y-97375500D01*
X158748501Y-97375499D01*
X158816620Y-97395501D01*
X158863113Y-97449156D01*
X158874500Y-97501499D01*
X158874500Y-97723501D01*
X158854498Y-97791622D01*
X158800842Y-97838115D01*
X158748500Y-97849501D01*
X158440102Y-97849501D01*
X158427350Y-97852037D01*
X158422961Y-97852910D01*
X158410787Y-97855331D01*
X158377543Y-97877543D01*
X158355331Y-97910787D01*
X158349500Y-97940101D01*
X158349501Y-99059898D01*
X158355331Y-99089213D01*
X158377543Y-99122457D01*
X158387858Y-99129349D01*
X158396638Y-99138129D01*
X158393556Y-99141211D01*
X158423847Y-99177466D01*
X158432683Y-99247911D01*
X158402032Y-99311950D01*
X158337450Y-99350320D01*
X158332393Y-99351522D01*
X158211946Y-99396676D01*
X158196351Y-99405214D01*
X158094276Y-99481715D01*
X158081715Y-99494276D01*
X158005214Y-99596351D01*
X157996676Y-99611946D01*
X157951522Y-99732394D01*
X157947895Y-99747649D01*
X157942369Y-99798514D01*
X157942000Y-99805328D01*
X157942000Y-100127885D01*
X157946475Y-100143124D01*
X157947865Y-100144329D01*
X157955548Y-100146000D01*
X159228000Y-100146000D01*
X159296121Y-100166002D01*
X159342614Y-100219658D01*
X159354000Y-100272000D01*
X159354000Y-101457999D01*
X159352733Y-101457999D01*
X159352732Y-101506570D01*
X159320932Y-101560163D01*
X159089095Y-101792000D01*
X159026783Y-101826026D01*
X158955968Y-101820961D01*
X158910905Y-101792000D01*
X158784034Y-101665129D01*
X158750008Y-101602817D01*
X158755073Y-101532002D01*
X158797620Y-101475166D01*
X158837632Y-101455138D01*
X158843124Y-101453526D01*
X158844329Y-101452135D01*
X158846000Y-101444452D01*
X158846000Y-100672115D01*
X158841525Y-100656876D01*
X158840135Y-100655671D01*
X158832452Y-100654000D01*
X157960116Y-100654000D01*
X157928958Y-100663149D01*
X157896018Y-100684319D01*
X157825021Y-100684320D01*
X157771423Y-100652518D01*
X157587405Y-100468500D01*
X157553379Y-100406188D01*
X157550500Y-100379405D01*
X157550499Y-99846295D01*
X157550499Y-99840102D01*
X157544669Y-99810787D01*
X157522457Y-99777543D01*
X157512142Y-99770651D01*
X157503362Y-99761871D01*
X157506444Y-99758789D01*
X157476153Y-99722534D01*
X157467317Y-99652089D01*
X157497968Y-99588050D01*
X157562550Y-99549680D01*
X157567607Y-99548478D01*
X157688054Y-99503324D01*
X157703649Y-99494786D01*
X157805724Y-99418285D01*
X157818285Y-99405724D01*
X157894786Y-99303649D01*
X157903324Y-99288054D01*
X157948478Y-99167606D01*
X157952105Y-99152351D01*
X157957631Y-99101486D01*
X157958000Y-99094672D01*
X157958000Y-98772115D01*
X157953525Y-98756876D01*
X157952135Y-98755671D01*
X157944452Y-98754000D01*
X156672000Y-98754000D01*
X156603879Y-98733998D01*
X156557386Y-98680342D01*
X156546000Y-98628000D01*
X156546000Y-98372000D01*
X156566002Y-98303879D01*
X156619658Y-98257386D01*
X156672000Y-98246000D01*
X157939884Y-98246000D01*
X157955123Y-98241525D01*
X157956328Y-98240135D01*
X157957999Y-98232452D01*
X157957999Y-97905331D01*
X157957629Y-97898510D01*
X157952105Y-97847648D01*
X157948479Y-97832396D01*
X157903554Y-97712559D01*
X157898371Y-97641751D01*
X157932362Y-97579312D01*
X157998985Y-97512572D01*
X158007998Y-97501160D01*
X158090004Y-97368120D01*
X158096151Y-97354939D01*
X158099972Y-97343418D01*
X158140401Y-97285057D01*
X158205964Y-97257818D01*
X158275846Y-97270350D01*
G37*
%TD.AperFunction*%
%TD*%
M02*
